<?xml version="1.0" encoding="utf-8"?>
<!-- Generator: Adobe Illustrator 24.1.1, SVG Export Plug-In . SVG Version: 6.00 Build 0)  -->
<svg version="1.1" id="图层_1" xmlns="http://www.w3.org/2000/svg" xmlns:xlink="http://www.w3.org/1999/xlink" x="0px" y="0px"
	 viewBox="0 0 1366 768" style="enable-background:new 0 0 1366 768;" xml:space="preserve">
<style type="text/css">
	.st0{fill:#FFFFFF;}
</style>
<path class="st0" d="M0,0h1366v768H0V0z M912.3,372.8h103.7v7.6l0.1,377.8c0,7.1,0,7.1,7.5,7.1h181.1h145.1h6.3V178h-162.7v-19.4
	h-52v19.7h-125.4V196H834.8c-0.7-4.8-0.7-9.4-2.1-13.7c-4.3-13.3-14.8-19.8-31-19.8c-86.4,0-172.8,0-259.1-0.1
	c-4.6-0.1-9.2-1.1-13.4-3.1c-33.7-16.3-67.2-32.9-100.8-49.5c-11.3-5.6-22.4-6-32.6,1.9c-3.3,2.5-5.4,2.2-8.6,0.6
	C319,78.6,250.7,44.9,182.4,11.3c-5.9-2.9-11.8-5.8-18-8.8c-10,19-19.7,37.3-29.4,55.5c-23.3-7.7-40-1.2-51.1,19.8
	c-13.8,26.2-27.6,52.4-41.4,78.7c-0.3,0.8-0.6,1.5-0.9,2.4l32,15.9l-72.2,137c2.2,1.2,3.5,2,5,2.7c17.9,8.8,35.8,17.7,53.8,26.5
	c80.9,39.9,161.7,79.7,242.6,119.5c34,16.7,67.1,35.4,103.8,46.8c14.4,4.5,28.4,10.8,43.1,14.2c13.5,3.1,27.6,3.6,41.5,5.1
	c12.4,1.4,24.9,3.8,37.3,3.8c125.8,0.3,251.7,0.3,377.5,0.2c1.9,0,3.9-0.2,6.3-0.4L912.3,372.8z"/>
<path d="M912.3,372.8V530c-2.4,0.2-4.3,0.4-6.3,0.4c-125.8,0-251.7,0-377.5-0.2c-12.4,0-24.9-2.4-37.3-3.8c-13.9-1.5-28-2-41.5-5.1
	c-14.7-3.4-28.7-9.7-43.1-14.2c-36.6-11.4-69.7-30.1-103.8-46.8c-81-39.6-161.9-79.5-242.7-119.5c-17.9-8.8-35.8-17.7-53.8-26.5
	c-1.4-0.7-2.8-1.5-5-2.7l72.2-137l-32-15.9c0.2-0.8,0.5-1.6,0.9-2.4c13.8-26.2,27.6-52.4,41.5-78.6c11.1-21,27.8-27.5,51.1-19.8
	c9.7-18.3,19.4-36.6,29.4-55.5c6.2,3,12.1,5.9,18,8.8C250.7,45,319,78.6,387.2,112.3c3.2,1.6,5.4,1.9,8.6-0.6
	c10.2-7.9,21.3-7.5,32.6-1.9c33.6,16.6,67.1,33.2,100.7,49.5c4.2,2,8.8,3.1,13.4,3.1c86.4,0.2,172.8,0.2,259.1,0.1
	c16.2,0,26.7,6.5,31,19.8c1.4,4.3,1.4,8.9,2.1,13.7h181.1v-17.6h125.4v-19.7h52V178H1356v587.3h-6.3h-145.1h-181.2
	c-7.5,0-7.5,0-7.5-7.1l-0.1-377.8v-7.6L912.3,372.8z M1143.4,179.6H1018c0,4.6-0.4,8.6,0.1,12.6c0.6,5.1-1.7,6.1-6.5,6.1
	c-57.7-0.1-115.3-0.2-172.9-0.1c-1.9,0-3.9-0.3-6.2-0.4c0-2.6,0-4.7,0-6.8c-0.1-12.4-7.3-22.1-19.5-25.4c-4.3-1.1-9-1-13.5-1
	c-86-0.1-172-0.1-258-0.1c-3.6,0-7.1-0.8-10.3-2.3c-13.2-6.2-26.2-12.9-39.2-19.3c-21.5-10.6-43-21.2-64.5-31.7
	c-11.6-5.7-22.6-5.2-32.8,3.3c-1.1,0.9-4.1,1-5.6,0.3C331.3,86.4,273.6,58,216,29.5c-16.9-8.3-33.8-16.6-50.8-24.9
	c-0.7,1.2-1.3,2.1-1.8,3c-8.3,15.6-16.7,31.1-24.7,46.8c-2.2,4.3-4,5.6-9,3.8c-4.4-1.5-9.1-2.1-13.8-1.7c-14.3,1.1-23.9,8.9-30.3,21
	c-13.2,25.4-26.6,50.6-40,75.9c-0.8,1.5-1.4,3-2.2,4.7L75.7,174L3.5,311.2c23.9,11.8,47.3,23.4,70.7,34.9
	c69.6,34.3,139.2,68.6,208.9,102.8c47.4,23.3,93.8,48.8,145,64.1c8.1,2.4,16,5.5,24.2,7.1c9.9,1.9,20.1,2.7,30.2,3.8
	c15.1,1.6,30.3,4.4,45.4,4.4c125.5,0.4,251,0.2,376.4,0.2h6.1V377.9c0-7.3,0-7.3,7.8-7.3h92.7c7.2,0,7.2,0,7.2,6.8v386.1h336.4v-584
	h-163v-19.6h-48L1143.4,179.6z"/>
<path class="st0" d="M1143.4,179.6v-19.8h48v19.6h162.9v584H1018V377.4c0-6.8,0-6.8-7.2-6.8h-92.7c-7.8,0-7.8,0-7.8,7.3v150.7h-6.1
	c-125.5,0-251,0.2-376.4-0.2c-15.1,0-30.3-2.8-45.4-4.4c-10.1-1.1-20.3-1.9-30.2-3.8c-8.2-1.6-16.2-4.7-24.2-7.1
	c-51.2-15.3-97.6-40.8-145-64.1c-69.7-34.2-139.3-68.4-208.9-102.8C50.8,334.5,27.4,323,3.5,311.2L75.7,174l-32.1-15.8
	c0.8-1.7,1.5-3.2,2.2-4.7c13.3-25.3,26.7-50.6,40-75.9c6.4-12.2,15.9-20,30.3-21c4.7-0.4,9.4,0.2,13.8,1.7c5,1.8,6.8,0.5,9-3.8
	c8-15.7,16.4-31.3,24.7-46.8c0.5-0.9,1-1.8,1.8-3c17,8.4,33.9,16.6,50.8,24.9C273.7,58,331.3,86.3,389,114.7
	c1.5,0.7,4.4,0.7,5.6-0.3c10.2-8.5,21.2-9,32.8-3.3c21.5,10.5,43,21.1,64.5,31.7c13.1,6.4,26.1,13.1,39.2,19.3
	c3.2,1.5,6.8,2.3,10.3,2.3c86,0.1,172,0.2,258,0.1c4.5,0,9.2-0.1,13.5,1c12.3,3.3,19.4,13,19.5,25.4c0,2.1,0,4.2,0,6.8
	c2.4,0.2,4.3,0.4,6.2,0.4c57.6,0,115.3,0,172.9,0.1c4.8,0,7.1-1,6.5-6.1c-0.5-4-0.1-8-0.1-12.6L1143.4,179.6z M320.2,214.8
	L320.2,214.8l13.6,8.5c3.4-6.5,6.4-12.1,9.5-18.1l-15-7.3c-2.9,5.5-5.5,10.5-8.1,15.5C319.9,213.8,320.2,214.4,320.2,214.8
	L320.2,214.8z M306,211.3l-9.4,14.7l25.8,12.7c1.1-1.9,1.9-3.7,3.2-5c2.6-2.9,5.5-5.5,9.2-9.1L306,211.3L306,211.3z M829.3,413.7
	l-0.2-0.2l16,1.6v-45.6h-9.3c-0.4,2.3-0.7,4.1-1,5.7c-2.8,1.1-7-0.9-6.8,4.3c0.3,10.5,0,21,0.1,31.5
	C828.2,412,828.9,412.9,829.3,413.7z M1179.5,383.1c-1.6-0.4-3.2-1.2-4.8-1.2c-46.6-0.1-93.2-0.1-139.8,0c-1.6,0-3.2,0.8-4.8,1.1
	l-8.7,4.7c0.1-0.5-0.1,0.2-0.1,0.8c0,29.4,0,58.7-0.1,88.1c0,3.4,1.2,4.9,4.8,4.6c1,0,2,0.1,2.9,0.3c-0.1,1.8-0.3,3.2-0.3,4.5
	c-3,1.1-7.4-1.2-7.3,4.4c0.2,29.4,0,58.7,0.1,88.1c0,1.2,0.7,3.2,1.5,3.4c3.7,1,7.6,2.3,11.4,2.2c50.2-1,100.4,2.5,150.5-1.7
	c4.5-0.4,5.8-1.4,5.8-5.8c-0.2-27.3-0.1-54.5-0.1-81.8c0-8.2,0-8.2-8.3-8.6c-0.4-0.1-0.8-0.3-1.2-0.5v-4.5c1.2-0.1,2.3-0.2,3.5-0.1
	c5.1,0.7,6.2-1.7,6-6.1c-0.3-5.6-0.1-11.3-0.1-16.9V434h0.8v188.3c-0.8-8.9-0.8-17.9-0.8-26.8c0-7.3,0-7.3-7.3-7.9
	c-1.2-0.2-2.4-0.5-3.6-0.9c-1.6-0.4-3.2-1.1-4.8-1.1c-46.6-0.1-93.2-0.1-139.8,0c-1.6,0-3.2,0.7-4.8,1.1c-0.7,0.3-1.3,0.8-1.9,0.8
	c-6.8-1-7,2.9-7,7.9c0.2,27.1,0.1,54.2,0.1,81.3v6.2c7.2,0.4,13.8,0.6,20.4,1.1c1.6,0.1,3.1,1,4.6,1.5c-1.6,0.6-3.2,1.7-4.8,1.8
	c-6.6,0.6-13.2,1-20.2,1.5c0,22.6,0,44.5,0.1,66.5c0,1,0.8,2.7,1.6,2.9c3.7,1.1,7.5,2.5,11.3,2.5c17.6,0.3,35.3,0,52.9,0.2
	c4.1,0,5.3-1.4,5.3-5.2c-0.2-13.7-0.1-27.4-0.1-41.2v-27.1c-4,0-7.6,0.2-11.2-0.1c-1.9-0.1-3.8-1-5.7-1.5c1.8-0.6,3.6-1.6,5.4-1.7
	c4.8-0.2,9.7-0.1,15-0.1V668h6.3c26,0,52,0,78,0c10.9,0,10.4,1.4,10.2-9.3c0-0.7,0.1-1.3,0.3-2h0.8v26.6c0.7,0.2,1.4,0.3,2.1,0.6
	c1.4,0.6,2.8,1.2,4.2,1.9c-1.3,0.6-2.7,1.6-4,1.6c-6,0.2-12.1,0-18.1,0c-24.9,0-49.8,0.1-74.7-0.1c-4.2,0-5.6,1-5.6,5.3
	c0.2,20.8,0.2,41.5,0,62.3c0,4.6,1.3,6.1,6.1,6c24.4-0.2,48.7,0,73.1-0.2c4,0,7.9-1.9,11.9-1.9c3.6,0,7.2,1.8,10.8,1.9
	c8.3,0.3,16.7-0.1,25.1,0.2c4.8,0.2,6.3-1.3,6.2-6c-0.3-19.2-0.1-38.3-0.1-57.5c0-4.4,1.5-9.3-4-13l7.2-0.5v6.4
	c0,21.5,0.2,42.9-0.1,64.4c-0.1,5,1.7,6.2,6.6,6.2c30.4-0.2,60.7,0,91.1-0.2c7.2-0.1,14.3-1.3,21.5-1.9V689l-6.5-0.9v-4.9l6.4-0.9
	v-94.5l-6.7-0.7c0.1-1.7,0.2-3.2,0.4-5.2c7.2,2,6.9-2.3,6.8-6.7c-0.1-27.3-0.2-54.5,0-81.8c0-4.9-0.5-8.4-7.2-7.3
	c0.1-1.9,0.2-3.4,0.2-4.9l6.5-0.4v-94.2c-2.5-0.7-6.1-0.9-6.4-2.1c-1.2-3.6-3.7-2.8-6.1-2.8c-34.7,0-69.5,0-104.2,0h-5.8v-33.6h1.3
	v31.4h121.1v-94.5c-0.7-0.1-1.4-0.2-2.1-0.3c-38,0-76,0-114-0.1c-3.9,0-5,1.4-5,5c0.2,11,0.1,22.1,0.1,32h-97v-2h96.1v-36.1h7.4
	c33.8,0,67.6,0,101.5,0c1.8,0,3.9,0.3,5.3-0.5c2.6-1.4,4.9-3.4,8-5.7v-91.3c-16.6-5.3-33.1-2.6-49.4-2.8c-32-0.4-64-0.2-96,0
	c-5.2,0-10.4,1.8-15.6,1.9c-4.3,0.1-8.6-1.9-12.8-1.9c-45.3-0.2-90.6-0.1-135.8-0.1c-3.2,0-4.5,1-4.5,4.2c0.1,30.6,0.1,61.2,0,91.8
	c0,3.5,1.3,4.7,4.8,4.6c5.5-0.2,11.1,0,17.3,0v36.7h33.6c0,0.3,0,0.7-0.1,1h-41.9l-0.1-1l7.1-0.9c0-10.5,0.1-21-0.1-31.5
	c0-1-1.8-2.9-2.8-2.9c-7.7-0.3-15.5-0.1-23.8-0.1v19c-2.3,0-4.3-0.4-5.9,0.1c-1.3,0.5-3.2,1.9-3.3,3.1c-0.4,4.1-0.2,8.3-0.2,12.4
	l8,0.9c-0.1,0.4-0.1,0.7-0.2,1.1h-11.8c0.4-6.2,0.7-12.3,1.1-17.7c3.4-3,10.4,2.7,10.6-5.4c0.4-12.1,0.5-12.1-11.2-14.3v-82.3h-34.5
	v117.9l11.5,0.7l-0.1,1.1h-92.9v-7.8h8.1c0.3,2.2,0.7,4,1,6h6.7v-16.7h16.8v16.5h45v-118h-6.2c-18.4,0-36.7,0-55.1,0.1
	c-2.5,0-5,0.9-7.4,1.4c2.3,0.7,4.6,1.4,6.9,2.1c0.3,0.2,0.6,0.4,0.9,0.6V270h-6.1c4.8,0,5.3-2.9,5.2-6.7
	c-0.2-17.1-0.1-34.1-0.1-51.2c0-1.7-0.2-3.4-0.3-5.5h-15.3c-0.3-1.9-0.4-3.4-0.6-4.9h-11.5c0,23,0,45.6,0,68.3
	c-16.4,1.1-21.6,0.6-23.3-2.9h19v-65.4h-48.3c-6.4,6.7-4.5,14.5-4.5,21.8c-0.2,10.9-0.1,21.8,0,32.7c0,4.7-1.9,10.1,5.8,13
	c-7.5,0.4-5.7,5-5.8,8.6c-0.1,3,0,6,0,9l-2.2,0.2c-0.5-1.2-0.8-2.4-0.9-3.6c-0.1-4.6,0-9.1,0-13.7c0-18.8,0.1-37.6-0.1-56.4
	c0-2.4-1.5-4.8-2.3-7.2c-1.3-3.8,1-6.6,2.2-10c4-11.4-6.2-26.7-19.1-27.9c-10.9-1.1-22-0.2-33.8-0.2c0,9.5,0,18.6,0.1,27.7
	c0,0.9,1.3,1.7,1.5,2.6c0.5,2.7,0.8,5.5,0.7,8.3c-0.2,2-2.1,3.8-2.1,5.7c-0.2,29.2-0.1,58.4-0.1,87.6c0,1.7,0.3,3.4,0.5,5.6h26.6
	c0.2,0,0.3,0.2,0.6,0.4c0.2,1.3,0.5,2.8,0.8,4.7h21.5c8.6,0,10.6,2.6,8.4,11.1h-79v-10.3h0.7c0.3,2.7,0.5,5.4,0.8,8.4h15.2v-39
	h-15.3c-0.3,3.1-0.6,5.8-1,9.8c-0.3-0.8-0.6-1.6-0.8-2.4c0-4.7-0.1-9.5-0.1-14.3c0-8.3,0-8.3-7.5-9.9c5.9-0.2,11.9-0.4,17.8-0.2
	c3.9,0.1,5.1-1.4,5-5c-0.2-8.3-0.1-16.5,0-24.8v-27.6h-27v-1.6h27.9c0.6-12.7,1.2-24.8,1.8-37.2c-29.1,0-57,0-84.8,0
	c-0.7,0-1.4,0.7-2.1,1.1c-0.3,0.2-0.9,0.3-0.9,0.5c0,11.7,0,23.4,0,36H722l0,1.4h-36.8v50c0,7,0,7,7.1,7h28.4
	c-9.9,1-19.9,1.3-29.9,1c-4.3-0.1-5.7,1.3-5.6,5.5c0.2,15.1,0.1,30.3,0.1,45.4c0,1.3,0.3,2.7,0.5,4.6h36.3c0,0.4,0,0.7,0,1.1h-46.8
	c0.8-2.8,1.5-5.3,2.2-8c5.2,0.8,6.4-1.6,6.3-6.3c-0.3-12.3-0.1-24.6-0.1-36.9c0-1.7-0.3-3.3-0.5-5.4h-34.7v-1.1H683v-57.1h-39.9
	c0-0.5,0-1,0-1.5h33.4c0-11.8,0.1-22.7-0.2-33.6c0-1.3-2.1-3.5-3.3-3.5c-20.5-0.2-41.1-0.2-61.6,0c-1.2,0-3.5,1.8-3.5,2.8
	c-0.3,11.2-0.2,22.4-0.2,33.9l13.9,0.7c0,0.5,0,1.1,0,1.6h-13.9c0,16,0,31.3,0,46.6c0,12-1.3,10.3,10.7,10.4
	c0.7,0.1,1.5,0.2,2.2,0.4c-2.3,0.6-4.7,0.9-7.1,0.6c-4.5-0.5-6.1,1.2-5.9,5.7c0.3,7.9,0.1,15.8,0.1,23.7v26.1H649c0,0.5,0,1,0,1.5
	h-5.8c-38.4,0-76.7,0-115.1,0c-3.6,0.1-7.2,0.4-10.7,1c-4.9,0.7-8.5-2.9-7.5-7.6c0.5-1.5,1.1-3,1.8-4.5l-43.1-9.9
	c0,1.5-0.2,3.1-0.4,4.6c-1.1,4.5-6.5,6.1-10.3,3.5c-4.3-3-8.9-5.7-13.3-8.6l-3.1-2l0.5-0.8L453,303c4.2-2.4,7.4-4.1,10.5-5.9
	c1.2-0.7,2.3-1.6,3.4-2.4c0.2,1.4,0.4,2.7,0.7,4.5c14.6,3.3,29.3,6.8,44.1,10.1c8.8,2,9.6,2.6,10.8,10.2H606c2.1-16,0.8-52.4-1-54.3
	c0.6-2.6,1.4-4.5,1.4-6.3c0.1-28.7,0-57.3,0.1-86c0-3.7-0.8-5.3-5.1-5.2c-20.5,0.2-41.1,0.1-61.6,0c-3.1,0-5.1,0.7-6.4,3.6
	c-0.5,1.2-2,2-3,3c1.4-8.2,1.4-8.1-6.1-11.8c-10.4-5.1-20.7-10.1-31-15.2l-30.5-15l-16,30.4c1.2,0.8,1.9,1.3,2.6,1.7
	c20.2,10,40.4,19.9,60.5,29.9c4,2,7.1,1.5,10.2-2.1c0,5.3,3,9.9-0.1,15.4c-8.3,14.8-15.9,29.9-23.8,44.9c-1.8,3.3-3.5,6.7-5.9,11.4
	H578v1.5c-1.1,0.2-2.3,0.4-3.4,0.5c-27.1,0-54.2,0-81.3,0c-1.6,0-3.1-0.8-4.7-0.9c-1.6,0.1-3.2,0.4-4.8,0.8
	c-0.7,0.2-1.5,0.3-2.3,0.1c-0.4-0.2-0.5-1.3-0.4-2c0.2-1.2,0.5-2.3,0.9-3.4l7,2.7l28.6-54.3c-5.7-1.4-8.9-3.9-8-9.4
	c0.1-0.8-0.9-2.3-1.8-2.7c-3.9-2.1-8-4-12.4-6.1l-32.6,61.7l-20-10.1c0.3-0.7,0.6-1.4,0.9-2.1c6.4,0.6,11.3,5.8,18,7.2l30.7-58.1
	c-13-6.5-25.6-12.7-38.1-19c-5.5-2.7-10.5-1.6-13.3,3.8c-9,16.6-17.6,33.4-26.4,50l4.8,4.9l-7-0.5c-1.7,3.1-3,6.3-4.9,9
	c-1.6,2.2-1.2,6.6-6.5,6.5c0.7-1.8,1-2.9,1.6-4c6.2-11.7,12.8-23.2,18.4-35.1c6-12.9,15.6-24.3,17.9-38.9c0.4-2.4,4.7-4.1,6.1-6.6
	c5.2-9.2,9.9-18.6,15.1-28.6c-13.6-6.5-26.7-12.8-39.9-18.8s-34.6,9.3-33,22.7c0.2,2-1.8,4.6-3.2,6.5c-1.6,2.2-4.5,3.7-5.7,6
	c-6.4,11.6-12.8,23.2-18.6,35.1c-9.5,19.5-22.1,37.7-29,58.7l57.4,28.2l1.7-5.3l1.9,1.5c0.1,0.6,0.5,1.5,0.2,1.9
	c-3,4.4-0.1,6.1,3.6,7.7c3.5,1.5,6.8,3.4,10.2,5.2l-0.6,1.1l-121-59.7l0.5-1.1c2.5,1.2,5.1,2.2,7.5,3.6c2.9,1.7,4.5,0.9,5.8-1.9
	c2.1-4.4,4.5-8.7,6.9-13.3l13,6.1c3.4-6.3,6.6-12.2,10.1-18.5L344,204c10.2-19.3,20.1-38,29.9-56.8c1.6-3.2,4.7-6,3-10.5
	c-0.5-1.3,1.3-4.9,2.8-5.3c6.5-2.1,5.8-8.5,9.8-12.7l-65.2-32.1l-64.7,122.8l-2.2-1.4c1.3-1.4,2.5-2.9,3.5-4.5
	c11.5-21.7,22.8-43.4,34.5-65c2.1-4,1.4-5.8-2.6-7.5c-5.9-2.6-11.5-5.6-17.3-8.5l0.6-1.1l22.4,10.8c7.7-14.6,15.3-28.9,22.7-43.4
	c0.5-1-0.9-3.8-2.2-4.6c-5.6-3.2-11.5-5.9-17.3-8.8c-14.6-7.2-29.3-14.4-44.4-21.8c-2,3.8-3.9,7.1-5.5,10.6
	c-0.3,0.9-0.2,1.8,0.3,2.7c1.4,2.8-0.6,7.1-3.5,8c-1.2,0.3-2.7,0.9-3.2,1.8c-4.2,7.5-8.2,15.2-12.4,23.2l19.8,10.2l-0.6,1l-20-9.6
	c-2.8,5.2-5.7,9.9-7.8,14.8c-8.9,20.2-24.3,37.6-27.4,60.6l37.5,18.7l-0.6,1.1l-44.4-21.7c-1.3,2.3-2.4,4.2-3.6,6.1l-1-0.4
	c2-4.1,4.1-8.3,6.2-12.7l-12-6.3l0.6-0.9l15.1,7.2c0.7-0.6,1-0.8,1.2-1.1c15.8-30,31.6-60,47.3-90c0.6-1,0.9-2.2,0.8-3.4
	c-1.4-5.2-1-6,4.8-8.2c0.6-0.3,1.1-0.9,1.4-1.5c1.8-3.4,3.5-6.8,5.6-10.8L166.5,8.8c-2.4,4.6-4.5,8.5-6.5,12.4l4.4,2.9
	c-1.3,2.5-2.4,4.6-3.6,7l-5-1.8c-6.3,11.8-12.5,23.4-18.6,35c-18.7-9.3-35-4.5-43,6.9s-13.9,24.1-21,36.7l76,37.6l-0.6,1.2
	c-2.7-1.3-5.5-2.5-8-4c-3.4-2-5.3-1.3-7.1,2.2c-6.6,13.1-13.6,25.9-20.4,38.9c-0.9,1.7-1.1,3.7-1.6,5.7l-3.7-1.9
	c1.3-1.5,2.8-2.8,3.7-4.4c7-13.1,14-26.2,20.7-39.4c0.6-1.1-0.1-3.9-1.1-4.5c-6.9-3.8-14.1-7.1-21.2-10.6l-3.5,5l-7.1-3.6l2.7-6.4
	l-28.2-14c-0.8,0.8-1.4,1-1.6,1.5c-7.6,14.2-15.2,28.3-22.5,42.6c-0.5,1,1,3.8,2.3,4.5c6,3.3,12.2,6.2,18.3,9.3l19.1,9.4l-0.4,0.9
	l-4.4-1.1l-3.5,5.4l-4.8-1.7l-49.6,94.3l4.3,3.4c-1.3,2.4-2.4,4.5-3.5,6.8l-5.1-1.8L8.1,309.5c1.8,1.1,3.1,2,4.5,2.7
	c12.6,6.2,25.2,12.4,37.8,18.6c15.3,7.6,30.7,15.1,46,22.7c2.4,1.2,4.4,2.3,6.1-1.1c3.9-7.9,8.1-15.6,12.2-23.6l-6.1-4l3.9-6.9
	l6.4,2.6c0.8-1.4,1.5-2.4,2.1-3.4c14.8-28.1,29.6-56.3,44.5-84.3c2.4-4.5,4.7-8.4-2.8-9.9l2.7-6.5l-31-15.5
	c8.5,2.7,16.3,6.5,24.2,10.4c4,2,8.1,5.8,11.7-0.6l-2.2,5.2l6.1,3.4l-72.2,137l62.4,30.7c24-45.7,47.7-90.5,71.6-135.9l-38.1-18.9
	l0.6-1.2l77.4,38.1l-0.6,1.2l-38-18.6l-71.6,135.9l62.4,30.8l72.2-137.2l8.5,4.2l-5.1,7c-5.1-4.2-7-1.5-9.3,2.8
	c-10.4,20.2-21.1,40.3-31.8,60.5c-4.9,9.3-9.8,18.7-14.8,28.2l6.2,3.9l-3.8,7l-6.6-2.7l-14.1,26.7c1.9,1,3.2,1.7,4.4,2.3
	c20.2,10,40.4,19.8,60.5,29.9c4.4,2.2,6,1.4,8.1-2.7c18.8-36.1,37.9-72.2,56.9-108.3c3.9-7.4,7.8-14.8,11.8-22.5l-40.4-20l0.6-1.2
	l42.6,21c-1.5,1.9-3,3.5-4,5.3c-22.3,42.2-44.5,84.4-66.8,126.5c-2,3.9-1.4,5.7,2.6,7.6c16.7,8,33.3,16.3,50,24.4l9.3,4.5
	c4-7.5,7.8-14.5,11.2-21.6c0.7-1.9,0.7-4.1,0-6c-1.5-4.3,0.2-7.5,4.5-8.9c2.1-0.7,4.5-2.2,5.5-4c14.2-26.6,28.3-53.3,42.3-80.1
	c1.8-3.4,4.8-6.7,1.4-10.9c-0.6-0.8,0.4-2.8,0.1-4.1c-0.3-1.5-0.9-3.3-2-4.3c-1.6-1.4-3.8-2.1-5.7-3c-8.6-4.2-17.1-8.5-25.7-12.7
	l0.6-1.3c19.1,9.7,37.7,20.4,60.1,21.8l-0.6,1.8l-14.4-3c0,5.4-1.1,9.5-7.6,9.5c-1,0-2.3,2-3,3.3c-14.8,27.9-29.5,55.8-44.2,83.8
	c-0.8,1.9-0.9,4.1-0.1,6.1c1.7,4.7,0.1,7.9-4.9,9c-1.5,0.4-3.5,1.2-4.2,2.5c-4.1,7.3-7.9,14.9-12,22.8c1.6,0.9,3.3,1.8,5,2.5
	c16.5,6.3,33,12.5,49.5,18.6c7.8,2.9,15.4,6.8,23.4,8.1c21.9,3.7,44.1,6.1,66.1,9.3c3.8,0.5,4.4-0.9,4.4-3.9
	c-0.1-8.3,0.1-16.5-0.1-24.8c-0.2-1.8-1.1-3.4-2.4-4.6c-4-3.5-4.1-7.1-0.2-10.7c1.5-1.3,2.4-3.1,2.6-5c0.1-31.5,0.2-63,0.1-94.4
	c0-1.4-0.3-3.7-1.3-4.2c-5.6-2.9-4.7-7-2.4-11.9l-14-3.8l0.3-1.8c26.3,11.2,54.2,6.1,81.4,7.6l-0.1,1.5h-55.3c-1.8,3-3.1,5-4.3,7.1
	s-3,4-3,6c-0.2,31-0.2,61.9,0,92.9c0.3,2.3,1.3,4.4,3,6c3,3,4.2,6.8,0.8,9c-4.4,3-3.9,6.6-3.9,10.5c0,6.3,0.3,12.7-0.1,19
	c-0.3,4.5,1.1,6.1,6.1,6c26-0.2,52-0.2,78,0c5,0,6.5-1.3,6.4-6.2c-0.2-32.7-0.1-65.4-0.1-98.1V416h1.1v5.7c0,32.4,0.1,64.7-0.1,97.1
	c0,5.2,1.2,7,6.9,6.9c44.6-0.2,89.1-0.2,133.7,0c5.5,0,7.1-1.3,7.1-6.7c-0.2-48-0.1-96-0.1-144v-6.2h-43.3v-0.9h87.9v1.2H757v156.1
	h68.8V367.7h25.9l0.1,0.9l-5.3,1.2v47h-18.1v65.4l6.6,0.5v8.2c-6.8-1.2-7.2,2.5-7,7.4c0.3,7.2,0,14.4,0.1,21.6
	c0.2,1.6,0.6,3.2,1.1,4.7c1.6,0.4,3.2,1.1,4.9,1.1c22.5,0.1,45.1,0.1,67.6,0c1.6,0,3.1-0.2,4.7-0.3v-33.8l-4.6-1.3v-7.5l4.6-0.9
	v-65.5h-14.9v-46.7l-6.3-1.1l0.2-0.9h136v12.4h171.2c-0.6,4.8-1.1,9-1.6,13.2h-0.4c-0.2-2.4-0.4-4.7-0.5-6.8
	C1186.2,385.2,1181.6,387.7,1179.5,383.1z M1021.2,186.1v5.9c0,26.7,0.1,53.4-0.1,80.1c-0.1,5.4,1,8.6,7.8,7.4l-0.9,1.6l5.1,2.4
	c0.8-1.6,2.4-3.3,2.4-5c0.1-30.2,0.1-60.5,0.1-90.7c0-1.4-0.2-2.7-0.3-5.1L1021.2,186.1z M1097.9,669.6v14.5c31-1,61.7,1.3,92.5-1.5
	v-5.9c0-7.1,0-7.1-7.3-7.1L1097.9,669.6L1097.9,669.6z M1188.1,163.4h-41.1v15.8h41.1V163.4z M906.5,414.4v-38l-4.8-1.3
	c-0.2-2-0.3-3.8-0.5-5.7h-7.6v45L906.5,414.4z M802.5,307.3c-0.4-0.2-0.9-0.4-1.4-0.5c-6.5-0.1-13.1,0.2-19.6-0.2
	c-5-0.3-5.6,1.9-5.5,5.9c0.1,3.8,0.3,6.5,5.5,6c3.9-0.4,8-0.1,12-0.1c10.4,0,10.4,0,9.5-10.1C802.8,307.9,802.7,307.6,802.5,307.3
	L802.5,307.3z M683.5,168c-3.6-0.6-5.9-0.4-5.9,3.2c0,7.9-0.1,15.7,0.1,23.6c0,1.1,1.9,2.2,3,3.3c0.9-1,2.6-2,2.7-3
	C683.5,186.2,683.5,177.3,683.5,168z M933,319.6v-6.8c0-9.6-1-10.5-10.9-9c-1.3,0.2-3.2,1.9-3.3,3.1c-0.4,4.1-0.2,8.3-0.2,12.6
	L933,319.6z M757,278.3h15.3V265H757V278.3z M804.7,312.4c-1.6,4.9,0.5,6.2,4.7,6c4-0.2,8,0,12,0c5.4-0.1,5.6-0.5,4-6L804.7,312.4z"
	/>
<path d="M829.3,524.4c-0.5-1.5-0.9-3.1-1.1-4.7c-0.1-7.2,0.2-14.4-0.1-21.6c-0.2-4.8,0.2-8.5,7-7.4v-8.2l-6.6-0.5v-65.4h18.1v-47
	l5.3-1.2l-0.1-0.9h-25.8v157.5H757V369h42.8v-1.2h-87.9v0.9h43.3v6.2c0,48-0.1,96,0.1,144c0,5.4-1.7,6.8-7.1,6.7
	c-44.5-0.2-89.1-0.2-133.6,0c-5.7,0-7-1.8-6.9-6.9c0.2-32.4,0.1-64.7,0.1-97.1V416h-1.1v5.4c0,32.7-0.1,65.4,0.1,98.1
	c0,4.9-1.4,6.2-6.4,6.2c-26-0.2-52-0.2-78,0c-4.9,0-6.3-1.5-6.1-6c0.3-6.3,0.1-12.7,0.1-19c0-3.9-0.5-7.6,3.9-10.5
	c3.4-2.3,2.2-6-0.8-9c-1.7-1.6-2.7-3.7-3-6c-0.2-30.9-0.2-61.9,0-92.9c0-2,1.9-4,3-6s2.5-4.1,4.3-7.1h55.2l0.1-1.5
	c-27.2-1.5-55.1,3.6-81.4-7.6l-0.3,1.8l14,3.8c-2.3,4.9-3.1,9,2.4,11.9c0.9,0.5,1.3,2.7,1.3,4.2c0.1,31.5,0.1,63-0.1,94.4
	c-0.2,1.9-1.2,3.7-2.6,5c-3.9,3.6-3.8,7.2,0.2,10.7c1.4,1.2,2.2,2.8,2.4,4.6c0.2,8.3,0.1,16.5,0.1,24.8c0,3-0.6,4.5-4.4,3.9
	c-22-3.1-44.2-5.6-66.1-9.3c-8.1-1.3-15.7-5.3-23.4-8.1c-16.5-6.1-33.1-12.4-49.5-18.6c-1.7-0.8-3.4-1.6-5-2.5
	c4.1-7.9,7.9-15.4,12-22.8c0.7-1.2,2.6-2.1,4.2-2.5c5-1.2,6.6-4.3,4.9-9c-0.7-2-0.7-4.2,0.1-6.1c14.6-28,29.3-55.9,44.2-83.8
	c0.7-1.3,2-3.3,3-3.3c6.5,0,7.6-4.1,7.6-9.5l14.4,3l0.6-1.8c-22.4-1.4-41-12.2-60.1-21.8l-0.6,1.3c8.6,4.2,17.1,8.5,25.7,12.7
	c1.9,1,4.1,1.7,5.7,3c1.1,1,1.6,2.8,2,4.3c0.3,1.3-0.8,3.3-0.1,4.1c3.4,4.2,0.4,7.5-1.4,10.9c-14,26.7-28.1,53.4-42.3,80.1
	c-1,1.8-3.4,3.3-5.5,4c-4.4,1.4-6.1,4.7-4.5,8.9c0.7,1.9,0.7,4.1,0,6c-3.4,7.1-7.3,14-11.2,21.6l-9.2-4.6
	c-16.6-8.2-33.3-16.4-50-24.4c-4-1.9-4.6-3.7-2.6-7.6c22.3-42.1,44.6-84.3,66.7-126.4c1-1.8,2.5-3.4,4-5.3l-42.6-21l-0.6,1.2
	l40.4,20c-4,7.6-7.9,15.1-11.8,22.5c-19,36.1-38.1,72.1-56.9,108.3c-2.1,4-3.7,4.9-8.1,2.7c-20.1-10.2-40.3-20-60.5-29.9
	c-1.3-0.6-2.5-1.3-4.4-2.3l14.1-26.8l6.6,2.7l3.8-7l-6.2-3.9c5-9.5,9.9-18.9,14.8-28.2c10.6-20.1,21.3-40.2,31.8-60.5
	c2.2-4.3,4.2-7,9.3-2.8l5.1-7l-8.5-4.2l-72.2,137.2l-62.4-30.8l71.6-135.9l38,18.6l0.6-1.2l-77.4-38.1l-0.6,1.2l38.2,19
	c-23.9,45.3-47.5,90.2-71.6,135.9L102,356.1l72.3-137l-6.1-3.4l2.2-5.2c-3.6,6.4-7.7,2.6-11.7,0.6c-7.8-3.9-15.7-7.6-24.2-10.4
	l31,15.5l-2.7,6.5c7.5,1.5,5.2,5.4,2.8,9.9c-15,28-29.7,56.2-44.6,84.3c-0.6,1.1-1.3,2.1-2.1,3.4l-6.4-2.6l-3.9,6.9l6.1,4
	c-4.2,8-8.3,15.7-12.2,23.6c-1.7,3.5-3.7,2.3-6.1,1.1c-15.3-7.6-30.7-15.1-46-22.7c-12.6-6.2-25.2-12.4-37.8-18.6
	c-1.4-0.7-2.7-1.6-4.5-2.7L22,282.9l5.1,1.8c1.2-2.2,2.3-4.4,3.5-6.8l-4.3-3.3l49.6-94.2l4.8,1.7l3.5-5.4l4.4,1.2l0.4-0.9l-19.1-9.4
	c-6.1-3-12.3-5.9-18.3-9.3c-1.3-0.7-2.8-3.6-2.3-4.5c7.3-14.3,15-28.4,22.5-42.6c0.2-0.4,0.8-0.7,1.6-1.5l28.2,14l-2.7,6.4l7.1,3.6
	l3.5-5c7.2,3.5,14.3,6.9,21.2,10.6c1,0.5,1.7,3.4,1.1,4.5c-6.7,13.2-13.7,26.3-20.7,39.4c-0.8,1.6-2.4,2.8-3.7,4.4l3.7,1.9
	c0.5-2,0.7-4,1.6-5.7c6.8-13,13.8-25.9,20.4-38.9c1.8-3.5,3.6-4.3,7.1-2.2c2.6,1.5,5.3,2.7,8,4l0.6-1.2l-76-37.6
	c7.1-12.6,13-25.3,21-36.7s24.4-16.2,43-6.9c6.2-11.6,12.4-23.1,18.6-35l5,1.8c1.2-2.4,2.3-4.5,3.6-7l-4.3-3
	c2.1-3.9,4.1-7.8,6.5-12.4l89.5,44c-2,4-3.8,7.4-5.6,10.8c-0.3,0.6-0.8,1.2-1.4,1.5c-5.8,2.2-6.2,3-4.8,8.2c0.1,1.2-0.2,2.4-0.8,3.4
	c-15.7,30-31.5,60-47.3,90c-0.2,0.3-0.5,0.5-1.2,1.1l-15.1-7.2l-0.6,0.9l12,6.3c-2.2,4.4-4.2,8.6-6.2,12.7l1,0.4
	c1.1-1.9,2.2-3.8,3.6-6.1l44.4,21.7l0.6-1.1L197,176.8c3.2-23,18.6-40.4,27.4-60.6c2.2-5,5.1-9.6,7.8-14.8l20,9.6l0.6-1L233,99.8
	c4.2-8,8.2-15.6,12.4-23.2c0.5-0.9,2-1.4,3.2-1.8c3-0.9,4.9-5.1,3.5-8c-0.4-0.8-0.5-1.8-0.3-2.7c1.7-3.5,3.5-6.8,5.5-10.6
	c15.1,7.4,29.7,14.6,44.4,21.8c5.8,2.9,11.7,5.6,17.3,8.8c1.3,0.7,2.7,3.6,2.2,4.6c-7.3,14.4-14.9,28.8-22.7,43.4l-22.4-10.8
	l-0.6,1.1c5.8,2.8,11.4,5.9,17.3,8.5c4,1.8,4.7,3.5,2.6,7.5c-11.6,21.6-23,43.4-34.5,65c-1,1.6-2.2,3.1-3.5,4.5l2.2,1.4l64.6-122.8
	l65.2,32.1c-4.1,4.3-3.4,10.6-9.8,12.7c-1.5,0.5-3.3,4-2.8,5.3c1.8,4.5-1.3,7.3-3,10.5c-9.7,18.8-19.7,37.5-29.8,56.8l-16.3-7.9
	c-3.4,6.3-6.7,12.3-10.1,18.5l-13-6.1c-2.4,4.6-4.8,8.8-6.9,13.3c-1.4,2.9-2.9,3.6-5.8,1.9c-2.4-1.4-5-2.4-7.5-3.6l-0.5,1.1
	l121.1,59.7l0.6-1.1c-3.4-1.7-6.7-3.6-10.2-5.2c-3.7-1.6-6.5-3.3-3.6-7.7c0.3-0.4-0.1-1.2-0.2-1.9l-1.9-1.5l-1.7,5.3l-57.4-28.2
	c6.9-20.9,19.5-39.1,29-58.6c5.8-11.9,12.2-23.5,18.6-35.1c1.3-2.3,4.1-3.8,5.7-6c1.5-1.9,3.5-4.5,3.2-6.5
	c-1.6-13.4,20-28.6,33.1-22.7s26.3,12.3,40,18.8c-5.2,9.9-9.9,19.4-15.1,28.6c-1.4,2.6-5.8,4.2-6.1,6.6c-2.2,14.7-11.9,26-17.9,38.9
	c-5.6,12-12.2,23.4-18.4,35.1c-0.5,1-0.9,2.2-1.6,4c5.3,0.1,4.9-4.3,6.5-6.5c2-2.7,3.2-5.8,4.9-9l7,0.5l-4.8-4.9
	c8.7-16.6,17.4-33.4,26.4-49.9c2.9-5.3,7.8-6.5,13.3-3.8c12.5,6.2,25.1,12.5,38.1,19l-30.7,58.1c-6.8-1.4-11.6-6.6-18-7.2
	c-0.3,0.7-0.6,1.4-0.9,2.1l20,10.1l32.6-61.6c4.4,2.1,8.4,4,12.4,6.1c0.9,0.5,2,1.9,1.8,2.7c-0.9,5.6,2.3,8,8,9.4L489,263.1l-7-2.7
	c-0.4,1.1-0.6,2.3-0.9,3.4c-0.1,0.6,0,1.8,0.4,2c0.8,0.2,1.6,0.1,2.3-0.1c1.6-0.4,3.2-0.7,4.8-0.8c1.6,0,3.1,0.9,4.7,0.9
	c27.1,0.1,54.2,0.1,81.3,0c1.1-0.1,2.3-0.2,3.4-0.5v-1.5h-87.6c2.4-4.7,4.1-8.1,5.9-11.4c7.9-15,15.5-30.1,23.8-44.9
	c3.1-5.5,0.2-10.2,0.1-15.4c-3.1,3.6-6.1,4.2-10.2,2.1c-20.1-10.1-40.3-19.9-60.5-29.9c-0.8-0.4-1.5-0.9-2.6-1.7l16-30.4l30.5,15
	c10.3,5.1,20.7,10.2,31,15.2c7.5,3.7,7.5,3.6,6.1,11.8c1-1,2.5-1.8,3-3c1.2-3,3.3-3.6,6.4-3.6c20.5,0.1,41.1,0.2,61.6,0
	c4.3,0,5.1,1.5,5.1,5.2c-0.1,28.7,0,57.3-0.1,86c0,1.9-0.8,3.7-1.4,6.3c1.8,1.9,3,38.3,1,54.3h-83.6c-1.2-7.5-1.9-8.2-10.8-10.2
	c-14.8-3.3-29.5-6.8-44.1-10.1c-0.3-1.8-0.5-3.2-0.7-4.5c-1.1,0.8-2.2,1.7-3.4,2.4c-3.1,1.8-6.3,3.5-10.5,5.9l-11.4-5.4l-0.5,0.8
	l3.1,2c4.5,2.9,9,5.6,13.3,8.6c3.8,2.6,9.2,1,10.3-3.5c0.2-1.5,0.4-3.1,0.4-4.6l43.1,9.9c-0.7,1.4-1.3,2.9-1.8,4.5
	c-1,4.7,2.6,8.2,7.5,7.6c3.5-0.6,7.1-0.9,10.7-1c38.4-0.1,76.7-0.1,115.1,0h5.8c0-0.5,0-1,0-1.5h-41.1v-26.1
	c0-7.9,0.2-15.8-0.1-23.7c-0.2-4.4,1.4-6.1,5.9-5.7c2.4,0.2,4.8,0,7.1-0.6c-0.7-0.2-1.4-0.3-2.2-0.4c-12.1-0.1-10.7,1.6-10.7-10.4
	c0-15.3,0-30.6,0-46.6h13.9c0-0.5,0-1,0-1.6l-13.9-0.7c0-11.5-0.1-22.7,0.2-33.9c0-1,2.3-2.8,3.5-2.8c20.5-0.2,41.1-0.2,61.6,0
	c1.2,0,3.3,2.3,3.3,3.5c0.3,10.9,0.2,21.8,0.2,33.6h-33.3c0,0.5,0,1,0,1.5H683v57.2h-34.7v1.1H683c0.2,2.1,0.5,3.7,0.5,5.4
	c0,12.3-0.2,24.6,0.1,36.9c0.1,4.7-1.1,7.1-6.3,6.3c-0.8,2.7-1.5,5.2-2.2,8h46.8c0-0.4,0-0.7,0-1.1h-36.2c-0.2-2-0.5-3.3-0.5-4.6
	c0-15.1,0.1-30.2-0.1-45.4c-0.1-4.2,1.3-5.6,5.6-5.5c10,0.3,20,0,29.9-1h-28.4c-7.1,0-7.1,0-7.1-7v-50h36.8l0-1.4h-36.5
	c0-12.6,0-24.3,0-36c0-0.2,0.6-0.3,0.9-0.5l-0.1-0.1v34.8c11.9,0,22.8-0.1,33.7,0.1c1.5,0,2.9,1.5,4.4,2.2c-1.4,0.7-2.8,1.9-4.2,1.9
	c-7.3,0.2-14.5,0.1-21.8,0.1h-11.5v53.6c1.3,0.1,2.1,0.3,3,0.3c10,0,20-0.1,30,0.1c1.2,0,2.4,1.4,3.6,2.1c-1.2,0.9-2.3,2.5-3.6,2.6
	c-3.6,0.4-7.3,0.1-10.9,0.1c-7.4,0-14.7,0-22.2,0v51.9h6.1c9.3,0,18.5-0.1,27.8,0.1c1,0,2,1.3,2.9,2c-0.9,0.7-1.9,2.1-2.8,2.1
	c-15.1,0.1-30.2,0.1-45.3,0c-1,0-2.9-1.5-2.8-2c0.6-3,1.1-6.2,2.8-8.6c0.8-1.2,3.9-0.9,6.2-1.4v-43.7c-0.9-0.2-1.9-0.3-2.8-0.3
	c-9.8,0-19.6,0.1-29.5-0.2c-1.2,0-2.4-1.7-3.7-2.5c1.2-0.7,2.3-2,3.5-2.1c3.6-0.3,7.3-0.1,10.9-0.1h21.5v-53.9H676
	c-10.2,0-20.4,0-30.5,0c-3.8,0-3.8-0.1-3.1-4.5h31.8v-34.1H610v33.9c13.8,1.6,13.8,1.6,13.3,5h-13.2v53.7c3.6,0,6.7-0.3,9.7,0.1
	c1.5,0.2,2.9,1.6,4.3,2.5c-1.4,0.8-2.7,2-4.1,2.2c-3.3,0.3-6.7,0.1-10.1,0.1v51.9h32.4c2.2-0.1,4.4-0.1,6.5,0.1
	c0.9,0.1,1.6,1.3,2.5,2c-0.8,0.7-1.4,1.9-2.4,2.1c-1.4,0.2-2.9,0.3-4.3,0.1c-38.9,0-77.8,0-116.7,0c-3.4,0.1-6.8,0.5-10.1,1.2
	c-5.9,1.2-11-3.3-9.9-9c0.2-1.1,0.5-2.3,0.7-3.5l-38.1-8.8c-3.4,10.5-8.4,11.9-16.2,4.7c-1.2-1-2.6-1.9-4.1-2.5
	c-3.8-2-7.7-3.9-11.6-5.8c0.9-2.8,1.6-4.6,4.9-2.7s6.7,3.4,9.6,4.8l13-9c0.9,0.6,3.8,1.9,3.6,2.4c-1.3,5.1,3.2,3.9,5.3,4.4
	c13,3.2,26,6.1,39,9c5.8,1.3,10.2,3.6,10,10h80.5c0-15,0-29.6,0-44.1c0-2.9,1.4-6.4-2.5-8.4c-0.4-0.2,0-2.2,0.3-3.2
	c0.6-2,2.1-3.9,2.1-5.8c0.2-27.4,0.1-54.9,0.1-82.3c0-1.7-0.2-3.4-0.3-5.5h-55.9c-10.5,0-10.5,0-16.5,7.6l-5-2.7l3.3-6.7l-66.7-32.9
	L449,162c1.3,0.8,2.3,1.4,3.4,2c18.9,9.3,37.8,18.6,56.6,28.1c4.2,2.1,7.6,3.1,9.9-2.2l4.6,2.6c-0.3,2.1-0.5,3.8-0.7,5.5
	c-0.4,3.3,0,7-1.4,9.8c-6.7,13.4-13.8,26.6-20.8,39.9c-2.4,4.5-4.7,9-7.4,14.2h6.7c25.1,0,50.2,0,75.3,0c5.2,0,5.2,0.1,4.4,5.2
	H478.5l2.4-8.8l7.4,2.7l27-51.1c-6-2-8.7-5.5-7.2-11.4l-12-5.7l-32.5,61.5l-23.1-11.5l3.2-5.3l17.1,8.2
	c9.9-18.8,19.6-37.3,29.5-55.9l-42.5-20.9c-13.9,16.8-20.4,36.9-31.4,54.6l3.6,2.9c-0.6,4.3-2.8,5.6-6.8,3.7l-8.7,16.1
	c-3.3-1-6.8-1.2-4.2-5.8c6.7-12.4,13.6-24.7,19.7-37.4c6-12.5,15.2-23.6,17.2-37.8c0.4-3.1,4.7-4.9,6.2-7.2
	c5.6-8.2,9.6-17.4,14.2-26.4c-11.9-5.9-23-11.8-34.5-17.1c-12-5.4-26.2-0.4-32.2,11.3c-1.6,3.2-1.1,7.5-2.9,10.6
	c-2.1,3.8-6.2,6.6-8.2,10.4c-12.1,22.4-23.9,44.8-35.5,67.4c-4.3,8.4-11.1,16.1-10,26.8c15.7,7.7,31.6,15.4,47.3,23.4
	c3.4,1.7,5.8,2.3,7.6-1.8l5,2.9c-0.9,2.1-1.6,3.9-2.4,5.9l16,8.1c-0.9,4.9-3.5,3.2-6.1,1.9c-38.4-19-76.8-37.9-115.3-56.8
	c-1.7-0.9-3.3-1.9-5.1-2.9c0.4-0.9,0.9-1.8,1.5-2.6c4,1.2,8,2.6,12.3,4l8.8-16.3l13,6c3.5-6.5,6.8-12.4,10.1-18.5l16.3,7.9
	c10.7-20.4,21.3-40.3,31.7-60.3c0.4-0.8-0.1-1.9,0.2-2.7c1.3-3.4,1.7-8.6,4.2-9.7c5.1-2.3,4.9-6.7,7.5-10.2l-61.6-30.3
	c-0.5,0.4-0.9,0.9-1.3,1.5c-20,37.9-40,75.9-59.9,113.8c-1.2,2.3-1.2,5.2-1.9,8.4l-8.3-4.3c2.3-2.3,4.5-3.8,5.6-5.9
	c12.1-22.5,24-45.2,36-68c-6.6-3.3-13-6.6-19.5-9.7c-2.9-1.4-3.5-2.9-0.7-5.3l22.3,10.8l23-43.6l-63-31c-1,4.5-6.6,7.4-2.6,12.4
	c0.3,0.3-0.6,1.5-0.9,2.3c-1.3,3.7-5.4,5.1-7.4,7.6C242,84.1,239,91.8,235,99.2c6.2,3.1,11.8,5.7,17.3,8.7c1.2,0.6,1.7,2.4,2.5,3.6
	c-1.6,0.1-3.4,0.7-4.6,0.1c-5.8-2.6-11.4-5.4-17.3-8.4c-11,20.9-22,41.6-32.9,62.3c-0.3,0.6-0.8,1.8-0.6,1.9c4,2.9-0.1,5.7-0.5,8.6
	l37.9,18.8c-0.7,3.4-2.1,4-5,2.5c-6.7-3.5-13.6-6.7-20.4-10.1L190.3,177c-0.4,1-1,1.9-1.7,2.7c-1.3,1.1-2.7,1.9-4.1,2.9
	c0-1.6-0.5-3.5,0.1-4.9c1.3-3,2.8-6,4.4-8.9c-12.1-7.6-12.1-7.6-10.3-10.4l15.9,7.6c16-30.3,31.6-59.9,47.2-89.6
	c0.5-1,0.5-2.2,0.1-3.2c-1-2.2,1.4-10.5,3.6-10.4c7.1,0.2,5.1-6.2,8.7-9.1l-87-42.9l-5.1,9.6l4.2,3.4l-4.7,9.1l-5.4-1.1l-18.4,34.5
	c-2.9-1.2-5.5-2.3-8.2-3.3c-12.7-4.7-27.6-1.3-34.9,9.6s-13,22.9-19.5,34.7l76.3,37.7c-0.5,1.1-1.2,2.1-1.9,3.1
	c-4.4-1.6-8.8-3.4-13.4-5.2c-6.9,13.1-13.8,26.2-20.6,39.3c-0.9,1.8-0.8,4.1-1.5,6.1c-0.3,1-1.6,2.8-1.9,2.6
	c-2.2-0.7-4.3-1.6-6.3-2.8c-0.3-0.2,0-2,0.5-2.8c2.7-4,5.9-7.6,8.2-11.7c5.9-10.6,11.3-21.4,17.1-32.4l-21.5-10.5l-3.6,5l-9.9-5
	l2.7-6.4l-26.2-13L50,156l41.1,20.3l0.3,1.8l-7.2,1.9l-2.6,4.2l-4.8-1.7l-48.3,91.6l4.4,3.2c-1.8,3.3-3.5,6.3-5.2,9.5l-5-1.8
	l-12.7,24.2l89.9,44.3c4.3-8.2,8.5-16.2,12.7-24.2l-6.1-3.8l5.3-9.6l6.6,2.7l48.4-91.8l-6.1-3.5c1-2.1,1.8-3.9,2.8-6.2l-31.4-15.7
	l0.2-2c1.7-0.1,3.7-0.7,5.1-0.1c9.4,4.4,18.7,9,27.7,13.4c2.7-1.2,2.3-7.6,7.3-3.1l-2.3,5.4l7.8,4.5c-2.4,3-5,5.4-6.5,8.3
	c-17.7,33.3-35.3,66.7-52.8,100.2c-4.7,9-9.5,18-14.5,27.5l59.5,29.3c23.6-44.8,46.8-88.8,70.2-133.1c-12-6-23.4-11.7-34.9-17.3
	c-3.3-1.6-4.1-3-1-5.5c25.9,12.8,51.5,25.4,77.2,38c2.9,1.4,4.2,2.7,0.9,5.5l-38-18.7l-70.2,133.1l59.3,29.2c0.8-1.3,1.4-2.1,1.8-3
	c19.7-37.5,39.5-75,59.2-112.4c3.7-7.1,7-14.4,10.7-21.9l12.4,6.2l-6.9,9.3l-6.2-2.7c-16.1,30.7-32.3,61.3-48.3,91.9l6.2,3.7
	c-1.8,3.4-3.5,6.5-5.2,9.7l-6.8-2.5c-4.2,8-8.3,15.8-12.6,24l67.4,33.1l70.1-133.1l-40.9-20.2l2.6-3.7c13.8,6.8,27,13.3,40.2,19.8
	c5.9,2.9,5.9,2.9,1.6,7.6c-0.7,1-1.3,2.1-1.7,3.3c-16.3,30.9-32.6,61.8-48.9,92.7c-6.2,11.8-12.4,23.6-18.8,35.8l61.3,30.2
	c3.9-7.4,7.7-14.4,11.2-21.4c0.4-0.8-0.1-2.2-0.6-3.2c-2.3-5.5-0.1-9.8,5.5-11.7c2-0.7,3.7-2,4.9-3.8c14.5-27.1,28.8-54.3,43.1-81.5
	c0.7-1.5,1-3.2,0.9-4.9c-0.2-3-0.9-6-1.6-10c-9-4.4-19.2-9.4-29.2-14.5c-1.5-0.7-2.2-2.8-3.2-4.2c1.7,0.1,3.6-0.4,5,0.3
	c9.6,4.5,19,9.4,28.6,13.9c2.6,1.1,5.4,1.8,8.2,2.4c7.7,1.8,15.4,3.6,23.4,5.4c-0.6,1.6-1,3.4-1.3,3.4c-4.9-0.5-9.7-1.3-14.8-2
	c-0.3,4.9-2.8,8-8,9c-1.4,0.5-2.6,1.5-3.3,2.9c-14.6,27.4-29.1,54.9-43.5,82.4c-0.8,1.8-0.8,3.9-0.2,5.7c1.6,5.4-0.2,9.3-5.8,11.2
	c-1.5,0.5-3.5,1.3-4.2,2.5c-3.8,6.6-7.2,13.4-10.9,20.4c3.7,1.7,7.1,3.4,10.6,4.7c19.9,7.4,39.9,14.7,59.9,21.9
	c3.4,1.1,7,1.9,10.5,2.3c14.1,2.1,28.3,4.1,42.5,6c6.9,1,13.9,1.8,21.4,2.7c0-9.7,0.1-18.6-0.1-27.5c0-1.3-1.5-2.6-2.5-3.7
	c-4.3-4.2-4.1-8.1,0.1-12.3c1.4-1.4,2.3-3.3,2.4-5.2c0.1-30.6,0.1-61.2,0-91.8c0-1.6-0.3-3.9-1.4-4.7c-4.3-3.3-5.2-7.1-2.9-11.8
	l-14.1-3.8c0.2-3.9,1.7-4.2,4.7-3.3c16.8,4.9,33.9,8.2,51.6,6.8c8.1-0.6,16.4-0.1,24.5-0.1c1.1-0.1,2.2-0.1,3.3,0.1
	c0.8,0.3,2.1,1.4,2,1.8c-0.3,1-1.1,1.9-2.1,2.3c-1.1,0.4-2.5,0.1-3.8,0.1H525c-1.5,2.5-2.9,4.6-4,6.7c-1,1.9-2.6,3.8-2.6,5.7
	c-0.2,30.8-0.2,61.5,0,92.3c0.1,1.8,0.9,3.5,2.2,4.8c4.3,4.2,4.5,8.2,0.3,12.3c-1,1-2.4,2.4-2.4,3.7c-0.2,9.1-0.1,18.2-0.1,27.8
	h86.3V414.1c6-1.6,5,2.2,5,4.9c0,32.5,0,65.1,0,97.6v7.1h143.8V370.4H747c-11.3,0-22.5,0.1-33.8-0.1c-1.2,0-2.4-1.3-3.6-2
	c1.1-0.8,2.2-1.6,3.4-2.2c0.4-0.2,1.1,0,1.6,0H797c1.1-0.1,2.2-0.1,3.2,0.1c0.8,0.4,1.5,1.1,1.6,2c-0.2,0.9-0.8,1.7-1.7,2
	c-1.4,0.2-2.9,0.3-4.3,0.2h-37.2v153.4h65.5V366.3h28.7l1,1.2l-5.5,5.4v45.3h-18.6v62.8l6.7,0.5v11l-7.3,0.7v31.4L829.3,524.4z"/>
<path d="M686.3,168.9c0.7-0.4,1.4-1.1,2.1-1.1c27.8-0.1,55.6,0,84.8,0c-0.6,12.4-1.2,24.5-1.8,37.2h-27.9v1.6h26.9v27.6
	c0,8.3-0.1,16.5,0,24.8c0.1,3.6-1.1,5.1-5,5c-5.9-0.2-11.9,0-17.8,0.2c7.5,1.6,7.5,1.6,7.5,9.9c0,4.8,0,9.5,0.1,14.3
	c0.2,0.8,0.5,1.6,0.8,2.4c0.4-4,0.7-6.8,1-9.8h15.2v38.9H757c-0.3-3-0.5-5.7-0.8-8.4h-0.7v10.3h79c2.2-8.4,0.2-11.1-8.4-11.1h-21.4
	c-0.3-1.9-0.6-3.4-0.8-4.7c-0.3-0.2-0.5-0.4-0.6-0.4h-26.6c-0.2-2.2-0.5-3.9-0.5-5.6c0-29.2-0.1-58.4,0.1-87.6c0-1.9,2-3.8,2.1-5.7
	c0.1-2.8-0.1-5.6-0.7-8.3c-0.1-0.9-1.4-1.7-1.5-2.6c-0.1-9.1-0.1-18.2-0.1-27.7c11.8,0,22.9-0.9,33.8,0.2
	c12.9,1.3,23,16.5,19.1,27.9c-1.2,3.4-3.5,6.2-2.2,10c0.8,2.4,2.3,4.8,2.3,7.2c0.2,18.8,0.1,37.6,0.1,56.5c0,4.6-0.1,9.1,0,13.7
	c0.2,1.2,0.5,2.5,0.9,3.6l2.2-0.2c0-3-0.1-6,0-9c0.1-3.6-1.7-8.2,5.8-8.6c-7.7-2.9-5.8-8.3-5.8-13c-0.1-10.9-0.1-21.8,0-32.7
	c0.1-7.4-1.9-15.1,4.5-21.8h48.3v65.4h-19c1.7,3.5,6.9,4,23.3,2.9c0-22.7,0-45.3,0-68.3H901c0.2,1.5,0.4,3,0.6,4.9H917
	c0.1,2.1,0.3,3.8,0.3,5.5c0,17.1-0.1,34.1,0.1,51.2c0,3.8-0.4,6.6-5.2,6.7h6.1v-64.4c-0.3-0.3-0.6-0.5-0.9-0.6
	c-2.3-0.7-4.6-1.4-6.9-2.1c2.5-0.5,5-1.4,7.4-1.4c18.4-0.1,36.7-0.1,55.1-0.1h6.2v118h-45v-16.5h-16.7v16.7h-6.7c-0.3-2-0.6-3.8-1-6
	h-8.1v7.8h92.9l0.1-1.1l-11.5-0.7V201.7h34.5V284c11.7,2.2,11.6,2.2,11.2,14.3c-0.3,8.1-7.2,2.5-10.7,5.4
	c-0.3,5.4-0.7,11.5-1.1,17.7h11.8c0.1-0.4,0.1-0.7,0.2-1.1l-8-0.9c0-4.1-0.2-8.3,0.2-12.4c0.1-1.1,2-2.6,3.3-3.1
	c1.6-0.5,3.5-0.1,5.9-0.1v-19c8.3,0,16-0.1,23.8,0.1c1,0,2.8,1.9,2.8,2.9c0.2,10.5,0.1,21,0.1,31.5l-7.1,0.9l0.1,1h41.9
	c0-0.3,0-0.7,0.1-1h-33.6v-36.7c-6.2,0-11.7-0.1-17.3,0c-3.5,0.1-4.8-1.1-4.8-4.6c0.1-30.6,0.1-61.2,0-91.8c0-3.3,1.2-4.2,4.5-4.2
	c45.3,0.1,90.6,0,135.8,0.1c4.3,0,8.6,2,12.8,1.9c5.2-0.1,10.4-1.9,15.6-1.9c32-0.2,64-0.4,96,0c16.3,0.2,32.8-2.5,49.4,2.8v91.3
	c-3.1,2.3-5.4,4.4-8,5.7c-1.4,0.8-3.5,0.5-5.3,0.5c-33.8,0-67.6,0-101.5,0h-7.3v36.1h-96.1v2h97c0-9.9,0.1-21-0.1-32
	c0-3.6,1.1-5,5-5c38,0.1,76,0.1,114,0.1c0.7,0.1,1.4,0.2,2.1,0.3v94.5h-121.1v-31.3h-1.3v33.5h5.8c34.7,0,69.5,0,104.2,0
	c2.4,0,4.9-0.8,6.1,2.8c0.4,1.1,4,1.3,6.4,2.1V481l-6.5,0.4c-0.1,1.6-0.1,3-0.2,4.9c6.7-1.1,7.2,2.3,7.2,7.3
	c-0.2,27.3-0.1,54.5,0,81.8c0,4.5,0.4,8.7-6.8,6.7c-0.1,2-0.3,3.5-0.4,5.2l6.7,0.7v94.5l-6.4,0.9v4.9l6.5,0.9v69.8
	c-7.2,0.7-14.3,1.9-21.5,1.9c-30.4,0.2-60.7,0-91.1,0.2c-4.9,0-6.6-1.2-6.6-6.2c0.3-21.5,0.1-42.9,0.1-64.4v-6.4l-7.2,0.5
	c5.5,3.7,4,8.6,4,13c0,19.2-0.1,38.3,0.1,57.5c0,4.7-1.5,6.1-6.2,6c-8.4-0.3-16.7,0.1-25.1-0.2c-3.6-0.1-7.2-1.9-10.8-1.9
	c-4,0-7.9,1.9-11.9,1.9c-24.4,0.2-48.7,0-73.1,0.2c-4.9,0-6.2-1.5-6.1-6c0.2-20.7,0.2-41.5,0-62.3c0-4.3,1.4-5.3,5.6-5.3
	c24.9,0.2,49.8,0.1,74.7,0.1c6,0,12.1,0.1,18.1,0c1.3,0,2.7-1,4-1.6c-1.4-0.6-2.8-1.3-4.2-1.9c-0.7-0.2-1.4-0.4-2.1-0.6v-26.7h-0.8
	c-0.2,0.7-0.3,1.3-0.3,2c0.1,10.7,0.6,9.3-10.2,9.3c-26,0-52,0-78,0h-6.3V684c-5.3,0-10.2-0.2-15,0.1c-1.8,0.1-3.6,1.1-5.4,1.7
	c1.9,0.5,3.8,1.4,5.7,1.5c3.6,0.3,7.2,0.1,11.2,0.1v27.1c0,13.7-0.1,27.4,0.1,41.2c0,3.9-1.2,5.3-5.3,5.2
	c-17.6-0.2-35.3,0.1-52.9-0.2c-3.8,0-7.6-1.4-11.3-2.5c-0.8-0.2-1.6-1.9-1.6-2.9c-0.1-22-0.1-43.9-0.1-66.5c7-0.5,13.6-0.9,20.2-1.5
	c1.7-0.2,3.2-1.2,4.8-1.8c-1.5-0.5-3-1.3-4.6-1.5c-6.6-0.5-13.2-0.7-20.4-1.1v-6.2c0-27.1,0.1-54.2-0.1-81.3c0-5,0.2-8.9,7-7.9
	c0.6,0.1,1.3-0.5,1.9-0.8l-0.1-0.1l-7,4v91l24.7,1.6v5.4l-24.3,1.5v66.5c22.6,4.2,44.9,1,67.4,2.3v-70h-16.7v-6.5h20.6v-15.8h94
	c0-3.7-0.2-6.8,0.1-9.9c0.1-0.9,1.6-1.7,2.5-2.5c0.7,0.8,1.9,1.5,2.1,2.4c0.2,1.4,0.3,2.8,0.1,4.2c0,7.2,0,14.3,0,21.5l5.5,0.5v6.4
	h-101.3v69.3c1.8,0.1,3.3,0.3,4.7,0.2c26.8-1.3,53.7,2.6,80.5-2c3.9-0.7,8.2,1.7,12.4,1.8c10.3,0.3,20.6,0.1,31.3,0.1
	c0-22.8,0-45,0-67.1c-0.2-1-0.6-1.9-1.1-2.7c-1-1.9-2-3.7-3.4-6.2h11v76h7c26.6,0,53.1,0.1,79.7-0.1c9.9-0.1,19.7-0.9,29.6-1.4
	v-67.1l-6.8-0.6v-8l6.7-0.4v-92.2l-6.7-0.6c-0.8-7.7-0.8-7.7,6.7-8.5v-91.3c-7.9-0.6-8-0.6-6.5-8.5l6.5-0.8v-91.8
	c-3.3-0.9-8.1,1.6-7.5-4.7h-115.6v-36.2c5-1.8,5.2,0.7,5.2,3.7c0,9.3,0,18.5,0,28.1h117.9v-91.4c-1-0.2-1.9-0.3-2.9-0.3
	c-36.7-0.1-73.4-0.1-110.2-0.3c-3.9,0-5,1.3-4.9,4.9c0.2,11,0.1,22.1,0.1,33.6c-4.2-0.8-7.6-1.9-11.1-1.9
	c-27.8-0.1-55.6-0.1-83.5-0.1h-5.7c-2-5,1.4-4.4,4-4.4c28.4,0,56.7,0,85.1,0h6.2c0-10.8,0.3-21-0.1-31.2c-0.2-4.8,1.5-5.8,6.2-5.8
	c34.7,0.2,69.5,0.1,104.2,0.1c1.6,0,4.6-0.1,4.6-0.4c0.7-5,5.1-3.3,8-4.1v-90.5c-6.4-0.7-12.5-2-18.6-1.9
	c-47.2,1.1-94.5-2.7-141.6,1.9c-5,0.5-10.3-1.8-15.4-1.9c-42.9-0.2-85.8-0.1-128.8-0.1h-5.8v97c5.3,0,10.4,0.3,15.4-0.1
	s6.2,1.4,6.1,6c-0.3,10.1-0.1,20.3-0.1,31h33.5l0.9,1.7c-1.3,0.9-2.5,2.4-3.8,2.5c-6.4,0.3-12.7,0.1-19.1,0.1H1049
	c-1.5-6.5,3.8-3.3,5.9-5v-30.8h-22.7v18.1l-9,0.9v12c7.9,0.8,7.9,0.8,7.2,4.5H1014c0.8-2,1.4-4,1.9-6.1c0.2-2.1,0.2-4.2,0.1-6.3
	c0-9,0-9,9.5-9.5c0.7-0.1,1.3-0.3,2-0.5V287c-1.4-0.1-2.5-0.3-3.6-0.3c-7.8-0.2-7.8-0.2-7.8-7.9V203h-31.3v115.6
	c2.8-0.1,5.6-0.1,8.4,0.1c1.5,0.2,2.8,1.3,4.2,2c-1.5,0.8-2.9,1.6-4.4,2.3c-0.4,0.1-0.7,0.1-1.1,0h-91.2v-11.7c2.1,0,3.9,0.1,5.7,0
	c4.1-0.4,6.8,0.3,6.2,5.2c-0.1,0.7,1,1.6,1.5,2.4l1.6-0.4c0-4.6-0.2-9.3,0.1-13.9c0.1-1.3,1.5-3.6,2.4-3.6
	c5.9-0.3,11.8-0.2,18.3-0.2v17.5h41.1V202.9h-63.7c0,0.1,0,0.3,0,0.5l6.3,0.6v68h-9.6l-1-1.5l5.8-4.8v-57.9h-14.7
	c-0.4-2-0.6-3.5-0.9-4.9h-9.2v9.7c0,16.4-0.1,32.7,0.1,49.1c0,3.3,1.2,6.6,2,10.4c-8.2,0-15.6-0.2-23,0.1c-5.3,0.2-5.8-2.1-4.3-6.6
	h18.3v-62.8h-45.6c-6.1,9.8-3.2,20.3-3.6,30.4c-0.4,10.6-0.1,21.3-0.1,32l4.7,1.1v5.1l-5,1.6v14.8c-1.1,0.2-2.1,0.2-3.2,0.3
	c-0.9-0.1-1.7-0.2-2.6-0.3c-0.2-0.5-0.4-1.1-0.5-1.7c-1.5-28.4,2.8-57-2.7-85.4c-0.4-2.1,2.3-4.5,2.4-6.9
	c0.7-10.8-3.5-21.5-16.5-23.7c-10.6-1.8-21.6-1.2-32.7-1.7c-0.2,1.3-0.3,2.7-0.3,4c1,8.8-1.6,17.7,2,26.6c1.5,3.7-1.9,9.1-1.9,13.7
	c-0.2,28.7-0.1,57.3-0.1,86v5.1h27.8c0.3,2,0.5,3.4,0.8,5.3h20.9c8.8,0,9.5,0.7,9.4,9.4c0,1.4-0.2,2.7-0.3,4.2h-82.9
	c0-4-0.2-7.6,0.1-11.3c0.1-1,1.3-2,2-3c0.8,1.1,2.2,2.1,2.4,3.3c0.2,2.2,0.3,4.5,0.1,6.7H771V282h-12.4c0,1.3,0,2.6-0.2,3.9
	c-0.5,2.1,1.7,5.5-2.5,5.6c-0.7,0-2-3.8-2-5.9c-0.3-6.1-0.1-12.2-0.1-18.4c-1.1-0.1-2.2-0.2-3.2-0.5c-1.9-0.7-3.7-1.6-5.6-2.4
	c2-0.8,4-2.3,6-2.4c5.7-0.3,11.5-0.1,17-0.1v-53.9c-7.6,0-14.8,0.1-22.1-0.1c-1.5-0.1-2.9-1.4-4.4-2.2c1.4-0.7,2.8-1.9,4.2-1.9
	c7.4-0.2,14.8-0.1,23.8-0.1c0.8-11.7,1.7-23,2.5-34.8h-85.8L686.3,168.9z"/>
<path d="M1179.5,586.7c1.2,0.4,2.4,0.7,3.6,0.9c7.3,0.5,7.3,0.5,7.3,7.9c0,8.9,0,17.9,0.8,26.8V434h-0.8v24.3
	c0,5.6-0.2,11.3,0.1,16.9c0.2,4.4-0.9,6.8-6,6.1c-1.2-0.1-2.3,0-3.5,0.1v4.5c0.4,0.2,0.7,0.4,1.2,0.5c8.3,0.4,8.3,0.4,8.3,8.6
	c0,27.2-0.1,54.5,0.1,81.7c0,4.3-1.3,5.4-5.8,5.8c-50.1,4.2-100.4,0.6-150.5,1.7c-3.8,0.1-7.7-1.2-11.4-2.2
	c-0.8-0.2-1.5-2.2-1.5-3.4c-0.1-29.4,0-58.7-0.1-88.1c0-5.6,4.3-3.3,7.4-4.4c0.1-1.3,0.2-2.7,0.3-4.5c-1-0.2-1.9-0.3-2.9-0.3
	c-3.5,0.3-4.8-1.2-4.8-4.6c0.1-29.4,0.1-58.7,0.1-88.1c0-0.7,0.2-1.3,0.1-0.8l8.7-4.7l0-0.1v4l-6.8,0.6v91.9l6.6,0.6v7.9l-6.5,0.8
	v92.6c10,0.4,19.5,1,29.1,1c38.9,0.1,77.8,0.1,116.8,0c6.4,0,12.8-1.5,18.9-2.2v-91.6l-8.3-0.5v-8.1l8.7-0.7v-6.1
	c0-12.5,0-25,0-37.5c0-3,0.2-5.5,5.1-3.7v5.5c0,60.7,0,121.3-0.1,182c0,0.9,0.3,1.9-0.1,2.6c-0.7,1.2-1.5,2.3-2.4,3.3
	c-0.8-1.1-2.3-2.2-2.3-3.4c-0.2-6-0.1-12-0.1-17.9v-13.6l-9-4L1179.5,586.7z"/>
<path d="M1179.5,383.1c2.1,4.7,6.7,2.1,10.6,3.4c0.2,2.1,0.3,4.5,0.5,6.8h0.4c0.5-4.2,1-8.5,1.6-13.2h-171.2v-12.4h-136l-0.2,0.9
	l6.3,1.1v46.7h14.8v65.5l-4.6,0.9v7.5l4.6,1.3v33.8c-1.6,0.1-3.2,0.3-4.7,0.3c-22.5,0-45.1,0-67.6,0c-1.6,0-3.2-0.7-4.9-1.1
	l-0.1,0.1c2-0.1,4-0.3,6-0.3c21.5,0,42.9,0,64.3,0h5.9v-31l-5-1.1v-10.6l4.8-0.8v-62.9h-15.2v-47c-1.7-0.1-3,0.1-4.1-0.4
	s-1.8-1.6-2.7-2.4c0.8-0.7,1.7-1.3,2.7-1.8c0.9-0.2,1.8-0.2,2.7-0.1h128.7c1.6,0,3.2,0.2,5.5,0.3v12.4h172.2
	c-0.6,5.6-1.1,10.9-1.9,16.1c-0.5,0.9-1.4,1.4-2.4,1.5c-1.1-0.4-1.9-1.2-2.3-2.2c-0.3-2.3-0.5-4.7-0.5-7h-8.5L1179.5,383.1
	L1179.5,383.1z"/>
<path d="M1021.2,186.1l14-3.3c0.2,2.3,0.3,3.7,0.3,5.1c0,30.2,0,60.5-0.1,90.7c0,1.6-1.6,3.3-2.4,5l-5.1-2.4l0.9-1.6
	c-6.8,1.1-7.8-2-7.8-7.4c0.3-26.7,0.1-53.4,0.1-80.1L1021.2,186.1z M1032.8,281.4V185l-9.3,2.6v88.1L1032.8,281.4z"/>
<path d="M1097.9,669.6h85.2c7.3,0,7.3,0,7.3,7.1v5.9c-30.9,2.8-61.6,0.5-92.5,1.5V669.6z M1099.2,671.3v11.5
	c29.9-0.8,59.4,1.1,89-1.3v-10.3H1099.2z"/>
<path d="M829.3,413.7c-0.4-0.9-1.1-1.8-1.1-2.6c-0.1-10.5,0.1-21-0.1-31.5c-0.1-5.2,4-3.2,6.8-4.3c0.3-1.6,0.6-3.5,1-5.7h9.3v45.6
	l-16-1.6H843v-43.2l-5.7,0.3c-0.3,2.5-0.5,4.7-0.8,6.8l-7.3,0.8L829.3,413.7z"/>
<path d="M1188.1,163.5v15.8h-41.1v-15.8H1188.1z M1186.6,164.9h-38v13h38V164.9z"/>
<path d="M1030.1,383.1c1.6-0.4,3.2-1.1,4.8-1.1c46.6-0.1,93.2-0.1,139.8,0c1.6,0,3.2,0.8,4.8,1.2l0.1-0.1H1030L1030.1,383.1z"/>
<path d="M1030.1,586.7c1.6-0.4,3.2-1.1,4.8-1.1c46.6-0.1,93.2-0.1,139.8,0c1.6,0,3.2,0.7,4.8,1.1l0.1-0.1c-2.2,0.1-4.3,0.3-6.5,0.3
	c-40.5,0-80.9,0-121.4,0C1044.5,586.9,1037.2,586.7,1030.1,586.7L1030.1,586.7z"/>
<path d="M306,211.3l28.8,13.2c-3.7,3.6-6.6,6.2-9.2,9.1c-1.3,1.4-2.1,3.2-3.2,5L296.6,226C299.9,220.8,302.9,216,306,211.3
	l-6.6,14.3l22,10.8c3.6-3.8,6.8-7.3,10.5-11.2c-6.2-3-11.2-5.4-16.1-7.9C312.4,215.4,309.2,213.3,306,211.3z"/>
<path d="M906.5,414.5h-12.9v-45h7.6c0.2,1.9,0.3,3.6,0.5,5.7l4.8,1.3V414.5z M895.2,370.7v42.5h10.1v-35.1l-4.9-0.6
	c-0.2-2.5-0.5-4.7-0.7-6.7H895.2z"/>
<path d="M802.5,307.3c0.2,0.3,0.4,0.6,0.5,1c0.9,10.1,0.9,10.1-9.5,10.1c-4,0-8-0.3-12,0.1c-5.2,0.5-5.4-2.2-5.5-6
	c-0.1-4,0.6-6.2,5.5-5.9c6.5,0.4,13,0.1,19.6,0.2C801.6,306.9,802,307.1,802.5,307.3z M800.8,316.3v-7.9h-22.4v7.9H800.8z"/>
<path d="M683.5,168c0,9.3,0.1,18.2-0.1,27.1c0,1-1.7,2-2.7,3c-1-1.1-2.9-2.2-3-3.3c-0.3-7.9-0.1-15.7-0.1-23.6
	C677.6,167.6,679.8,167.4,683.5,168z M681.5,169.1h-1.1V196h1.1V169.1z"/>
<path d="M320.2,214.8c0-0.5-0.3-1-0.1-1.4c2.6-5,5.2-9.9,8.1-15.5l15,7.3c-3.1,6-6.1,11.6-9.5,18.1l-13.7-8.6l13.3,5.9
	c2.6-4.9,5-9.6,7.7-14.7l-11.8-5.7L320.2,214.8z"/>
<path d="M933,319.6h-14.3c0-4.4-0.2-8.5,0.2-12.6c0.1-1.2,2-2.9,3.3-3.1c9.9-1.6,10.9-0.7,10.9,9L933,319.6z M930.9,318.4
	c1-13.5,0.5-14.1-9.8-12.1v12.1H930.9z"/>
<path d="M757,278.3V265h15.3v13.3L757,278.3z M758.6,277H771v-9.9h-12.4L758.6,277z"/>
<path d="M804.8,312.4h20.7c1.6,5.5,1.4,5.9-4,6c-4,0-8-0.1-12,0C805.2,318.7,803.1,317.4,804.8,312.4z M825,314h-19.3
	C809.3,317.5,822.3,317.4,825,314z"/>
<path class="st0" d="M1030,586.6c7.2,0.1,14.5,0.3,21.7,0.3c40.5,0,80.9,0,121.4,0c2.2,0,4.3-0.2,6.5-0.3l9,4v13.6
	c0,6-0.1,12,0.1,17.9c0,1.2,1.5,2.3,2.3,3.4c0.9-1,1.7-2.1,2.4-3.3c0.3-0.7,0.1-1.7,0.1-2.6c0-60.7,0-121.3,0.1-182v-5.5
	c-4.9-1.8-5.1,0.7-5.1,3.7c0.1,12.5,0,25,0,37.5v6.1l-8.7,0.7v8.1l8.3,0.5v91.5c-6.1,0.7-12.5,2.2-18.9,2.2
	c-38.9,0.2-77.8,0.2-116.8,0c-9.6,0-19.1-0.6-29.1-1v-92.5l6.5-0.8v-7.9l-6.6-0.6v-91.9l6.8-0.6v-4h149.6v4.2h8.5
	c0,2.4,0.2,4.7,0.5,7c0.4,1.1,1.2,1.9,2.3,2.2c1,0,1.9-0.6,2.4-1.5c0.8-5.2,1.2-10.5,1.9-16.1h-172.2v-12.5
	c-2.3-0.1-3.9-0.3-5.5-0.3H888.8c-0.9-0.1-1.8-0.1-2.7,0.1c-1,0.5-1.9,1.1-2.7,1.8c0.9,0.8,1.6,1.9,2.7,2.4s2.4,0.3,4.1,0.4v47h15.2
	v63l-4.8,0.8v10.6l5,1.1v30.9h-5.9c-21.5,0-42.9,0-64.3,0c-2,0-4,0.2-6,0.3v-31.4l7.3-0.7v-11.1l-6.7-0.5v-62.8h18.6v-45.3l5.5-5.4
	l-1-1.2h-28.7v157.6h-65.5V370.4h37.1c1.4,0.1,2.9,0.1,4.3-0.2c0.9-0.3,1.5-1.1,1.7-2c-0.2-0.9-0.8-1.7-1.6-2
	c-1.1-0.2-2.2-0.3-3.2-0.1h-82.4c-0.5,0-1.2-0.2-1.6,0c-1.2,0.6-2.3,1.5-3.4,2.2c1.2,0.7,2.4,2,3.6,2c11.3,0.2,22.5,0.1,33.8,0.1
	h6.4v153.4H609.5v-7.1c0-32.5,0-65.1,0-97.6c0-2.7,1-6.6-5-4.9v109.6h-86.3c0-9.5-0.1-18.7,0.1-27.8c0-1.3,1.4-2.6,2.4-3.7
	c4.2-4.1,4-8.2-0.3-12.3c-1.3-1.3-2-3-2.2-4.8c-0.1-30.8-0.1-61.5,0-92.3c0-1.9,1.6-3.9,2.6-5.7c1.2-2.1,2.5-4.1,4-6.7H575
	c1.3,0,2.7,0.3,3.8-0.1c1-0.5,1.7-1.3,2.1-2.3c0.1-0.4-1.2-1.5-2-1.8c-1.1-0.2-2.2-0.2-3.3-0.1c-8.2,0-16.4-0.5-24.5,0.1
	c-17.8,1.4-34.8-1.9-51.6-6.8c-3-0.9-4.5-0.6-4.7,3.3l14.1,3.8c-2.3,4.7-1.4,8.5,2.9,11.8c1.1,0.8,1.4,3.1,1.4,4.7
	c0.1,30.6,0.1,61.2,0,91.8c-0.2,2-1,3.8-2.4,5.2c-4.2,4.2-4.3,8.1-0.1,12.3c1.1,1,2.5,2.4,2.5,3.7c0.2,8.9,0.1,17.9,0.1,27.5
	c-7.5-0.9-14.4-1.7-21.4-2.7c-14.2-2-28.3-3.9-42.5-6c-3.6-0.4-7.1-1.2-10.5-2.3c-20-7.2-40-14.5-59.9-21.9c-3.5-1.3-6.9-3-10.6-4.7
	c3.7-7.1,7.1-13.8,10.9-20.4c0.7-1.2,2.6-2,4.2-2.5c5.5-1.9,7.4-5.8,5.8-11.2c-0.6-1.9-0.5-3.9,0.2-5.7c14.4-27.5,28.9-55,43.5-82.4
	c0.7-1.4,1.9-2.4,3.3-2.9c5.2-1.1,7.7-4.2,8-9c5.1,0.8,9.9,1.5,14.8,2c0.2,0,0.7-1.8,1.3-3.4c-8-1.9-15.7-3.6-23.4-5.4
	c-2.8-0.5-5.5-1.3-8.2-2.4c-9.6-4.5-19-9.4-28.6-13.9c-1.4-0.6-3.3-0.2-5-0.3c1.1,1.4,1.8,3.5,3.2,4.2c10,5.2,20.2,10.1,29.2,14.5
	c0.7,4,1.4,7,1.6,10c0.1,1.7-0.2,3.4-0.9,4.9c-14.3,27.2-28.6,54.4-43.1,81.5c-1.1,1.8-2.9,3.1-4.9,3.8c-5.5,1.9-7.7,6.2-5.5,11.7
	c0.4,1,1,2.4,0.6,3.2c-3.5,7-7.3,14-11.2,21.4l-61.3-30.2c6.4-12.1,12.6-24,18.8-35.8c16.4-30.9,32.7-61.8,49-92.7
	c0.4-1.2,1-2.3,1.7-3.3c4.3-4.7,4.3-4.7-1.6-7.6c-13.2-6.5-26.5-13-40.2-19.8l-2.6,3.7l40.9,20.2L299,451.4l-67.4-33.2
	c4.3-8.2,8.4-15.9,12.6-24l6.8,2.5c1.7-3.2,3.4-6.4,5.2-9.7l-6.2-3.7c16.1-30.6,32.2-61.2,48.3-91.9l6.2,2.7l6.9-9.3l-12.4-6.2
	c-3.7,7.5-7,14.8-10.7,21.9c-19.7,37.5-39.5,75-59.2,112.4c-0.5,0.9-1.1,1.8-1.8,3l-59.3-29.2L238,253.7l38,18.7
	c3.3-2.8,2-4.1-0.9-5.5c-25.7-12.6-51.4-25.3-77.2-38c-3,2.5-2.2,3.9,1,5.5c11.5,5.6,22.9,11.3,34.9,17.3
	c-23.3,44.3-46.6,88.3-70.2,133.1l-59.5-29.3c5.1-9.4,9.9-18.4,14.6-27.4c17.6-33.4,35.2-66.8,52.8-100.2c1.5-2.9,4.1-5.3,6.5-8.3
	l-7.8-4.5l2.3-5.4c-5-4.5-4.6,1.9-7.3,3.1c-9-4.4-18.3-9-27.7-13.4c-1.4-0.6-3.4,0-5.1,0.1l-0.2,2l31.3,15.6c-1,2.2-1.9,4.1-2.8,6.2
	l6.1,3.5l-48.4,91.8l-6.6-2.7l-5.3,9.6l6.1,3.8c-4.2,8-8.4,16-12.7,24.2l-89.9-44.3L22.8,285l5,1.8c1.7-3.1,3.4-6.2,5.2-9.5
	l-4.4-3.2l48.3-91.6l4.8,1.7l2.6-4.2l7.2-1.9l-0.3-1.8L50,156l23.5-44.6l26.2,13l-2.8,6.5l9.9,4.9l3.6-5l21.5,10.5
	c-5.8,11-11.3,21.8-17.2,32.4c-2.3,4.1-5.5,7.8-8.2,11.7c-0.5,0.8-0.8,2.6-0.5,2.8c2,1.2,4.1,2.1,6.3,2.8c0.3,0.1,1.6-1.6,1.9-2.6
	c0.6-2,0.5-4.3,1.5-6.1c6.8-13.2,13.7-26.2,20.6-39.4c4.7,1.9,9,3.6,13.4,5.2c0.7-1,1.3-2,1.9-3l-76.3-37.7
	c6.6-11.8,12.2-23.7,19.5-34.7S117,58.3,129.7,63c2.7,1,5.3,2.1,8.2,3.2l18.3-34.5l5.4,1.2l4.7-9l-4.2-3.4l5.1-9.6l87,42.9
	c-3.7,2.9-1.6,9.3-8.7,9.1c-2.2,0-4.6,8.2-3.6,10.4c0.4,1,0.4,2.2-0.1,3.2c-15.6,29.7-31.2,59.3-47.2,89.6l-15.9-7.6
	c-1.8,2.7-1.8,2.7,10.3,10.4c-1.6,2.9-3.1,5.8-4.4,8.9c-0.6,1.4-0.1,3.3-0.1,4.9c1.4-0.9,2.8-1.8,4.1-2.9c0.7-0.8,1.3-1.7,1.7-2.7
	l21.2,10.4c6.8,3.3,13.6,6.6,20.4,10.1c2.9,1.5,4.3,0.9,5-2.5L199,176.1c0.4-2.9,4.5-5.6,0.5-8.6c-0.2-0.1,0.3-1.3,0.6-1.9
	c10.9-20.7,21.9-41.5,32.9-62.3c6,2.9,11.6,5.8,17.3,8.4c1.3,0.6,3.1,0,4.6-0.1c-0.8-1.2-1.3-3-2.5-3.6c-5.5-3-11.1-5.6-17.3-8.7
	c3.9-7.4,6.9-15.1,11.8-21.4c1.9-2.5,6.1-3.9,7.4-7.6c0.3-0.8,1.2-2,0.9-2.3c-3.9-5.1,1.7-7.9,2.6-12.5l63,31l-23,43.6l-22.3-10.8
	c-2.8,2.4-2.2,3.8,0.7,5.3c6.5,3.1,12.9,6.4,19.5,9.7c-12.1,22.9-24,45.5-36,68c-1.1,2.1-3.4,3.6-5.6,5.9l8.3,4.3
	c0.7-3.1,0.7-6.1,1.9-8.4c19.9-38,39.8-75.9,59.9-113.8c0.4-0.5,0.8-1,1.3-1.5l61.6,30.4c-2.7,3.5-2.4,7.9-7.5,10.2
	c-2.4,1.1-2.9,6.3-4.2,9.7c-0.3,0.8,0.2,2-0.2,2.7c-10.5,20-21,39.9-31.7,60.2l-16.3-7.9c-3.3,6-6.5,12-10.1,18.5l-13-6l-8.8,16.3
	c-4.3-1.4-8.3-2.8-12.3-4c-0.6,0.8-1.1,1.7-1.5,2.6c1.8,1,3.4,2,5.1,2.9c38.4,18.9,76.8,37.9,115.3,56.8c2.6,1.3,5.2,3,6.1-1.9
	l-16-8.1c0.8-2,1.5-3.7,2.4-5.9l-5-2.9c-1.8,4.1-4.3,3.6-7.6,1.8c-15.7-8-31.6-15.6-47.3-23.4c-1.2-10.7,5.6-18.4,10-26.8
	c11.6-22.6,23.4-45.1,35.5-67.4c2-3.8,6.1-6.6,8.2-10.4c1.7-3.1,1.2-7.4,2.9-10.6c6.1-11.7,20.2-16.7,32.2-11.3
	c11.5,5.2,22.6,11.1,34.5,17.1c-4.7,9-8.6,18.2-14.2,26.4c-1.5,2.3-5.8,4.1-6.2,7.2c-2,14.3-11.3,25.3-17.2,37.8
	c-6.1,12.7-13,25-19.7,37.4c-2.5,4.7,0.9,4.8,4.2,5.8l8.7-16.1c4,1.9,6.1,0.6,6.8-3.7l-3.6-2.9c11-17.7,17.5-37.8,31.4-54.6
	l42.5,20.9c-9.8,18.6-19.6,37.1-29.5,55.9l-17.1-8.2l-3.2,5.3l23.1,11.5l32.5-61.5l12,5.7c-1.4,5.8,1.2,9.4,7.2,11.4l-27,51.1
	l-7.4-2.7l-2.5,8.8h101.2c0.8-5.1,0.8-5.2-4.4-5.2c-25.1,0-50.2,0-75.3,0h-6.7c2.7-5.2,5.1-9.7,7.4-14.1c7-13.3,14.1-26.5,20.7-39.9
	c1.4-2.8,1-6.5,1.4-9.8c0.2-1.7,0.4-3.4,0.7-5.5l-4.6-2.6c-2.3,5.3-5.6,4.3-9.9,2.2c-18.8-9.5-37.7-18.7-56.6-28.1
	c-1.1-0.5-2.1-1.2-3.4-2l14.6-27.8l66.7,32.9l-3.3,6.7l5,2.7c6-7.6,6-7.6,16.5-7.6h55.9c0.1,2.1,0.3,3.8,0.3,5.5
	c0,27.4,0,54.9-0.1,82.3c0,1.9-1.5,3.8-2.1,5.8c-0.3,1.1-0.7,3-0.3,3.2c3.8,2.1,2.5,5.5,2.5,8.4c0.1,14.6,0,29.2,0,44.1H524
	c0.2-6.5-4.2-8.8-10-10c-13-2.9-26.1-5.8-39-9c-2.1-0.5-6.6,0.7-5.3-4.4c0.1-0.6-2.7-1.8-3.6-2.4l-13,9c-3-1.5-6.4-3-9.6-4.8
	s-4,0-4.9,2.7c3.9,2,7.8,3.9,11.6,5.8c1.5,0.7,2.9,1.5,4.1,2.5c7.8,7.2,12.8,5.9,16.2-4.7l38.1,8.8c-0.2,1.2-0.5,2.3-0.7,3.5
	c-1.1,5.7,3.9,10.2,9.9,9c3.3-0.7,6.7-1.1,10.1-1.2c38.9-0.1,77.8-0.1,116.7,0c1.4,0.1,2.9,0.1,4.3-0.1c0.9-0.2,1.6-1.4,2.4-2.1
	c-0.8-0.7-1.5-1.9-2.5-2c-2.2-0.2-4.4-0.2-6.5-0.1h-32.4v-51.9c3.3,0,6.7,0.2,10.1-0.1c1.4-0.1,2.7-1.4,4.1-2.2
	c-1.4-0.9-2.8-2.3-4.3-2.5c-3-0.4-6.1-0.1-9.7-0.1v-53.7h13.2c0.6-3.4,0.6-3.4-13.3-5v-33.8h64.2v34.1h-31.8
	c-0.7,4.4-0.7,4.5,3.1,4.5c10.2,0.1,20.4,0,30.5,0h5.6v53.9h-21.5c-3.6,0-7.3-0.2-10.9,0.1c-1.2,0.1-2.4,1.4-3.5,2.1
	c1.2,0.9,2.4,2.5,3.7,2.5c9.8,0.2,19.6,0.1,29.5,0.2c1,0.1,1.9,0.2,2.8,0.3v43.7c-2.3,0.5-5.5,0.2-6.2,1.4c-1.6,2.5-2.2,5.7-2.8,8.6
	c-0.1,0.5,1.8,2,2.8,2c15.1,0.1,30.2,0.1,45.3,0c1,0,1.9-1.4,2.8-2.1c-1-0.7-2-2-2.9-2c-9.3-0.2-18.5-0.1-27.8-0.1h-6.1v-51.8
	c7.5,0,14.8,0,22.2,0c3.6,0,7.3,0.3,10.9-0.1c1.3-0.1,2.4-1.7,3.6-2.6c-1.2-0.7-2.4-2.1-3.6-2.1c-10-0.2-20-0.1-30-0.1
	c-0.9,0-1.8-0.2-3-0.3v-53.6h11.5c7.3,0,14.5,0.1,21.8-0.1c1.4,0,2.8-1.2,4.2-1.9c-1.5-0.8-2.9-2.2-4.4-2.2
	c-10.9-0.2-21.8-0.1-33.7-0.1v-34.8h85.8c-0.9,11.9-1.7,23.1-2.5,34.8c-9,0-16.4-0.1-23.8,0.1c-1.4,0-2.8,1.2-4.2,1.9
	c1.5,0.8,2.9,2.2,4.4,2.2c7.2,0.2,14.5,0.1,22.1,0.1v53.9c-5.6,0-11.3-0.2-17,0.1c-2,0.1-4,1.5-6,2.4c1.8,0.8,3.7,1.7,5.6,2.4
	c1.1,0.3,2.1,0.4,3.2,0.5c0,6.2-0.2,12.3,0.1,18.4c0.1,2.1,1.3,5.9,2,5.9c4.2,0,2-3.5,2.5-5.6c0.2-1.3,0.3-2.6,0.2-3.9H771v36.3
	h-12.6c0.2-2.2,0.1-4.5-0.1-6.7c-0.2-1.2-1.6-2.2-2.4-3.3c-0.7,1-1.9,2-2,3c-0.3,3.6-0.1,7.3-0.1,11.3h82.9c0.1-1.5,0.3-2.8,0.3-4.2
	c0.1-8.6-0.6-9.4-9.4-9.4h-20.9c-0.3-1.8-0.5-3.3-0.8-5.3H778v-5.1c0-28.7-0.1-57.3,0.1-86c0-4.6,3.4-9.9,1.9-13.7
	c-3.6-8.9-1-17.8-2-26.6c0-1.3,0.1-2.7,0.3-4c11.1,0.5,22.1-0.1,32.7,1.7c13,2.2,17.2,13,16.5,23.7c-0.2,2.3-2.8,4.8-2.4,6.9
	c5.5,28.4,1.1,57,2.7,85.4c0.1,0.6,0.3,1.1,0.5,1.7c0.9,0.2,1.7,0.3,2.6,0.3c1.1,0,2.1-0.1,3.2-0.3v-14.8l5-1.6v-5.1l-4.7-1.1
	c0-10.6-0.3-21.3,0.1-31.9c0.4-10.1-2.5-20.7,3.6-30.4h45.6v62.8h-18.3c-1.4,4.5-0.9,6.8,4.3,6.6c7.4-0.3,14.9-0.1,23-0.1
	c-0.8-3.8-2-7.1-2-10.4c-0.2-16.4-0.1-32.7-0.1-49.1V203h9.2c0.2,1.3,0.5,2.8,0.9,4.9h14.7v57.8l-5.8,4.8l1,1.5h9.6v-68l-6.3-0.6
	c0-0.1,0-0.3,0-0.5h63.7v115.3h-41v-17.5c-6.5,0-12.4-0.2-18.3,0.2c-0.9,0-2.3,2.3-2.4,3.6c-0.3,4.6-0.1,9.3-0.1,13.9l-1.6,0.4
	c-0.5-0.8-1.6-1.7-1.5-2.4c0.7-4.9-2.1-5.6-6.2-5.2c-1.8,0.2-3.6,0-5.7,0v11.7h91.2c0.4,0.1,0.7,0.1,1.1,0c1.5-0.7,3-1.5,4.4-2.3
	c-1.4-0.7-2.8-1.8-4.2-2c-2.8-0.2-5.6-0.2-8.4-0.1V203h31.3v75.9c0,7.7,0,7.7,7.8,7.9c1.1,0,2.2,0.2,3.6,0.3v13.2
	c-0.7,0.2-1.3,0.4-2,0.5c-9.5,0.5-9.5,0.5-9.5,9.5c0.1,2.1,0.1,4.2-0.1,6.3c-0.5,2.1-1.1,4.1-1.9,6.1h16.4c0.7-3.6,0.7-3.6-7.2-4.5
	v-12l9-0.9v-18h22.7v30.7c-2.1,1.7-7.5-1.4-5.9,5h23.1c6.4,0,12.7,0.1,19.1-0.1c1.3,0,2.6-1.6,3.8-2.5l-0.9-1.7h-33.5
	c0-10.7-0.2-20.9,0.1-31c0.1-4.6-1.1-6.4-6.1-6s-10.1,0.1-15.4,0.1v-97h5.8c42.9,0,85.8-0.1,128.8,0.1c5.2,0,10.4,2.3,15.4,1.9
	c47.2-4.6,94.4-0.7,141.6-1.9c6.1-0.1,12.2,1.2,18.6,1.9v90.5c-2.9,0.8-7.3-0.9-8,4.1c0,0.3-3,0.4-4.6,0.4
	c-34.7,0-69.5,0.1-104.2-0.1c-4.7,0-6.4,0.9-6.2,5.8c0.4,10.2,0.1,20.3,0.1,31.2h-6.2c-28.4,0-56.7,0-85.1,0c-2.6,0-6-0.7-4,4.4h5.7
	c27.8,0,55.6-0.1,83.5,0.1c3.5,0,6.9,1.2,11.1,1.9c0-11.5,0.1-22.6-0.1-33.6c-0.1-3.6,1-4.9,4.9-4.9c36.7,0.2,73.5,0.2,110.2,0.3
	c1,0.1,1.9,0.2,2.9,0.3v91.4h-117.9c0-9.5,0-18.8,0-28.1c0-3-0.2-5.5-5.2-3.7v36.2h115.6c-0.6,6.3,4.2,3.8,7.5,4.7v91.9l-6.5,0.8
	c-1.4,7.9-1.4,8,6.5,8.5V580c-7.6,0.9-7.6,0.9-6.7,8.5l6.7,0.6v92.2l-6.7,0.4v8l6.8,0.6v67.2c-9.9,0.5-19.7,1.3-29.6,1.4
	c-26.6,0.2-53.1,0.1-79.7,0.1h-7v-76h-11c1.4,2.5,2.4,4.4,3.4,6.2c0.6,0.8,1,1.7,1.1,2.7c0.1,22.1,0,44.3,0,67.1
	c-10.7,0-21,0.2-31.3-0.1c-4.2-0.1-8.5-2.5-12.4-1.8c-26.8,4.6-53.7,0.7-80.5,2c-1.4,0.1-2.9-0.1-4.7-0.2v-69.4H1199v-6.4l-5.5-0.5
	c0-7.3,0-14.4,0-21.5c0.1-1.4,0.1-2.8-0.1-4.2c-0.3-0.9-1.4-1.6-2.1-2.4c-0.9,0.8-2.4,1.6-2.5,2.5c-0.3,3.1-0.1,6.3-0.1,9.9h-94
	v15.7H1074v6.5h16.7v70c-22.5-1.3-44.8,2-67.4-2.3v-66.6l24.3-1.5v-5.4l-24.7-1.6v-91L1030,586.6z M688.6,366.1
	c-18.2,0-35.6,0-53,0.1c-0.9,0-1.8,1.4-2.7,2.2c1,0.7,2,1.9,3,2c4.9,0.2,9.8,0.1,14.7,0.1h23.6c0.8,8.1,1.8,8.6,11.7,6.7
	C686.7,373.6,687.5,370.3,688.6,366.1z M602.8,366.3c0.6,4.5,1.4,8.5,1.6,12.6c0.3,4.3,0.1,8.7,0.1,14.8c2.4-1.6,4.7-2.3,4.8-3.3
	c0.6-8,0.8-16,1.1-24.2H602.8z M1193.1,286.2c1.3-9.4-1-10.6-13.4-7.9v7.9H1193.1z M674.3,481.2c0.3,3.7-0.7,8.4,1.2,10.4
	s6.8,1,10.5,1.4v-11.7L674.3,481.2z"/>
<path class="st0" d="M1032.8,281.4l-9.3-5.7v-88.1l9.3-2.6V281.4z"/>
<path class="st0" d="M1099.2,671.3h89v10.3c-29.6,2.3-59.1,0.4-89,1.3V671.3z"/>
<path class="st0" d="M829.3,413.7v-35.5l7.3-0.8c0.2-2,0.5-4.2,0.8-6.8l5.7-0.3v43.2h-13.9L829.3,413.7z"/>
<path class="st0" d="M1186.6,164.9v13h-38v-13H1186.6z"/>
<path class="st0" d="M306,211.3c3.3,2,6.4,4.1,9.8,5.9c4.9,2.6,9.9,4.9,16.1,7.9c-3.7,4-6.9,7.4-10.5,11.2l-22-10.8L306,211.3
	L306,211.3z"/>
<path class="st0" d="M895.2,370.7h4.6c0.2,2.1,0.4,4.3,0.7,6.7l4.9,0.6v35.1h-10.1V370.7z"/>
<path class="st0" d="M800.8,316.3h-22.4v-7.9h22.4L800.8,316.3z"/>
<path class="st0" d="M681.5,169.1V196h-1.1v-26.9H681.5z"/>
<path class="st0" d="M320.2,214.8l9.2-14.6l11.8,5.8c-2.7,5.1-5.1,9.8-7.7,14.7L320.2,214.8L320.2,214.8z"/>
<path class="st0" d="M930.9,318.4h-9.8v-12.1C931.4,304.3,931.9,304.9,930.9,318.4z"/>
<path class="st0" d="M758.6,277v-9.9H771v9.9H758.6z"/>
<path class="st0" d="M825,314c-2.8,3.3-15.7,3.4-19.3,0H825z"/>
<path d="M688.6,366.1c-1,4.2-1.9,7.6-2.7,11c-9.9,1.9-11,1.4-11.7-6.7h-23.6c-4.9,0-9.8,0.1-14.7-0.1c-1,0-2-1.3-3-2
	c0.9-0.8,1.8-2.2,2.7-2.2C653,366,670.3,366.1,688.6,366.1z M635.4,367.6c0,0.5,0,1.1,0,1.6h40.7l0.9,6.2h7.8
	c0.4-2.8,0.7-5.3,1.1-7.9H635.4z"/>
<path d="M602.8,366.3h7.6c-0.3,8.2-0.5,16.2-1.1,24.2c-0.1,0.9-2.4,1.7-4.8,3.3c0-6.1,0.2-10.5-0.1-14.8
	C604.2,374.8,603.5,370.7,602.8,366.3z M605.9,367.5v22.8h1.4c0.3-7.5,0.7-15.1,1-22.8L605.9,367.5z"/>
<path d="M1193.2,286.2h-13.4v-7.9C1192.2,275.6,1194.5,276.8,1193.2,286.2z M1180.6,279.8c0.2,2,0.4,3.5,0.5,4.7h10.5
	c-0.2-1.8-0.4-3.3-0.5-4.7H1180.6z"/>
<path d="M674.3,481.2H686V493c-3.7-0.3-8.6,0.6-10.5-1.4S674.6,484.9,674.3,481.2z M684.8,490.5v-7.8h-7.9v7.8H684.8z"/>
<path class="st0" d="M635.4,367.5h50.4c-0.3,2.5-0.7,5-1.1,7.9H677l-0.9-6.2h-40.7C635.4,368.6,635.4,368.1,635.4,367.5z"/>
<path class="st0" d="M605.9,367.5h2.5c-0.3,7.7-0.7,15.3-1,22.8H606L605.9,367.5z"/>
<path class="st0" d="M1180.6,279.8h10.5c0.2,1.4,0.3,2.9,0.5,4.7h-10.5C1181,283.2,1180.8,281.8,1180.6,279.8z"/>
<path class="st0" d="M684.8,490.5h-7.9v-7.8h7.9V490.5z"/>
</svg>
