<?xml version="1.0" encoding="utf-8"?>
<!-- Generator: Adobe Illustrator 24.1.1, SVG Export Plug-In . SVG Version: 6.00 Build 0)  -->
<svg version="1.1" id="图层_1" xmlns="http://www.w3.org/2000/svg" xmlns:xlink="http://www.w3.org/1999/xlink" x="0px" y="0px"
	 viewBox="0 0 1366 768" style="enable-background:new 0 0 1366 768;" xml:space="preserve">
<style type="text/css">
	.st0{fill:#FFFFFF;}
</style>
<path class="st0" d="M0,768V0h1366v768H0z M1015.5,369.2v9c0.1,121.5,0.1,242.9,0.1,364.4c0,5.8,1,7.9,7.5,7.9
	c106.7-0.2,213.3-0.3,320-0.1c5.5,0,7.6-1,7.6-7.2c-0.1-185.2-0.1-370.5,0.1-555.7c0-6.3-1.6-8.3-8.1-8.2
	c-48.2,0.3-96.4,0.1-144.5,0.1h-8.3v-18.6h-50.2v18.6h-7.8c-36.6,0-73.2,0.1-109.8-0.1c-4.2,0-7,0.5-6.5,5.6
	c0.3,3.9,0.1,7.8,0.1,11.7H838.5c-0.8-4.8-1-9.3-2.3-13.4c-4.3-12.9-14.2-18.7-30.8-18.7c-84.8,0-169.6,0-254.4,0
	c-3.1,0.1-6.2-0.4-9.1-1.6c-16.3-7.6-32.5-15.6-48.6-23.4c-18.7-9-37.3-18.1-55.9-27.2c-7.8-3.8-17.3-5.5-23.5-0.7
	c-9.3,7.1-16.1,3.8-24-0.7c-1.1-0.6-2.4-0.8-3.5-1.4c-38.9-18.9-77.9-37.9-116.9-56.9c-26.5-13-52.9-26.1-79.4-39.2
	c-3.1-1.6-6.5-2.7-9.9-4l-31,57.3l-6.9-2.7c-5.9,10.3-11.8,20-17.2,30.1c-8.9,16.3-17.5,32.8-26.3,49.2
	c-10.2,19.2-20.4,38.3-30.6,57.5c-9.2,17.3-18.5,34.6-27.7,51.9c-3,5.7-5.8,11.5-8.6,17.1l6.3,4.4l-17.8,35.3l17.8,9.3l-24.2,47.7
	c2.6,1.4,4.6,2.5,6.6,3.5c31.9,15.6,63.9,31.3,95.9,46.8c14.9,7.3,29.8,14.4,44.7,21.5c7.4,3.5,15,2.9,20.4-2.8
	c10.5-11,19.4-23.1,13.8-40.3c8,3.8,15.7,7.4,23.4,11.1c39.3,19.2,78.6,38.4,118,57.4c19,9.2,37.7,19.4,57.4,26.6
	c28.6,10.4,56.3,23.9,87.6,25.6c18,1,35.9,5.2,53.8,5.3c123.7,0.5,247.4,0.3,371.1,0.3h7.5V369.2H1015.5z"/>
<path d="M1015.5,369.2H914.5v152.5h-7.5c-123.7,0-247.4,0.2-371.1-0.3c-18-0.1-35.8-4.2-53.8-5.3c-31.2-1.8-59-15.2-87.5-25.6
	c-19.7-7.2-38.4-17.4-57.4-26.6c-39.4-19-78.7-38.3-118-57.4c-7.6-3.7-15.4-7.3-23.4-11.1c5.7,17.2-3.3,29.3-13.8,40.3
	c-5.5,5.7-13,6.4-20.4,2.8c-14.9-7.1-29.9-14.2-44.7-21.5c-32-15.6-64-31.2-95.8-46.9c-2-1-4-2.1-6.6-3.5L38.4,319l-17.8-9.3
	l17.8-35.2l-6.3-4.4c2.8-5.7,5.6-11.5,8.6-17.1c9.2-17.3,18.5-34.6,27.7-51.9c10.2-19.2,20.4-38.3,30.6-57.5
	c8.7-16.4,17.4-32.8,26.3-49.2c5.5-10,11.3-19.8,17.2-30.1l6.9,2.7l31-57.3c3.4,1.4,6.7,2.5,9.9,4c26.5,13,52.9,26.2,79.3,39.2
	c38.9,19.1,77.9,38,116.9,56.9c1.1,0.5,2.4,0.8,3.5,1.4c7.9,4.5,14.7,7.8,24,0.7c6.3-4.8,15.7-3.1,23.5,0.7
	c18.6,9.1,37.2,18.1,55.9,27.2c16.2,7.8,32.4,15.8,48.6,23.4c2.9,1.2,6,1.7,9.1,1.6c84.8,0.1,169.6,0.1,254.4,0
	c16.5,0,26.5,5.8,30.8,18.7c1.4,4.1,1.5,8.6,2.3,13.4h177.1c0-3.9,0.3-7.8-0.1-11.7c-0.4-5.2,2.3-5.7,6.5-5.6
	c36.6,0.1,73.2,0.1,109.8,0.1h7.8v-18.6h50.2v18.6h8.3c48.2,0,96.4,0.1,144.5-0.1c6.5,0,8.1,1.9,8.1,8.2
	c-0.2,185.2-0.2,370.5-0.1,555.7c0,6.2-2.1,7.2-7.6,7.2c-106.7-0.1-213.3-0.1-320,0.1c-6.4,0-7.5-2.1-7.5-7.9
	c0.1-121.5,0.1-242.9-0.1-364.4V369.2z M773.8,204.9c0-2.3,0-4.5,0.1-6.8c0.7-8.8,1.4-17.5,2.1-26.4H726c0,4.1,0.2,7.8-0.1,11.5
	c-0.1,1.1-1.2,2.2-1.9,3.4c-0.9-1.2-2.5-2.3-2.6-3.5c-0.3-3.7-0.1-7.4-0.1-11.4h-28.3v7.2c0,31,0.1,61.9-0.1,92.8
	c0,2.9-1.5,5.8-2.3,8.6c-5.1-1.7-2.5-6-2.5-9c-0.3-12.8-0.1-25.7-0.1-38.5v-23.3l-6-1.1v-10.6l5.6-1v-25.5h-7.8
	c-42.3,0-84.6,0.1-126.9-0.1c-5.3,0-8.9,1.2-10.6,6.4c-0.1,0.3-0.7,0.3-1.5,0.7l-4.3-2.6c1-2.3,1.7-4.1,2.6-6.3l-65.6-32.2
	l-13.8,27.3c20.8,10.2,40.9,20.1,61,29.8c1.1,0.6,2.8,0.3,4.2,0.1c2.7-0.5,5.4-1.3,9.4-2.2c-1.7,3.4-3.2,5.6-2.9,6
	c5.2,5.5-0.5,9-2.4,12.8c-9.2,18.7-18.8,37.1-28.7,56.4c-4.3-3.3-12.9,0.1-9.6-9.8l7.3,2.8l26.1-49.2l-2.8,1.3
	c-1.2-2.2-3.6-4.5-3.5-6.6c0.5-8.3-6.3-8.5-11.5-11.7c-2.7,4.3-5.4,8.1-7.6,12.3c-7.3,14.2-14.5,28.4-21.6,42.7
	c-1.5,3-3.2,5.4-7.1,3.3c-6-3.2-12.1-6.4-18.5-9.8l3-5.4l16.9,8.3c9.4-18.3,18.5-36,28-54.5l-41.3-20.2c-5.4,8.4-11,16.6-15.9,25.2
	c-5.1,9.1-9.5,18.6-14.3,28.1c4.9,2.1,3.8,6.4,0.6,6.4c-5.2,0.1-5.3,3.6-7.1,6.3c-2,3.1-4.1,6.1-6.3,9.5l-5.8-3.4
	c3.9-6.4,7.8-12.1,11-18.3c6.9-13,13.3-26.2,20-39.2c3.6-6.6,6.6-13.4,9-20.5c0.7-2.2,4.2-3.4,5.4-5.6c4.4-8.1,8.4-16.3,12.8-25
	c-10.8-5.3-21.2-10.3-31.5-15.3c-1.5-0.7-3-1.4-4.6-1.9c-12-4.2-27.5,3.8-30.8,15.9c-0.9,3.4-1.3,7.1-2.8,10.2
	c-0.8,1.9-3.8,2.7-4.8,4.6c-5.5,9.5-10.8,19.1-15.9,28.8c-5.6,10.6-10.4,21.6-16.5,31.8c-6,10.1-13.2,19.5-13.6,32.1l50.8,24.6
	c2.4-4.3,5-4.2,8,0.1l-6.5,10.4c-1.9-1.8-3.6-4.2-5.9-5.3c-11.1-5.7-22.5-11-33.7-16.5l-53.5-26l10.7-21c2.7,1.5,4.8,2.5,6.8,3.7
	c4.5,2.9,7.4,2.3,9.5-3c1.6-4.2,4.2-8.1,6.6-12.6L356,203c6.5-12.4,13.3-24.2,19-36.4c4.3-9.1,11.6-16.9,11.6-27.9
	c0-1.1,1.5-2.3,2.4-3.4c3.3-3.9,6.7-7.7,10.5-12.2L182.9,17.5l-4.8,9.4c4.3,2.5,5.5,1.4-1.5,11.3c-2.6,1.1-5.3,2.4-6.5,4.5
	c-5.8,10.2-11.3,20.6-16.8,30.8l-7.2-2.8c-8.3,15.1-16.3,29.9-24.4,44.8l6.2,4.1l-2.7,6.9l92.7,45.4l-6.7,9.9
	c-3.8-2.8-11.1-2.1-8.4-10.2c-7.7-3.7-15-7.1-22.4-10.7c-15.8-7.7-31.6-15.5-47.4-23.4c-3.7-1.8-7.2-3.6-9.9,2.2l-9.8-7.6L96.5,163
	l7.7,3.7l-4,7l4.5,2.6c-4.3,11.1-6.3,11.7-15.5,4.3l4.5-10.3l-0.8-0.3c-17.7,33.3-35.4,66.6-53.1,99.9l12.2,5.8l-4.9,9.5l-6.4-0.9
	L29.2,307l64.6,31.5l-5.1,10l-46.5-22.7l-19.3,38.1c2.1,1.1,3.5,1.9,5,2.6c29.7,14.5,59.4,29,89.2,43.6
	c15.1,7.3,30.1,14.6,45.2,21.8c8.6,4.1,14.9,1.9,19.4-6.5c1.5-2.8,2.6-5.8,4.5-8.3c7.6-9.8,6.5-16.7-4-22.8c-1.8-1-3.7-1.9-5.6-2.8
	c-21.2-10.5-42.5-20.8-63.7-31.4c-8.9-4.4-8.8-4.6-2.4-13c0.9,0.2,1.9,0.6,2.8,0.9c17.5,8.5,35.1,16.9,52.6,25.4
	c27.1,13.2,54.2,26.3,81.3,39.5c30.7,15,61.3,30.1,92,44.9c20,9.6,39.6,20.2,60.4,27.8c27.3,10,54,22.8,84,24.3
	c18,0.9,35.9,5.1,53.8,5.2c94.7,0.5,189.4,0.3,284.1,0.3h6.7V352.5h-75.4c-1.5,0.1-2.9,0.1-4.4-0.1c-1-0.3-1.7-1.3-2.6-2
	c0.7-1,1.6-1.9,2.7-2.7c0.8-0.4,2.1-0.1,3.1-0.1c25.3,0,50.5,0,75.8,0c1.8,0,3.7,0.3,6.3,0.4v14.3h22.3v7.6c-3.4,0-6.3,0-9.2,0
	c-7,0-10.3,3.4-10.4,10.3c0,28.8,0,57.7,0,86.5c0,2.9-0.9,5.8,3,7.9c1.2,0.6-0.4,6.8-1,10.4c-0.2,1.1-1.9,2.1-2,3.2
	c-0.2,8.8-0.1,17.6-0.1,26.7h71.3v-29.3l-5.6-1.3v-10.2l5.5-1.2v-97.2c-3.1-2.4-5-4.8-7.3-5.4c-2.9-0.8-6.3-0.6-9.4-0.4
	c-6,0.5-6.7-2.5-5.3-7.1h138.1c0.2,4,0.4,7.3,0.6,10.8h152.3c0.7-3.6,1.3-6.5,1.8-9.4l1.9,0.2c0.3,1.3,0.7,2.7,0.9,4
	c0.2,1.6,0.3,3.3,0.5,5c1.1,0.2,1.9,0.4,2.7,0.5c5.1,0.7,7.9,5.3,5.3,9.5c-1.6,2.6-3.6,2.8-4.2-1l3.5-6.1h-154.7
	c-12.6,0-12.6,0-14.5-11.6H887c0,0.9,0,1.8,0,2.8c3.7,0,7.4,0,11.1,0c7.3,0.1,12.1,5,12.1,12.2v94.7l-6.2,2v6.9l6.1,1.1
	c0,9-0.3,17.8,0.1,26.6c0.2,5-1.5,6.5-6.4,6.5c-21-0.2-42.1-0.1-63.1-0.1c-2,0-4-0.3-6.3-0.5c0-9.3-0.1-17.9,0-26.5
	c0-2.6-1.2-5.8,3-7.2c0.7-0.3,0.9-6.1,0-6.6c-4-1.9-3-5.1-3-8.1c-0.1-29.7-0.1-59.3,0-89c0-8.6,3-11.6,11.9-11.6
	c2.7,0,5.5-0.3,8.2-0.5l0.1-2.5h-22.5c-0.3-5.8-0.5-10.1-0.6-14.3h-81.7v0.9h80.7v165.3c-1.8,0.3-3.5,0.4-5.3,0.5
	c-106.4-1.8-212.8,4-319.1-3.2c-19.7-1.3-39.8-2.1-58.8-9c-20.8-7.6-42.1-14-62.5-22.6c-20-8.4-39.2-18.9-58.8-28.4
	c-27.9-13.6-55.7-27.1-83.6-40.6c-30.8-15.1-61.7-30.2-92.5-45.3c-12.9-6.3-25.9-12.6-39.1-19l-3,6.5c2.3,1.2,4.3,2.3,6.3,3.3
	c23.5,11.6,47,23.1,70.3,34.9c9.1,4.6,11.1,11,6.4,20.2c-2.1,4.2-5.1,8-7.3,12.2c-5.3,9.9-11.7,12.4-21.7,7.7
	c-22.5-10.6-44.9-21.5-67.3-32.3c-18.1-8.8-36.2-17.5-54.2-26.4c-6.5-3.2-13-6.7-19.8-10.3c6.1-12.1,12.1-23.4,17.5-35
	c2.6-5.7,5.4-6,10.6-3.3c12.9,6.8,26.1,13,39.3,19.5l3.3-6.6c-2.3-1.2-4.1-2.3-6-3.2c-17.9-8.7-35.8-17.5-53.7-26
	c-3.8-1.8-4.4-3.7-2.4-7.3c2.9-5.1,5.6-10.3,8-15.7c1.9-4.5,4.3-7,9.3-4.3l3.1-6.8l-7.9-3.6L23,308.9l17.9,9.4l-24.2,47.6
	c2.1,1.1,3.9,2.1,5.8,3c30.1,14.7,60.2,29.4,90.3,44.1c16.4,8,32.7,16,49.2,23.7c7.9,3.7,16.5,1.7,21-4.6c3.9-5.4,7.3-11,10.3-17
	c5-10,2.8-18-6.1-24.8c1.7,0,3.3,0.3,4.8,1c18.8,9.1,37.7,18.3,56.5,27.5c28.8,14,58,27.4,86.3,42.3c34.9,18.2,71.2,33.3,108.7,45.3
	c9.5,3.1,19.4,4.6,29.2,6.6c4.7,0.9,9.6,1.3,14.4,1.8c17.3,1.9,34.6,5.2,51.9,5.3c122.2,0.5,244.5,0.3,366.7,0.3h7v-8.4
	c0-45.7,0-91.3,0-137c0-8.4,0-8.4,8.7-8.4c29.5,0,58.9,0.2,88.4-0.1c6.3-0.1,8.1,1.5,8.1,8c-0.2,121.7-0.3,243.3-0.2,365v8.2h330.1
	V181.9h-150.1c-9.7,0-9.7,0-9.7-10.1v-9.4H1141v19.7h-123.3v9.3c0,8.2,0,8.2-8.4,8.2H846.4c-10.1,0-10,0-10.7-9.8
	c-0.1-1.5-0.4-2.9-0.8-4.3c-3.6-12.5-12.5-18.7-27.1-18.7c-82.3,0-164.5-0.2-246.8,0.2c-11.8,0.1-22.2-2.8-32.4-7.9
	c-26.3-13-52.5-26-78.8-39c-5.2-2.6-10.5-5.1-16-7.2c-9.6-3.6-18.6-2.3-26.5,4.5c-2.5,2.2-4.3,2.2-7.1,0.8
	c-14.6-7.2-29.4-14.1-44.1-21.2c-28.8-14-57.6-28.1-86.4-42.2C243.4,42,217.2,29,190.9,16.1c-3.3-1.6-6.7-2.9-9.9-4.2l-30.9,58.1
	l2,1.2l19.6-34.6c2.3-0.6,5.2-0.6,5.8-1.8c0.8-1.5-0.3-4-0.5-6c-0.1-1.2-0.4-2.5,0-3.5c1.4-3.2,3.2-6.2,5.2-10L401,121.9
	c-19.9,33.8-34.6,69.7-56.1,102.7c2.4,7.5-7.9,9-9.8,15.4c10.9,5.2,21.9,10.3,32.8,15.7c10.9,5.4,21.4,10.8,32.5,16.4
	c0.8-2,1.9-4.6,2.5-5.9c-3.7-0.5-6.9-0.2-9.5-1.3c-10.3-4.7-20.4-9.8-30.5-14.8c-6.2-3-12.4-5.9-18-8.5
	c-0.6-11.9,6.5-19.8,10.7-28.8c2.2-4.6,5.4-8.8,7.9-13.3c9.3-17.3,18.3-34.8,27.8-51.9c2.5-4.6,6-7.9,7.6-13.7
	c4-14.5,20-25.3,36.8-17c9.9,4.9,19.9,9.7,29.9,14.6c1.4,0.7,2.7,1.7,4.6,2.9c-7.3,9.7-8.6,22.4-18.4,30.2c-1.3,1-1.4,3.7-2,5.6
	c-0.6,2.3-0.8,4.7-1.8,6.8c-1.8,3.4-4.3,6.5-6.2,9.9c-8.9,16.4-17.6,32.8-26.3,49.2c-1.1,2.5-2.1,5-2.9,7.6
	c8.6-2.9,6-15.2,16.1-15.4c-2.8-4.3-2.9-4.4,10.8-30.6c5.3-10.1,10-20.7,19.5-28.3l42.9,21.2c-8.8,17.3-16.9,33.4-25.2,49.4
	c-4.2,7.9-5.3,8-13.3,4c-2.7-1.4-5.5-2.5-8.3-3.7c-0.3,0.7-0.6,1.3-0.9,2l18.4,9.6c1.9-2.5,3.6-5.1,5.2-7.9
	c7.6-14.7,15-29.6,22.6-44.3c1.4-2.8,3.6-5.1,5.4-7.6c3.7,1.9,6.5,3.2,9.2,4.8c1.5,0.9,4.1,2.5,4,3.4c-1.5,7,4,8.1,9.7,11.1
	c0.4-6.1,0.8-11.6,1.1-16.1c-3.6,0.4-6.9,1.9-9.1,0.9c-19.8-9.3-39.3-19-58.9-28.4c-3.8-1.8-4.3-3.7-2.3-7.3
	c3.6-6.6,7.2-13.3,10.3-20.2c2-4.5,4.3-5.2,8.7-2.9c8.7,4.6,17.7,8.7,26.5,13c12.2,6,24.3,12.1,36.4,18.2c-0.8,2.4-1.5,4.5-2.2,6.7
	l1.4,1.7c3.2-9.9,10.7-7.6,17.3-7.6c50.8,0,101.5,0,152.3,0c12.7,0,12.7,0,13.3,12.3c0.1,0.4,0.2,0.8,0.5,1.1l1-0.2v-13.2
	c16.4,0,32.2-0.1,48,0.1c1.6,0,4.7,2.3,4.6,3.4C777.2,183.5,780.3,194.8,773.8,204.9z M122.4,136.3l0.6-1.7c2.2-0.2,4.5-1,6.4-0.4
	c3.6,1.1,6.8,3.1,10.2,4.7c20.1,9.8,40.3,19.6,60.4,29.5c2,1,5.3,3.3,5.1,4c-2.1,6,3,5,5.7,7.3l3.5-7.4l-91.7-44.8
	c1.1-2.7,2-4.9,2.9-7.1l-6.3-4.3c8.9-16.4,17.6-32.5,26.3-48.5l-1.5-1c-0.9,0.6-1.7,1.4-2.4,2.3c-4.9,8.7-9.8,17.4-14.6,26.2
	c-9.4,17.4-18.8,34.9-28.1,52.4c-10.5,19.7-20.9,39.4-31.4,59.2c-5.8,11.1-11.3,22.5-17.2,33.6c-4.5,8.6-9.5,17-14.1,25.6
	c-0.7,1.3-0.6,3-0.9,4.4c3.9-4.4,7.3-9.2,10.1-14.3c12.9-24.1,25.6-48.4,38.3-72.6c3-5.6,5.9-11.3,9.4-17.8c5.6,6.6-1.7,10-1.4,14.9
	l5.8,3l4.9-5.9l-5-3.4l3.6-6.9l-7.2-3.9c5-8.9,9.8-17.2,14.3-25.5c2.3-4.2,4.1-8.8,6.7-12.8c1.2-1.9,3.5-3.2,5.3-4.7
	c-0.1,2.2-0.4,4.5-0.8,6.7c-0.8,2.1-1.7,4.2-2.9,6.2L122.4,136.3z M334.4,236.4c-0.5-1-1.1-2.1-1.6-3.1l13.1-5l-2.3-3.2l-24.2-11.6
	l-6.3,12.2L334.4,236.4z M342.3,201.4l-7.2,14l11.1,5.7l6.9-14L342.3,201.4z M683.5,199.9v7l7,0.4v-8.1L683.5,199.9z"/>
<path class="st0" d="M1185.4,382.6c0.6,3.8,2.6,3.6,4.2,1c2.5-4.3-0.2-8.9-5.3-9.5c-0.8-0.1-1.6-0.3-2.7-0.5c-0.2-1.8-0.2-3.4-0.5-5
	c-0.2-1.4-0.6-2.7-0.9-4l-1.9-0.2c-0.6,2.9-1.1,5.8-1.8,9.4h-152.3c-0.2-3.5-0.4-6.8-0.6-10.8H885.5c-1.4,4.7-0.8,7.6,5.3,7.1
	c3.1-0.3,6.5-0.5,9.4,0.4c2.3,0.7,4.2,3,7.3,5.4V473l-5.5,1.2v10.2l5.6,1.3V515h-71.3c0-9.1-0.1-17.9,0.1-26.7c0-1.1,1.8-2,2-3.2
	c0.6-3.6,2.2-9.7,1-10.4c-4-2.1-3-5.1-3-7.9c-0.1-28.8-0.1-57.7,0-86.5c0-6.9,3.4-10.2,10.4-10.3c2.9,0,5.8,0,9.2,0v-7.6h-22.4V348
	c-2.6-0.2-4.5-0.4-6.3-0.4c-25.2,0-50.5,0-75.8,0c-1,0-2.3-0.3-3.1,0.1c-1,0.8-1.9,1.7-2.7,2.7c0.9,0.7,1.6,1.7,2.6,2
	c1.5,0.2,2.9,0.2,4.4,0.1H828v162.8h-6.7c-94.7,0-189.4,0.3-284.1-0.3c-17.9-0.1-35.8-4.3-53.8-5.2c-30-1.5-56.6-14.3-84-24.3
	c-20.7-7.6-40.4-18.1-60.4-27.8c-30.8-14.8-61.3-29.9-92-44.9c-27.1-13.2-54.2-26.4-81.3-39.5c-17.5-8.5-35-17-52.6-25.4
	c-0.9-0.4-1.8-0.7-2.8-0.9c-6.4,8.4-6.5,8.6,2.4,13c21.2,10.5,42.5,20.9,63.7,31.4c1.9,0.9,3.8,1.8,5.6,2.8c10.6,6.1,11.7,13,4,22.8
	c-1.9,2.4-3,5.5-4.5,8.3c-4.5,8.4-10.8,10.6-19.4,6.5c-15.1-7.2-30.2-14.5-45.2-21.8c-29.7-14.5-59.5-29-89.2-43.5
	c-1.5-0.7-2.9-1.5-5-2.6l19.3-38.1l46.5,22.7l5.1-10L29.2,307l11.6-22.8l6.4,0.9l4.9-9.5l-12.2-5.8c17.7-33.4,35.5-66.7,53.1-99.9
	l0.8,0.3l-4.5,10.3c9.1,7.4,11.2,6.8,15.5-4.3l-4.5-2.6l4-7l-7.7-3.6l16.9-30.8l9.8,7.6c2.7-5.8,6.2-4.1,9.9-2.2
	c15.8,7.9,31.6,15.6,47.4,23.4c7.3,3.6,14.7,7,22.4,10.7c-2.7,8.1,4.5,7.5,8.4,10.2l6.7-9.9l-92.7-45.4l2.7-6.9l-6.2-4.1
	c8.1-14.8,16.2-29.6,24.4-44.8l7.2,2.8c5.5-10.2,11-20.6,16.8-30.8c1.2-2.1,3.8-3.5,6.5-4.5c7-9.9,5.8-8.8,1.5-11.3l4.8-9.4
	l216.6,105.5c-3.9,4.5-7.2,8.3-10.5,12.2c-0.9,1.1-2.4,2.3-2.4,3.4c0,10.9-7.3,18.8-11.6,27.9c-5.7,12.2-12.4,24-19,36.4l-15.8-8
	c-2.4,4.5-5,8.4-6.6,12.6c-2.1,5.4-5.1,5.9-9.5,3c-1.9-1.2-4-2.2-6.8-3.7l-10.7,21L360,254c11.2,5.5,22.5,10.8,33.7,16.5
	c2.3,1.2,3.9,3.5,5.9,5.3l6.5-10.4c-3.1-4.3-5.7-4.4-8-0.1l-50.8-24.6c0.4-12.6,7.6-22,13.6-32.1c6.1-10.2,10.9-21.3,16.5-31.8
	c5.1-9.7,10.4-19.3,15.9-28.9c1.1-1.9,4-2.7,4.8-4.6c1.4-3.2,1.8-6.8,2.8-10.2c3.3-12,18.9-20.1,30.8-15.9c1.6,0.6,3.1,1.2,4.6,1.9
	c10.4,5,20.7,10,31.5,15.3c-4.4,8.7-8.4,17-12.8,25c-1.2,2.2-4.6,3.4-5.4,5.6c-2.5,7.1-5.5,13.9-9,20.5c-6.7,13.1-13.2,26.3-20,39.2
	c-3.2,6.1-7.1,11.9-11,18.3l5.8,3.4c2.2-3.4,4.3-6.4,6.3-9.5c1.8-2.7,1.9-6.3,7.1-6.3c3.2-0.1,4.3-4.3-0.6-6.4
	c4.8-9.5,9.2-19,14.3-28.1c4.9-8.6,10.5-16.7,15.9-25.2l41.3,20.2c-9.5,18.5-18.6,36.3-28,54.5l-16.9-8.3l-3,5.4
	c6.4,3.4,12.5,6.5,18.5,9.8c3.9,2.1,5.6-0.3,7.1-3.3c7.2-14.3,14.3-28.5,21.6-42.7c2.2-4.2,4.9-8,7.6-12.3c5.1,3.2,12,3.4,11.5,11.7
	c-0.1,2.1,2.3,4.4,3.5,6.6l2.8-1.3l-26.1,49.2l-7.3-2.8c-3.2,9.9,5.4,6.5,9.6,9.8c9.8-19.3,19.4-37.8,28.7-56.4
	c1.9-3.8,7.5-7.4,2.4-12.8c-0.4-0.4,1.2-2.6,2.9-6c-4,1-6.7,1.7-9.4,2.2c-1.4,0.3-3,0.5-4.2-0.1c-20.1-9.7-40.2-19.6-61-29.8
	l13.8-27.3l65.6,32.2c-0.9,2.1-1.7,4-2.6,6.3l4.3,2.6c0.8-0.4,1.4-0.4,1.5-0.7c1.7-5.2,5.2-6.4,10.6-6.4
	c42.3,0.2,84.6,0.1,126.9,0.1h7.8v25.5l-5.6,1v10.6l6,1.1v23.3c0,12.9-0.2,25.7,0.1,38.5c0.1,3-2.5,7.2,2.5,9
	c0.8-2.9,2.2-5.8,2.3-8.6c0.2-30.9,0.1-61.9,0.1-92.8v-7.2h28.2c0,3.9-0.2,7.7,0.1,11.4c0.1,1.2,1.7,2.3,2.6,3.5
	c0.7-1.1,1.8-2.2,1.9-3.4c0.2-3.7,0.1-7.5,0.1-11.5h50.2c-0.7,8.9-1.5,17.7-2.1,26.4c-0.2,2.2-0.1,4.5-0.1,6.8l0.2-0.3
	c-13.5,0-26.9,0.1-40.4-0.1c-2.8-0.1-5.7-1.6-8.5-1.9c-1.2-0.1-3.3,1-3.5,2c-0.5,1.7,0.2,3.7,0.3,5.5c1.6-0.3,3.2-0.6,4.8-0.8
	c1.7-0.2,3.3-0.3,5-0.3c12.4,0,24.8,0,37.2,0c2,0,4,0.3,6,0.4v32.5h-49.4v-14.6l-1.8-0.6c-0.8,1.4-2.4,2.8-2.4,4.2
	c-0.2,10.3-0.2,20.6,0,30.9c0,1.3,1.5,2.5,2.3,3.7c0.8-1.2,2.1-2.4,2.2-3.6c0.3-4.9,0.1-9.9,0.1-14.9h49.1v13.3h-17.5
	c0,9.4-0.1,18,0,26.5c0.1,4.8,3.1,3.7,6.1,3c0.2-3.7,0.3-7,0.5-10.2h11v35.8h-11.3c0-2.4,0.3-4.5-0.1-6.5c-0.4-1.2-1.4-2.2-2.7-2.5
	c-1-0.1-3,1.1-3.1,1.9c-0.8,4-1,8-1.6,12.6c27.2,0,53.9,0,80.5-0.1c1.2,0,2.4-0.5,3.2-1.4c3.4-4.8-0.4-12.4-6.3-12.5
	c-6.3-0.2-12.6,0-18.9-0.1c-1.4,0-4-0.8-4.1-1.5c-0.4-4.8-3.9-3.6-6.6-3.6c-7-0.1-14.1,0-21.5,0c0-22.7,0-44.4,0-66.1
	c-0.1-21.3,1.7-42.6-0.4-64.3c3.6,0,5.7,0,7.8,0c7.2,0.1,14.3,0.1,21.4,0.4c13.5,0.5,24.1,13.5,17.5,27.3c-1.1,2.4-0.4,5.8,0,8.6
	c0.4,3.2,1.9,6.3,2,9.5c0.2,21.5,0.2,42.9,0,64.4c0,5.1,1.9,6.3,7,4.3c0-3.5-1.4-8.1,0.3-10.4c3.9-5.5,0.9-9.6,0.3-14.9
	c-1.6-15.8-0.9-31.9-0.4-47.9c0.1-2.9,3.4-8.1,5.4-8.2c14-0.7,28.1-0.4,42.3-0.4v60.8h-18.2v6.6c8.3,0,16.3,0.1,24.2-0.1
	c1.1,0,3-2.3,3-3.4c-0.3-6.7-1.6-13.4-1.7-20.2c-0.3-14.3-0.1-28.5-0.1-44c3.2,0.6,7.7,0.6,7.8,1.5c1,5.4,4.9,3.6,7.9,3.8
	c2.8,0.2,5.7,0,8.8,0v56.2l-5.2,3.3l4.9,4.5v42.5l-1.6,0.4c-0.7-2-1.4-4-2.1-6.1h-11.6v10.7h21.4V204.9h54.5v110.9
	c-9.8,0-19,0.1-28.3,0c-3.7,0-4.9,1.3-3.3,5.1c16.1,0,32.1,0,48-0.1c1.2,0,2.3-1.6,3.5-2.4c-1.1-0.9-2.2-2.3-3.4-2.5
	c-3-0.2-6.1-0.3-9.1-0.1v-111h29.5v116.1c2.8,0.2,5.6,0.1,8.4-0.1c2.8-0.5,5.6-1.2,8.3-2l-7.3-4.9v-28h30.9v29.6
	c-1.7,0.1-3.2-0.1-4.5,0.4s-2.2,1.7-3.3,2.6c1,0.8,2,2.1,3,2.2c3.2,0.3,6.5,0.1,9.5,0.1v-40.6h-25.3v-93.2h47.9v133.8
	c6.4,0,13.1,0.1,19.8-0.1c1.2,0,2.4-1.5,3.6-2.3c-1.3-0.9-2.7-2.4-4.1-2.5c-4.3-0.3-8.7-0.1-13.1-0.1V186.9h37.4
	c0.3,0.9,0.5,1.9,0.6,2.8c0,40.6,0,81.2,0,121.9c-0.1,1.4-0.5,2.7-1.2,3.9c-0.8,1.3-1.6,2.5-2.5,3.6c1.6,0.6,3.2,1.6,4.9,1.7
	c4,0.2,8.9,0.6,3.9-5.8c-1-1.2-0.4-3.7-0.4-5.6c0-38.7,0-77.5,0-116.2v-6.8c14.7,0,28.7-0.2,42.8,0.1c3.8,0.1,5.2,2.9,5.2,7
	c-0.2,23.4,0,46.7-0.2,70.1c0,4.9-1.7,9.8-2.4,14.7c-0.3,1.8-0.6,4.1,0.2,5.6c5.2,10.4,0.9,21,2.5,31.9c-8.7,0-16.2-0.1-23.8,0.1
	c-1.7,0.1-3.4,1.5-5,2.3c1.8,0.9,3.5,2.5,5.3,2.6c6.9,0.3,13.8,0.1,20.7,0.1c0.7,3.7,1.3,7,1.8,10.2l2-0.1c0.5-3.3,0.9-6.5,1.4-9.7
	h39.9c0.4,2.2,0.7,4,0.9,5.6c4.1,1.2,5.9,0.1,5.8-4c-0.2-8.4-0.2-16.8,0-25.3c0.1-5-2-5.6-6.4-3.9v21.6h-37.4V286l1.8,0.9
	c1.3-2,3.6-4,3.5-6s-2.5-3.8-3.9-5.8l-1.3,0.7v-88.2h37.4v23.6c4.7,1.9,6.4,0.4,6.3-3.9c-0.1-6.7,0-13.4,0-20.7h8.2
	c29,0,58.1-0.1,87.1,0.1c6.5,0,13.1,1,19.6,1.6v87.9l-7,0.6v8.2l7,1.1v87.4l-7.1,1.2v7.9l7.2,0.7V472l-7.1,0.7v8.3l7.2,0.6v88.1
	l-7.1,1.2v7.5l7.2,1v88.1h-1.4v-22.3h-7.6c-32,0-64,0-95.9,0c-4.2,0-8.8,1.5-12.1-3c-0.4-0.6-2.6,0.2-3.8,0.3v7.5h113.4v26.9
	l7.3,0.6V741c-19.1,5.4-38.1,2.3-57,2.8c-19.1,0.5-38.2,0.1-58,0.1v-65.5c0-10.4,0-10.4-9.8-8.8c-0.4,0.1-0.7,0.5-1.3,0.9
	c1.1,3.9,3.1,7.9,3.2,12c0.3,18.1,0.2,36.2,0.1,54.3c0,2.3-0.2,4.5-0.3,6.5h-30.8l-12.5,0.6h-80.4V677c27.8,0,55.3,0,82.7,0
	c4.1,0,8.3-0.4,12.3-1.3c3.8-0.9,4.6-3.1,1.3-6.1c-1.4-1.2-2.3-2.8-2.6-4.6c-0.3-6.5,0-13-0.3-19.6c0-1.3-1.5-2.4-2.3-3.7
	c-0.7,1.3-1.8,2.5-2,3.9c-0.2,2.9-0.2,5.9,0,8.8l0.2-0.2h-93.1v15.4h-19.9c-1.6,4.5-0.5,6.5,4,6.2c4.1-0.2,8.3,0,12.4,0V744h-59
	l0.3,0.2l-6.2-4.3V677c6.4-0.4,12.6-0.6,18.7-1.3c1.7-0.2,3.1-2.1,4.6-3.3c-1.5-1-2.9-2.7-4.5-2.8c-6.3-0.7-12.6-0.9-18.8-1.3V598
	h7.8c33.4,0,66.9,0,100.3,0c1.9,0.1,3.8,0,5.7-0.3c0.9-0.3,1.6-1.1,1.8-2c0-0.6-1-1.8-1.8-1.9c-1.7-0.2-3.3-0.3-5-0.2h-108.9v-14.2
	l5.9-1.3V571l-5.8-1.3v-87.8l5.8-1.3v-7.9l-5.7-0.7v-13.7h121.6c1.7,0.1,3.3,0.1,5-0.2c1.1-0.4,1.9-1.3,2.2-2.4c0-0.7-1.3-2-2.2-2.2
	c-1.7-0.2-3.3-0.3-5-0.1h-121.6v-69.6c4.1-1.7,7.7-4.5,11.4-4.6c45.2-0.3,90.4-0.2,135.7-0.2c1.4,0,3.9-0.1,4.2,0.5
	c2.2,5.4,6.6,2.8,10.2,3.2L1185.4,382.6z M1185.5,593.6c-6.9,0-13.9-0.1-20.8,0.1c-1.6,0-3.1,1.2-4.6,1.8c1.6,0.8,3.2,2.3,4.8,2.3
	c6.7,0.3,13.3,0.1,20.7,0.1v15.7l2.5,0.5c0.5-2,1.5-4.1,1.5-6.1c0.1-33,0.2-66.1,0.1-99.1c0.2-1.3,0.1-2.5-0.2-3.8
	c-0.3-1-1.4-1.6-2.1-2.5c-0.7,0.9-1.7,1.7-1.9,2.6c-0.2,1.7-0.2,3.3-0.1,5c-0.1,20.2-0.1,40.4-0.2,60.6l-6.8,3.6
	c1.7,1.3,3.4,2.8,5,4.3c1.3,1.4,3,3.1,3.2,4.8C1186.7,587,1185.9,590.3,1185.5,593.6L1185.5,593.6z M545.4,320.6
	c2.2,0.1,3.6,0.3,5.1,0.3h179.8c1.1,0,2.3,0.3,3.1-0.1c1.1-0.6,2-1.5,2.5-2.7c0.2-0.4-1.3-1.9-2.2-2.1c-2.1-0.2-4.2-0.3-6.3-0.2H693
	v-14.5c-4.6-0.3-4.6-0.3-5.5,7.8l-5.4,0.6c-0.5,2.1-0.9,4-1.3,5.7H550.7c-1-9.4-1-9.4-10.3-9.4c-3.2,0-6.3,0.1-9.5,0
	c-7-0.2-13,1.1-14.2,9.6l-34.4-8c-5.1-9.6-2-16.7,2-24.2c-2-0.2-4.3,0-4.8,1.1c-2.7,5-5.2,9.6-11.4,11.4c-1.9,0.5-3.6,5.5-3.3,8.2
	c0.3,2.2,3.3,5.3,5.7,5.9c16.6,4,33.4,7.6,50.2,11.1c2.8,0.6,6.7,0.7,8.7-0.8c2.6-1.9,3.8-5.7,5.9-9h10.2L545.4,320.6z M381.6,300.7
	c1.2,0.8,1.9,1.3,2.6,1.6c20.1,9.9,40,20.1,60.3,29.4c11.1,5.2,22.7,9.4,34.6,12.6c13.9,3.6,28.2,7.6,42.3,7.8
	c60.5,0.9,121.1,0.4,181.6,0.4h7.5c0.4-6.6-4.1-4.9-6.9-4.9c-56.1-0.1-112.3-0.2-168.4,0c-29.4,0.3-58.5-6.2-85-18.8
	c-11.9-5.6-23.8-11.2-35.7-16.9c-9-4.4-18.4-8.2-26.7-13.6C383.4,295.3,383,297,381.6,300.7z M1222.4,355.6v126.6
	c4,1.3,5.9,0.6,5.9-3.8c-0.1-39.6-0.1-79.2,0-118.7C1228.3,355.3,1226.5,354.1,1222.4,355.6z M1228.1,566.4L1228.1,566.4
	c0-17,0.1-34.1-0.1-51.1c0-1.7-2-3.3-3-4.9c-1,1.7-2.9,3.3-2.9,5c-0.2,33.8-0.1,67.7-0.1,101.6c0,2.6-0.3,5.7,3.4,5
	c1.2-0.2,2.6-3.3,2.6-5.1C1228.2,600.1,1228.1,583.2,1228.1,566.4L1228.1,566.4z M1189,482.6c0.4-0.7,0.6-1.4,0.8-2.1
	c0.1-23.9,0.2-47.8,0.1-71.7c0-1.3-1.4-2.5-2.2-3.8c-0.8,1.4-2,2.7-2.3,4.1c-0.2,2.5-0.3,5-0.1,7.5v36.4l-10,0.5
	c0.7,9.7,1.2,18.6,1.8,27.1L1189,482.6z M1222,240.2c0,7.1-0.2,14,0.1,20.9c0.1,1.4,2,2.7,3.1,4.1c1-1.5,2.9-2.9,3-4.5
	c0.3-6.3,0.1-12.5,0-18.8c-0.1-0.6-0.4-1.2-0.7-1.7H1222z M517.3,367.2c0,4.1,3,7.5,7.1,8c3.9,0.2,10.7-5,9.3-7.8
	c-1.6-3.1-5.1-6.4-8.4-7.3C520.5,358.8,517.6,362,517.3,367.2L517.3,367.2z M394,456.6c5.2-0.5,7.9-3,8.3-7.6c0.3-4.1-4-8.3-8-8.1
	c-4.2,0.2-9,4.5-9,8.1C385.3,452.8,390,456.7,394,456.6z M526.5,470c-5.4,1-9.1,4.4-9.2,8.5c-0.1,4.6,1.9,7.6,6.9,7.9
	c4.1,0.2,10.6-4.1,9.5-7C532.3,475.9,529,473.1,526.5,470z M448.9,358.5c2.2-3,5.5-5.8,6.4-9.2c1.1-3.9-4.1-8.2-8.6-7.8
	c-4.8,0.4-7.8,3-8.1,7.9C438.3,353.5,443,357.6,448.9,358.5z M175.7,224.7c4.7,1.2,8.6,3.2,12.3,2.8c1.6-0.2,4.5-6.7,3.7-7.7
	c-2.4-2.8-6.4-4.3-10.1-6.5L175.7,224.7z M139.5,318.7c-11.6-7.5-13.6-6.8-15.6,5.3l10.4,4.4L139.5,318.7z M254.9,387
	c10.7,6.8,10.8,6.8,15-5l-10-4.8L254.9,387z M259.6,67.1c-1.9,3.9-3.5,7-5.1,10.2l10.4,5.2l5-10.5L259.6,67.1z M692.9,362.8h-11.3
	c0,2.1,0,3.8,0,5.4c0.1,1.8,0.3,3.6,0.4,5.2C693.5,374.5,693.5,374.5,692.9,362.8z M318.3,292.9l5.3-10.1l-10.3-5.3
	c-1.9,3.8-3.5,6.8-5.3,10.3L318.3,292.9z M682.1,473.9v10.8h10.5v-10.9L682.1,473.9z"/>
<path class="st0" d="M1176.7,743.9l12.5-0.6c1.7,0.7,3.4,1.9,5.1,2c7.1,0.2,14.3-0.2,21.4,0.2c5,0.2,6.6-1.6,6.5-6.5
	c-0.2-18.9,0-37.9-0.2-56.8c0-3.4-1.5-6.8-2.4-10.8l6.3-0.3c0,23,0.1,45.3-0.1,67.6c-0.1,5.2,1.6,6.9,6.8,6.8
	c30.3-0.2,60.6,0,90.9-0.2c7.3-0.1,14.6-1.4,22.1-2.2v-67.4l-8.6-1.3v-27.2h-111.8v-0.6h112.7c0,6.5,0.1,12,0,17.4
	c-0.1,3.4,0.6,5.8,4.5,6c4.6,0.2,3.5-3.2,3.5-5.8c0-26.1-0.2-52.2,0.2-78.3c0.1-6.3-1-10.4-9.2-9.6c0.8-1.9,2-4.1,3-4
	c6.2,0.6,6.2-3.2,6.1-7.6c-0.1-26.3,0-52.6-0.1-78.9c0-2-0.2-4-0.3-5.2l-8.4-4l8.4-4.1c-0.1,0.2,0.2-0.2,0.2-0.5
	c0.1-28.6,0.1-57.2,0.2-85.9c0-3.5-1.4-5.1-4.9-4.8c-3.9,0.3-4.7-1.4-3-5.1c7.5,2.1,7.9-2.4,7.9-8c-0.2-25.3-0.2-50.5,0-75.8
	c0.1-6.3-0.3-11-8.3-9.6c0-4,0-4,8.2-5.6c0-28.7,0-57.4-0.1-86.3c0-1.2-0.9-3.2-1.8-3.6c-3.5-1.3-7.2-2.9-10.9-2.9
	c-34.1-0.2-68.2-0.1-102.3-0.2c-3.8,0-5.3,1.7-5.2,5.3c0.1,5.8,0,11.6,0,17.4h-1.2v-24c-13.5,1.3-26.3,2.5-39,3.7
	c-2,0.2-4.1,0.2-6.1,0c-4.4-0.7-8.7-2.2-13.1-2.3c-9.9-0.4-19.8,0.1-29.7-0.2c-5.2-0.2-6.9,1.4-6.9,6.8c0.2,41.5,0.1,82.9,0.1,124.4
	c-0.1,0.9-0.2,1.9-0.4,2.8c-0.6-42.6-0.7-85-0.6-127.5c0-5-1.5-6.8-6.5-6.5c-12.1,0.6-24.2,1-36.4,1c-15.3,0-30.6-0.4-45.8-1
	c-5.7-0.2-7.7,1.3-7.7,7.3c0.3,28,0.1,56,0.1,84v7h24.9v35.3c-0.8-9.2-1-18.4-0.6-27.7c0.4-6.4-2.1-8-8-7.7c-8,0.5-16,0.6-24,0.5
	c-4.1,0-4.9,1.9-4.9,5.4c0.1,10,0,20,0,30l-1.5,0.4c-0.5-1.4-0.8-2.8-1-4.2c-0.1-14.3,0-28.6,0-43c0-21.1,0.1-42.1-0.1-63.1
	c0-2.1-2-6-3.1-6.1c-10.2-0.5-20.4-0.3-31-0.3v111.2c0,1,0.4,2.3,0,3.1s-1.6,1.6-3.3,3.1V202.8c-12.2-2.1-63.5-1.1-67.8,1.9l7.8,2.1
	v111h-0.8v-18.7c0-6.3-0.7-12.7,0.2-18.9c0.8-5.2-2-9.8-0.6-15.3c1.6-6.1,0.4-13,0.4-19.5v-38.3c-2.8,0-4.9,0.2-6.9,0
	c-3.5-0.3-7.8,1.8-9.8-3.9c-0.4-1.2-5.8-1.2-8.7-0.7c-1.1,0.2-2.4,3.2-2.5,4.9c-0.2,20.5-0.1,40.9-0.1,60.9H869v-1.6
	c4.8,0,9.5-0.2,14.2,0.1c4.2,0.3,5.5-1.4,5.5-5.5c-0.1-17.9-0.2-35.8,0-53.7c0-4.6-1.8-5.7-6-5.6c-12,0.2-24,0.4-36-0.1
	c-5.5-0.2-8.8,1.2-10.2,6.4c-0.5,2-0.8,4-0.8,6.1c-0.1,14.9-0.2,29.9,0.1,44.8c0.1,3,1.8,6,2.9,9.4c-7.8,2.4-0.1,11.6-5.5,18.1v-8.4
	c0-19.1,0.2-38.3-0.1-57.5c-0.1-5-1.6-10-2.2-15.1c-0.3-2.1-0.2-4.2,0.5-6.1c4.7-10.8-1-25.4-12.3-27.7c-10.3-2.1-21.2-1.8-31.8-2.8
	c-5.4-0.5-7.8,1.3-7.3,7c0.9,8.6-1.4,17.3,2.3,25.9c1.1,2.5-2.1,6.6-2.1,9.9c-0.2,28.8-0.1,57.7-0.1,86.5c0,3.5,1.4,4.9,4.9,4.8
	c6.1-0.2,12.2-0.1,18.3,0c1.5,0,4.1,0.8,4.2,1.4c0.2,4.8,3.7,3.7,6.4,3.7c5.3,0.1,10.5,0,15.8,0c8.2,0,9.4,1.5,7.5,10h-60v-40.2h-16
	c-0.2,2.7-0.3,4.9-0.5,7h-0.3v-23.9h17.3c-0.1-3-0.1-5.9,0.1-8.9c0.7-5.7-1.2-7.9-7.3-7.6c-12.8,0.4-25.7,0.1-38.5,0.1h-7.6v17.4
	h-0.7v-31.9h1v13.5c16.6,0,32.3-0.1,48.1,0c4,0,5-1.9,5-5.4c-0.1-8-0.4-16,0.1-24c0.3-5.8-1.5-7.7-7.5-7.6
	c-15.6,0.4-31.3,0.1-47.3,0.1c0.5-0.7,0.9-1.5,1.2-1.5c14.9,0.1,29.8,0.3,44.8,0.4c1.7,0,3.3-0.9,5-1.4l-0.2,0.3
	c6.4-10.1,3.3-21.3,3.7-32.1c0-1.1-3-3.4-4.6-3.4c-15.8-0.3-31.5-0.1-48-0.1v13.2l-1,0.2c-0.2-0.3-0.4-0.7-0.5-1.1
	c-0.6-12.3-0.6-12.3-13.3-12.3c-50.8,0-101.5,0-152.3,0c-6.6,0-14.1-2.3-17.3,7.6l-1.4-1.7c0.7-2.1,1.4-4.3,2.2-6.7
	c-12.1-6.1-24.2-12.1-36.4-18.2c-8.8-4.4-17.8-8.4-26.5-13c-4.4-2.4-6.6-1.6-8.7,2.9c-3.1,6.9-6.7,13.6-10.3,20.2
	c-2,3.6-1.4,5.5,2.3,7.3c19.7,9.4,39.1,19.1,58.9,28.3c2.1,1,5.4-0.5,9.1-0.9c-0.3,4.5-0.7,9.9-1.1,16.1c-5.7-3-11.2-4.1-9.7-11.1
	c0.2-0.8-2.4-2.5-4-3.4c-2.7-1.6-5.6-2.9-9.2-4.8c-1.8,2.4-4,4.8-5.4,7.6c-7.6,14.7-15,29.6-22.6,44.3c-1.6,2.7-3.3,5.3-5.2,7.9
	l-18.4-9.6c0.3-0.6,0.6-1.3,0.9-2c2.8,1.2,5.6,2.3,8.3,3.7c8,4,9.1,4,13.3-4c8.4-16,16.4-32.1,25.2-49.4l-42.8-21.1
	c-9.5,7.5-14.2,18.1-19.5,28.3c-13.7,26.3-13.6,26.3-10.8,30.6c-10,0.2-7.5,12.5-16.1,15.4c0.8-2.6,1.8-5.1,2.9-7.6
	c8.7-16.4,17.5-32.8,26.4-49.2c1.9-3.4,4.4-6.4,6.2-9.9c1-2,1.2-4.5,1.8-6.8c0.5-1.9,0.6-4.6,2-5.6c9.9-7.8,11.2-20.5,18.4-30.2
	c-1.9-1.2-3.2-2.2-4.6-2.9c-9.9-4.9-19.9-9.7-29.9-14.6c-16.9-8.3-32.8,2.5-36.8,17c-1.6,5.9-5.1,9.2-7.6,13.7
	c-9.5,17.2-18.5,34.6-27.8,51.9c-2.5,4.5-5.7,8.7-7.9,13.3c-4.2,9-11.2,17-10.7,28.8c5.6,2.7,11.8,5.5,18,8.5
	c10.2,4.9,20.3,10.1,30.5,14.8c2.5,1.1,5.7,0.8,9.5,1.3c-0.5,1.3-1.7,3.9-2.5,5.9c-11.1-5.6-21.8-11.1-32.5-16.4
	s-21.9-10.6-32.8-15.8c1.9-6.4,12.2-7.8,9.8-15.4c21.4-33,36.2-68.9,56.1-102.7L182.2,15.1c-2,3.8-3.7,6.9-5.2,10
	c-0.4,1-0.1,2.3,0,3.5c0.2,2.1,1.3,4.6,0.5,6c-0.7,1.2-3.6,1.2-5.8,1.8l-19.5,34.6l-2-1.2L181,11.8c3.2,1.4,6.6,2.6,9.9,4.2
	C217.2,29,243.4,42,269.8,54.9c28.8,14.1,57.6,28.2,86.4,42.2c14.7,7.1,29.5,14,44.1,21.2c2.8,1.4,4.5,1.4,7.1-0.8
	c7.8-6.7,16.9-8,26.5-4.5c5.5,2,10.7,4.6,16,7.2c26.3,12.9,52.6,25.9,78.8,39c10.2,5.1,20.5,7.9,32.4,7.9
	c82.3-0.5,164.5-0.3,246.8-0.2c14.6,0,23.5,6.2,27.1,18.7c0.4,1.4,0.7,2.9,0.8,4.3c0.7,9.8,0.7,9.8,10.7,9.8h162.9
	c8.4,0,8.4,0,8.4-8.2v-9.3H1141v-19.7h46.9v9.4c0,10,0,10.1,9.7,10.1h150.1v565.6h-330.1v-8.2c0-121.7,0.1-243.3,0.2-365
	c0-6.6-1.8-8.1-8.1-8c-29.5,0.3-58.9,0.1-88.4,0.1c-8.7,0-8.7,0-8.7,8.4c0,45.7,0,91.4,0,137.1v8.4h-7c-122.2,0-244.5,0.2-366.7-0.3
	c-17.3-0.1-34.6-3.4-51.9-5.3c-4.8-0.5-9.6-0.9-14.4-1.8c-9.8-2-19.8-3.5-29.2-6.6c-37.5-12-73.8-27.2-108.7-45.3
	c-28.4-14.9-57.5-28.3-86.3-42.3c-18.8-9.2-37.6-18.4-56.4-27.5c-1.5-0.7-3.2-1-4.8-1c8.9,6.8,11.1,14.8,6.1,24.8
	c-3,5.9-6.4,11.6-10.3,17c-4.5,6.3-13.1,8.3-21,4.6c-16.5-7.6-32.9-15.6-49.2-23.6c-30.1-14.7-60.2-29.4-90.3-44.1
	c-1.9-0.9-3.7-1.9-5.8-3l24.2-47.6L23,308.9l18.5-36.3l7.9,3.6l-3.1,6.8c-5-2.7-7.4-0.3-9.3,4.3c-2.4,5.4-5,10.6-7.9,15.7
	c-2,3.5-1.4,5.5,2.4,7.3c18,8.5,35.8,17.3,53.7,26c1.9,0.9,3.7,2,6,3.2l-3.3,6.6c-13.3-6.5-26.5-12.7-39.3-19.5
	c-5.3-2.8-8-2.4-10.6,3.3c-5.4,11.6-11.4,22.9-17.5,35c6.9,3.6,13.3,7,19.8,10.3c18,8.9,36.1,17.6,54.2,26.4
	c22.4,10.8,44.8,21.6,67.3,32.3c10,4.7,16.4,2.2,21.7-7.7c2.2-4.2,5.2-8,7.3-12.2c4.6-9.1,2.7-15.6-6.4-20.2
	c-23.4-11.8-46.9-23.3-70.3-34.9c-2-1-4-2.1-6.3-3.3l3-6.5c13.2,6.4,26.2,12.7,39.1,19c30.8,15.1,61.6,30.2,92.5,45.3
	c27.8,13.6,55.7,27.1,83.6,40.6c19.6,9.5,38.7,20,58.8,28.4c20.4,8.6,41.7,14.9,62.5,22.6c19,7,39.1,7.7,58.8,9
	c106.3,7.2,212.7,1.4,319.1,3.2c1.8-0.1,3.5-0.2,5.3-0.5V351.3h-80.6v-0.9h81.7c0.2,4.1,0.4,8.4,0.6,14.3h22.5l-0.1,2.5
	c-2.7,0.2-5.5,0.5-8.2,0.5c-8.9,0.1-11.9,3-11.9,11.6c0,29.7,0,59.3,0,89c0,2.9-1.1,6.1,3,8.1c0.9,0.4,0.7,6.3,0,6.6
	c-4.2,1.4-2.9,4.6-3,7.2c-0.1,8.6,0,17.2,0,26.5c2.3,0.2,4.3,0.5,6.3,0.5c21,0,42.1-0.1,63.1,0.1c5,0,6.6-1.4,6.4-6.5
	c-0.4-8.8-0.1-17.6-0.1-26.6l-6.1-1v-6.9l6.1-1.9v-94.7c0-7.1-4.9-12.1-12.1-12.2c-3.7-0.1-7.4,0-11.1,0c0-0.9,0-1.8,0-2.8h132.6
	c1.8,11.6,1.8,11.6,14.5,11.6h154.9l-3.5,6.1l0.2,0.2c-6.7-3-13.2-5.6-21.1-5.5c-33,0.5-66.1-0.1-99.1,0.4
	c-14.8,0.2-30.2-3.3-44.8,5.1v72.1h128.7v1h-6.2c-38.5,0-77,0-115.5,0c-2.2,0-6.2,0.5-6.3,1.2c-0.8,4.9-1,9.9-0.7,14.9
	c0.1,0.9,3.7,1.3,5.6,2.3c1,0.5,1.7,1.8,2.6,2.6c-0.8,0.7-1.8,2-2.5,2c-6.1-0.7-6.1,3-6.1,7.5c0.1,25.7,0.3,51.4,0,77
	c-0.1,6.2,0.5,10.5,8.2,9c0.1,4.3,0.1,4.3-7.5,5.4V595h113.6v1.1h-6.3c-33.7,0-67.3,0.1-101-0.1c-5.7,0-7.1,1.8-7,7.2
	c0.3,20.2,0.1,40.4,0.1,60.6c0,1.8,0.2,3.7,0.4,6.1l24.6,1.8c0,0.6,0,1.3,0,1.9l-24.5,1.8v67.2l9.7,1.5l-0.3-0.2
	c1.7,0.5,3.3,1.4,5,1.4c17.2,0.1,34.4,0.1,51.7,0c1.3-0.1,2.7-0.3,4-0.6v-70.2l-16.1-0.7v-2.4h20.4v-15.7c28.4,0,56.1,0,83.8-0.1
	c2.3,0,4.6-0.9,6.9-1.4l-0.2,0.2c0.7-2.8,1.5-5.7,2.1-8.3c2.4,8.7-3.2,18.7,4.5,27.9h-97.1v71.2c26.6,0,52.7,0,78.7-0.1
	C1174.7,745.3,1175.7,744.4,1176.7,743.9z M1185.4,657.8l0.2,0.2c-2.1-0.4-4.3-1.2-6.4-1.2c-23.9-0.1-47.9,0-71.8,0
	c-13,0-13.1,0.1-10.9,14.5c29.9-0.8,59.9,1.2,91-1.4C1186.7,665.2,1186,661.5,1185.4,657.8z M1019.9,187.7v90.1l11.6,0.7v-82.5
	C1031.5,186.1,1031.1,185.8,1019.9,187.7z M1144.8,181.9c10.3,0,19.8,0.1,29.2,0c12.5-0.1,11.5,2.1,11.5-12c0-0.4,0.2-1,0-1.2
	c-1-1.3-2.1-3.4-3.2-3.5c-12.3-0.3-24.7-0.2-37.4-0.2L1144.8,181.9z M806.6,304.3c-7.8,0-14.9-0.3-22,0.2c-1.5,0.1-4.1,2.9-4.1,4.4
	c0,2.3,1.8,6.5,3.1,6.6c7.6,0.6,15.3,0.3,23,0.3L806.6,304.3z M761.3,277.3c5.7-0.9,11.1-0.9,15.7-2.9c1.2-0.5,1-9.6-0.3-10.1
	c-4.7-1.8-10.2-1.6-15.5-2.1V277.3z M819.8,309.3L819.8,309.3c-2.9,0-5.9-0.3-8.8,0.2c-1.1,0.2-2.5,2-2.8,3.3
	c-0.2,0.8,1.6,2.8,2.5,2.8c5.6,0.3,11.3,0.3,16.9,0c1-0.1,2.8-2.2,2.7-3.2s-1.9-2.7-3.1-3C824.9,309.1,822.3,309.4,819.8,309.3
	L819.8,309.3z"/>
<path class="st0" d="M122.4,136.3l-5.9-3c1.1-2,2.1-4.1,2.9-6.2c0.5-2.2,0.7-4.4,0.8-6.7c-1.8,1.5-4.1,2.8-5.3,4.7
	c-2.5,4.1-4.3,8.6-6.7,12.9c-4.6,8.4-9.3,16.6-14.3,25.5l7.2,3.9l-3.6,6.9l5,3.4l-4.9,5.9l-5.8-3c-0.2-4.9,7-8.4,1.4-14.9
	c-3.4,6.5-6.4,12.2-9.4,17.8C71,207.6,58.3,231.9,45.4,256c-2.8,5.2-6.1,10-10.1,14.3c0.3-1.5,0.2-3.2,0.9-4.4
	c4.6-8.6,9.6-17,14.1-25.6c5.9-11.1,11.4-22.4,17.2-33.6c10.4-19.8,20.8-39.5,31.4-59.2c9.3-17.5,18.7-35,28.1-52.5
	c4.8-8.8,9.7-17.5,14.6-26.2c0.7-0.9,1.5-1.6,2.4-2.3l1.5,1c-8.7,16-17.4,32.1-26.3,48.5l6.3,4.3c-0.9,2.1-1.8,4.4-2.9,7.1
	l91.7,44.8l-3.5,7.4c-2.7-2.3-7.9-1.3-5.7-7.3c0.2-0.6-3.1-3-5.1-4c-20.1-9.9-40.2-19.7-60.3-29.5c-3.4-1.6-6.7-3.6-10.2-4.7
	c-1.9-0.6-4.3,0.2-6.4,0.4L122.4,136.3z"/>
<path class="st0" d="M334.4,236.4l-21.3-10.6l6.3-12.2l24.2,11.6l2.3,3.2l-13.1,5C333.3,234.3,333.9,235.4,334.4,236.4z"/>
<path class="st0" d="M342.3,201.4l10.8,5.6l-6.9,14l-11.1-5.7L342.3,201.4z"/>
<path class="st0" d="M683.5,199.9l7-0.7v8.1l-7-0.4V199.9z"/>
<path d="M774,204.6c-1.7,0.5-3.3,1.4-5,1.4c-14.9-0.1-29.8-0.3-44.8-0.4c-0.3,0-0.6,0.8-1.2,1.5c16,0,31.7,0.3,47.3-0.1
	c5.9-0.1,7.8,1.7,7.5,7.6c-0.5,8-0.2,16-0.1,24c0,3.6-1,5.5-5,5.4c-15.8-0.1-31.5,0-48.1,0v-13.6h-1v31.9h0.7V245h7.6
	c12.8,0,25.7,0.3,38.5-0.1c6.1-0.2,8,2,7.3,7.6c-0.2,3-0.2,5.9-0.1,8.9h-17.3v23.9h0.3c0.2-2.2,0.3-4.4,0.5-7h16v40.2h60.1
	c1.8-8.4,0.7-10-7.5-10c-5.3,0-10.5,0.1-15.8,0c-2.7,0-6.2,1.1-6.4-3.7c0-0.5-2.7-1.3-4.2-1.4c-6.1-0.1-12.2-0.2-18.3,0
	c-3.5,0.1-4.9-1.4-4.9-4.8c0-28.8-0.1-57.7,0.1-86.5c0-3.3,3.2-7.4,2.1-9.9c-3.7-8.6-1.3-17.3-2.3-25.9c-0.6-5.7,1.8-7.5,7.3-7
	c10.6,1,21.4,0.6,31.8,2.8c11.3,2.4,17,16.9,12.3,27.7c-0.7,2-0.9,4.1-0.5,6.1c0.6,5,2.2,10,2.2,15.1c0.3,19.1,0.1,38.3,0.1,57.5
	v8.4c5.4-6.5-2.3-15.8,5.5-18.1c-1.1-3.4-2.9-6.4-2.9-9.4c-0.3-14.9-0.2-29.9-0.1-44.8c0-2.1,0.3-4.1,0.8-6.1
	c1.4-5.2,4.7-6.7,10.2-6.4c12,0.5,24,0.3,36,0.1c4.2-0.1,6,1,6,5.6c-0.2,17.9-0.1,35.8,0,53.7c0,4-1.3,5.7-5.5,5.5
	c-4.7-0.3-9.5-0.1-14.2-0.1v1.6h22.3c0-20-0.1-40.5,0.1-60.9c0-1.7,1.4-4.7,2.5-4.9c2.9-0.5,8.3-0.5,8.7,0.7
	c1.9,5.8,6.2,3.6,9.8,3.9c2,0.2,4.1,0,6.9,0v38.3c0,6.5,1.2,13.4-0.4,19.5c-1.4,5.5,1.3,10.1,0.6,15.3c-0.9,6.2-0.2,12.6-0.2,18.9
	v18.7h0.8v-111l-7.8-2.1c4.3-3,55.6-4,67.8-1.9v116.8c1.7-1.6,2.9-2.2,3.3-3.1s0-2.1,0-3.1V202.1c10.6,0,20.8-0.2,31,0.3
	c1.2,0.1,3.1,4,3.1,6.1c0.2,21,0.1,42.1,0.1,63.1c0,14.3,0,28.6,0,43c0.2,1.4,0.5,2.8,1,4.2l1.5-0.4c0-10,0.1-20,0-30
	c0-3.5,0.8-5.5,4.9-5.4c8,0.1,16,0,24-0.5c5.9-0.4,8.3,1.3,8,7.7c-0.4,9.2-0.2,18.5,0.6,27.7v-35.2h-24.9v-7c0-28,0.2-56-0.1-84
	c-0.1-6.1,2-7.6,7.7-7.3c15.3,0.6,30.6,1,45.8,1c12.1,0,24.3-0.4,36.4-1c5-0.2,6.5,1.6,6.5,6.5c-0.2,42.4-0.1,84.9,0.6,127.5
	c0.2-0.9,0.4-1.9,0.4-2.8c0-41.5,0.1-82.9-0.1-124.4c0-5.4,1.7-7,6.9-6.8c9.9,0.3,19.8-0.1,29.7,0.2c4.4,0.2,8.7,1.7,13.1,2.3
	c2,0.2,4.1,0.2,6.1,0c12.7-1.2,25.5-2.4,39-3.7V207h1.2c0-5.8,0.1-11.6,0-17.4c-0.1-3.7,1.4-5.3,5.2-5.3c34.1,0.1,68.2,0,102.3,0.2
	c3.7,0,7.4,1.6,10.9,2.9c0.9,0.4,1.8,2.4,1.8,3.6c0.1,28.8,0.1,57.6,0.1,86.3c-8.2,1.6-8.2,1.6-8.2,5.6c8-1.5,8.4,3.3,8.3,9.6
	c-0.3,25.3-0.2,50.5,0,75.8c0,5.7-0.4,10.1-7.9,8c-1.8,3.7-1,5.4,3,5.1c3.5-0.3,4.9,1.4,4.9,4.8c-0.1,28.6-0.1,57.3-0.2,85.9
	c0,0.4-0.3,0.8-0.2,0.5l-8.4,4.1l8.4,4c0.1,1.1,0.3,3.1,0.3,5.2c0,26.3,0,52.6,0.1,78.9c0,4.4,0,8.2-6.1,7.6c-1-0.1-2.1,2-3,4
	c8.2-0.8,9.3,3.2,9.2,9.6c-0.3,26.1-0.1,52.2-0.2,78.3c0,2.5,1.1,5.9-3.5,5.8c-4-0.1-4.6-2.6-4.5-6c0.2-5.5,0-10.9,0-17.4h-112.7
	v0.6H1337v27.2l8.6,1.3V743c-7.5,0.8-14.8,2.1-22.1,2.2c-30.3,0.3-60.6,0-90.9,0.2c-5.3,0-6.9-1.6-6.8-6.8
	c0.2-22.3,0.1-44.6,0.1-67.6l-6.3,0.3c1,4,2.4,7.4,2.4,10.8c0.2,18.9,0,37.9,0.2,56.8c0,5-1.5,6.8-6.5,6.5c-7.1-0.3-14.3,0-21.4-0.2
	c-1.7-0.1-3.4-1.3-5.1-2h30.8c0.1-2,0.3-4.3,0.3-6.5c0-18.1,0.2-36.2-0.1-54.3c-0.1-4-2.1-8-3.2-12c0.6-0.4,0.9-0.8,1.3-0.9
	c9.8-1.6,9.8-1.6,9.8,8.8v65.5c19.9,0,39,0.4,58-0.1c18.8-0.5,37.9,2.6,57-2.8v-63.5l-7.3-0.6v-26.9h-113.4v-7.5
	c1.3-0.1,3.4-0.8,3.8-0.3c3.3,4.4,7.9,3,12.1,3c32,0.1,64,0.1,95.9,0h7.6v22.4h1.4v-88.1l-7.2-1v-7.5l7.1-1.2v-88.1l-7.2-0.6v-8.3
	l7.1-0.7v-88.7l-7.2-0.7v-7.9l7.1-1.2v-87.4l-7-1.1v-8.2l7-0.6v-87.9c-6.5-0.6-13-1.6-19.6-1.6c-29-0.2-58.1-0.1-87.1-0.1h-8.2
	c0,7.4-0.1,14,0,20.7c0.1,4.3-1.6,5.8-6.3,3.9v-23.6h-37.4v88.2l1.3-0.7c1.4,1.9,3.8,3.8,3.9,5.8s-2.2,4-3.5,6l-1.8-0.9v29.3h37.4
	v-21.7c4.4-1.7,6.6-1.1,6.4,3.9c-0.2,8.4-0.2,16.8,0,25.3c0.1,4.2-1.7,5.2-5.8,4c-0.3-1.6-0.6-3.4-0.9-5.6h-39.9
	c-0.5,3.2-0.9,6.4-1.4,9.7l-2,0.1c-0.6-3.2-1.2-6.4-1.8-10.2c-6.9,0-13.8,0.2-20.7-0.1c-1.8-0.1-3.5-1.7-5.3-2.6
	c1.7-0.8,3.3-2.2,5-2.3c7.5-0.3,15.1-0.1,23.8-0.1c-1.6-10.8,2.7-21.5-2.5-31.9c-0.8-1.5-0.4-3.8-0.2-5.6c0.7-4.9,2.3-9.8,2.4-14.7
	c0.3-23.4,0-46.7,0.2-70.1c0-4.1-1.4-6.9-5.2-7c-14-0.3-28.1-0.1-42.8-0.1v6.8c0,38.7,0,77.5,0,116.2c0,1.9-0.6,4.3,0.4,5.6
	c5,6.4,0.1,5.9-3.9,5.8c-1.7-0.1-3.3-1.1-4.9-1.7c0.9-1.1,1.8-2.4,2.5-3.6c0.7-1.2,1.1-2.5,1.2-3.9c0.1-40.6,0.1-81.2,0-121.9
	c-0.1-1-0.3-1.9-0.6-2.8h-37.4v128.9c4.5,0,8.8-0.2,13.1,0.1c1.4,0.1,2.7,1.7,4.1,2.5c-1.2,0.8-2.4,2.3-3.6,2.3
	c-6.7,0.2-13.4,0.1-19.8,0.1V187.1h-47.9v93.2h25.3v40.6c-3,0-6.3,0.2-9.5-0.1c-1.1-0.1-2-1.5-3-2.2c1.1-0.9,2.1-2.1,3.3-2.6
	s2.8-0.3,4.5-0.4v-29.6h-30.9v28l7.3,4.9c-2.7,0.8-5.5,1.5-8.3,2c-2.8,0.2-5.6,0.2-8.4,0.1V204.8h-29.5v111c3-0.1,6.1-0.1,9.1,0.1
	c1.2,0.1,2.3,1.6,3.4,2.5c-1.2,0.9-2.3,2.4-3.5,2.4c-16,0.2-31.9,0.1-48,0.1c-1.6-3.8-0.5-5.2,3.3-5.1c9.3,0.1,18.5,0,28.3,0V204.9
	h-54.5v115.7h-21.5v-10.7h11.6c0.7,2.1,1.4,4.1,2.1,6.1l1.6-0.4V273l-4.9-4.5l5.2-3.3v-56.1c-3.1,0-6,0.2-8.8,0
	c-3-0.2-6.9,1.6-7.9-3.8c-0.2-0.9-4.6-0.9-7.8-1.5c0,15.4-0.2,29.7,0.1,44c0.1,6.7,1.4,13.4,1.7,20.2c0,1.1-1.9,3.4-3,3.4
	c-8,0.3-15.9,0.1-24.2,0.1v-6.6h18.2V204c-14.2,0-28.3-0.3-42.3,0.4c-2,0.1-5.3,5.3-5.4,8.2c-0.5,16-1.2,32.1,0.4,47.9
	c0.5,5.3,3.5,9.4-0.3,14.9c-1.7,2.4-0.3,6.9-0.3,10.4c-5.1,2-7,0.8-7-4.3c0.2-21.5,0.2-42.9,0-64.4c0-3.2-1.6-6.3-2-9.5
	c-0.4-2.9-1.1-6.3,0-8.6c6.6-13.8-4-26.8-17.5-27.3c-7.1-0.3-14.3-0.3-21.4-0.4c-2.1,0-4.2,0-7.8,0c2.1,21.7,0.4,43,0.4,64.3
	c0.1,21.7,0,43.3,0,66c7.4,0,14.4-0.1,21.5,0c2.7,0,6.2-1.2,6.6,3.6c0,0.6,2.6,1.4,4.1,1.5c6.3,0.2,12.6-0.1,18.9,0.1
	c5.9,0.2,9.7,7.7,6.3,12.5c-0.8,0.9-2,1.4-3.2,1.4c-26.7,0.1-53.4,0.1-80.5,0.1c0.5-4.6,0.8-8.6,1.6-12.6c0.2-0.9,2.1-2,3.1-1.9
	c1.3,0.3,2.3,1.3,2.7,2.5c0.4,2,0.1,4.1,0.1,6.5H775v-35.8h-11c-0.1,3.3-0.3,6.5-0.5,10.2c-3,0.8-6,1.8-6.1-3
	c-0.2-8.6,0-17.2,0-26.5h17.5v-13.3H726c0,5,0.2,10-0.1,14.9c-0.1,1.2-1.4,2.4-2.2,3.6c-0.8-1.2-2.3-2.5-2.3-3.7
	c-0.2-10.3-0.2-20.6,0-30.9c0-1.4,1.5-2.8,2.4-4.2l1.8,0.6v14.6H775v-32.5c-2-0.1-4-0.4-6-0.4c-12.4,0-24.8,0-37.2,0
	c-1.7,0-3.3,0.1-5,0.3c-1.6,0.2-3.2,0.5-4.8,0.8c-0.2-1.9-0.8-3.8-0.3-5.5c0.3-0.9,2.4-2.1,3.5-2c2.9,0.3,5.7,1.8,8.5,1.9
	C747.1,204.7,760.6,204.6,774,204.6z M904,318.3h9c-0.2-2.7-0.4-4.9-0.6-7H904V318.3z M1187,277.1l-9,2.9l3.6,4.1
	C1183.4,282.2,1189.3,284.9,1187,277.1L1187,277.1z M1224.7,323.1h0.8v-25.7h-0.8V323.1z"/>
<path d="M1030.3,744.1l-9.7-1.5v-67.2l24.5-1.8c0-0.6,0-1.3,0-1.9l-24.6-1.8c-0.2-2.4-0.3-4.2-0.4-6.1c0-20.2,0.2-40.4-0.1-60.6
	c-0.1-5.4,1.3-7.2,7-7.2c33.7,0.3,67.3,0.1,101,0.1h6.3v-1.1h-113.6v-17.2c7.6-1.2,7.6-1.2,7.5-5.4c-7.6,1.5-8.2-2.8-8.2-9
	c0.3-25.7,0.2-51.4,0-77c0-4.4,0-8.1,6.1-7.5c0.8,0.1,1.7-1.3,2.5-2c-0.8-0.9-1.6-2.1-2.6-2.6c-1.8-1-5.5-1.4-5.6-2.3
	c-0.3-5-0.1-10,0.7-14.9c0.1-0.7,4.1-1.2,6.3-1.2c38.5-0.1,77-0.1,115.5,0h6.2v-1h-128.6v-72.1c14.6-8.4,29.9-4.9,44.8-5.1
	c33-0.4,66.1,0.2,99.1-0.4c7.9-0.1,14.4,2.5,21.1,5.5c-3.5-0.5-8,2.1-10.2-3.2c-0.3-0.6-2.7-0.5-4.2-0.5c-45.2,0-90.5-0.1-135.7,0.2
	c-3.7,0-7.3,2.9-11.4,4.6v69.6h121.6c1.7-0.1,3.3-0.1,5,0.1c0.9,0.2,2.3,1.5,2.2,2.2c-0.3,1.1-1.1,2-2.2,2.4c-1.7,0.3-3.3,0.3-5,0.2
	h-121.6V472l5.7,0.7v7.9l-5.8,1.3v87.8l5.8,1.3v7.2l-5.9,1.3v14.2H1133c1.7-0.1,3.3,0,5,0.2c0.7,0.1,1.8,1.3,1.8,1.9
	c-0.2,0.9-0.9,1.7-1.8,2c-1.9,0.3-3.8,0.4-5.7,0.3c-33.4,0-66.9,0-100.3,0h-7.9v70.3c6.1,0.4,12.4,0.6,18.8,1.3
	c1.6,0.2,3,1.8,4.5,2.8c-1.5,1.1-3,3.1-4.6,3.3c-6.1,0.8-12.3,0.9-18.7,1.3v62.8L1030.3,744.1z"/>
<path d="M545.4,320.6v-9.3h-10.2c-2,3.3-3.3,7.1-5.9,9c-2,1.5-5.9,1.4-8.7,0.8c-16.8-3.4-33.5-7-50.2-11.1c-2.4-0.6-5.4-3.7-5.7-5.9
	c-0.3-2.7,1.4-7.7,3.3-8.2c6.3-1.9,8.8-6.4,11.4-11.4c0.6-1.1,2.8-1.3,4.8-1.1c-4,7.5-7.1,14.6-2,24.2l34.4,8
	c1.2-8.5,7.2-9.8,14.2-9.6c3.2,0.1,6.3,0,9.5,0c9.4,0,9.4,0,10.3,9.4h130.2c0.4-1.7,0.8-3.6,1.3-5.7l5.4-0.6c0.9-8,0.9-8,5.5-7.8
	v14.5h34.3c2.1-0.1,4.2-0.1,6.3,0.2c0.9,0.1,2.4,1.7,2.2,2.1c-0.5,1.1-1.4,2.1-2.5,2.7c-0.8,0.4-2,0.1-3.1,0.1H550.5
	C549,320.9,547.6,320.7,545.4,320.6z M518.7,319.8c3.5-0.4,7.6,0.4,9.7-1.3c1.9-1.5,1.7-5.7,2.4-8.8h15.8c0.3,2.9,0.5,5.5,0.7,8
	l0.8-0.1c-0.1-3-0.3-6-0.4-8.8c-0.6-0.2-1.2-0.4-1.8-0.5c-5.4,0-10.9-0.1-16.3-0.1C520.8,308.3,519.5,309.5,518.7,319.8z
	 M478.2,309.6c-0.4-5.1-0.7-9.7-1.1-14.8c-4.5,2.6-11.8,0.4-11,8C466.8,310.1,473.5,307.8,478.2,309.6L478.2,309.6z M683.3,310.9
	c-0.2,2.8-0.3,5-0.4,7.5h8.5c-0.4-2.8-0.7-5.2-1-7.5H683.3z"/>
<path d="M381.6,300.7c1.4-3.7,1.7-5.5,6.3-2.5c8.3,5.5,17.7,9.3,26.7,13.6c11.9,5.7,23.8,11.3,35.7,16.9
	c26.5,12.6,55.6,19.1,85,18.8c56.1-0.2,112.3-0.1,168.4,0c2.8,0,7.3-1.8,6.9,4.9h-7.5c-60.5,0-121.1,0.5-181.6-0.4
	c-14.2-0.2-28.5-4.2-42.3-7.8c-11.9-3.2-23.4-7.4-34.6-12.6c-20.3-9.3-40.2-19.5-60.3-29.4C383.5,302,382.9,301.5,381.6,300.7z
	 M706,350.8l0.3-0.5H516.1v0.5H706z"/>
<path d="M1222.4,355.6c4.2-1.5,5.9-0.3,5.9,4.1c-0.1,39.6-0.1,79.2,0,118.7c0,4.3-1.9,5.1-5.9,3.8L1222.4,355.6z M1225.1,478.6h0.3
	V360h-0.3V478.6z"/>
<path d="M1228.1,566.4c0,16.8,0.1,33.7-0.1,50.5c0,1.8-1.4,4.9-2.6,5.1c-3.7,0.6-3.4-2.5-3.4-5c0-33.9,0-67.7,0.1-101.6
	c0-1.7,1.9-3.3,2.9-5c1,1.6,3,3.3,3,4.9C1228.2,532.3,1228.2,549.4,1228.1,566.4L1228.1,566.4z M1225.1,617.6h0.3V515.4h-0.3V617.6z
	"/>
<path d="M1176.7,743.9c-1,0.5-2,1.4-3,1.4c-26.1,0.1-52.1,0.1-78.7,0.1v-71.2h97.1c-7.7-9.2-2.1-19.3-4.5-27.9
	c-0.7,2.6-1.4,5.4-2.1,8.3c-0.2-2.9-0.2-5.9,0-8.8c0.1-1.3,1.3-2.6,2-3.9c0.8,1.2,2.3,2.4,2.3,3.7c0.2,6.5,0,13,0.3,19.6
	c0.3,1.8,1.2,3.4,2.6,4.6c3.4,3,2.5,5.2-1.3,6.1c-4,0.9-8.1,1.3-12.3,1.3c-27.4,0.1-54.9,0-82.7,0v66.9L1176.7,743.9z"/>
<path d="M1185.6,654.2c-2.3,0.5-4.6,1.4-6.9,1.4c-27.7,0.1-55.4,0.1-83.8,0.1v15.7h-20.4v2.4l16.1,0.7v70.3c-1.3,0.3-2.7,0.5-4,0.6
	c-17.2,0-34.4,0.1-51.7,0c-1.7,0-3.3-0.9-5-1.4h59v-68.1c-4.2,0-8.3-0.2-12.4,0c-4.5,0.3-5.6-1.7-4-6.2h19.9v-15.4H1185.6z"/>
<path d="M1189,482.6l-11.9-1.9c-0.6-8.5-1.2-17.4-1.8-27.1l10-0.5v-36.4c-0.2-2.5-0.1-5,0.1-7.5c0.2-1.5,1.5-2.8,2.3-4.1
	c0.8,1.3,2.2,2.5,2.2,3.8c0.1,23.9,0,47.8-0.1,71.7C1189.6,481.3,1189.4,482,1189,482.6z M1187.7,408.8l-1-0.1v46l-8.9,0.6v23.3
	l9.9,1.3L1187.7,408.8z"/>
<path d="M1185.1,571c0.1-20.2,0.1-40.4,0.2-60.6c-0.1-1.7-0.1-3.3,0.1-5c0.2-1,1.3-1.8,1.9-2.6c0.7,0.8,1.8,1.5,2.1,2.5
	c0.3,1.2,0.3,2.5,0.2,3.8c0,33,0,66.1-0.1,99.1c0,2-1,4.1-1.5,6.1l-2.5-0.5V598c-7.3,0-14,0.2-20.7-0.1c-1.6-0.1-3.2-1.5-4.8-2.3
	c1.5-0.6,3.1-1.8,4.6-1.8c6.9-0.2,13.9-0.1,20.8-0.1c-1.9,0.5-3.7,1.3-5.6,1.4c-5.6,0.2-11.1,0.1-16.7,0.1c3.8,1.1,7.5,1.1,11.2,1.1
	c14.2,0.1,12.3-1.3,12.4,11.8c0,1,0.2,2,0.2,3h0.6V506h-0.8v6.2c0,17.7,0.1,35.3-0.1,52.9C1186.8,567,1185.7,569,1185.1,571z"/>
<path class="st0" d="M1185.1,571c0.6-2,1.6-4,1.6-6c0.1-17.7,0.1-35.3,0.1-52.9v-6.2h0.8v105h-0.6c-0.1-1-0.2-2-0.2-3
	c-0.1-13.1,1.8-11.7-12.4-11.8c-3.7,0-7.5,0-11.2-1.1c5.6,0,11.1,0.1,16.7-0.1c1.9-0.1,3.7-0.9,5.6-1.4c0.4-3.3,1.2-6.6,1-9.9
	c-0.1-1.7-1.8-3.4-3.2-4.8c-1.6-1.5-3.3-3-5-4.3L1185.1,571z"/>
<path d="M1222,240.2h5.4c0.4,0.5,0.6,1.1,0.7,1.7c0.1,6.3,0.3,12.6,0,18.8c-0.1,1.5-1.9,3-3,4.5c-1.1-1.4-3-2.7-3.1-4.1
	C1221.8,254.2,1222,247.3,1222,240.2z"/>
<path d="M517.3,367.1c0.3-5.1,3.2-8.4,8-7c3.3,1,6.8,4.2,8.4,7.3c1.4,2.7-5.4,8-9.3,7.8C520.3,374.8,517.2,371.3,517.3,367.1z
	 M532.9,367.2c-3.8-2.8-6.3-5.9-7.9-5.4c-2.3,0.6-4,3.8-6,5.8c2,1.7,3.8,4.6,6,4.8C526.9,372.6,529.1,369.8,532.9,367.2z"/>
<path d="M394,456.6c-3.9,0-8.7-3.9-8.7-7.6c0-3.6,4.8-8,9-8.1c4-0.1,8.3,4,8,8.1C401.9,453.6,399.1,456.2,394,456.6z M394.6,457.3
	c2.6-4,5.2-6.3,5.1-8.6c-0.1-1.9-3.6-5.3-5-5c-2.6,0.5-4.8,3.2-7.1,5L394.6,457.3z"/>
<path d="M526.5,470c2.5,3.1,5.8,5.9,7.2,9.4c1.1,2.9-5.3,7.2-9.5,7c-5-0.3-7-3.3-6.9-7.9C517.4,474.4,521.1,471,526.5,470z
	 M524.6,487.1c2.6-3.5,5.4-5.6,5.3-7.6s-2.9-4-4.6-6c-2.1,1.8-5.5,3.4-5.9,5.5C519,480.8,522,483.4,524.6,487.1L524.6,487.1z"/>
<path d="M448.9,358.5c-5.9-1-10.6-5-10.3-9.1c0.3-4.9,3.4-7.5,8.1-7.9c4.6-0.3,9.7,3.9,8.6,7.8C454.4,352.7,451.1,355.5,448.9,358.5
	z M448.7,355.9c1.5-2.2,3.9-4.2,4.3-6.6c0.7-4.2-2.5-6.4-6.1-5.5c-2.4,0.6-5.4,3.2-5.9,5.4C440.1,353.3,443.2,355.1,448.7,355.9z"/>
<path d="M175.7,224.7l5.8-11.4c3.7,2.2,7.7,3.6,10.1,6.5c0.8,1-2,7.5-3.7,7.7C184.4,227.9,180.4,226,175.7,224.7z M181.9,216.2
	c-1.1,2.7-2,4.8-2.9,6.8c7.6,4.3,8.7,3.7,10.3-3.8L181.9,216.2z"/>
<path d="M139.5,318.7l-5.1,9.7l-10.4-4.4C125.9,311.9,127.9,311.2,139.5,318.7z M136.7,319.4c-7.7-5.1-8.7-4.8-10.4,3.6l7.6,2.8
	C134.9,323.4,135.8,321.4,136.7,319.4z"/>
<path d="M254.9,387l5-9.8l10,4.8C265.6,393.7,265.6,393.7,254.9,387z M267.7,383.3l-6.9-3.5c-1.2,2.6-2.2,4.6-3.3,6.9l6.7,3.2
	L267.7,383.3z"/>
<path d="M259.6,67.1l10.3,4.8l-5,10.5l-10.4-5.2C256.1,74,257.7,71,259.6,67.1z M264,79.9c1.2-2.5,2.2-4.6,3.3-7l-6.8-3.3l-3.3,6.7
	L264,79.9z"/>
<path d="M692.9,362.8c0.6,11.8,0.6,11.8-10.9,10.7c-0.1-1.7-0.3-3.5-0.4-5.2c-0.1-1.6,0-3.3,0-5.4H692.9z M683.6,364v7h7.2
	c-0.1-2.6-0.3-4.8-0.4-7H683.6z"/>
<path d="M318.3,292.9l-10.3-5.2c1.8-3.5,3.3-6.5,5.3-10.3l10.3,5.3L318.3,292.9z M310.4,286.9l7,3.7c1.2-2.5,2.3-4.7,3.4-7l-6.8-3.3
	C312.8,282.6,311.7,284.5,310.4,286.9L310.4,286.9z"/>
<path d="M682.1,473.9h10.5v10.8h-10.5V473.9z M683.4,483.4h7V476h-7V483.4z"/>
<path d="M1019.9,187.7c11.2-1.9,11.6-1.5,11.6,8.4v82.5l-11.6-0.7L1019.9,187.7z M1025.4,187.7l-1.6,1.7c0,2.9,0.4,5.9-0.1,8.8
	s-2.9,5.4-3,8.1c-0.3,16.9-0.2,33.9-0.2,51.1h8.6c0-22.3,0.1-44.2-0.2-66.2C1029,190,1026.7,188.9,1025.4,187.7L1025.4,187.7z
	 M1021,263.1v13h7.9v-13H1021z"/>
<path d="M1185.4,657.8c0.7,3.7,1.3,7.4,2.1,12c-31.1,2.6-61.1,0.5-91,1.4c-2.2-14.4-2.1-14.5,10.9-14.5c23.9,0,47.8,0,71.8,0
	c2.1,0,4.3,0.8,6.4,1.2c-2.3,0.1-4.6,0.4-6.9,0.4c-24.6,0-49.2,0-73.8,0h-7.1v11.2c29.3-1,58.3,1.5,87.6-1.7L1185.4,657.8z"/>
<path d="M1144.8,181.9V165c12.8,0,25.1-0.1,37.4,0.2c1.1,0,2.2,2.2,3.2,3.5c0.2,0.3,0,0.8,0,1.2c0,14.1,1,11.9-11.5,12
	C1164.5,182,1155.1,181.9,1144.8,181.9z M1146.8,179h36v-11.9h-36V179z"/>
<path d="M806.6,304.3v11.5c-7.7,0-15.4,0.3-23-0.3c-1.3-0.1-3-4.3-3.1-6.6c0-1.5,2.5-4.3,4.1-4.4
	C791.7,304.1,798.8,304.3,806.6,304.3z M782.9,314H805v-7.1h-22.1V314z"/>
<path d="M761.3,277.4v-15.1c5.3,0.5,10.7,0.4,15.5,2.1c1.3,0.5,1.5,9.5,0.3,10.1C772.4,276.5,767,276.5,761.3,277.4z M775.2,265.6
	h-11v8.3h11V265.6z"/>
<path d="M819.8,309.4c2.5,0,5.1-0.3,7.5,0.1c1.3,0.3,3,1.8,3.1,3s-1.7,3.1-2.7,3.2c-5.6,0.3-11.3,0.3-16.9,0c-1,0-2.7-2-2.5-2.8
	c0.3-1.3,1.6-3.1,2.8-3.3C813.9,309.2,816.9,309.5,819.8,309.4L819.8,309.4z M827.8,314c0-0.4,0-0.8,0-1.2h-17l0.1,1.2H827.8z"/>
<path class="st0" d="M904,318.3v-7h8.4c0.2,2.1,0.4,4.3,0.6,7H904z"/>
<path class="st0" d="M1187,277.1c2.2,7.8-3.6,5.1-5.4,7l-3.6-4.1L1187,277.1z"/>
<path class="st0" d="M1224.7,323.1v-25.8h0.8v25.8L1224.7,323.1z"/>
<path class="st0" d="M518.7,319.8c0.8-10.3,2.1-11.5,10.8-11.6c5.5,0,10.9,0,16.3,0.1c0.6,0.1,1.2,0.3,1.8,0.5
	c0.1,2.8,0.3,5.8,0.4,8.8l-0.8,0.1c-0.2-2.5-0.4-5.1-0.7-8h-15.8c-0.7,3.1-0.5,7.2-2.4,8.8C526.3,320.2,522.2,319.4,518.7,319.8z"/>
<path class="st0" d="M478.2,309.6c-4.7-1.8-11.4,0.5-12.1-6.8c-0.7-7.5,6.5-5.4,11-8C477.5,300,477.9,304.5,478.2,309.6z"/>
<path class="st0" d="M683.3,310.9h7.1c0.3,2.4,0.6,4.7,1,7.5h-8.5C683,315.9,683.2,313.7,683.3,310.9z"/>
<path class="st0" d="M706,350.8H516.1v-0.5h190.2L706,350.8z"/>
<path class="st0" d="M1225.1,478.6V360h0.3v118.7L1225.1,478.6z"/>
<path class="st0" d="M1225.1,617.6V515.4h0.3v102.2L1225.1,617.6z"/>
<path class="st0" d="M1187.7,408.8v71.1l-9.9-1.3v-23.3l8.9-0.6v-46L1187.7,408.8z M1186.8,473.9c0-5.3,0.3-9.9-0.2-14.4
	c-0.1-1.3-2.5-3-4-3.3c-1-0.2-3.2,2-3.3,3.3c-0.4,4.7-0.2,9.4-0.2,14.4H1186.8z"/>
<path class="st0" d="M532.9,367.2c-3.8,2.6-6,5.4-7.9,5.2c-2.1-0.2-4-3.1-6-4.8c2-2,3.6-5.2,6-5.8
	C526.5,361.4,529.1,364.5,532.9,367.2z"/>
<path class="st0" d="M394.6,457.3l-7-8.6c2.3-1.8,4.5-4.5,7.1-5c1.4-0.3,5,3.2,5,5C399.8,451,397.2,453.3,394.6,457.3z"/>
<path class="st0" d="M524.6,487.2c-2.6-3.8-5.6-6.3-5.2-8.1c0.5-2.2,3.8-3.7,5.9-5.5c1.7,2,4.5,4,4.6,6S527.2,483.7,524.6,487.2z"/>
<path class="st0" d="M448.7,355.9c-5.5-0.8-8.5-2.6-7.7-6.6c0.5-2.2,3.5-4.8,5.9-5.4c3.7-1,6.9,1.3,6.1,5.5
	C452.6,351.7,450.2,353.8,448.7,355.9z"/>
<path class="st0" d="M181.9,216.2l7.4,3.1c-1.5,7.5-2.7,8-10.3,3.8C179.9,221,180.8,218.9,181.9,216.2z"/>
<path class="st0" d="M136.7,319.4c-0.9,1.9-1.8,3.9-2.9,6.4l-7.6-2.8C128,314.7,129,314.3,136.7,319.4z"/>
<path class="st0" d="M267.7,383.2l-3.5,6.7l-6.7-3.2c1.1-2.3,2-4.3,3.3-6.9L267.7,383.2z"/>
<path class="st0" d="M264,79.9l-6.8-3.6l3.3-6.7l6.8,3.3C266.2,75.3,265.2,77.4,264,79.9z"/>
<path class="st0" d="M683.6,364h6.9c0.1,2.2,0.2,4.4,0.4,7h-7.2V364z"/>
<path class="st0" d="M310.4,286.9c1.3-2.4,2.4-4.3,3.6-6.6l6.8,3.3c-1.1,2.3-2.2,4.5-3.4,7L310.4,286.9z"/>
<path class="st0" d="M683.4,483.4V476h7v7.4L683.4,483.4z"/>
<path class="st0" d="M1025.4,187.7c1.3,1.1,3.6,2.3,3.6,3.5c0.2,22,0.2,43.9,0.2,66.2h-8.6c0-17.2-0.1-34.2,0.2-51.1
	c0-2.7,2.4-5.3,3-8.1c0.6-2.8,0.1-5.8,0.1-8.8L1025.4,187.7z"/>
<path class="st0" d="M1021,263.1h7.9v13h-7.9V263.1z"/>
<path class="st0" d="M1185.4,657.8v10.1c-29.3,3.2-58.3,0.7-87.6,1.7v-11.2h7.1c24.6,0,49.2,0,73.8,0c2.3,0,4.6-0.3,6.9-0.4
	L1185.4,657.8z"/>
<path class="st0" d="M1146.7,179v-11.9h36V179H1146.7z"/>
<path class="st0" d="M782.9,314v-7.1H805v7.1H782.9z"/>
<path class="st0" d="M775.2,265.6v8.3h-10.9v-8.3H775.2z"/>
<path class="st0" d="M827.8,314h-17l-0.1-1.2h17C827.8,313.2,827.8,313.6,827.8,314z"/>
<path d="M1186.8,473.9h-7.7c0-5-0.3-9.7,0.2-14.4c0.1-1.3,2.4-3.5,3.3-3.3c1.5,0.3,3.9,2,4,3.3
	C1187.1,464,1186.8,468.6,1186.8,473.9z M1185.3,465.5c0.1-1,0.1-2.1-0.1-3.1c-0.6-1.3-1.2-2.6-2-3.8c-0.6,1.3-1.6,2.6-1.8,4
	c-0.3,2.1-0.3,4.2,0,6.2c0.2,1.2,1.1,2.3,1.7,3.4c0.8-1.1,1.5-2.4,2.1-3.6C1185.4,467.6,1185.4,466.5,1185.3,465.5z"/>
<path class="st0" d="M1185.3,465.5c0.1,1,0.1,2.1-0.1,3.1c-0.6,1.3-1.3,2.5-2.1,3.6c-0.6-1.1-1.5-2.2-1.7-3.4
	c-0.3-2.1-0.3-4.2,0-6.2c0.2-1.4,1.2-2.7,1.8-4c0.8,1.2,1.4,2.4,2,3.8C1185.4,463.4,1185.4,464.4,1185.3,465.5z"/>
</svg>
