<?xml version="1.0" encoding="utf-8"?>
<!-- Generator: Adobe Illustrator 24.1.1, SVG Export Plug-In . SVG Version: 6.00 Build 0)  -->
<svg version="1.1" id="图层_1" xmlns="http://www.w3.org/2000/svg" xmlns:xlink="http://www.w3.org/1999/xlink" x="0px" y="0px"
	 viewBox="0 0 1366 764" style="enable-background:new 0 0 1366 764;" xml:space="preserve">
<style type="text/css">
	.st0{fill:#FFFFFF;}
</style>
<path class="st0" d="M0,304.3V0h1366v764H0V309.7c1.6,0.4,3.1,0.9,4.6,1.5c93.2,45.6,186.4,91.1,279.6,136.7
	c44.9,21.9,88.8,46,137.2,60.4c9.9,3,19.5,7,29.5,9c11,2.2,22.4,2.8,33.7,4c14.2,1.5,28.4,4.3,42.6,4.3
	c126.4,0.3,252.8,0.2,379.2,0.3c4.9,0,6.2-1.3,6.2-6c-0.2-48.2-0.1-96.4-0.1-144.6V369h104.6v390.3h340.6v-584h-163v-19.5h-52.3
	v19.8h-125.8v17.4H834.9c-0.2-0.6-0.4-1.2-0.5-1.8c0.9-19.4-12.5-31.7-34.4-31.6c-86.7,0.4-173.5,0.2-260.2,0.1
	c-3.3,0-6.5-0.8-9.5-2.1c-13.3-6.3-26.5-12.9-39.7-19.3c-22-10.7-43.9-21.5-66-32.1c-10.6-5.1-21.1-4-30.3,3c-3.1,2.4-5,2.3-8.2,0.7
	C313.5,74.2,240.7,38.6,168,3.1c-1.8-0.9-3.6-1.6-5.8-2.7l-29.4,55.3c-21.5-8.5-41.6,0.1-51.2,19.3c-8,16-16.8,31.7-25.2,47.6
	c-5.8,11-11.7,22.1-17.6,33.3l32.4,15.9c-18.9,35.6-37.6,70.8-56.3,105.9C10.1,286.6,5,295.4,0,304.3z"/>
<path d="M0,304.3c5-8.9,10.1-17.7,14.9-26.6c18.8-35.1,37.4-70.3,56.3-105.9l-32.4-15.9c5.9-11.2,11.8-22.3,17.6-33.3
	C64.8,106.7,73.6,91,81.6,75c9.6-19.1,29.7-27.8,51.2-19.2l29.4-55.3c2.2,1,4.1,1.8,5.8,2.7c72.7,35.5,145.4,71.1,218.1,106.7
	c3.2,1.6,5.1,1.7,8.2-0.7c9.2-7,19.7-8.1,30.3-3c22.1,10.6,44,21.4,66,32.1c13.2,6.4,26.4,13,39.7,19.3c3,1.4,6.2,2.1,9.5,2.1
	c86.7,0.1,173.5,0.3,260.2-0.1c21.9-0.1,35.3,12.2,34.4,31.6c0.1,0.6,0.2,1.2,0.5,1.8h181.9v-17.4h125.8v-19.8h52.3v19.5h163v584.1
	h-340.6V368.9H912.6v6.4c0,48.2-0.1,96.4,0.1,144.6c0,4.7-1.3,6-6.2,6c-126.4-0.1-252.8,0-379.2-0.3c-14.2,0-28.4-2.8-42.6-4.3
	c-11.2-1.2-22.6-1.8-33.7-4c-10.1-2-19.7-6-29.5-9c-48.5-14.4-92.3-38.6-137.2-60.5c-93.3-45.4-186.5-91-279.6-136.7
	c-1.5-0.6-3.1-1.1-4.6-1.5V304.3z M73.3,171.1L0.9,307.5c2.1,1.1,3.7,2,5.4,2.8c94,46,188.1,91.9,282.2,137.8
	c41.1,20,81.1,42.5,125.4,55.9c12.7,3.8,25,8.7,37.9,11.9c8.9,2.2,18.4,2.3,27.6,3.3c15.9,1.7,31.7,4.6,47.6,4.6
	c125.8,0.4,251.7,0.2,377.5,0.2h6.3v-7.2c0-47.9,0.1-95.7-0.1-143.6c0-5.2,1.5-6.6,6.9-6.5c31.3,0.2,62.5,0.1,93.8,0.1
	c7.4,0,7.4,0,7.4,6.9v384.6h330.5c7.4,0,7.4,0,7.4-7.3v-574h-156.5c-7.3,0-7.3,0-7.3-7.1c0-4.2,0-8.5,0-12.8h-48.2v6.7
	c0,13.3,0,13.3-14.1,13.3h-111.9c0,4.3-0.3,7.8,0.1,11.3c0.6,5.4-1.4,7-7.1,7c-57.5-0.2-115-0.1-172.6-0.1h-6.3c0-2.6,0-4.4,0-6.1
	c-0.3-9.8-3.9-18-12.8-23.6c-6.1-3.8-13-3.9-19.9-3.9c-85.4,0-170.9,0-256.3,0.1c-6.1,0-12.1-1.4-17.5-4.1
	c-33.3-16.5-66.6-32.8-100.1-49c-11.7-5.7-22.8-5.2-33,3.4c-1.1,0.9-3.8,1-5.2,0.4c-61.5-30-123-60-184.5-90.1
	c-13.4-6.5-26.7-13-40.3-19.7c-0.9,1.4-1.6,2.4-2.1,3.5c-8.3,15.5-16.7,31-24.7,46.7c-2.1,4.2-4.2,4.5-8.6,3.3
	c-4.9-1.5-10.1-2-15.2-1.7C99.1,55.5,89.8,63,83.8,74.4c-6.8,13-13.8,26-20.7,39c-7.3,13.8-14.6,27.5-22.1,41.7L73.3,171.1z"/>
<path class="st0" d="M73.3,171.1l-32.4-16c7.5-14.2,14.8-28,22.1-41.7c6.9-13,13.9-25.9,20.7-39c6-11.5,15.3-18.9,28.8-20.2
	c5.1-0.4,10.3,0.2,15.2,1.7c4.4,1.2,6.5,0.9,8.6-3.3c8-15.7,16.4-31.1,24.7-46.7c0.6-1.1,1.3-2.1,2.1-3.5
	c13.6,6.6,27,13.1,40.3,19.7c61.5,30.1,123,60.1,184.5,90.1c1.4,0.7,4.1,0.5,5.2-0.4c10.3-8.6,21.4-9.1,33-3.4
	c33.4,16.3,66.8,32.6,100.1,49c5.4,2.8,11.4,4.2,17.5,4.1c85.5-0.1,170.9-0.2,256.3-0.1c6.9,0,13.8,0.1,19.9,3.9
	c8.9,5.5,12.5,13.7,12.8,23.6c0,1.8,0,3.5,0,6.1h6.3c57.5,0,115-0.1,172.6,0.1c5.7,0,7.7-1.6,7.1-7c-0.4-3.5-0.1-7.1-0.1-11.3h111.9
	c14.1,0,14.1,0,14.1-13.3v-6.7h48.2c0,4.4,0,8.6,0,12.8c0,7.1,0,7.1,7.3,7.1h156.5v574c0,7.3,0,7.3-7.4,7.3h-330.4V373.6
	c0-6.9,0-6.9-7.4-6.9c-31.3,0-62.5,0.1-93.8-0.1c-5.3,0-6.9,1.3-6.9,6.5c0.2,47.9,0.1,95.7,0.1,143.6v7.3h-6.3
	c-125.8,0-251.7,0.2-377.5-0.2c-15.9,0-31.7-3-47.6-4.6c-9.2-1-18.7-1.1-27.6-3.3c-12.9-3.2-25.2-8-37.9-11.9
	c-44.4-13.4-84.3-35.9-125.4-55.9c-94.2-45.8-188.2-91.7-282.2-137.9c-1.6-0.8-3.2-1.7-5.4-2.8L73.3,171.1z M777.3,304.2
	c-0.4,1.4-0.9,2.9-1.1,4.3c-0.8,4.7,0.9,6.9,6.3,6.4c4.8-0.4,9.7-0.4,14.5,0c4.9,0.4,6.4-1.3,6.3-6c-0.1-4.3-1.3-6.3-6.1-5.8
	c-2.8,0.3-5.6-0.1-8.4,0.1c-3.9,0.3-7.8,0.8-11.7,1.2L777.3,304.2z M1188.4,176c0.4-4.8,0.8-9.6,1-14.5c0-0.5-1.6-1.6-2.4-1.6
	c-12.8-0.1-25.5-0.1-38.5-0.1v17c13.1,0,25.7,0,38.3-0.1c0.6,0,1.2-0.6,1.8-1L1188.4,176z M1023.1,552.9c0.5,0.4,1.1,1.1,1.6,1.1
	c12.4,0.1,24.9,0.2,37.3,0c1.5,0,3-1.6,4.4-2.4c1,3.4-0.7,4.2-4,4.2c-11.5-0.1-23-0.1-34.6,0c-1.9,0-3.9,0.3-6,0.4
	c0,4.9,0.3,9.2-0.1,13.5c-0.5,5.3,0.2,9.4,7.5,8v4.4l-6.3,2c-0.4,3.4-1.1,6.7-1.2,10.1c-0.2,7,0,7,7.4,7h154.1c8.3,0,8.3,0,8.3-7.8
	c0-9.7,0-9.7-9.3-11.1v-4.4h10.2v39.9c-0.8-3.2-1.1-6.6-0.8-9.9c0.4-4.5-1.4-5.8-6-5.8c-52.7,0.1-105.3,0.1-158,0
	c-4.8,0-6,1.6-6,5.9c0.2,21.4,0.1,42.9,0.1,64.3c0,1.6,0.2,3.1,0.3,5.1l25.3,2.3c0,0.6,0,1.2,0,1.8l-25.2,2v69
	c23.7,5.1,47.4,1.5,71,2.6v-72.6l-16.7-0.8l0.1-2.4h20.2V663h84.9c9.5,0,9.5,0,9.9-9.3c0.1-0.7,0.2-1.3,0.3-2h0.8v26.6
	c1.6,0.3,2.7,0.4,3.8,0.6c0.9,0.3,1.9,0.6,2.8,1l-0.1,1.7c-16.7,3-33.7-0.3-50.5,0.4c-17.2,0.7-34.4,0.1-51.8,0.1v72.4
	c1,0.2,2.1,0.4,3.1,0.4c25.9,0,51.7,0,77.6,0c1.3-0.1,2.5-0.4,3.7-0.7c3.2-0.5,6.3-1.6,9.5-1.4c5,0.3,9.9,1.8,14.8,2
	c6.8,0.4,13.6,0.1,20.4,0.1c0.1-2.1,0.3-3.1,0.3-4.2c0-22.5-0.1-45,0-67.5c0-1.8,1-3.7,1.6-5.6l1.8,0.4v5.8
	c0,21.6,0.2,43.2-0.1,64.8c-0.1,4.8,1.3,6.4,6.5,6.4c29.4-0.2,58.8,0,88.2-0.2c9.4-0.1,18.8-1,28.3-1.6v-69.7l-6.6-0.8V678l6.6-0.8
	V660l-8-0.8v-14.3h-115.7v-20.5c0.8,4.2,1.1,8.5,0.7,12.8c-0.4,4.7,1.2,6.1,6.2,6c34.4-0.2,68.9-0.1,103.3-0.1h6.5
	c0,3.5,0.2,6.5,0,9.5c-0.4,5.1,2,6.4,7.1,5v-73.6c-2.7-1-4.9-1.8-7-2.7c-1.6-0.7-3.1-2.4-4.7-2.5c-35.6-0.1-71.1-0.1-106.7-0.2
	c-3.9,0-4.7,1.6-4.6,4.8c0.2,4.8,0,9.6,0,14.3h-0.9v-52.1c0.9,8.3,1.2,16.7,0.8,25c-0.3,5.3,1.2,7,7,7c36.5-0.3,73-0.1,109.5-0.1
	h6.5v-58.3h-123.7v-146c0.8,10.4,0.9,20.7,0.8,31.1c-0.1,27.6,0.3,55.3,0,83c-0.1,8,0.3,16.1-0.1,24.1c-0.3,4.9,1.6,6,6.4,5.9
	c37-0.2,74.1-0.1,111.1-0.1c0.9,0,2.1,0.3,2.8-0.1c1.2-0.7,3-1.8,3-2.8c0.2-10.5,0.1-21,0.1-31.6l-7-0.9v-4.6l6.5-0.5V458h-95.3
	c0-0.4,0-0.9,0-1.3h95.5c0.2-2.2,0.4-4,0.4-5.7c0-15.9-0.2-31.8,0.1-47.7c0.1-4.6-1.6-5.6-6.1-5.6c-27.9,0.2-55.8,0.1-83.8,0.1h-5.4
	c0-0.5,0-0.9,0-1.4h94.4c2.2-12.1,1.4-14-6.3-15.3v-4.5l6.6-0.6v-38.5H1258c7.9,1.1,7.6-3.8,7.4-8.9c-0.2-5.7,0-11.4,0-17.1
	c0-8.3,0-8.3-8.8-10h9.9c0,9.8,0.2,19.4-0.1,29c-0.2,4.6,1.3,6.2,6.3,6.1c25.1-0.2,50.3-0.1,75.4-0.1c1.4,0,2.9-0.2,4.8-0.3v-53.7
	c-2.6-0.9-4.8-1.4-6.9-2.3s-3.8-2.6-5.7-2.6c-16.8-0.2-33.5-0.1-50.3-0.1h-5.6v-1.1l8.8-0.6c0.2-3.2,0.4-6.1,0.6-8.9
	c0.9,1.4,1.3,3,1.2,4.7c-0.3,3.4,1.1,4.7,4.8,4.7c16.4-0.1,32.8-0.1,49.2,0c2.9,0,4.5-0.7,4.5-3.9c-0.1-28.8,0-57.5-0.1-86.3
	c0-1.2-0.7-3.3-1.6-3.5c-3.9-1.2-8-2-12.1-2.3c-7.4-0.4-14.9-0.1-22.3-0.1h-22.3v61.2h-1.4V236c0-16.6-0.1-33.2,0.1-49.8
	c0.1-4.5-1.1-6.3-6.2-6.2c-17.3,0.3-34.6,0.3-51.9,0c-4.6-0.1-5.7,1.5-5.6,5.6c0.1,28.4,0.1,56.8,0,85.2c0,4.2,1.2,5.7,5.7,5.5
	c7.4-0.3,14.8-0.1,22.1-0.1v1.4c-7.5,0-15.1,0.2-22.6-0.1c-3.9-0.1-5.5,1.1-5.1,4.9c0.6,6.4,1.6,12.9,1.5,19.4
	c-0.1,8.6-1.1,17.2-1.5,25.8c-0.3,6.2,0,12.5,0,18.7h-1.2V313c0-42.9,0-85.7,0-128.6c0-3.7-1.7-4.5-5.1-4.5
	c-8.6,0.1-17.1,0-25.7,0.1c-1.4,0.2-2.8,0.4-4.2,0.8c-3.4,0.4-6.8,1.3-10.2,1.1c-4.2-0.2-8.4-1.8-12.6-1.8
	c-16.8-0.2-33.5,0.1-50.3-0.2c-5.6-0.1-7.3,1.3-7.3,6.8c0.2,41.3,0.1,82.5,0.1,123.8v6.3h88.9v1h-105.7c1.6-7.9,9-1.7,12.2-5.7
	c0.1-0.5,0.2-1,0.2-1.5c0-40.9,0-81.8,0.1-122.7c0-3.9-1.6-4.8-5.3-4.8c-21.4,0.1-42.8-0.1-64.2,0.2c-4.4,0.1-8.7,2.1-13.1,3.2
	c-1.2,6.7-3.1,13.3-3.3,20c-0.4,20.4-0.1,40.7-0.2,61.1c0,4,0.8,6.2,5.5,5.7c1.2-0.1,3.4,0.1,3.6,0.7c1.4,4.3,5,2.9,7.9,3
	c7.3,0.1,14.7,0,23.2,0v40.6h-11.5v-0.8l5.8-0.6v-34.1h-35V316l7.1,0.7l-0.1,1h-11.7c0.5-2.3,0.9-4.6,1.1-6.9
	c0.1-21.8,0-43.6,0-65.4c0-14.1,0.1-28.2-0.2-42.3c0-1.7-2-4.7-3.2-4.8c-10.3-0.4-20.7-0.2-31.4-0.2v118.4h11.9
	c0,0.4-0.1,0.7-0.1,1.1h-93v-7.7h7.6l1,6h6.9v-16.6h16.8V316h44.9V198.2h-66.1c-0.2,0-0.4-0.1-0.5,0c-0.7,0.6-1.4,1.2-2.1,1.9
	c0.8,0.6,1.5,1.5,2.3,1.7c1.8,0.3,3.6,0.4,5.5,0.4v64.5h-4.7c1.1-1.4,3.6-3,3.6-4.8c0.3-18.2,0.1-36.4,0.2-54.6c0-2.7-1-3.9-3.9-3.8
	c-3.7,0.2-7.4,0-11.1,0c-0.7-1.9-1.2-3.5-1.8-5.4c-1.3,0-2.4,0-3.5,0c-8.6-0.1-8.6-0.1-8.6,8c0,17.7,0,35.4,0,53
	c0.2,2.6,0.5,5.2,1,7.8c-7.8-1-15.7,1-23.2-2.2c2.4-1.1,4.8-1,7.1-1.1c3.5-0.3,7-0.8,10.5-1.1c0.4-1,1.2-2.1,1.2-3.1
	c0.1-19,0.1-38,0-57c0-1-0.8-2.1-1.2-3.1c-0.4-0.4-0.7-1-1.1-1c-14.9-0.1-29.7-0.2-44.6-0.1c-1.1,0-3,1.2-3.3,2.1
	c-1.2,4.2-2.6,8.5-2.7,12.8c-0.3,16.6-0.1,33.1-0.1,49.6l5,1.9l1.6,1.4c-9.3,0.2-6,5.8-6.5,9.7c-0.3,2.4-0.4,4.8-0.7,7.3h-2
	c-0.3-1.9-0.6-3.8-0.7-5.8c0-16.2,0-32.5,0-48.7c0-5.9,0.3-11.8-0.1-17.7c-0.2-2.7-1.5-5.3-2.4-8c-1.2-4,1.7-7.2,2.1-10.6
	c1.4-10.7-1.8-22.5-14.8-25.5c-12.1-2.8-25.1-1.9-38.1-2.7c0,10,0,18.3,0,26.7c0,1.2,0.8,2.3,0.9,3.5c0.2,3.5,0.2,7,0.3,10.4
	c-0.4,1.6-1.2,3.2-1.2,4.8c-0.1,28.9-0.1,57.9,0,86.8c0,1.5,0.2,3.1,0.3,5.4h27.6c0,3.2,0.2,5.7,0,8.2c-0.3,3.6,0.9,5.3,4.9,5.1
	c4.5-0.2,8.9,0.1,13.4-0.1c1.5-0.1,2.9-0.8,4-1.9c1.4-1.9,2.7-4,3.8-6.1l2.5,0.1c1.1,3.4,2.2,6.8,3.5,10.8h-80.9v-9.7h0.6
	c0.2,2.6,0.3,5.2,0.5,7.8H773c0-12.1,0.1-23.7-0.1-35.3c0-1.3-1.3-3.6-2.1-3.7c-4.4-0.3-9-0.5-13.2,0.5c-1.1,0.3-1,5.1-1.4,7.9
	c0,0.2-0.4,0.4-1,0.9v-15.6c0-8.1,0-8.1-7.6-9.9h22v-57h-26c0-0.4,0-0.9,0-1.3h26.4c1.1-6.5,2.5-12.4,2.9-18.3
	c0.5-6.1,0.1-12.3,0.1-18.4h-88v37h37c-10.3,1.2-20.5,1.2-30.7,1.3c-1.8,0-3.7,0.8-5.5,1.1c-0.4,1.6-1.1,3.2-1.2,4.8
	c-0.1,15,0.1,30-0.2,45c-0.1,4.8,1.6,6.2,6.4,6c9.7-0.3,19.4-0.1,29.2-0.1c0,0.2,0,0.5,0,0.7h-71.8c9.8-0.7,19.7-0.9,29.5-0.6
	c4.5,0.1,5.8-1.3,5.7-5.5c-0.2-15.5-0.1-31.1-0.1-46.6c0-1.5-0.3-3.1-0.5-5.2H643c0-0.5,0-1,0-1.5h32.5v-36.7h-67.6v36.5l13.6,0.7
	l-0.1,1.4h-13.5v56.9h12.7v0.6h-15.7v-96.4c-19.9,0-39.6,0-59.3,0c-6.1,0-13-1.8-14.7,7.9l-2.1-1.6l1.8-7.9l-69-33.8l-16.1,30.4
	c1.9,1.1,3.3,1.9,4.8,2.6c18.2,8.9,36.4,17.7,54.5,26.7c4.8,2.4,9.4,5.6,14.4,0.4c0.1-0.1,0.6,0.3,1.1,0.6c-0.2,1.4-1.2,3.4-0.6,4.4
	c2.8,4.2,0.5,7.4-1.4,10.9c-2.7,4.9-5.1,9.9-7.8,14.7c-3.7,6.7-7.6,13.2-11.4,19.9l0.1,0.1c0.7-2,1.4-4,2.3-5.9
	c4.8-9.3,9.8-18.6,14.8-28.1c-5.6-2.2-10.2-4.6-7.2-11.2c-3.1-1.5-6.1-2.6-8.6-4.4c-4.8-3.2-7-1.9-9.5,2.9
	c-9.5,18.5-19.4,36.8-29.4,55.5c-6.7-3.8-14.1-6-19.8-10.6l1.1-2l17.4,8.2l31-58.4c-13.2-6.5-25.7-12.6-38.2-18.8
	c-6-3-10.1-2.2-13.2,3.4c-9.1,16.7-17.9,33.5-26.6,49.8l3.3,4.4c-5.1-1.2-6.6,1.3-8.1,4.5c-1.8,4-4.1,7.8-6.3,11.7l-1.7-0.4
	c0.1-1.4-0.1-2.9,0.4-4.1c11.8-25.4,29.2-48.1,37.1-75.3c0.5-1.8,4.1-2.7,5.1-4.5c5.3-9.3,10.2-18.9,15-28.1
	c-0.8-0.9-0.9-1.2-1.2-1.4c-9.9-4.9-19.8-9.7-29.6-14.8c-17.5-9-26.9-4.4-37.4,6.7c-2.6,2.8-3.8,7-5.3,10.7c-1,2.5-1,7.1-2.4,7.4
	c-4.4,1.1-4.8,4.6-6.4,7.4c-3.1,5.5-6,11.1-8.9,16.6c-11.7,22-23.4,44-35.1,66.1c-2.6,5-2,10.5,1.4,12.2c16.3,8,32.7,16,49.1,23.9
	c1.1,0.5,2.8,0.1,4.2-0.2c1-0.4,2-0.9,2.9-1.6c-0.1,1.2,0,2.5-0.2,3.7c-0.2,1-0.5,1.9-0.9,2.9l5.3,3.1l-0.5,1l-100.4-49.1l10.4-17.9
	l12.7,6.1c3.5-6.4,6.8-12.5,10.1-18.5l16.1,7.7c1-1.6,1.8-2.7,2.4-4c9.5-17.7,19-35.5,28.3-53.3c1.5-2.9,4.3-5.6,2.6-9.7
	c-0.5-1.3,1.3-4.9,2.8-5.4c6.4-2.1,5.9-8.3,9.6-12.6l-66.3-32.4l-11.9,21.3l-1-0.5l11.2-21.6l-67.6-33L245.8,62l6,3.9l-3.7,6.7
	l-8.1-2.8c3.6-6.9,7.2-13.8,10.9-21L165.1,7c-6.9,8.4-7.5,11.3-3.1,15.6l-3.3,6.1l-5.3-1.1L134.9,62C113.7,50.9,94,59.8,85.5,78
	c-6.4,13.7-14.1,26.8-21.2,40.2c-3.4,6.3-6.7,12.7-10.1,19l-8.7,16.6l37.2,18.2c-1.4,2.6-2.7,4.8-4,7.2c-4.4-2.9-5.9-0.3-7.6,2.9
	c-14.8,28.1-29.7,56.2-44.7,84.2c-1.9,3.5-2.8,6.1,1.9,7.9c-1.4,2.6-2.6,4.7-3.6,6.8l-5.3-1.4c-4.7,8.9-9.3,17.6-14,26.5
	c7,3.5,13.3,6.7,19.8,9.8c85.8,41.9,171.6,83.8,257.4,125.7c46.4,22.5,91.7,47.5,141.7,62.7c12,3.6,23.3,9,36.3,9.5
	c6.5,0.2,12.9,1.4,19.3,2.1c14.9,1.6,29.8,4.6,44.8,4.6c98.6,0.4,197.3,0.2,295.9,0.2c1.7,0,3.3-0.7,5-1.1c0.4-1.8,1.2-3.5,1.2-5.3
	c0.1-47.9,0.1-95.7,0-143.6c0-1.7-0.2-3.4-0.3-5.7H720.8v-10.2c1.9,8.7,1.9,8.7,10.7,8.7h113.9c1.9,0,3.7,0.1,5.6,0.2
	c0.3,0,0.6,0.6,1,1l-5.4,1.1v46.5h-18v65.3l6.6,0.5v7.8l-6.6,0.9v33.5h78.9c0-9.7-0.1-19,0-28.3c0-3.5,0.1-6.6-5-6.1v-7.5l4.7-1.2
	v-65H892v-46.6l-5.9-1c0-0.3,0.1-0.6,0.1-0.9H1022v12l7.8,0.7c-0.2,1.9-0.4,3.4-0.4,3.8c-3.1,1.3-6.8,2-7.1,3.3
	c-0.6,3,0.4,6.3,0.8,9.5c1.7,0.4,3.3,1.1,5,1.1c10.4,0.1,20.8-0.1,31.2,0.1c4.8,0.1,6.6-1.2,6.4-6c-0.4-7.9-0.1-15.9-0.1-23.8h0.7
	v44h-0.8v-12.6H1022c0,16.4-0.1,32.5,0.2,48.5c0,1.1,2.9,3,4.5,3.1c8.9,0.3,17.8,0.1,26.8,0.1c11.8,0,11.8,0,12.3-11.5
	c0.2-0.7,0.5-1.4,0.8-2.1v27.3c-0.8-2.5-1.1-5.2-0.8-7.9c0.2-3.3-0.9-4.9-4.7-4.9c-11.5,0.1-23.1,0.1-34.6,0c-3.4,0-4.6,1.3-4.5,4.5
	c0.1,5.7,0.4,11.4-0.1,17.1c-0.4,4.9,1.3,7.1,6.5,6.5c0.3,0,0.6,0.3,1.3,0.6l-0.3,4.3l-1.2-1c-2.1,1.4-5.7,2.6-6,4.3
	c-0.8,5-0.3,10.1-0.3,15.3h43.8v-12.6h0.7v37c-0.8-5.8-1-11.7-0.8-17.5c0.1-3.7-1.3-5-5.2-5c-11.2,0.2-22.3,0-33.5,0.1
	c-1.3,0-2.6,0.7-3.8,1.1c-0.4,0.9-1.2,1.7-1.2,2.6c-0.1,14.7-0.1,29.4,0,44.1C1022,551.2,1022.7,552,1023.1,552.9z M1098.2,664.3
	v7.6c0,7,0,7,7.2,7c23.2,0,46.5,0.1,69.7-0.1c5.4,0,10.9-1.1,16.6-1.7c-0.1-2.1-0.1-4.2,0-6.3c0.6-5-1.2-6.9-6.7-6.8
	c-16.2,0.3-32.3,0.1-48.5,0.1L1098.2,664.3z M845.1,410.3v-44.8h-9.5c-0.2,2.1-0.4,4-0.5,4.8c-2.9,1.6-6.8,2.8-6.9,4
	c-0.5,11.9-0.3,23.8-0.3,36L845.1,410.3z M303.7,207.3c-2.9,5.5-5.5,10.4-8.3,15.7c8.1,4,15.8,7.8,23.5,11.5
	c0.8,0.3,1.8,0.3,2.5-0.1c3.7-4,7.2-8.2,11.2-12.9L303.7,207.3z M683.4,180c0-3.9,0.2-7.9-0.1-11.7c-0.1-1.2-1.8-2.3-2.8-3.5
	c-1.1,1.1-3,2.1-3.1,3.3c-0.3,7.8-0.3,15.7-0.1,23.5c0,1.2,1.9,2.3,2.9,3.5c1.1-1.3,3-2.5,3.1-3.8
	C683.5,187.5,683.6,183.7,683.4,180z M893.8,365.5v44.8h13.6c0-11.1-0.2-21.8,0.1-32.4c0.1-3.9-0.6-6.5-4.9-6.7
	c-0.3-2.1-0.6-3.9-0.9-5.7L893.8,365.5z M764.8,275.4c8.2,0,7.9,0,8.3-7.8c0.2-4.9-1.4-6.9-6.6-6.3c-2.2,0.3-4.5-0.2-6.6,0.1
	c-1.2,0.2-3,1-3.3,1.9C753.5,270.6,756.9,275.4,764.8,275.4L764.8,275.4z M326.7,194.8c-2.8,5.2-5.5,9.9-7.6,14.7
	c-0.5,1.1,0.5,3.7,1.6,4.3c3.6,2.2,7.5,3.8,11.9,5.9l9.2-17.5L326.7,194.8z M919.2,315.9h14.5c0-3.3-0.3-6.3,0.1-9.2
	c0.7-5.5-1.6-7.1-7.2-6.8c-7.4,0.5-7.4,0.1-7.4,7.1V315.9z"/>
<path d="M1026.5,186.4c4.4-1.1,8.7-3.1,13.1-3.2c21.4-0.3,42.8-0.1,64.2-0.2c3.7,0,5.4,0.9,5.3,4.8c-0.1,40.9-0.1,81.8-0.1,122.7
	c0,0.5-0.1,1-0.2,1.5c-3.2,4-10.5-2.3-12.2,5.7h105.7v-1h-88.9v-6.3c0-41.3,0.1-82.5-0.1-123.8c0-5.5,1.8-6.9,7.3-6.8
	c16.8,0.3,33.5,0,50.3,0.2c4.2,0,8.4,1.6,12.6,1.8c3.4,0.2,6.8-0.6,10.2-1.1c1.4-0.4,2.8-0.6,4.2-0.8c8.6-0.1,17.1,0,25.7-0.1
	c3.4,0,5.1,0.8,5.1,4.5c-0.1,42.9-0.1,85.7,0,128.6v33.1h1.2c0-6.2-0.2-12.5,0-18.7c0.3-8.6,1.4-17.2,1.5-25.8
	c0-6.5-0.9-12.9-1.5-19.4c-0.4-3.8,1.2-5,5.1-4.9c7.5,0.3,15.1,0.1,22.6,0.1V276c-7.4,0-14.8-0.2-22.1,0.1c-4.4,0.2-5.7-1.3-5.7-5.5
	c0.2-28.4,0.2-56.8,0-85.2c0-4.1,1-5.6,5.6-5.6c17.3,0.3,34.6,0.3,51.9,0c5.1-0.1,6.3,1.7,6.2,6.2c-0.2,16.6-0.1,33.2-0.1,49.8v5.2
	h1.4V180h22.3c7.4,0,14.9-0.3,22.3,0.1c4.1,0.3,8.2,1.1,12.1,2.3c0.8,0.2,1.6,2.3,1.6,3.5c0.1,28.8,0,57.5,0.1,86.3
	c0,3.2-1.6,3.9-4.5,3.9c-16.4-0.1-32.8-0.1-49.2,0c-3.7,0-5.1-1.2-4.8-4.7c0.2-1.6-0.3-3.3-1.2-4.7c-0.2,2.9-0.4,5.7-0.6,8.9
	l-8.8,0.6v1.1h5.6c16.8,0,33.5-0.1,50.3,0.1c1.9,0,3.8,1.8,5.7,2.6s4.3,1.4,6.9,2.3v53.7c-1.9,0.1-3.3,0.3-4.8,0.3
	c-25.1,0-50.3-0.1-75.4,0.1c-5,0-6.4-1.5-6.3-6.1c0.3-9.6,0.1-19.2,0.1-29h-9.9c8.8,1.7,8.8,1.7,8.8,10c0,5.7-0.2,11.4,0,17.1
	c0.2,5.1,0.5,10-7.4,8.9h94.7v38.4l-6.6,0.6v4.5c7.7,1.4,8.5,3.2,6.3,15.3h-94.4c0,0.5,0,0.9,0,1.4h5.4c27.9,0,55.8,0.1,83.8-0.1
	c4.5,0,6.2,1,6.1,5.6c-0.3,15.9-0.1,31.8-0.1,47.7c0,1.7-0.2,3.5-0.4,5.7h-95.5c0,0.4,0,0.9,0,1.3h95.3v18.7l-6.5,0.5v4.6l7,0.9
	c0,10.6,0.1,21.1-0.1,31.6c0,1-1.8,2.1-3,2.8c-0.7,0.4-1.8,0.1-2.8,0.1c-37,0-74.1-0.1-111.1,0.1c-4.8,0-6.7-1-6.4-5.9
	c0.4-8,0-16.1,0.1-24.1c0.3-27.7-0.1-55.3,0-83c0-10.4,0-20.7-0.8-31.1v146h123.8v58.3h-6.5c-36.5,0-73-0.1-109.5,0.1
	c-5.8,0-7.3-1.7-7-7c0.4-8.3,0.1-16.7-0.8-25v52.1h0.9c0-4.8,0.1-9.6,0-14.3c-0.1-3.2,0.7-4.8,4.6-4.8c35.6,0.1,71.1,0,106.7,0.2
	c1.6,0,3.1,1.7,4.7,2.5c2.1,1,4.4,1.7,7,2.7v73.6c-5.1,1.5-7.5,0.1-7.1-5c0.2-3,0-6,0-9.5h-6.5c-34.4,0-68.9-0.1-103.3,0.1
	c-5,0-6.6-1.4-6.2-6c0.3-4.3,0.1-8.6-0.7-12.8v20.5h115.7v14.4l8,0.8v17.2l-6.6,0.8v4.8l6.6,0.8v69.7c-9.5,0.6-18.9,1.5-28.3,1.6
	c-29.4,0.2-58.8,0-88.2,0.2c-5.2,0-6.6-1.5-6.5-6.4c0.3-21.6,0.1-43.2,0.1-64.8v-5.8l-1.8-0.4c-0.5,1.9-1.6,3.7-1.6,5.6
	c-0.1,22.5,0,45,0,67.5c0,1.1-0.1,2.1-0.3,4.2c-6.9,0-13.7,0.3-20.4-0.1c-5-0.3-9.9-1.8-14.8-2c-3.1-0.2-6.3,0.9-9.5,1.4
	c-1.2,0.3-2.5,0.6-3.7,0.7c-25.9,0-51.7,0-77.6,0c-1-0.1-2.1-0.2-3.1-0.4v-72.4c17.3,0,34.6,0.5,51.8-0.1
	c16.8-0.7,33.8,2.6,50.5-0.4l0.1-1.7c-0.9-0.4-1.8-0.7-2.8-1c-1-0.3-2.2-0.4-3.8-0.6v-26.6h-0.8c-0.1,0.7-0.3,1.3-0.3,2
	c-0.4,9.3-0.4,9.3-9.9,9.3h-85v16.3h-20.4l-0.1,2.4l16.7,0.8V755c-23.6-1.2-47.3,2.5-71-2.6v-69l25.2-2c0-0.6,0-1.2,0-1.8l-25.3-2.3
	c-0.1-2-0.3-3.6-0.3-5.1c0-21.4,0.1-42.9-0.1-64.3c0-4.3,1.1-5.9,6-5.9c52.7,0.2,105.3,0.2,158,0c4.7,0,6.4,1.3,6,5.8
	c-0.3,3.3,0,6.7,0.8,9.9v-39.8h-10.2v4.4c9.3,1.4,9.3,1.4,9.3,11.1c0,7.8,0,7.8-8.3,7.8h-154c-7.4,0-7.6,0-7.4-7
	c0.1-3.4,0.8-6.7,1.2-10.1l-0.1-0.1v15h166.5V584h-8.4v-8.5c3.6,0,6.8,0.1,9.9,0s3.9,1.3,3.9,3.9c-0.1,12.5,0,25-0.1,37.5
	c0,1.2-1.4,2.3-2.2,3.5c-0.9-1.3-2.4-2.5-2.5-3.8c-0.3-4-0.1-8.1-0.1-12.4h-166.1v71.8l24.8,1.7v5.4l-24.8,1.7v66
	c22.6,5,45.2,1.3,67.6,2.6v-69.9H1075V677h20.8v-15.9h94.1c0-2.8-0.3-5.1,0.1-7.3c0.3-1.6,1.5-3,2.3-4.5c0.9,1.4,2.4,2.8,2.5,4.3
	c0.3,7.1,0.1,14.3,0.2,21.4c0.1,0.6,0.3,1.3,0.5,1.9l5.3,0.8c-0.1,2.1-0.2,4-0.3,6.4h-101.9v69c1,0.1,2.1,0.2,3.1,0.2
	c27.4-1.3,55,2.6,82.3-1.9c4.2-0.7,8.8,1.7,13.2,1.8c9.2,0.3,18.5,0.1,28.1,0.1c0-17.4,0.1-34.1,0-50.9c0-6.9-0.4-13.9-0.8-20.8
	c-0.2-4.3,1.5-5.7,7.6-5.1v76.7h6.6c24.2,0,48.4,0.2,72.6-0.1c13.3-0.2,26.8,2,40-2.8V685l-6.9-0.7v-7.8l6.9-0.6v-14.5l-8.2-0.5
	v-14.3h-115.3V622l1.6-0.8c0.9,1.4,2.4,2.8,2.5,4.3c0.3,5.3,0.1,10.6,0.1,16.5h115.9c0,4.5-0.1,8.4,0.1,12.3c0,0.9,1.2,1.8,1.8,2.6
	c0.6-0.9,1.2-1.8,1.7-2.7c0.2-0.7,0.2-1.4,0.1-2.1c0-21.1,0-42.1,0-63.2c0-1.5-0.2-3-0.3-4.1c-2.8-0.6-6.5-0.6-6.7-1.5
	c-1.1-4.2-4.2-2.9-6.7-2.9c-33.3-0.1-66.7-0.1-100-0.1h-5.9c0,6.2,0.2,11.7-0.1,17.2c-0.1,1.3-1.7,2.6-2.7,3.9l-1.6-0.9
	c-0.1-1.2-0.3-2.5-0.3-3.7c0-16.4-0.1-32.9,0.1-49.3c0-1.6,1.2-3.2,1.9-4.8c0.9,1.6,2.6,3.2,2.6,4.8c0.3,9.2,0.1,18.5,0.1,27.8H1351
	v-55.4c-38.8,0-77.2,0-115.5,0.1c-2.6,0-5.1,1.3-7.9,2c-0.2-1.5-0.4-2.2-0.4-2.9c0-48.4,0-96.8,0-145.2c0-1.4,1.3-2.8,2.1-4.1
	c0.9,1.4,2.4,2.8,2.6,4.3c0.9,7.6,1.5,15.3,2.1,22.9c-0.1,0.7-0.3,1.4-0.5,2c-0.5,2-1.4,4-1.4,6c-0.1,10.2,0.2,20.4-0.2,30.5
	c-0.4,9.9,0.8,19.8,0.3,29.7c-0.8,15.3-0.2,30.7-0.2,46.1c0.1,1.3,0.2,2.6,0.4,3.9h118.8v-30.6c-8.3-1.2-8.3-1.2-6.6-8.7l6.5-0.8
	v-15.3h-8.6c-27.4,0-54.7,0-82.1,0c-5,0-5,0-3.9-4.6h94.5v-55.4h-88.7c-1.5,0.1-3,0.1-4.4-0.1c-0.9-0.3-2.2-1.4-2.3-2.1
	s1.2-2,2.1-2.3c1.7-0.3,3.3-0.3,5-0.2h88.5v-10.9c-8.1-1.1-8.7-1.8-6.3-9l6.3-0.4v-35.3h-88.3c-1.5,0.2-3,0.1-4.4-0.1
	c-1.1-0.3-2-1.5-3-2.3c0.9-0.8,1.7-2,2.8-2.4c1.6-0.3,3.2-0.5,4.8-0.5v-29.6c-1.7-0.1-3.1,0.1-4.3-0.3c-1.2-0.6-2.4-1.4-3.4-2.4
	c1.2-0.8,2.3-2.1,3.5-2.3c3.3-0.2,6.6-0.2,9.8-0.1v34.6h82.3v-50.5c-2.6-0.6-6.3-0.7-6.5-1.6c-1-4.4-4.3-3.2-7-3.2
	c-16.8-0.1-33.5,0-50.3-0.1c-2,0-4-1.3-5.9-2c1.9-0.9,3.8-1.7,5.7-2.4c1.6-0.3,3.2-0.4,4.8-0.4c0.2-3.2,0.3-6,0.5-9.3
	c7.9,0.4,2.2,7,5.5,9.4h53.3v-89.4c-17.9-5.6-36-1.8-54.4-3v6.7c0,16.4,0.1,32.9-0.1,49.3c0,2.1-1.4,4.2-2.1,6.3c-0.8-2-2.3-4-2.3-6
	c-0.2-16.6-0.1-33.2-0.1-49.8v-6h-59.9v92.3c8,0,15.8,0,23.6,0c3.9,0,3.9,0.1,3.3,4.7H1232c0,6.2-0.2,11.7,0.1,17.2
	c0.1,2.3,1.6,4.6,1.5,6.8c-0.1,2.9-1.2,5.7-1.6,8.6c-1.3,11,2.3,22.1-0.1,33.1c-0.3,1.6-1.5,3-2.3,4.5c-0.8-1.4-2.4-2.9-2.4-4.3
	c-0.2-11.3-0.1-22.7-0.1-34c0-41.4,0-82.9,0.1-124.3c0-4.1-1.5-5.4-5.5-5c-10,0.9-20-1.2-30.2,1.9c-4.8,1.5-10.9-1.7-16.5-1.8
	c-18.1-0.3-36.1,0-54.2-0.2c-4.6,0-6,1.1-6,5.7c0.2,40.9,0.1,81.8,0.1,122.7c0,1.5,0.2,3.1,0.3,5h83c1.5-0.1,3-0.1,4.4,0.2
	c0.8,0.5,1.4,1.3,1.5,2.3c0.1,0.5-0.8,1.6-1.5,1.8c-1.3,0.2-2.6,0.3-3.9,0.2c-32.8,0-65.5,0-98.3,0c-1.6,0-3.2-0.2-4.6-0.3v-7.4
	h10.7V185.1c-0.7-0.3-1-0.5-1.3-0.5c-22.5,0-45-0.2-67.6,0C1034,184.6,1030.3,185.8,1026.5,186.4L1026.5,186.4z"/>
<path d="M825.4,519.7c-1.7,0.4-3.3,1.1-5,1.1c-98.7,0-197.3,0.3-295.9-0.2c-14.9-0.1-29.9-3-44.8-4.6c-6.5-0.7-12.9-1.9-19.3-2.1
	c-12.9-0.5-24.3-5.9-36.3-9.5c-50-15.1-95.3-40.1-141.7-62.7C196.6,399.9,110.8,358,25.1,316c-6.4-3.1-12.8-6.4-19.8-9.8
	c4.7-8.9,9.3-17.6,14-26.5l5.3,1.4c1.1-2,2.3-4.2,3.6-6.8c-4.7-1.9-3.8-4.4-1.9-7.9c15-28,29.9-56.1,44.7-84.2
	c1.7-3.2,3.2-5.8,7.6-2.9c1.3-2.4,2.6-4.6,4-7.2l-37.2-18.3l8.7-16.6c3.3-6.4,6.7-12.7,10.1-19c7.1-13.4,14.8-26.6,21.2-40.2
	c8.5-18.1,28.3-27,49.4-16l18.5-34.5l5.3,1.2l3.3-6.1c-4.4-4.3-3.8-7.2,3.1-15.6l85.7,41.9c-3.7,7.1-7.3,14.1-10.9,21l8.1,2.8
	l3.7-6.7l-6-3.9l6.5-12.4l67.6,33l-11.3,21.6l1,0.5l11.9-21.3l66.4,32.4c-3.7,4.3-3.1,10.5-9.6,12.6c-1.5,0.5-3.3,4.1-2.8,5.4
	c1.7,4.1-1.1,6.8-2.6,9.7c-9.3,17.8-18.8,35.5-28.3,53.3c-0.7,1.2-1.5,2.4-2.4,4l-16.1-7.7c-3.3,6-6.6,12.1-10.1,18.5l-12.8-6.1
	l-10.4,17.9l100.5,49.1l0.5-1l-5.3-3.1c0.4-0.9,0.7-1.9,0.9-2.9c0.2-1.2,0.1-2.5,0.2-3.7c-0.9,0.7-1.9,1.2-2.9,1.6
	c-1.4,0.3-3.1,0.7-4.2,0.2c-16.4-7.8-32.8-15.8-49.1-23.8c-3.4-1.7-4.1-7.2-1.4-12.2c11.7-22,23.4-44.1,35.1-66.1
	c3-5.6,5.8-11.2,8.9-16.6c1.6-2.8,2-6.2,6.4-7.4c1.4-0.4,1.4-4.9,2.4-7.4c1.5-3.7,2.6-7.9,5.3-10.7c10.5-11,19.9-15.7,37.4-6.7
	c9.8,5.1,19.7,9.8,29.6,14.7c0.3,0.1,0.5,0.5,1.2,1.4c-4.9,9.2-9.8,18.7-15,28.1c-1.1,1.9-4.6,2.7-5.1,4.5
	c-7.9,27.2-25.3,50-37.1,75.3c-0.5,1.2-0.3,2.7-0.4,4.1l1.7,0.4c2.1-3.9,4.4-7.7,6.3-11.7c1.5-3.3,3-5.7,8.1-4.5l-3.3-4.4
	c8.7-16.3,17.5-33.1,26.6-49.8c3.1-5.6,7.2-6.4,13.2-3.4c12.5,6.2,25,12.3,38.2,18.8l-31,58.4l-17.4-8.2l-1.1,2
	c5.8,4.6,13.1,6.8,19.8,10.6c10-18.8,20-37,29.4-55.5c2.5-4.8,4.7-6.2,9.5-2.9c2.5,1.7,5.5,2.8,8.6,4.4c-3,6.6,1.7,9,7.2,11.2
	c-5,9.6-10,18.8-14.8,28.1c-0.9,1.9-1.6,3.9-2.3,5.9c-2.9,4.9-5.9,9.7-8.6,14.6c-1.7,3.2-2.9,6.6-8.1,4c3.3,1.8,6.5,3.6,9.7,3.6
	c27.1,0.2,54.2,0.1,81.4,0.1c1.2-0.1,2.4-0.3,3.6-0.6l-0.2-1.4h-43.3c-14.5,0-28.9,0-44,0c3.6-7.9,6.5-14.1,9.4-20.4
	c3.8-6.6,7.7-13.2,11.4-19.9c2.7-4.9,5.2-9.8,7.8-14.7c1.9-3.5,4.2-6.7,1.4-10.9c-0.6-1,0.3-2.9,0.6-4.4c-0.5-0.3-1.1-0.6-1.1-0.6
	c-5,5.1-9.6,1.9-14.4-0.4c-18.1-9-36.3-17.8-54.5-26.7c-1.5-0.7-2.9-1.6-4.8-2.6l16.1-30.4l69,33.8l-1.8,7.9l2.1,1.6
	c1.6-9.6,8.6-7.9,14.7-7.9c19.7,0,39.4,0,59.3,0v96.4h15.7v-0.6h-12.7v-56.9h13.5l0.1-1.4l-13.6-0.7v-36.6h67.7v36.7H643
	c0,0.5,0,1,0,1.5h39.8c0.2,2.1,0.5,3.7,0.5,5.2c0,15.5-0.1,31.1,0.1,46.6c0.1,4.2-1.2,5.6-5.7,5.5c-9.8-0.3-19.7-0.1-29.5,0.6H720
	c0-0.2,0-0.5,0-0.7c-9.7,0-19.4-0.2-29.2,0.1c-4.8,0.1-6.5-1.2-6.4-6c0.3-15,0.1-30,0.2-45c0-1.6,0.8-3.2,1.2-4.8l-0.1-0.1v53.9h7.2
	c8.8,0,17.5-0.1,26.2,0.1c1.3,0,2.5,1.7,3.7,2.6c-1.2,0.7-2.5,1.5-3.7,2.2c-0.3,0.1-0.7,0-1.1,0c-22.7,0-45.4,0-68.1-0.1
	c-1.7,0-3.3-1.6-5-2.5c1.8-0.8,3.5-2.1,5.3-2.2c10.2-0.2,20.3-0.1,30.8-0.1v-53.9h-39.5c-1.4-4.2,0.9-4.3,3.6-4.3
	c9.6,0,19.2,0,28.8,0v-33.8h-65v33.9c3.2,0,6.2,0,9.1,0c5.1,0,5.1,0,4.2,4.5h-13.2v53.7c4,0,7.7-0.2,11.3,0.1c1,0.1,1.9,1.5,2.8,2.3
	c-0.8,0.8-1.5,2.2-2.3,2.3c-6,0.2-11.9,0.2-17.8-0.1c-0.6,0-1.1-2.5-1.6-3.9c3.9-1.1,2.7-4.2,2.7-6.6c0.1-26.8,0.1-53.6,0-80.4v-6.1
	c-19.4,0-38.2,0-57,0c-6.5,0-13.9-1.9-15.5,7.9l-5.7-3.1l3.2-6.7l-66.8-32.7l-14.7,27.8c21.3,10.4,42.2,20.6,63.2,30.8
	c1.2,0.6,4.2,0.2,4.8-0.7c2.6-4,4.6-1,6.8-0.1c-0.3,2-0.5,3.7-0.7,5.4c-0.5,3.5-0.2,7.4-1.6,10.5c-3.7,8-8.1,15.6-12.2,23.3
	c-5.2,9.8-10.3,19.5-15.8,29.9h7.1h74.8c3.3,0,6.8-0.3,5,4.8c-0.7,0.1-1.5,0.2-2.2,0.3c-28.7,0-57.3,0.2-86-0.2
	c-3.7,0-7.5-2.6-11.1-4.2c-0.6-0.7-0.8-1.7-0.5-2.6c0.8-0.7,1.9-1.1,3-0.9c1.7,0.5,3.4,1.2,5,2c9.1-17.1,18-34,26-49.1
	c-2.7-4-5.7-6.5-6-9.2c-0.4-3.5-1.7-5-4.6-6.2c-2.5-1-4.9-2.3-7.6-3.5L462.4,251l-23-11.4l3-5.4l17.2,8.3
	c10-18.8,19.8-37.2,29.6-55.7l-42.8-21c-13.4,16.6-20.4,36.6-31.3,54.5l2.2,0.3c0.1,2.4,0.3,4.7,0.5,8.7c-5.5-3.6-6.9-1.1-8.3,1.9
	c-2,4.1-4.4,8-6.6,12.2l-5.6-3c4-7.4,8.2-14.3,11.5-21.6c8.4-18.8,22.2-35.2,26.7-55.7c0.8-3.4,4.8-5.6,6.7-8.2
	c5.6-8,9.6-17.1,14.4-26.1c-11.6-5.7-22.6-11.1-33.7-16.3c-12.8-6-26.9-1.6-33.3,10.7c-1.7,3.2-1.2,7.4-2.9,10.5
	c-2.2,3.9-6.3,6.8-8.4,10.8c-13.4,24.8-26.6,49.8-39.7,74.6c-3.1,5.8-7.3,11.4-5.3,18.9l51.4,25.1l3.3-3.8l5.2,2.6l-2.6,5.9
	l16.4,8.3l-2.2,3.8l-114-55.8l11.9-20.4l12.9,5.9l9.9-18.3l16.3,7.5c1-1.7,1.8-2.9,2.4-4.2c9.3-17.4,18.6-34.8,27.7-52.3
	c1.1-2.1,0.6-4.9,1.5-7.1c1.2-3.1,2.3-7.9,4.7-8.7c5.5-1.9,4.8-6.6,7.6-9.9l-63.5-31l-11.8,21.7c-1.2-0.6-2.7-1.2-2.7-1.3
	c3.1-7.6,6.3-15.1,9.6-22.9L253,51.6l-5.3,9.8L254,65c-1.8,3.4-3.5,6.6-5.1,9.5c-2.8-0.8-4.9-1.9-7-1.8c-4.8,0.3-4.6-1.6-2.9-4.7
	c3.2-6,6.4-12,9.8-18.4L165.1,8.8l-4.9,9.6l4.3,3c-1.9,3.4-3.6,6.5-5.3,9.5l-4.9-1.9l-18.7,34.8c-2.6-1-4.8-2-7-2.8
	c-14.7-5.7-30.7-1.4-38,11.9c-7.3,13-16.8,25.3-19.7,40.3c-0.3,0.8-0.8,1.6-1.5,2.2c-1.4,1.6-3.4,3-4.4,4.9
	c-4,7.1-7.7,14.3-11.4,21.4c-2,3.7-3.9,7.5-6,11.5l37.1,18.3l-5.1,9.8l-5.3-1.5l-48.3,91l4,2.8c-3.5,9.3-3.8,9.6-10.2,8.8L7.8,305.3
	c1.5,0.9,2.6,1.5,3.7,2.1c28.5,14,57,28,85.6,42c74.6,36.4,149.2,72.8,223.9,109.2c18.8,9.2,37.2,19.2,56.6,27.2
	c20.2,8.4,41.2,14.9,61.9,22.1c3.6,1.4,7.3,2.4,11.1,3.1c11.2,1.5,22.5,2.7,33.7,3.9c14.6,1.6,29.1,4.4,43.7,4.4
	c96.8,0.4,193.6,0.2,290.4,0.2C820.6,519.6,823.1,519.7,825.4,519.7L825.4,519.7z"/>
<path d="M884.5,262.5c-3.5,0.4-7,0.9-10.5,1.1c-2.3,0.2-4.7,0-7.1,1.1c7.5,3.2,15.4,1.3,23.2,2.2c-0.5-2.6-0.8-5.2-1-7.8
	c-0.1-17.7,0-35.4,0-53c0-8.1,0-8.1,8.6-8c1.1,0,2.2,0,3.5,0c0.6,1.8,1.1,3.4,1.8,5.4c3.7,0,7.4,0.1,11.1,0c3-0.1,3.9,1.1,3.9,3.8
	c-0.1,18.2,0.1,36.4-0.2,54.6c0,1.7-2.5,3.4-3.6,4.8h4.7v-64.6c-1.8,0-3.6-0.2-5.5-0.4c-0.9-0.2-1.5-1.1-2.3-1.7
	c0.7-0.6,1.4-1.3,2.1-1.9c0.1-0.1,0.4,0,0.5,0h66.2V316h-45v-16.7h-16.8v16.6h-6.9l-1-6h-7.6v7.7h93.1c0-0.4,0.1-0.7,0.1-1.1h-11.9
	V198.2c10.7,0,21-0.2,31.4,0.2c1.2,0.1,3.2,3.1,3.2,4.8c0.3,14.1,0.2,28.2,0.2,42.3c0,21.8,0,43.6,0,65.4c-0.2,2.3-0.6,4.6-1.1,6.9
	h11.7l0.1-1l-7.1-0.7v-34.1h35V316l-5.8,0.6v0.8h11.5v-40.6c-8.4,0-15.8,0.1-23.2,0c-2.9-0.1-6.5,1.3-7.9-3
	c-0.2-0.5-2.4-0.8-3.6-0.7c-4.7,0.6-5.5-1.7-5.5-5.7c0.2-20.4-0.2-40.7,0.2-61.1c0.2-6.7,2.1-13.4,3.3-20l-0.1-0.1
	c-0.5,7.2-1.3,14.4-1.3,21.6c-0.2,19.1-0.1,38.2,0,57.3c0,1.9,0.2,3.8,0.3,4.9c3.6,1,6.3,1.6,8.9,2.6c1.7,0.6,3.2,2.4,4.8,2.5
	c8.3,0.3,16.6,0.1,25.8,0.1v44.1c-2.7,0.2-5.3,0.1-8-0.1c-2.6-0.5-5.1-1.2-7.6-2.1l7-3.5v-30.5H1024v31.4c7.8,0.7,7.8,0.7,7.5,4.5
	h-15.9c2.8-19.9,1-39.5,1.3-59.2c0.3-19.9,0.1-39.9,0.1-60.1h-31.5V315c2.9,0,5.4,0,8,0c3.9,0.1,3.9,0.1,3.2,3.9h-96.2
	c-1-12.1,0.6-13.4,11.5-10.4c0.5,2.3,1,4.4,1.5,6.6l1.8-0.3c0.2-1.1,0.4-2.3,0.5-3.4c0.5-15.1,0.5-15,16.3-14.5
	c3.8,0.1,4.8,1.5,4.7,4.9c-0.2,4.2,0,8.5,0,12.9H978V199.8h-64.8l7.5,0.8v24.2c0,13.2,0.1,26.4-0.1,39.6c0,1.5-1.1,4-2,4.1
	c-2.6,0.3-5.3-0.3-8-0.6c0.5-1.3,0.7-2.8,1.5-3.7c0.7-0.7,2.3-0.6,3.3-0.8v-58.8h-14.7c-0.5-1.9-0.9-3.3-1.2-4.5h-8.5v6.2
	c0,17.1,0,34.3,0.1,51.4c0.1,2.4,0.6,4.8,1.4,7.1c0.8,2.8,0.1,4-3,4c-6.5,0-13-0.2-19.5,0.1c-4.9,0.2-6.5-1.5-4.7-6.3h19.4
	L884.5,262.5z"/>
<path d="M1023.1,393.2c-0.4-3.2-1.4-6.5-0.8-9.5c0.3-1.3,4-2,7.1-3.3c0-0.5,0.2-2,0.4-3.8l-7.8-0.7v-12H886.3c0,0.3-0.1,0.6-0.1,0.9
	l5.9,1v46.6h15v65l-4.7,1.2v7.5c5.1-0.5,5.1,2.7,5,6.1c-0.1,9.3,0,18.5,0,28.3h-78.8v-33.5l6.6-0.9v-7.8l-6.6-0.5v-65.3h18v-46.5
	l5.4-1.1c-0.4-0.5-0.7-1-1-1c-1.8-0.1-3.7-0.2-5.6-0.2H731.4c-8.8,0-8.8,0-10.7-8.7v10.2h105.6c0.1,2.3,0.3,4,0.3,5.7
	c0,47.9,0,95.7,0,143.6c0,1.8-0.8,3.5-1.2,5.3l0.1,0.1c-0.1-2.1-0.4-4.3-0.4-6.4C825,466.6,825,419.8,825,373v-6.7H718.9
	c0-3.7-0.2-6.9,0.1-10c0.1-1,1.5-1.8,2.3-2.7c0.8,1,2,1.8,2.3,2.9c0.4,1.6,0.3,3.4,0.4,5.6h7c39.3,0,78.5,0,117.8,0.1
	c1.7,0,3.4,1.1,5.1,1.8l-5.2,4.8v45.2h-18.4v62.7l6,0.4c1.8,9.8,1.6,10.3-6,12v30.3h75.3v-30.5l-5-1.3v-10.4l5-0.6v-62.9h-15.4
	v-46.7l-6.2-0.6c-1.3-5,2.3-4.1,4.8-4.1c43.3,0,86.7,0,130.1,0c1.4,0,2.9,0.2,4.5,0.4c0.2,4.3,0.4,8.3,0.6,12.3l6.8,0.4v8.1
	l-6.8,0.7C1023.6,387.3,1023.3,390.3,1023.1,393.2L1023.1,393.2z"/>
<path d="M685.8,204.7c1.8-0.4,3.7-1.1,5.5-1.1c10.2-0.1,20.4-0.1,30.7-1.3h-37v-37h88c0,6.1,0.4,12.3-0.1,18.4
	c-0.5,5.9-1.8,11.8-2.9,18.3h-26.4c0,0.4,0,0.9,0,1.3h26v57h-22c7.6,1.8,7.6,1.8,7.6,9.9V286c0.6-0.5,1-0.7,1-0.9
	c0.5-2.7,0.4-7.6,1.4-7.9c4.2-1,8.8-0.7,13.2-0.5c0.8,0.1,2.1,2.4,2.1,3.7c0.2,11.6,0.1,23.2,0.1,35.3h-16.5
	c-0.2-2.6-0.3-5.2-0.5-7.8h-0.6v9.7h80.8c-1.3-4-2.4-7.4-3.5-10.8l-2.5-0.1c-1.1,2.1-2.4,4.2-3.8,6.1c-1.1,1.1-2.5,1.8-4,1.9
	c-4.5,0.2-8.9-0.1-13.4,0.1c-4.1,0.2-5.3-1.5-4.9-5.1c0.2-2.5,0-5,0-8.2h-27.6c-0.2-2.3-0.3-3.8-0.3-5.4c0-28.9,0-57.9,0-86.8
	c0-1.6,0.8-3.2,1.2-4.8l-0.1-0.1c0.1,1.9,0.3,3.9,0.3,5.9c0,27.8,0,55.7,0,83.5c0,1.9,0,3.8,0,6c8.5,0,16.1,0.2,23.7-0.1
	c4-0.1,5.3,1.3,5,4.9c-0.2,2.6,0,5.2,0,7.7h18.5c1.1-5.5,3.9-8,7.7-7.2c4.4,1,5.7,5.9,3.6,13.8h-82.6c0-4-0.1-7.9,0.1-11.8
	c0-0.9,1.4-1.6,2.2-2.5c0.9,0.9,2.4,1.6,2.5,2.6c0.2,2.3,0.3,4.7,0.1,7h12.4v-35.8h-11.1c-3.3,2.6,2.3,9.4-6.3,9.5v-24.4
	c-0.9-0.1-1.9-0.2-2.8-0.5c-1.9-0.8-3.8-1.6-5.7-2.5c1.9-0.8,3.8-2.2,5.7-2.3c5.8-0.3,11.7-0.1,17.5-0.1v-53.9h-25.9
	c-1.5-3.8,0.4-4.3,3.3-4.2c7.6,0.1,15.2,0,24.1,0c0.8-11.6,1.5-22.6,2.2-33.8h-85.2v33.8h6.4c9.1,0,18.2,0.1,27.3,0
	c3.4,0,4.1,1.3,3,4.3L685.8,204.7L685.8,204.7z"/>
<path d="M1023.1,503.6c1.3-0.4,2.6-1.1,3.8-1.1c11.2-0.1,22.3,0.1,33.5-0.1c3.9-0.1,5.3,1.2,5.2,5c-0.3,5.9,0,11.7,0.8,17.5v-37
	h-0.7v12.7h-43.8c0-5.1-0.5-10.3,0.3-15.3c0.3-1.7,3.9-2.9,6-4.3l1.2,1l0.3-4.3c-0.7-0.3-1-0.6-1.3-0.6c-5.2,0.6-6.8-1.6-6.5-6.5
	c0.4-5.7,0.2-11.4,0.1-17.1c-0.1-3.2,1.1-4.5,4.5-4.5c11.5,0.1,23.1,0.1,34.6,0c3.8,0,4.9,1.6,4.7,4.9c-0.2,2.7,0,5.3,0.8,7.9v-27.4
	c-0.3,0.7-0.6,1.4-0.8,2.1c-0.5,11.5-0.4,11.5-12.3,11.5c-8.9,0-17.9,0.1-26.8-0.1c-1.6,0-4.4-2-4.5-3.1c-0.3-16-0.2-32-0.2-48.5
	h43.6v12.5h0.8v-44h-0.7c0,7.9-0.3,15.9,0.1,23.8c0.2,4.8-1.6,6.2-6.4,6c-10.4-0.3-20.8,0-31.2-0.1c-1.7,0-3.3-0.7-5-1.1l-0.1,0.1
	h40.8c0-2.9,0-5,0-7c0-7-0.1-13.9,0.1-20.9c0-1.1,1.6-2.2,2.4-3.3c0.8,1.1,2.3,2.2,2.3,3.3c0.2,14.3,0.2,28.6,0,42.8
	c0,1.1-1.6,2.1-2.5,3.2c-0.8-1.1-2.2-2.2-2.3-3.4c-0.3-3.3-0.1-6.7-0.1-10.1h-40v47.5h40c0-3.8-0.2-7.2,0.1-10.5
	c0.1-1.1,1.4-2,2.2-3.1c0.9,1,2.6,2.1,2.6,3.2c0.2,8.7,0.2,17.5,0,26.2c0,1.2-1.4,2.4-2.2,3.6c-0.9-1.3-2.4-2.4-2.5-3.8
	c-0.2-3.3-0.3-6.6-0.1-9.9h-40.4v15.3c0,7.9,0,7.9,7.3,9.8v7l-6.8,1.3V499h40c-0.2-3.1-0.1-6.2,0.1-9.3c0.2-1.5,1.6-2.9,2.4-4.4
	c0.8,1.5,2.3,3,2.3,4.4c0.2,11.1,0.2,22.1,0,33.2c0,1.7-1.5,3.4-2.3,5.1c-0.8-1.6-2.3-3.2-2.4-4.9c-0.3-6.4-0.1-12.8-0.1-19.7H1023
	L1023.1,503.6z"/>
<path d="M777.4,204.7c-0.1-3.5-0.1-7-0.3-10.4c-0.1-1.2-0.8-2.3-0.9-3.5c-0.1-8.4,0-16.7,0-26.7c13,0.8,26-0.2,38.1,2.7
	c13,3,16.2,14.8,14.8,25.5c-0.5,3.4-3.4,6.6-2.1,10.6c0.8,2.6,2.2,5.3,2.4,8c0.4,5.9,0.1,11.8,0.1,17.7c0,16.2,0,32.5,0,48.7
	c0.1,1.9,0.3,3.9,0.7,5.8h2c0.2-2.4,0.3-4.8,0.7-7.3c0.5-3.9-2.8-9.4,6.5-9.7l-1.6-1.4l-5-1.9c0-16.4-0.2-33,0.1-49.6
	c0.1-4.3,1.5-8.6,2.7-12.8c0.3-1,2.1-2.1,3.3-2.1c14.9-0.1,29.8,0,44.6,0.1c0.4,0,0.7,0.6,1.1,1l0.1-0.1
	c-13.7,0.1-27.5,0.3-41.2,0.4c-5.5,0-9,2.8-9,8c-0.2,18,0,36,0,52.6c2.1,2.3,4.5,3.9,4.3,4.9c-0.4,1.9-2.3,3.5-3.6,5.2L834,270v14.8
	c-1.4,0.1-2.3,0.3-3.3,0.2c-0.9-0.1-1.8-0.2-2.7-0.4c-0.2-0.8-0.3-1.5-0.4-2.3c-1.4-27.5,2.8-55.1-2.3-82.5
	c-0.5-2.7,1.6-5.8,2.2-8.8c2-10.7-5.2-22.3-16.4-23.7c-10.9-1.3-22-0.3-33.5-0.3c0,7.6-0.1,15.4,0.1,23.3c0,1.1,1.1,2.4,1.9,3.4
	C782.2,197,780.8,203.9,777.4,204.7L777.4,204.7z"/>
<path d="M1098.2,664.3h38.4c16.2,0,32.3,0.2,48.5-0.1c5.6-0.1,7.4,1.8,6.7,6.8c-0.1,2.1-0.1,4.2,0,6.3c-5.8,0.6-11.2,1.7-16.6,1.7
	c-23.2,0.2-46.5,0.1-69.7,0.1c-7.2,0-7.2,0-7.2-7L1098.2,664.3z M1100.4,676.4h89.1v-10.5h-89.1V676.4z"/>
<path d="M845.1,410.3H828c0-12.2-0.2-24.1,0.3-36c0-1.3,4-2.4,6.9-4c0.1-0.8,0.3-2.6,0.5-4.8h9.5L845.1,410.3z M843.1,409v-42.1
	h-5.5l-1,6.7l-6.3,0.7V409L843.1,409z"/>
<path d="M1023.1,584l6.3-2v-4.5c-7.3,1.4-8-2.7-7.5-8c0.4-4.2,0.1-8.5,0.1-13.5c2.2-0.2,4.1-0.4,6-0.4c11.5,0,23-0.1,34.6,0
	c3.3,0,5-0.8,4-4.2c-1.5,0.8-2.9,2.4-4.4,2.4c-12.4,0.2-24.9,0.1-37.3,0c-0.5,0-1.1-0.7-1.6-1.1l-0.1,0.1c11.9,0,23.8-0.1,35.7-0.2
	c2.3,0,5,0.8,5.5-2.8c0.1-0.5,1.7-1.3,2.5-1.2c0.9,0.3,1.6,1.1,1.9,2c0.1,2.2,0,4.4-0.2,6.6h-44.6V575l6.7,0.9v7.9h-7.5L1023.1,584z
	"/>
<path d="M1188.6,175.8c-0.6,0.3-1.2,1-1.8,1c-12.6,0.1-25.2,0.1-38.3,0.1v-17c13,0,25.7,0,38.5,0.1c0.8,0,2.4,1.1,2.4,1.6
	c-0.2,4.8-0.6,9.6-1,14.5v-13.9h-38.7v13.2c2.4,0,4.6,0,6.8,0L1188.6,175.8z"/>
<path d="M303.7,207.3l29,14.1c-4.1,4.7-7.6,8.9-11.2,12.9c-0.8,0.4-1.7,0.5-2.5,0.1c-7.7-3.7-15.4-7.5-23.5-11.5
	C298.2,217.6,300.8,212.8,303.7,207.3z M330.5,222.1l-26.1-12.7l-6.8,13l22.2,10.8L330.5,222.1z"/>
<path d="M683.4,180c0.2,3.7,0.1,7.5-0.2,11.2c-0.2,1.4-2,2.6-3.1,3.8c-1-1.2-2.8-2.3-2.9-3.5c-0.2-7.8-0.2-15.7,0.1-23.5
	c0-1.1,2-2.2,3.1-3.3c1,1.1,2.7,2.3,2.8,3.5C683.7,172.1,683.4,176.1,683.4,180z M679.6,192.8h1.2v-26.4h-1.2V192.8z"/>
<path d="M893.8,365.5h7.9c0.3,1.9,0.6,3.6,0.9,5.7c4.4,0.1,5,2.8,4.9,6.7c-0.3,10.6-0.1,21.3-0.1,32.4h-13.6V365.5z M895.1,408.9
	h10.4v-34.8c-6.8,1.1-5-4-6-8.6c-2,1.5-4.3,2.4-4.3,3.3C895,382.1,895.1,395.4,895.1,408.9L895.1,408.9z"/>
<path d="M764.8,275.4c-7.9,0-11.3-4.8-8.3-12c0.4-0.9,2.1-1.7,3.3-1.9c2.2-0.3,4.5,0.1,6.6-0.1c5.2-0.6,6.8,1.4,6.6,6.3
	C772.7,275.4,773,275.4,764.8,275.4z M758.5,273.2h12v-9.4h-12V273.2z"/>
<path d="M777.1,304.4c3.9-0.4,7.8-1,11.7-1.2c2.8-0.2,5.6,0.2,8.4-0.1c4.8-0.5,5.9,1.5,6.1,5.8c0.1,4.7-1.4,6.4-6.3,6
	c-4.8-0.4-9.7-0.4-14.5,0c-5.4,0.5-7.1-1.6-6.3-6.4c0.3-1.5,0.7-2.9,1.1-4.3c0.2,2.8,0.5,5.5,0.7,8.2h22.8v-8L777.1,304.4z"/>
<path d="M326.7,194.8l15.1,7.4l-9.2,17.5c-4.4-2.1-8.3-3.7-11.9-5.9c-1.1-0.7-2.1-3.3-1.6-4.3C321.3,204.6,324,200,326.7,194.8z
	 M331.8,217.7l7.8-14.8l-12.2-5.9l-7.9,14.8L331.8,217.7z"/>
<path d="M919.2,315.9V307c0-7,0-6.6,7.4-7.1c5.6-0.3,7.9,1.2,7.2,6.8c-0.4,2.9-0.1,5.9-0.1,9.2L919.2,315.9z M931.2,302.5h-9.9v12
	h9.9V302.5z"/>
<path d="M884.6,199.3c0.4,1,1.2,2.1,1.2,3.1c0.1,19,0.1,38,0,57c0,1-0.8,2.1-1.2,3.1l0.1,0.1L884.6,199.3L884.6,199.3z"/>
<path d="M1023.1,552.9c-0.4-0.9-1.2-1.7-1.2-2.6c-0.1-14.7-0.1-29.4,0-44.1c0-0.9,0.8-1.7,1.2-2.6l-0.1-0.1L1023.1,552.9
	L1023.1,552.9z"/>
<path class="st0" d="M1023,553v-49.4h40.9c0,6.9-0.2,13.3,0.1,19.7c0.1,1.7,1.6,3.3,2.4,4.9c0.8-1.7,2.2-3.4,2.3-5.1
	c0.2-11.1,0.2-22.1,0-33.2c0-1.5-1.5-3-2.3-4.4c-0.8,1.5-2.2,2.9-2.4,4.4c-0.2,3.1-0.3,6.2-0.1,9.3h-40v-14.5l6.8-1.3v-7
	c-7.3-1.9-7.3-1.9-7.3-9.8v-15.2h40.4c-0.1,3.3-0.1,6.6,0.1,9.9c0.2,1.3,1.7,2.5,2.5,3.8c0.8-1.2,2.2-2.4,2.2-3.6
	c0.2-8.7,0.2-17.5,0-26.2c0-1.1-1.7-2.1-2.6-3.2c-0.8,1-2.1,2-2.2,3.1c-0.3,3.4-0.1,6.7-0.1,10.5h-40V398h40c0,3.5-0.2,6.8,0.1,10.1
	c0.1,1.2,1.5,2.3,2.3,3.4c0.9-1.1,2.4-2.1,2.5-3.2c0.2-14.3,0.2-28.6,0-42.8c0-1.1-1.5-2.2-2.3-3.3c-0.8,1.1-2.4,2.1-2.4,3.3
	c-0.2,7-0.1,13.9-0.1,20.9c0,2.1,0,4.2,0,7H1023c0.3-3,0.5-6,0.8-9.3l6.8-0.7v-8.1l-6.8-0.4c-0.2-4-0.4-8-0.6-12.3
	c-1.7-0.1-3.1-0.4-4.5-0.4c-43.3,0-86.7,0-130.1,0c-2.5,0-6.1-0.9-4.8,4.1l6.2,0.6v46.7h15.4v62.9l-5,0.6v10.4l5,1.3v30.5h-75.1V489
	c7.5-1.7,7.8-2.2,6-12l-6-0.4v-62.7h18.4v-45.2l5.2-4.8c-1.7-0.6-3.4-1.8-5.1-1.8c-39.3-0.1-78.5-0.1-117.8-0.1h-7
	c-0.1-2.2,0.1-4-0.4-5.6c-0.3-1.1-1.5-1.9-2.3-2.9c-0.8,0.9-2.2,1.8-2.3,2.7c-0.3,3.1-0.1,6.4-0.1,10H825v6.7
	c0,46.8,0,93.6,0.1,140.3c0,2.1,0.3,4.3,0.4,6.4c-2.4,0-4.8-0.2-7.2-0.2c-96.8,0-193.6,0.2-290.4-0.2c-14.6-0.1-29.1-2.8-43.7-4.4
	c-11.2-1.2-22.5-2.4-33.7-3.9c-3.8-0.7-7.5-1.7-11.1-3.1c-20.7-7.2-41.7-13.7-61.9-22.1c-19.3-8-37.8-18-56.6-27.2
	C246.3,422.2,171.7,385.8,97,349.4c-28.6-13.9-57.1-27.9-85.6-42c-1.1-0.6-2.2-1.2-3.7-2.1l12.1-23.1c6.4,0.8,6.7,0.6,10.2-8.8
	l-4-2.7l48.3-91l5.3,1.5l5.1-9.8l-37.1-18.3c2.1-4,4-7.7,6-11.5c3.8-7.1,7.5-14.3,11.4-21.4c1-1.8,3-3.2,4.4-4.9
	c0.7-0.6,1.2-1.3,1.5-2.2c3-15,12.4-27.3,19.7-40.3C98,59.6,114,55.3,128.7,61c2.2,0.8,4.4,1.8,7,2.8l18.7-34.7l4.8,1.9
	c1.7-3.1,3.4-6.1,5.3-9.5l-4.3-3l4.9-9.6l83.7,40.9C245.4,56,242.3,62,239,68c-1.7,3.2-1.9,5,2.9,4.7c2-0.1,4.2,1,7,1.8
	c1.6-2.9,3.3-6.1,5.1-9.5l-6.2-3.6l5.2-9.8L317.2,83c-3.3,7.8-6.5,15.3-9.6,22.9c0,0.1,1.5,0.7,2.7,1.3l11.8-21.7l63.5,31
	c-2.8,3.3-2.1,8-7.6,9.9c-2.4,0.8-3.5,5.6-4.7,8.7c-0.9,2.2-0.4,5-1.5,7.1c-9.1,17.5-18.4,34.9-27.7,52.3c-0.7,1.3-1.4,2.4-2.4,4.2
	l-16.3-7.5l-9.9,18.3l-12.9-5.9L290.6,224l114,55.8l2.2-3.8l-16.4-8.3l2.6-5.9l-5.2-2.6l-3.3,3.8l-51.4-25.1
	c-2-7.5,2.2-13.1,5.3-18.9c13.2-24.9,26.3-49.8,39.7-74.6c2.1-3.9,6.2-6.9,8.4-10.8c1.7-3.1,1.3-7.3,2.9-10.4
	c6.5-12.3,20.5-16.7,33.3-10.7c11.1,5.2,22.1,10.6,33.7,16.3c-4.8,9-8.7,18.1-14.4,26.1c-1.9,2.6-6,4.8-6.7,8.2
	c-4.5,20.6-18.3,37-26.7,55.7c-3.3,7.3-7.5,14.2-11.5,21.6l5.6,3c2.3-4.2,4.6-8.1,6.6-12.2c1.5-3,2.8-5.5,8.3-1.9
	c-0.2-3.9-0.3-6.3-0.5-8.7l-2.2-0.3c11-17.9,17.9-37.8,31.3-54.5l42.8,21c-9.9,18.6-19.7,37-29.6,55.7l-17.2-8.3l-3,5.4l23,11.4
	l32.6-61.3c2.7,1.3,5.1,2.5,7.6,3.5c2.9,1.2,4.3,2.7,4.6,6.2c0.3,2.8,3.3,5.3,6,9.2c-8,15.1-17,32-26,49.1c-1.6-0.8-3.3-1.5-5-2
	c-1.1-0.1-2.2,0.2-3,0.9c-0.3,0.9-0.1,1.9,0.5,2.6c3.6,1.6,7.4,4.2,11.1,4.2c28.7,0.4,57.3,0.2,86,0.2c0.7,0,1.5-0.1,2.2-0.3
	c1.7-5.1-1.8-4.8-5-4.8h-74.8h-7.1c5.5-10.4,10.7-20.2,15.8-29.9c4.1-7.8,8.6-15.4,12.2-23.3c1.4-3.1,1.1-7,1.6-10.5
	c0.2-1.7,0.4-3.4,0.7-5.4c-2.2-0.8-4.2-3.8-6.8,0.1c-0.6,0.9-3.5,1.3-4.8,0.7c-21-10.1-42-20.4-63.2-30.8l14.7-27.8l66.8,32.7
	l-3.2,6.7l5.7,3.1c1.6-9.7,9-7.8,15.5-7.9c18.8,0,37.5,0,57,0v6.1c0,26.8,0,53.6,0,80.4c0,2.5,1.2,5.5-2.7,6.6
	c0.5,1.3,1,3.8,1.6,3.9c5.9,0.3,11.9,0.3,17.8,0.1c0.8,0,1.5-1.5,2.3-2.3c-0.9-0.8-1.8-2.2-2.8-2.3c-3.7-0.3-7.3-0.1-11.3-0.1v-53.7
	h13.3c0.8-4.4,0.8-4.4-4.2-4.5c-2.9,0-5.9,0-9.1,0v-33.9h65v33.9c-9.6,0-19.2,0-28.8,0c-2.7,0-5.1,0.1-3.6,4.3h39.5v53.9
	c-10.4,0-20.6-0.1-30.8,0.1c-1.8,0-3.5,1.4-5.3,2.2c1.7,0.9,3.3,2.5,5,2.5c22.7,0.2,45.4,0.1,68.1,0.1c0.4,0,0.8,0.1,1.1,0
	c1.3-0.7,2.5-1.4,3.7-2.2c-1.2-0.9-2.5-2.6-3.7-2.6c-8.7-0.2-17.5-0.1-26.2-0.1h-7.2v-53.9h37.5c1.1-3,0.4-4.3-3-4.3
	c-9.1,0.1-18.2,0-27.3,0h-6.4v-33.8h85.2c-0.7,11.2-1.4,22.2-2.2,33.8c-8.9,0-16.5,0.1-24.1,0c-2.9,0-4.8,0.5-3.3,4.2H768v53.9
	c-5.8,0-11.6-0.2-17.5,0.1c-1.9,0.1-3.8,1.5-5.7,2.3c1.9,0.8,3.8,1.7,5.7,2.5c0.9,0.2,1.8,0.4,2.8,0.5v24.4c8.5-0.1,2.9-6.9,6.3-9.5
	h11.1v35.8h-12.4c0.1-2.3,0.1-4.7-0.1-7c-0.2-1-1.7-1.7-2.5-2.6c-0.8,0.8-2.1,1.6-2.2,2.5c-0.2,3.9-0.1,7.7-0.1,11.8H836
	c2.1-7.8,0.8-12.8-3.6-13.8c-3.8-0.9-6.6,1.7-7.7,7.2h-18.4c0-2.6-0.2-5.2,0-7.7c0.3-3.7-1-5.1-5-4.9c-7.6,0.3-15.2,0.1-23.7,0.1
	c0-2.2,0-4.1,0-6c0-27.8,0-55.7,0-83.5c0-2-0.2-3.9-0.3-5.9c3.5-0.8,4.9-7.6,2.3-10.9c-0.8-1.1-1.9-2.3-1.9-3.4
	c-0.2-7.8-0.1-15.6-0.1-23.3c11.5,0,22.7-1,33.5,0.3c11.2,1.4,18.4,13,16.4,23.7c-0.6,3-2.7,6.1-2.2,8.8c5.1,27.4,0.8,55,2.3,82.5
	c0.1,0.8,0.2,1.5,0.4,2.3c0.9,0.2,1.8,0.3,2.7,0.4c0.9,0,1.8-0.1,3.3-0.2V270l1.1,0.4c1.3-1.7,3.2-3.3,3.6-5.2
	c0.2-1.1-2.2-2.6-4.3-4.9c0-16.6-0.1-34.6,0-52.6c0-5.3,3.5-8,9-8c13.7-0.1,27.5-0.3,41.2-0.4v63.3h-19.4c-1.8,4.8-0.2,6.5,4.7,6.3
	c6.5-0.2,13-0.1,19.5-0.1c3.1,0,3.9-1.2,3-4c-0.8-2.3-1.3-4.7-1.4-7.1c-0.1-17.1-0.1-34.3-0.1-51.4v-6.2h8.5
	c0.3,1.2,0.7,2.6,1.2,4.5h14.7v58.8c-1,0.2-2.6,0.1-3.3,0.8c-0.9,0.9-1.1,2.5-1.5,3.7c2.7,0.3,5.4,0.9,8,0.6c0.8-0.1,2-2.7,2-4.1
	c0.2-13.2,0.1-26.4,0.1-39.6v-24.2l-7.5-0.8H978v114.9h-41.2c0-4.4-0.1-8.7,0-12.9c0.1-3.3-0.9-4.7-4.7-4.9
	c-15.9-0.5-15.9-0.6-16.3,14.5c-0.1,1.2-0.3,2.3-0.5,3.4l-1.8,0.3c-0.5-2.2-1-4.4-1.5-6.6c-11-3-12.5-1.7-11.5,10.4h96.2
	c0.7-3.8,0.7-3.8-3.2-3.9c-2.6-0.1-5.1,0-8,0V199.9h31.4c0,20.2,0.3,40.1-0.1,60.1c-0.3,19.6,1.5,39.3-1.3,59.2h15.9
	c0.3-3.8,0.3-3.8-7.5-4.5v-31.4h32.2v30.5l-7,3.5c2.5,0.9,5,1.6,7.6,2.1c2.7,0.2,5.3,0.2,8,0.1v-44.1c-9.2,0-17.5,0.1-25.8-0.1
	c-1.6,0-3.1-1.9-4.8-2.5c-2.6-1-5.3-1.6-8.9-2.6c-0.1-1.1-0.3-3-0.3-4.9c0-19.1-0.1-38.2,0-57.3c0.1-7.2,0.9-14.4,1.3-21.6
	c3.8-0.6,7.6-1.8,11.3-1.9c22.5-0.1,45,0,67.6,0c0.3,0,0.7,0.3,1.3,0.5v126.6h-10.7v7.4c1.4,0.1,3,0.3,4.6,0.3c32.8,0,65.5,0,98.3,0
	c1.3,0.1,2.6,0,3.9-0.2c0.7-0.2,1.6-1.2,1.5-1.8c-0.1-1-0.7-1.8-1.5-2.3c-1.5-0.3-3-0.3-4.4-0.2h-83c-0.1-1.9-0.3-3.5-0.3-5
	c0-40.9,0-81.8-0.1-122.7c0-4.5,1.5-5.7,6-5.7c18.1,0.2,36.1-0.1,54.2,0.2c5.5,0.1,11.7,3.3,16.5,1.8c10.1-3.1,20.2-1,30.2-1.9
	c4-0.4,5.5,0.9,5.5,5c-0.1,41.4-0.1,82.9-0.1,124.3c0,11.3-0.1,22.7,0.1,34c0,1.5,1.6,2.9,2.4,4.3c0.8-1.5,1.9-3,2.3-4.5
	c2.4-11-1.3-22.1,0.1-33.1c0.3-2.9,1.5-5.7,1.6-8.6c0-2.3-1.4-4.5-1.5-6.8c-0.2-5.5-0.1-11.1-0.1-17.2h27.1c0.6-4.6,0.6-4.7-3.3-4.7
	c-7.8-0.1-15.5,0-23.6,0V182h59.9v6c0,16.6-0.1,33.2,0.1,49.8c0,2,1.5,4,2.3,6c0.7-2.1,2.1-4.2,2.1-6.3c0.2-16.4,0.1-32.9,0.1-49.3
	v-6.7c18.4,1.2,36.5-2.6,54.4,3V274h-53.3c-3.3-2.4,2.4-9-5.5-9.4c-0.2,3.3-0.3,6.1-0.5,9.3c-1.6,0-3.3,0.1-4.8,0.4
	c-2,0.7-3.9,1.5-5.7,2.4c2,0.7,4,2,5.9,2c16.8,0.2,33.5,0,50.3,0.1c2.7,0,6-1.2,7,3.2c0.2,0.9,3.9,1,6.5,1.6v50.5h-82.3v-34.6
	c-3.3-0.1-6.6-0.1-9.8,0.1c-1.2,0.1-2.3,1.5-3.5,2.3c1,0.9,2.1,1.7,3.4,2.4c1.1,0.4,2.6,0.2,4.3,0.3v29.6c-1.6,0-3.2,0.1-4.8,0.5
	c-1.1,0.4-1.9,1.6-2.8,2.4c1,0.8,1.9,1.9,3,2.3c1.5,0.3,3,0.3,4.4,0.1h88.3v35.4l-6.3,0.4c-2.4,7.1-1.9,7.9,6.3,9V395h-88.5
	c-1.7-0.1-3.3-0.1-5,0.2c-0.9,0.2-2.1,1.5-2.1,2.3s1.3,1.9,2.3,2.1c1.5,0.2,3,0.3,4.4,0.1h88.8v55.4h-94.6c-1.1,4.6-1.1,4.6,3.9,4.6
	c27.4,0,54.7,0,82.1,0h8.6V475l-6.5,0.8c-1.6,7.5-1.6,7.5,6.6,8.7v30.6h-118.9c-0.2-1.3-0.4-2.6-0.4-3.9c0-15.4-0.6-30.8,0.2-46.1
	c0.5-10-0.7-19.8-0.3-29.7c0.4-10.2,0-20.4,0.2-30.5c0-2,0.9-4,1.4-6c0.3-0.6,0.5-1.3,0.5-2c-0.6-7.6-1.2-15.3-2.1-22.9
	c-0.2-1.5-1.7-2.8-2.6-4.3c-0.7,1.4-2.1,2.8-2.1,4.1c-0.1,48.4-0.1,96.8,0,145.2c0,0.7,0.2,1.4,0.4,2.9c2.8-0.8,5.3-2,7.9-2
	c38.3-0.1,76.7-0.1,115.5-0.1v55.3h-119.1c0-9.3,0.1-18.6-0.1-27.8c0-1.6-1.7-3.2-2.6-4.8c-0.7,1.6-1.9,3.2-1.9,4.8
	c-0.1,16.4-0.1,32.8-0.1,49.3c0,1.2,0.2,2.5,0.3,3.7l1.6,0.9c0.9-1.3,2.6-2.6,2.7-3.9c0.3-5.5,0.1-11,0.1-17.2h5.9
	c33.3,0,66.7,0,100,0.1c2.5,0,5.6-1.3,6.7,2.9c0.2,0.9,4,0.9,6.7,1.5c0.1,1.1,0.3,2.6,0.3,4.1c0,21.1,0,42.2,0,63.2
	c0.1,0.7,0.1,1.4-0.1,2.1c-0.5,1-1.1,1.9-1.7,2.7c-0.6-0.9-1.8-1.7-1.8-2.6c-0.2-3.9-0.1-7.8-0.1-12.3h-116c0-5.9,0.2-11.2-0.1-16.5
	c-0.1-1.5-1.6-2.8-2.5-4.3l-1.6,0.8v24.6h115.3v14.3l8.2,0.5v14.5l-6.9,0.6v7.8l6.9,0.7v65.4c-13.2,4.8-26.7,2.7-40,2.8
	c-24.2,0.3-48.4,0.1-72.6,0.1h-6.6v-76.7c-6.1-0.6-7.8,0.8-7.6,5.1c0.4,6.9,0.8,13.8,0.8,20.8c0.1,16.8,0,33.5,0,50.9
	c-9.7,0-18.9,0.2-28.1-0.1c-4.4-0.2-9-2.5-13.2-1.8c-27.4,4.5-54.9,0.6-82.3,1.9c-1,0-2.1-0.1-3.1-0.2v-69h101.9
	c0.1-2.4,0.2-4.3,0.3-6.4l-5.3-0.8c-0.3-0.6-0.4-1.2-0.5-1.9c0-7.1,0.1-14.3-0.2-21.4c-0.1-1.5-1.6-2.9-2.5-4.3
	c-0.8,1.5-2,2.9-2.3,4.5c-0.4,2.2-0.1,4.5-0.1,7.3h-94.1V677H1075v6.6h16.3v69.9c-22.4-1.3-45,2.3-67.6-2.6v-66l24.8-1.7v-5.4
	l-24.8-1.7v-71.9h166.1c0,4.3-0.2,8.3,0.1,12.4c0.1,1.3,1.6,2.5,2.5,3.8c0.8-1.2,2.2-2.3,2.2-3.5c0.2-12.5,0.1-25,0.1-37.5
	c0-2.6-0.8-4-3.9-3.9s-6.3,0-9.9,0v8.5h8.4v14.9H1023v-15h7.5V576l-6.7-0.9v-17.7h44.6c0.2-2.2,0.3-4.4,0.2-6.6
	c-0.3-0.9-1-1.7-1.9-2c-0.8-0.1-2.4,0.7-2.5,1.2c-0.5,3.6-3.3,2.8-5.5,2.8C1046.8,552.9,1034.9,552.9,1023,553z M300.3,126.2
	c-3.3-3.4-4.5-1.3-5.8,1.3c-7.2,13.6-14.5,27.3-21.8,40.9L255,201.6l-58.2-28.4c1.1-2.4,2-4.1,2.9-6.1l-6.1-3.7
	c12.6-23.8,25.1-47.4,37.6-70.9c-3.4-3-4.6-1.2-5.9,1.4c-6,11.6-12.3,23.2-18.5,34.7c-6.9,13-13.8,25.9-20.9,39.3l-78.7-38.5
	c1-2.2,1.8-4.1,2.8-6.4l-10.2-5l-3.7,5.6c-0.9-0.4-1.8-0.7-2.8-0.8c-1.3,0.2-2.5,0.4-3.7,0.8c0.4,1.1,1.1,2.2,1.8,3.2
	c1,0.7,2.2,1.3,3.4,1.8l91,44.4l84.8,41.5c0.6-0.9,1.1-1.9,1.6-2.8c-4.2-2.9-8.5-5.7-12.9-8.5L300.3,126.2z M718.9,312.9
	c-0.1,3-0.1,5.9,0.1,8.9c0.1,1,1.4,2,2.1,3c0.9-1,2.3-2,2.5-3.1c0.4-2.5-0.2-5,0.2-7.5c0.7-5.2-1.5-6.5-6.8-6.5
	c-58.6,0.2-117.2,0.2-175.8,0.1c-9.8,0-19.3-0.1-29-3c-15.1-4.6-30.8-7.3-46.3-11c-5.5-1.3-10.3-1.1-13.4,4.4
	c-3.4-1.6-6.5-3.3-9.7-4.5c-1.4-0.5-3.1-0.1-4.7-0.2c0.9,1.4,1.5,3.2,2.9,4.1c4.7,3.3,9.8,6.1,14.6,9.3c3.8,2.5,8.7,2.2,11.3-1.5
	c1.2-1.7,1.8-3.8,2.8-5.9l38,8.8c-1.5,7.1-0.1,10.8,4.3,12.2c5.2,1.6,8.8-0.7,11.6-7.4h150.5c0.3,2.3,0.5,4.2,0.7,6.1h10.9
	c0.3-2.1,0.6-4,0.9-6.2L718.9,312.9z M435,356.8c4.4-0.1,8.3-3.8,8.2-7.8c-0.3-4.3-3.7-7.8-8.1-8.1c-4.3-0.1-8.7,4.1-8.5,8.2
	C427.1,353.5,430.7,356.8,435,356.8z M1180.9,475.2v8.8c3.3,0,6.3-0.2,9.2,0c3.6,0.2,4.8-1.1,4.9-4.6c0-3.8-1.8-4.5-5.1-4.3
	C1187,475.3,1184,475.2,1180.9,475.2L1180.9,475.2z M514.9,359.7c-4.8,0-8.1,3-8.1,7.6s3.1,7.8,7.9,7.8c4.7,0.1,8-3,8.1-7.6
	S519.7,359.7,514.9,359.7L514.9,359.7z M388.8,450.8c-0.1-4.6-3.3-7.5-8.2-7.4s-7.8,3-7.7,7.8c0.1,4.6,3.3,7.6,8.1,7.5
	C385.6,458.6,388.8,455.4,388.8,450.8z M514.8,489.7c4.4,0.2,8-3.3,8.2-7.6s-3.3-8-7.6-8.2c-0.2,0-0.4,0-0.6,0c-4.4,0.1-7.9,3.6-8,8
	c0,4.3,3.5,7.8,7.8,7.8C514.7,489.7,514.8,489.7,514.8,489.7z M308.1,281c-9.3-7-10.7-6.5-15,4.5C303.4,292.3,304.1,292,308.1,281z
	 M254.9,383.3c-10.7-6.4-10.8-6.4-13.6-1.4c-3.4,6.2-3.5,6.5,4,9.3C253.4,394,250.7,385.5,254.9,383.3z M158.2,220.2l10.6,5.2
	l5.6-10.3l-10.8-5.2L158.2,220.2z M1180.8,283c3.2,0,5.9-0.1,8.7,0c3.3,0.2,5.6,0,5.6-4.3c0-4-1.9-4.8-5.4-4.5c-2.9,0.2-5.8,0-8.8,0
	V283z M1180.8,383.2c14.3,1.5,15.6,0.6,13.2-7.9h-13.2V383.2z M120.2,317l-10.8-5c-1.9,3.7-3.4,6.8-5.2,10.3l10.6,4.9L120.2,317z
	 M674.6,373.3c12.2,1.7,13.7,0,10.8-10.8h-10.8V373.3z M674.7,487.5h11v-10.4h-11V487.5z"/>
<path class="st0" d="M499.2,240c-2.9,6.3-5.8,12.5-9.4,20.4c15.1,0.1,29.6,0,44,0h43.3l0.2,1.4c-1.2,0.3-2.4,0.5-3.6,0.6
	c-27.1,0-54.2,0.1-81.4-0.1c-3.2,0-6.4-1.8-9.7-3.6c5.2,2.6,6.4-0.8,8.1-4C493.4,249.7,496.4,244.9,499.2,240L499.2,240z"/>
<path class="st0" d="M1100.4,676.4v-10.5h89.1v10.5H1100.4z"/>
<path class="st0" d="M843.2,409h-12.9v-34.7l6.3-0.7l1-6.7h5.5L843.2,409z"/>
<path class="st0" d="M1188.6,175.8l-32.2-0.4c-2.2,0-4.3,0-6.8,0v-13.2h38.7V176L1188.6,175.8z"/>
<path class="st0" d="M330.5,222.1l-10.7,11.1l-22.2-10.8l6.8-13L330.5,222.1z"/>
<path class="st0" d="M679.6,192.8v-26.4h1.2v26.4L679.6,192.8z"/>
<path class="st0" d="M895.1,408.9c0-13.5-0.1-26.8,0.2-40.1c0-1,2.3-1.9,4.3-3.3c1,4.7-0.9,9.8,6,8.6v34.8H895.1z"/>
<path class="st0" d="M758.5,273.2v-9.4h12v9.4H758.5z"/>
<path class="st0" d="M777.1,304.4h23.7v8H778c-0.2-2.7-0.5-5.5-0.7-8.2L777.1,304.4z"/>
<path class="st0" d="M331.8,217.7l-12.3-6l7.9-14.8l12.2,5.9L331.8,217.7z"/>
<path class="st0" d="M931.2,302.5v12h-9.9v-12H931.2z"/>
<path d="M300.3,126.2L259.5,203c4.4,2.8,8.7,5.6,12.9,8.5c-0.5,1-1,1.9-1.6,2.8L186,172.9l-91-44.4c-1.2-0.4-2.4-1-3.4-1.8
	c-0.8-1-1.4-2-1.8-3.2c1.2-0.4,2.5-0.7,3.7-0.8c1,0.1,1.9,0.4,2.8,0.8l3.7-5.6l10.2,5c-1,2.3-1.8,4.2-2.8,6.4l78.7,38.5
	c7.1-13.4,14-26.3,20.9-39.3c6.2-11.6,12.4-23.1,18.5-34.7c1.4-2.6,2.6-4.4,5.9-1.4c-12.5,23.6-25,47.1-37.6,70.9l6.1,3.7
	c-1,2-1.8,3.7-2.9,6.1l58.2,28.4l17.6-33.2c7.3-13.6,14.6-27.2,21.8-40.9C295.8,125,296.9,122.9,300.3,126.2z M191.6,164.1
	l14.1-27.2l-1-0.5c-6,11.1-12,22.2-18.1,33.3l-23.8-11.4l-0.6,1.1l55.6,27.1l0.6-1.1L195,173.8c1-2.5,1.7-4.4,2.5-6.3L191.6,164.1z
	 M92.1,124.1l-0.4,0.9l67.1,32.8l0.6-1.1L105.2,130c1.2-2.6,2-4.4,2.9-6.3l-7.4-3.5l-3.8,5.6L92.1,124.1z M271.6,176.7l-1-0.6
	l-14.9,27.4L222,187.3l-0.6,1.1l48,23.5c-1.7-2.2-4.1-3.8-6.7-4.7c-4.6-1.7-5.8-3.8-3-8.3C264.2,191.7,267.7,184.1,271.6,176.7
	L271.6,176.7z M297.9,127.3l-1.3-0.6l-24.4,46l1.2,0.6L297.9,127.3z M229.1,93.2l-1.3-0.6L206.4,133l1.2,0.6L229.1,93.2z"/>
<path d="M718.9,312.9h-32.3c-0.3,2.2-0.6,4.1-0.9,6.2h-10.9c-0.2-1.9-0.5-3.8-0.7-6.1H523.6c-2.9,6.7-6.5,9-11.6,7.4
	c-4.4-1.4-5.8-5.1-4.3-12.2l-38-8.8c-1,2.1-1.5,4.2-2.8,5.9c-2.6,3.6-7.5,4-11.3,1.5c-4.8-3.2-9.8-6-14.6-9.3
	c-1.3-0.9-1.9-2.7-2.9-4.1c1.6,0,3.3-0.3,4.7,0.2c3.2,1.2,6.3,2.9,9.7,4.5c3.1-5.5,7.9-5.7,13.4-4.4c15.4,3.7,31.1,6.4,46.3,11
	c9.7,2.9,19.2,3,29,3c58.6,0,117.2,0,175.8-0.1c5.3,0,7.5,1.3,6.8,6.5c-0.3,2.5,0.2,5-0.2,7.5c-0.2,1.1-1.6,2.1-2.5,3.1
	c-0.7-1-2-1.9-2.1-3C718.8,318.8,718.8,315.8,718.9,312.9z M439.3,293.6c7,4.8,12.4,8.8,18.2,12.3c1.5,0.9,4.8,1,5.8,0.1
	c2.1-2,3.3-5,5.5-8.4l41.9,9.6c-2.9,6.6-2,10.4,2.3,11.8s7.2-1.1,9.5-8.3h143.9c8.5,0,8.5,0,10.6,7h8c-1.3-6.1,1.8-7.4,7.2-7.1
	c7.6,0.4,15.3,0.3,22.9,0c4.3-0.1,6.3,1.1,5.8,5.4c-0.1,2-0.1,4.1,0,6.1l0.8-0.1v-12.4h-7c-58.4,0-116.9,0-175.3,0
	c-8.4,0-16.6-0.1-25-2.7c-15.2-4.8-31.2-7.4-46.8-11.2c-5.9-1.4-11-2-13.8,4.5L439.3,293.6z"/>
<path d="M435,356.8c-4.3-0.1-7.9-3.4-8.4-7.7c-0.2-4.1,4.2-8.3,8.5-8.2c4.3,0.3,7.8,3.8,8.1,8.1C443.3,353.1,439.4,356.8,435,356.8z
	 M441.2,347.9c-0.6-2.7-2.3-5.1-6.4-4.9s-6,2.4-5.9,6.2c0,4,2.4,5.8,6.3,5.7S441.1,352.5,441.2,347.9L441.2,347.9z"/>
<path d="M1180.9,475.2c3.1,0,6,0.1,8.9,0c3.3-0.2,5.1,0.5,5.1,4.3c0,3.5-1.3,4.8-4.9,4.6c-2.9-0.2-5.8,0-9.2,0V475.2z M1182.3,481.8
	h10.6l-0.5-4.6h-10.1V481.8z"/>
<path d="M514.9,359.7c4.8,0,7.9,3.1,7.8,7.8s-3.4,7.7-8.1,7.6s-7.9-3.2-7.9-7.8S510.1,359.7,514.9,359.7z M513.6,374.4h2.4
	c1.8-2.4,4.7-4.6,5-7.1c0.4-3.2-2.1-6.1-6.3-6c-3.9,0.1-6.8,2.5-6.2,6C509,369.8,511.8,372,513.6,374.4L513.6,374.4z"/>
<path d="M388.8,450.8c0.1,4.6-3.1,7.8-7.8,7.9c-4.8,0.1-8-2.9-8.1-7.5c-0.1-4.8,2.8-7.7,7.7-7.8S388.7,446.2,388.8,450.8z
	 M387.8,452.4c-1.3-5.1-3.2-7.9-7.4-7.5c-3.8,0.3-6.1,2.7-5.9,6.4s3.1,6.2,6.5,5.7C383.5,456.5,385.8,453.7,387.8,452.4L387.8,452.4
	z"/>
<path d="M514.8,489.7c-4.3,0.1-7.9-3.3-8-7.6c0-0.1,0-0.1,0-0.2c0.1-4.4,3.6-7.9,8-8c4.4-0.2,8,3.3,8.2,7.6s-3.3,8-7.6,8.2
	C515.2,489.7,515,489.7,514.8,489.7L514.8,489.7z M513.7,488.7l2.6,0c1.7-2.3,4.6-4.6,4.8-7c0.3-3.3-2.3-5.9-6.5-5.8s-6.6,2.7-6.1,6
	C509,484.4,511.9,486.4,513.7,488.7L513.7,488.7z"/>
<path d="M308.1,281c-4,11-4.7,11.2-15,4.5C297.4,274.5,298.8,274.1,308.1,281z M294.7,285.1l7.9,3.6l3.7-7.3l-7.6-3.7
	C297.5,280.1,296.3,282.4,294.7,285.1L294.7,285.1z"/>
<path d="M254.9,383.3c-4.1,2.2-1.4,10.7-9.6,7.8c-7.5-2.7-7.4-3.1-4-9.3C244.1,376.9,244.2,376.9,254.9,383.3z M240.7,387.1l7.8,3.7
	l3.8-7.4l-7.8-3.5L240.7,387.1z"/>
<path d="M158.2,220.2l5.4-10.2l10.8,5.2l-5.6,10.3L158.2,220.2z M168.2,223.3l3.9-7.4l-7.6-3.8l-3.9,7.3L168.2,223.3z"/>
<path d="M1180.8,283v-8.7c3.1,0,6,0.2,8.8,0c3.5-0.3,5.4,0.5,5.4,4.5c0,4.3-2.4,4.4-5.6,4.3C1186.7,282.9,1184,283,1180.8,283z
	 M1192.6,276.1c-3.1,0-5.7-0.1-8.3,0.1c-1,0.2-1.8,0.9-2.2,1.8c-0.3,0.9,0.2,2.8,0.6,2.8c3.2,0.4,6.4,0.6,9.8,0.8L1192.6,276.1z"/>
<path d="M1180.8,383.2v-7.9h13.3C1196.4,383.8,1195,384.6,1180.8,383.2z M1192.6,376.6h-11.3c1,2,1.4,4.5,2.3,4.7
	c2.9,0.5,6,0.2,9,0.2L1192.6,376.6z"/>
<path d="M120.2,317l-5.3,10.2l-10.6-4.9c1.8-3.5,3.3-6.6,5.2-10.3L120.2,317z M110.2,314c-1.4,2.7-2.6,5-3.8,7.5l7.8,3.6l3.6-7.4
	L110.2,314z"/>
<path d="M674.6,373.3v-10.8h10.8C688.3,373.4,686.8,375,674.6,373.3z M676.1,371.5h8.1v-7.7h-8.1V371.5z"/>
<path d="M674.7,487.6v-10.5h11v10.5L674.7,487.6z M676.1,478.2v7.8h8.1v-7.8L676.1,478.2z"/>
<path class="st0" d="M191.6,164.1l5.8,3.4c-0.8,1.9-1.5,3.8-2.5,6.3l23.5,11.8l-0.6,1.1l-55.6-27.1l0.6-1.1l23.8,11.4
	c6-11.1,12.1-22.2,18.1-33.3l1,0.5L191.6,164.1z"/>
<path class="st0" d="M92.1,124.1l4.9,1.6l3.8-5.6l7.4,3.5c-0.9,1.9-1.7,3.7-2.9,6.3l54.2,26.7l-0.6,1.1L91.7,125L92.1,124.1z"/>
<path class="st0" d="M271.6,176.7c-3.9,7.4-7.4,15-11.8,22.2c-2.8,4.6-1.6,6.6,3,8.3c2.6,0.9,4.9,2.6,6.7,4.7l-48-23.5l0.6-1.1
	l33.7,16.2l14.8-27.4L271.6,176.7z"/>
<path class="st0" d="M297.9,127.3l-24.5,46l-1.2-0.6l24.4-46L297.9,127.3z"/>
<path class="st0" d="M229.1,93.2l-21.5,40.4l-1.2-0.6l21.3-40.4L229.1,93.2z"/>
<path class="st0" d="M439.3,293.6l14.1,6.6c2.8-6.5,7.9-5.9,13.8-4.5c15.6,3.8,31.6,6.4,46.8,11.2c8.5,2.6,16.6,2.7,25,2.7
	c58.4,0.1,116.9,0.1,175.3,0h7v12.5l-0.8,0.1c-0.1-2-0.1-4.1,0-6.1c0.5-4.4-1.6-5.6-5.8-5.4c-7.6,0.2-15.3,0.4-22.9,0
	c-5.4-0.3-8.4,0.9-7.2,7.1h-8c-2.1-7-2.1-7-10.6-7H522.2c-2.2,7.1-5.2,9.7-9.5,8.3s-5.1-5.2-2.3-11.8l-41.9-9.6
	c-2.1,3.4-3.3,6.4-5.5,8.4c-1,0.9-4.3,0.8-5.8-0.1C451.7,302.3,446.2,298.3,439.3,293.6z"/>
<path class="st0" d="M441.2,347.9c-0.1,4.6-2,6.8-6,6.9s-6.3-1.7-6.3-5.7c0-3.8,1.9-6,5.9-6.2S440.6,345.2,441.2,347.9z"/>
<path class="st0" d="M1182.3,481.8v-4.6h10.1l0.5,4.6H1182.3z"/>
<path class="st0" d="M513.6,374.4c-1.8-2.4-4.6-4.6-5-7.1c-0.6-3.5,2.3-5.9,6.2-6c4.2-0.1,6.6,2.8,6.3,6c-0.3,2.5-3.3,4.8-5,7.1
	L513.6,374.4z"/>
<path class="st0" d="M387.7,452.4c-1.9,1.4-4.2,4.1-6.8,4.5c-3.4,0.5-6.4-1.9-6.5-5.7s2.1-6.1,5.9-6.4
	C384.5,444.5,386.4,447.3,387.7,452.4z"/>
<path class="st0" d="M513.7,488.7c-1.8-2.2-4.7-4.3-5.1-6.8c-0.5-3.4,2-5.9,6.1-6c4.1-0.1,6.7,2.5,6.5,5.8c-0.2,2.4-3.1,4.7-4.8,7
	L513.7,488.7z"/>
<path class="st0" d="M294.7,285.2c1.5-2.8,2.8-5.1,4.1-7.5l7.6,3.7l-3.7,7.3L294.7,285.2z"/>
<path class="st0" d="M240.7,387.1l3.8-7.2l7.8,3.5l-3.8,7.4L240.7,387.1z"/>
<path class="st0" d="M168.2,223.3l-7.6-3.9l3.9-7.3l7.6,3.8L168.2,223.3z"/>
<path class="st0" d="M1192.6,276.1v5.5c-3.4-0.2-6.7-0.4-9.8-0.8c-0.4,0-0.8-2-0.6-2.8c0.4-0.9,1.2-1.6,2.2-1.8
	C1186.9,276,1189.5,276.1,1192.6,276.1z"/>
<path class="st0" d="M1192.6,376.6v4.9c-3,0-6.1,0.3-9-0.2c-0.9-0.2-1.3-2.6-2.3-4.7L1192.6,376.6z"/>
<path class="st0" d="M110.2,314.1l7.5,3.7l-3.6,7.4l-7.8-3.6C107.6,319.1,108.8,316.8,110.2,314.1z"/>
<path class="st0" d="M676.1,371.5v-7.7h8.1v7.7H676.1z"/>
<path class="st0" d="M676.2,478.2h8.1v7.8h-8.1V478.2z"/>
</svg>
