<?xml version="1.0" encoding="utf-8"?>
<!-- Generator: Adobe Illustrator 24.1.1, SVG Export Plug-In . SVG Version: 6.00 Build 0)  -->
<svg version="1.1" id="图层_1" xmlns="http://www.w3.org/2000/svg" xmlns:xlink="http://www.w3.org/1999/xlink" x="0px" y="0px"
	 viewBox="0 0 1367 764" style="enable-background:new 0 0 1367 764;" xml:space="preserve">
<style type="text/css">
	.st0{fill:#FFFFFF;}
</style>
<path class="st0" d="M0,0h1367v764H0V0z M4.7,446c2.3,1.2,4.1,2.3,6,3.2c81.2,41.4,162.5,82.9,243.7,124.3
	c87,44.4,173.9,88.8,260.9,133.3c11.6,5.9,23.2,12.3,35.4,16.8c17,6.3,34.6,10.8,51.8,16.4c18,5.9,35.9,11.4,55.1,12.2
	c13.5,0.6,27,2.8,40.5,4.2c10.3,1,20.6,2.7,30.8,2.7c176.7,0.2,353.3,0.2,530,0.1h5.3V532.4h99.8V280.9h-207.5c0-3.1,0.1-5.6,0-8.1
	c-0.3-8-1.9-15.6-6.4-22.3c-8.5-12.6-20.8-17.9-35.6-17.9c-24-0.1-47.9,0-71.9,0c-98.1,0-196.3,0-294.4-0.1c-3-0.1-6-0.8-8.8-2.2
	c-48.8-24.7-97.5-49.6-146.2-74.5c-15.3-7.9-33.6-6.3-45.7,5.8c-2.2,2.2-3.8,1.4-6,0.3C440,110.1,338.3,58.2,236.6,6.3
	c-2.1-1.1-4.4-2-6.7-3.2c-13.6,26.8-27,53.2-40.6,79.7c-2.5-0.9-4.6-1.7-6.8-2.4c-9.2-3.2-19.2-3.5-28.6-0.9
	c-15.8,4.2-26.6,14.3-33.8,28.6c-11.4,22.4-22.8,44.8-34.2,67.2c-8.6,16.9-17.2,33.8-25.9,51l44.7,23L4.7,446z"/>
<path d="M4.7,446l100-196.6l-44.7-23c8.8-17.2,17.3-34.1,25.9-51c11.4-22.4,22.8-44.8,34.2-67.2c7.3-14.3,18-24.4,33.8-28.6
	c9.4-2.6,19.4-2.3,28.6,0.9c2.1,0.7,4.3,1.5,6.8,2.4c13.5-26.6,26.9-52.9,40.6-79.7c2.4,1.1,4.6,2.1,6.7,3.1
	c101.7,51.9,203.3,103.8,305,155.7c2.2,1.1,3.8,1.9,6-0.3c12.1-12.1,30.3-13.7,45.7-5.8c48.7,24.9,97.4,49.8,146.2,74.5
	c2.7,1.4,5.7,2.1,8.8,2.2c98.1,0.1,196.3,0.1,294.4,0.1c23.9,0,47.9-0.1,71.9,0c14.8,0,27.1,5.3,35.6,17.9
	c4.5,6.7,6.1,14.3,6.4,22.3c0.1,2.5,0,4.9,0,8.1H1364v251.5h-99.8v226.9h-5.3c-176.7,0-353.3,0-530-0.1c-10.3,0-20.6-1.7-30.8-2.7
	c-13.5-1.4-26.9-3.6-40.5-4.2c-19.2-0.8-37.1-6.3-55.1-12.2c-17.2-5.6-34.8-10.1-51.8-16.4c-12.2-4.5-23.8-10.8-35.4-16.8
	c-87-44.4-174-88.8-260.9-133.3C173.2,532.1,92,490.6,10.7,449.2C8.8,448.2,7,447.2,4.7,446z M6.5,445.5l3.2,1.7
	c68.2,34.8,136.4,69.7,204.5,104.5c99.6,50.9,199.3,101.7,298.9,152.6c12.3,6.3,24.6,13,37.5,17.8c19,7,38.6,12.4,57.9,18.5
	c14.2,4.5,28.3,9.1,43.5,9.8c13.5,0.6,27,2.9,40.5,4.2c12.4,1.2,24.9,3,37.3,3c175.6,0.2,351.2,0.2,526.7,0.1h6.4V531.1h99.8V282.4
	h-207.7c0-2.8,0.1-5.2,0-7.6c-0.3-8.4-1.6-16.6-6.5-23.7c-8.2-12-19.8-16.8-34-16.8c-112.8,0.1-225.7,0.1-338.5,0
	c-11,0-22.4,1.8-32.8-0.8s-19.7-9.4-29.4-14.3c-40.1-20.5-80.1-41-120.2-61.5c-15.6-8-33.2-7.2-46,5.7c-2.5,2.5-4.4,1.2-6.5,0.1
	l-91-46.5l-191-97.6c-9.5-4.9-19.1-9.7-28.8-14.6L190,84.5c-3-1.1-5.6-2-8.2-2.9c-8.8-3-18.3-3.3-27.3-0.8
	c-16.1,4.2-26.6,14.7-33.9,29.2c-14,27.8-28.3,55.5-42.4,83.3c-5.4,10.7-10.8,21.4-16.5,32.6l44.7,22.9L6.5,445.5z"/>
<path class="st0" d="M6.5,445.4l100-196.7l-44.7-22.9c5.6-11.1,11-21.9,16.5-32.6c14.1-27.8,28.3-55.5,42.4-83.3
	c7.3-14.5,17.8-25,33.9-29.2c9-2.4,18.5-2.2,27.3,0.8c2.6,0.9,5.2,1.8,8.2,2.9l40.6-79.7c9.7,4.9,19.2,9.8,28.8,14.6l191,97.6
	l91,46.5c2.2,1.1,4,2.4,6.5-0.1c12.7-12.9,30.3-13.7,46-5.7c40,20.6,80.1,41.1,120.2,61.5c9.8,5,19,11.9,29.4,14.4
	s21.8,0.8,32.8,0.8c112.8,0,225.7,0,338.5,0c14.2,0,25.8,4.9,34,16.8c4.9,7.2,6.2,15.3,6.5,23.7c0.1,2.4,0,4.9,0,7.6h207.7v248.6
	H1263v226.5h-6.4c-175.6,0-351.2,0-526.7-0.1c-12.5,0-24.9-1.8-37.3-3c-13.5-1.3-26.9-3.6-40.5-4.2c-15.2-0.7-29.3-5.3-43.5-9.8
	c-19.3-6.1-38.9-11.5-57.9-18.5c-12.9-4.8-25.2-11.5-37.5-17.8c-99.7-50.8-199.3-101.7-298.9-152.6C146.1,516.8,77.9,482,9.7,447.1
	L6.5,445.4z M858.9,708.5l-0.2-0.2c5.2,1.9,8.3,1.3,8.4-2c0.2-8,0.1-16,0.1-24.1h-9.4c0,8.3,0,16.3,0,24.3
	C857.8,707.3,858.5,707.9,858.9,708.5z M405.6,603.8L405.6,603.8c1.5,1.1,3,2.6,4.7,3.3c1,0.4,3.3,0.2,3.7-0.5
	c4.4-8.3,8.6-16.8,13-25.5l-8.6-4.5C414,586,409.8,594.8,405.6,603.8z M725.2,539.2l-0.2-0.2l19.4,1.4c0-6.8,0.1-12.5-0.1-18.1
	c0-0.9-1.2-2.5-1.9-2.5c-5.9-0.2-11.9-0.1-18.1-0.1c0,6.7,0,12.6,0,18.5C724.4,538.6,724.9,538.9,725.2,539.2z M748.5,708.5
	l-0.1-0.2c6,2.2,7.5,1.3,7.5-4.7c0-13.9-0.1-27.8,0.1-41.8c0-3.2-0.5-4.8-4.2-4.8c-3.5,0-4.5,1.1-4.4,4.6c0.2,14.2,0,28.5,0.1,42.7
	C747.6,705.8,748,707.1,748.5,708.5L748.5,708.5z M114.6,246.1c1.1-1.2,2.1-2.5,3-3.9c3.6-6.8,7-13.8,10.5-20.6
	c5.4-10.7,10.9-21.4,16.3-32.3l-5.7-3.8c1.9-3.7,3.7-7.3,5.6-11l6.5,2.4l42.7-84.1c-12.8-7.3-25.3-10.5-39.1-6.4
	c-13.3,4-22.1,12.8-28.3,24.9c-12.6,24.8-25.2,49.5-37.8,74.2c-6.3,12.5-12.6,25-19.1,37.9c5.4,2.8,10.6,5.5,15.8,8.1
	C94.8,236.4,104.7,241.2,114.6,246.1L114.6,246.1z M841.2,708.2c0.5-1.5,0.8-3,1-4.6c0.1-8.2,0-16.3,0-24.9h12.4
	c0.1-2.1,0.3-3.8,0.3-5.4c0-49.4,0-98.8,0.1-148.1c0-4.1-0.9-5.6-5.4-5.6c-27.2,0.2-54.4,0.1-81.5,0.1c-10,0-8.3-0.9-8.4,8.3
	c-0.1,7.8,0,15.7,0,23.9h-11.8c-0.1,1.2-0.3,1.9-0.3,2.6c0,31.9,0,63.8,0,95.7c0.2,1.1,0.5,2.2,1,3.2l10.2,1.7v5.1
	c0,14.9,0.1,29.7,0,44.6c0,3.4,1.1,4.7,4.5,4.5c7.6-0.2,15.1-0.1,22.7,0c1.3,0.1,2.7,0.3,4,0.5l0.1,1.6c-1.3,0.3-2.7,0.5-4,0.6
	c-20.2,0-40.5,0.2-60.7-0.1c-5.3-0.1-10.6-1.7-15.9-2.8c-0.6-0.1-1.1-1.1-1.6-1.6c0.7-0.4,1.4-0.8,2.1-1c1.3-0.1,2.6-0.1,4,0
	c-4.5-2.7-7.6-5.8-7-11c0.8-6.6,5.9-8.4,11.6-9c1.7-8.6,3.1-16.9,5.2-25.1c1.1-4.1-0.2-5.2-3.8-5.9c-12.3-2.4-24.7-5-37.2-7.5
	l-1.8,3.5l-1.5-0.2c0.1-2.2,0.2-4.4,0.3-6.6c21.9,2.7,42.3,11.3,64.5,9.5c0.1-2.3,0.3-4.3,0.3-6.3c0-32.7,0-65.3,0-98
	c0-8.3,0.1-6.8-6.9-7.2c-7.7-0.4-15.3-1.3-23-2.2c-1.5-0.3-2.9-0.9-4.1-1.9c-3.2-2.7-4.7-6.1-3.2-10.3c1.6-4.6,5-6.4,9.7-6.2
	c1.7,0.1,4.7,1.8,4.4-2.5c-1.5-0.4-3-0.9-4.5-1.1c-28.7-5.2-57.5-10.3-86.2-15.6c-12.1-2.2-12.1-2.4-17.7,8.6
	c-3.1,6.1-6.3,12.3-9.5,18.5l-38.2-19.6l14.8-29.5l-78.5-40.1l-15.5,30l-11.1-5.4c-18.4,36.1-36.6,72-55.1,108.2l10.9,5.8
	c-5.1,10.3-10.1,20.1-15.1,30.1l22,11.5l-0.2,1.4c-0.9,0.1-2,0.4-2.8,0.1c-2.1-0.9-4.2-2-6.2-3.1c-13.2-6.7-26.3-13.4-39.5-20.3
	c-1.1-0.6-1.8-1.8-2.7-2.7l1.1-1.1l14.5,7.1l38.6-75.8c-3.5-1.9-6.9-3.4-10-5.3c-1.5-0.9-2.6-2.4-3.8-3.7c1.8,0.3,3.5,0.7,5.2,1.3
	c3.3,1.4,6.5,3.2,10,4.9c8.5-16.7,16.8-32.9,24.9-49.1c0.4-0.8-0.7-3.1-1.7-3.7c-3.7-2.3-7.7-4.1-11.6-6.1l0.2-1.4
	c1.1,0,2.4-0.4,3.4,0.1c3.2,1.5,6.2,3.4,9.5,4.7c1.1,0.4,3.5-0.1,3.9-0.9c5.8-11,11.3-22.1,16.9-33.2c-4.1-4-10.5-4.4-13.4-9.5
	c1.9,0.1,3.7,0.6,5.4,1.6c45.7,23.3,91.4,46.6,137.1,69.9c2.5,1.2,5.1,2.1,7.8,2.6c23.4,4.3,46.9,8.4,70.3,12.7
	c15.8,2.9,31.4,5.4,47.6,5.3c48.2-0.5,96.4-0.2,144.7-0.2c1.4-0.1,2.8-0.1,4.2,0.1c0.7,0.1,1.3,1,2,1.5l-0.4,1.2
	c-6,0-12,0.3-17.9-0.1c-4.2-0.2-5.3,1.3-5.2,5.3c0.3,8.3,0.1,16.6,0.1,25.2c-2.2,0.1-4.4,0.1-6.5,0c-4.6-0.6-5.7,1.4-5.7,5.8
	c0.2,14.1,0.1,28.2,0.1,42.3v5h79.4v-12.9H959v-22.5c0-9,0-9-8.7-9h-10.1c0-4.8,0-8.9,0-13.1c0-2,0.6-4.7-0.5-5.9
	c-4-4.5-1-9.2-2-13.9h12.7v12.6l-7.7,0.5c0.5,5.4,1,10.6,1.5,15.7c3.5,0.3,7,0.7,10.5,1c3.3,0.4,4.3-1.1,4.3-4.3c-0.1-9-0.2-18,0-27
	c0.1-3.9-1.1-5.1-5-5c-8.7,0.2-17.3,0.1-26,0c-1.2,0-2.4-0.8-3.6-1.2l0.4-1.2h185.9l0.2,1.8c-1.8,0.3-3.5,0.5-5.3,0.6
	c-7.9,0.1-7.9,0-9,7.6c0,0.2-0.4,0.3-1.5,1c-0.3-1.3-1-2.5-0.8-3.5c0.6-4.2-1.3-5.3-5.3-5.2c-8.8,0.3-17.6,0.2-26.4,0
	c-3.5-0.1-4.6,1.1-4.5,4.5c0.2,12.2,0.1,24.5,0,36.7c0,3.4-0.8,7.2,4.3,7.8c0,0.5,0,1.1,0,1.6c-4.4-0.5-4.3,2.5-4.3,5.7
	c0.1,44,0.1,88,0,132c0,1.5,0.2,3,0.3,5.1h14.5v38.7h72.4V575.5l-6.4-0.4v-12.5l6.8-0.5c0-10.1,0.2-20-0.1-29.9
	c-0.1-4.9,2.3-10.6-3.9-14.6l7.2-2.2v10.3c9.2,0,18-0.1,26.8,0.1c2,0,4,1,6,1.5l-5.7,1.5c-0.4,0.2-0.9,0.4-1.3,0.6v67.4H1149v93.8
	h9.4v13.1h-9.3v47.9h108.1v-41.2c0-6.6,0-6.6-6.5-7.2c-0.2,0-0.5-0.4-0.7-0.5v-11.9c3-0.9,7.3,1.5,7.3-4.5c-0.2-28.5-0.2-57,0-85.5
	c0-3.6-1.3-4.5-4.6-4.3c-5.5,0.2-11,0.1-16.9,0.1v-67.5c-1.1-0.2-1.9-0.2-2.6-0.4c-2.1-0.5-4.2-1.1-6.3-1.7c2.1-0.4,4.2-1.3,6.3-1.3
	c39.7-0.1,79.4-0.1,119.2,0c3.9,0,5.4-0.9,5.3-5.1c-0.3-11.9-0.1-23.9-0.1-35.8v-24.3h-107.3v-12.9h12.7v9.5h8.6v-24.6h24.6v24.5
	h61.2c0.1-1.3,0.2-2.2,0.2-3.1c0-53.7,0-107.5,0.1-161.2c0-3.7-1.1-4.8-4.8-4.8c-28.8,0.1-57.5,0.1-86.2,0.1c-1.2,0-2.3,0.2-3.7,0.3
	c0.1,1.4,0,3.4,0.3,3.4c3.5,0.6,7.1,1,10.7,1.4v93.9h-10.6l-0.4-1.6l8.3-1.8c0.1-0.6,0.2-1.2,0.3-1.8c0-27.4,0-54.8,0.1-82.2
	c0-3.4-1.3-4.3-4.4-4.2c-5.6,0.2-11.3,0-16.9,0l0.8-1.2c-1.2-2.1-2.2-5.7-3.7-5.9c-4.4-0.8-9.1-0.3-14.1-0.3v5.6
	c0,22.3-0.3,44.6,0.1,66.9c0.2,8.8-2.7,18.1,2.8,26.7h-35v-5.3c7.2,0,14.2-0.3,21.1,0.1c4.3,0.2,5.5-1.1,5.5-5.5
	c-0.2-27.7-0.1-55.5-0.1-83.2c0-1.6-0.2-3.3-0.3-5.1h-67.9c-0.4,2.5-0.5,6.5-1.3,6.6c-4.5,0.9-3,4.1-3,6.5
	c-0.1,24.6,0.1,49.3-0.2,73.9c0,4.7,0.7,7.5,6,6.8c0.2,0,0.4,0.4,0.8,0.7c-0.1,1.4-0.1,2.8-0.2,4.4l-6.7,0.6v23l-5.3-0.4v-36.2
	c0-24.6,0-49.3-0.1-73.9c0-1.7-0.5-3.4-1.6-4.7c-1.9-1.8-3.5-12.1-1.3-12.6c4.1-1,2.9-3.8,2.9-6.2c0-3.1-0.3-6.2-0.6-9.2
	c-1-12.6-12.3-25.6-24.9-26.8c-11.2-1.1-22.5-0.8-33.7-1.1c-4.3-0.1-8.5,0-13.3,0c0,13.9,0,27.2,0,40.5c0,0.6,0.2,1.6,0.5,1.7
	c5.8,1.5,2.6,6.2,3.3,9.5c0.2,1.2-0.3,3.7-0.7,3.7c-4.2,0.5-3.1,3.6-3.1,6c-0.1,38.7-0.1,77.4-0.1,116.2v18.8h38.8
	c0.1,0.9,0.2,1.7,0.2,2.6c-0.7,4.7,1.5,5.7,5.8,5.5c8.3-0.3,16.7-0.2,25,0c3.4,0,6.3-0.1,9.7,2.7c4.7,3.9,1.1,7.9,2.4,11.5
	c-1.9,0.7-3.8,1.5-5.8,2c-1.4,0.3-2.8,0.4-4.2,0.5c0.1,2,0.1,3.9-0.1,5.9c-0.3,1.2-0.7,2.4-1.2,3.5c-0.6-1.2-1.7-2.3-1.7-3.5
	c0-6.8,0.4-6.4-6.8-6.4c-49,0-98,0-147,0c-1.5-0.1-2.9-0.2-4.4-0.5c0.7-3.6,1.7-6.4,1.8-9.1c0.2-7.3,0.1-14.7,0.1-22.1l1.3-0.5
	c0.6,0.9,1.6,1.7,1.8,2.6c0.2,2.2,0.2,4.3,0.1,6.5v19.6h54.6v-13.7l1.9-0.1c0.3,4.6,0.5,9.2,0.8,13.9h21.1v-55.5h-21.7v14.3
	c-2.7-2.4-3.5-31.6-1.7-39.6h23.4v-33.2c-0.5-0.3-0.8-0.6-1.1-0.6c-13.9-0.1-27.8-0.2-41.7,0c-0.9,0-2.4,2.1-2.5,3.3
	c-0.3,4.3-0.1,8.7-0.1,13v20c-4.2,1.3-4.2-0.9-3.9-3.3c0.5-1.2,0.8-2.4,1-3.6c0.1-19.8,0.1-39.6,0-59.5c0-0.9-0.2-1.8-0.3-2.8h-29.5
	v5.7c0,25.8,0,51.7,0,77.5c0.1,2,0.1,4-0.1,6c-0.2,1-1.2,1.9-1.8,2.8l-0.9-0.6v-96.9c11.7,4.3,23.8,0.5,36,2.6v32.4h45.4
	c0-14,0-27.8,0-41.5c0-0.5-0.1-1.2-0.3-1.3c-6.1-2-2.5-7.1-3.3-10.8c-0.2-0.8,0.6-2.6,1-2.6c3.4-0.3,2.7-2.8,2.7-4.8
	c0-10.8,0-21.7,0-32.5c0-1.8-0.2-3.6-0.3-5.8c-13.8,0-27.3,0.2-40.7-0.1c-4.1-0.1-4.9,1.4-4.8,5.1c0.2,8.4,0,16.7,0.1,25.1
	c0,2.9-0.8,4.2-4,2.6c0.5-1.9,0.8-3.8,1-5.8c0.1-7.8,0.1-15.5,0-23.2c-0.2-1-0.5-1.9-1-2.7c-1.3-0.5-2.7-0.8-4.1-1
	c-24.1-0.1-48.2-0.1-72.3,0h-4.7c0,8.6,0.2,16.8-0.1,24.9c-0.2,4.1,1,5.6,5.3,5.5c14.5-0.3,29.1-0.1,43.6-0.1
	c1.6,0.2,3.1,0.5,4.6,0.9l-0.3,1.9h-52.7v9.4l9.6,0.5v12.7h-9.5v151.9h8.6l2.8,12.5c-1,0.2-2,0.4-3.1,0.5c-5.1,0.1-10.2,0-15.3,0
	c-9.3,0-18.5,0-27.8-0.1c-1,0-2.1-1.1-3.1-1.7c0.9-0.6,2-1,3.1-1.2c3.4-0.1,6.8-0.1,10.2-0.1h20.8V239.7h-94.7c-6,0-6,0-6,6.1
	c0,68.8,0,137.6,0,206.3c0,1.6,0.2,3.3,0.3,5.8h21c0,0.6,0,1.2,0.1,1.7c-1.5,0.4-2.9,0.6-4.4,0.7c-8.5,0.1-17,0-25.5,0
	c-6.3,0-12.7,0-19-0.1c-1,0-2-0.8-3-1.3c1-0.5,2-1.5,3.1-1.6c3.2-0.2,6.5-0.1,9.7-0.1h14.6v-91.9h-85.7v91.9h5.9c6,0,12,0,18.1,0.1
	c0.8,0,1.7,0.8,2.5,1.3c-0.7,0.6-1.4,1.2-2.3,1.5c-1.1,0.2-2.1,0.2-3.2,0.1c-13.5,0-26.9-0.1-40.3,0.1c-3.2,0.2-6.3,0.7-9.4,1.6
	c-3.3,0.9-9.5-0.6-11-3c-1.9-3-1.5-8.9,1-11.8c3-3.6,6.8-3.8,11-2.5c1.4,0.6,2.8,1.3,4.2,2.1c0.2-3.4,0.4-6.2,0.5-9.4
	c5.2,0,10-0.3,14.7,0.1c4.1,0.3,5.3-1.1,5.2-5.2c-0.2-21.4-0.1-42.8-0.1-64.1v-6h89c0.2-1.4,0.3-2.1,0.3-2.9c0-38.4,0-76.8,0-115.3
	c-0.2-1.1-0.5-2.2-1-3.2c-1.5-0.5-3-0.8-4.6-1c-24-0.1-47.9,0.2-71.8-0.2c-8.4-0.1-16-0.6-17.2,10.9l-5.4-3c1.6-3.4,3.1-6.4,4.7-9.8
	c-31.9-16.3-63.5-32.4-95.4-48.7c-7.5,14.7-14.6,28.8-21.9,43.2c2.1,1.1,3.8,2.1,5.6,3c26.8,13.6,53.5,27.3,80.3,40.9
	c8.2,4.2,8.5,4.2,14-2.5l3.6,2c-0.5,2.7-1.7,5.3-1,6.7c2.7,4.9,1.3,9.1-1,13.5c-11.7,22.8-23.2,45.6-34.8,68.5
	c-2.6,5.2-5.3,10.3-8,15.5l-5.7-2.8c-0.3,0.5-0.5,0.8-0.8,1.2c-8.1,15.9-16.3,31.9-24.3,47.9c-0.5,1.4-0.3,2.8,0.3,4.1
	c1.8,3.7,1.7,7.1-0.6,10.4c-0.6,1-1.1,2-1.6,3.1c-1.3,0.1-3,0.6-4.6,0.3c-2.9-0.6-5.7-1.7-8.3-3.1c-2.9-1.7-5.2-4.5-8.2-6.3
	c-4.8-2.8-9.8-5.1-14.7-7.6c0-0.5,0.1-0.9,0.1-1.4c1.2,0,2.6-0.4,3.6,0.1c5.5,2.6,10.9,5.5,17,8.6c0.7-7,6.2-7.7,10.6-9.8
	c1-1.1,1.9-2.2,2.7-3.5c6.1-11.9,12.2-23.9,18.3-35.9c2.2-4.3,4-8.8,6.2-13.5c1.4,0.5,2.7,1.2,4,1.9c3.8,2.7,5.6,1.4,7.5-2.5
	c7.8-15.9,16-31.7,24-47.5c4.2-8.3,8.4-16.7,12.6-24.9c-0.8-0.6-1.1-1.1-1.5-1.2c-8.5-2.2-9.9-4.3-9-12.9c0.1-1-0.3-2-1.1-2.6
	c-5.9-3.1-12-6.1-18.2-9.3l-45,88.4l-28.8-14.8c1.1-1.9,1.8-3.2,2.7-4.7l23.8,12c14.3-28.1,28.2-55.6,42.4-83.5l-60.9-31
	c-2.6,2.6-2.3,7.9-7.4,5.3l-38.7,76.1l5.6,3.5l-2.4,4.4l-6-2.6c-4.2,8.1-8.2,16-12.5,24.3l-4.8-2.6c17-33.4,33.7-66.3,50.3-99.2
	c1.4-2.7,5.1-5.5,1-9c-0.2-0.2,0.3-1.4,0.6-2c0.8-2,1.8-3.9,3-5.7c1.1-1.4,2.9-2.2,4.4-3.2l0.9,0.9l21.5-42.4
	c-0.6-0.5-1.2-0.9-1.8-1.3c-15.8-8.1-31.5-16.2-47.3-24.2c-7.6-3.9-15.6-4.4-23.9-2.4c-8.9,2.1-14.4,9.3-20.7,14.9
	c-3.4,3-4.8,8.5-6.9,12.9c-0.3,0.7-0.4,2.4-0.1,2.5c3.3,1.6,1.2,3.5,0.4,5.2c-1.2,2.5-2.6,4.9-4,7.6c-2.9-1.7-4.1-0.1-5.4,2.4
	c-13.8,27.4-27.7,54.8-41.7,82.1c-8.3,16.3-16.6,32.7-25,49l2.9,2.4l-3,6.4l76.3,39c1.3-2.2,2.3-4,3.5-5.9l4.5,2.4
	c-1.3,2.9-2.4,5.5-3.8,8.5l23.3,12.1c-1.2,0.9-2,1.9-2.3,1.7c-51.2-25.9-102.3-51.9-153.2-77.8c4.9-9.5,9.4-18.2,13.9-27
	c2.8,1.4,5.3,2.6,7.8,3.8c10.3,5.3,10.3,5.3,15.4-5c2.8-5.6,5.7-11.1,8.5-16.8l22.5,11.4c0.8-1.4,1.5-2.4,2-3.5
	c3-5.7,2.9-5.6-2.6-8.4c-15.4-7.8-30.8-15.7-46.1-23.5c-10.8-5.5-21.6-11-32.7-16.6l-9.7,19.2c-2.8-1.4-5.3-2.8-8-4
	c-1-0.4-2.2-0.1-3.3-0.2c-1.2,1.3-2.2,2.7-3.2,4.2c-4.6,8.9-9.1,17.9-13.7,26.8c-1.4,2.8-2.8,5.7-4.3,8.7c1.5,0.9,2.6,1.5,3.7,2
	c6.7,3.5,13.4,6.8,20.1,10.4c0.8,0.4,1.1,1.7,1.7,2.6c-0.8,0.1-1.8,0.4-2.4,0.1c-9.9-5-19.7-10-28.8-14.6c2.6-3.6,5.4-6.8,7.3-10.4
	c5.8-10.9,11.2-22,16.8-33c3.2-6.3,6.4-12.5,9.7-19.2l-37.9-19.3l-5.1,6.5l-1.4-1.2l4.8-9.6l139.5,71.2l35.9-70.6l-18.6-9.7
	c6.7-13.3,13.2-26.1,19.9-39.4L377.9,86.1l-19.9,39.1l-33-16.7c-15.7,30.8-31.1,61.1-46.5,91.4l-8.8-7.2l1-1.2l7.3,3
	c21.5-42.3,42.8-84.3,64.4-126.6l-86.6-44.3l-20.1,39.4l-18.8-9.5L172.3,141c20.4,10.4,40.1,20.5,59.9,30.6c2.7,1.4,5.6,2.7,8.2,4.2
	c0.6,0.4,0.8,1.6,1.1,2.4c-0.8,0.2-1.5,0.2-2.3,0.2c-1-0.4-2-0.9-2.9-1.4l-46.4-23.7l-10.1,19.4l-5.6-2.7
	c-19.7,38.7-39.3,77.3-59,116l-12.9-6.4c-0.6,0.7-1.1,1.5-1.6,2.3c-18.7,36.7-37.3,73.4-56,110.2c-0.3,0.7-1.1,1.7-0.8,2.1
	c3.4,5-1.5,8-2.8,11.9c-0.2,0.7-1.1,1.3-1.8,1.8c-1.2,0.9-3.1,1.4-3.7,2.6c-5.5,10.4-10.7,20.9-16,31.4c-0.5,1.1-0.9,2.3-1.3,3.5
	c1.7,0.9,3,1.6,4.4,2.3l227.2,116c89.2,45.6,178.4,91.1,267.6,136.6c11.2,5.7,22.3,12.1,34,16.4c19.4,7,39.3,12.5,58.9,18.8
	c13.8,4.4,27.4,8.9,42.2,9.6c13.7,0.7,27.3,2.9,40.9,4.2c11.8,1.2,23.7,2.8,35.5,2.9c107.1,0.2,214.2,0.3,321.3,0.1h5.1
	c0.1-1.4,0.2-2.1,0.2-2.8c0-64.9,0-129.8,0.1-194.7c0-3.6-1.4-4.5-4.7-4.4c-5.3,0.2-10.7,0-16.4,0c0-8.7-0.2-16.7,0.1-24.8
	c0.2-4.3-0.9-5.9-5.6-5.8c-20.5,0.3-41.1,0.2-61.7,0c-4.3,0-5.8,1.1-5.7,5.6c0.2,60.3,0.2,120.5,0.1,180.8v5.8h-36.4l1.2-3.6
	c0.5-1.5,0.8-3,1-4.6c0.1-11.4,0-22.8,0-34.8c9.1,0,17.7-0.2,26.3,0.1c4,0.1,5.3-0.9,5.3-5.1c-0.3-17.3-0.1-34.7-0.1-52
	c0-1.5-0.1-3-0.2-4.7H858v71.8h11.9c0,8.9,0.1,17.3-0.1,25.6c-0.1,3.5,0.9,5.3,4.7,4.9c2.8-0.3,5.6,0,8.3,0h10.3l0.3,1.7
	c-0.8,0.5-1.8,0.8-2.7,1c-22.1,0.1-44.2,0.1-66.3,0c-0.9,0-1.9-0.9-2.8-1.3c0.1-0.5,0.3-0.9,0.4-1.4c3.8,0,7.6,0.1,11.4,0
	C835.9,709.1,838.5,708.5,841.2,708.2z M1149,593.8c6.4,0,12.1-0.3,17.7,0.1c4.1,0.2,5.3-1,5.3-5.2c-0.2-18.4-0.1-36.8-0.1-55.2
	c0-1.5-0.2-3-0.3-4.5h-12.4c-0.2,3.4-0.3,6.4-0.5,9.5l-9.8,0.5c0,8.1-0.1,15.8,0.1,23.5c0.1,2.3,1.1,4.6,1.9,7.6
	c-1.5,1.5-4.4,3.7,0,6.7c0.4,0.3,0,1.9-0.3,2.8s-1.5,1.8-1.6,2.7C1148.9,586,1149,589.5,1149,593.8z M716.5,706.9
	c1.3,0.7,2,1.3,2.6,1.4c7.7,0.4,15.4,0.8,23,0.8c0.8,0,2.2-2,2.2-3.1c0.1-15.2,0.2-30.3,0-45.5c0-1.1-2-3-3.2-3.1
	c-3.5-0.4-7.1-0.4-10.6,0c-1.6,0.3-2.9,1.4-3.5,2.9c-1.9,7.8-3.6,15.6-5,23.5c-0.3,2.3,0.2,4.6,1.4,6.6c3.5,5.5,2.3,11.4-3.5,14.6
	C719,705.4,718,706,716.5,706.9z M1238.9,529c0,20.9,0,41.3,0,61.6c0,2.5,1,3.3,3.3,3.2c3.7-0.1,7.4-0.2,11.1,0
	c3.3,0.2,4.3-1.1,4.2-4.3c-0.1-15.8,0-31.5-0.1-47.3c-0.1-1.1-0.2-2.1-0.4-3.2l-6.8-0.6c-0.2-3.2-0.3-6.2-0.5-9.5L1238.9,529z
	 M375.3,84.8l-30.4-15.5l-18.6,36.6l30.3,15.5C362.9,109,368.9,97.2,375.3,84.8z M606.8,494.8c-8.1-4.1-14.9-7.7-21.8-11
	c-1.2-0.3-2.4,0.1-3.3,1c-4.2,8-8.3,16.1-12.5,24.5l33.1,17l6.1-12.1c-7.2,0.3-11.3-2.8-11.8-8.8
	C596.3,499.6,600.3,496.5,606.8,494.8L606.8,494.8z M930.8,672v37.2c8.6,0,16.7,0,24.9,0c2.8,0,3.3-1.6,3.3-3.9c0-5.4,0-10.8,0-16.2
	V672H930.8z M130.9,248.5c9.1-17.9,17.9-35.1,26.9-52.8l-10.5-5.3L120.4,243L130.9,248.5z M413.9,323.1l34.6,17.7l4.3-7.9
	c8-0.5,6.5-8.1,10.7-12l-38.5-19.6L413.9,323.1z M1112.8,439.1c-11.3,0-22.4-1-33.1,0.4c-5.8,0.7-1.5,7.5-2.5,11.5
	c-0.6,2.3,0.1,4.2,3.3,4.1c5.7-0.2,11.4,0,17.1,0h15.3V439.1z M178.6,168.6c2.5-4.9,5.1-9.6,7.3-14.5c0.3-1.2-0.1-2.4-1-3.3
	c-4.4-2.5-9-4.6-13.8-7.1c-5.7,11.1-11.2,21.9-16.7,32.7c-0.4,0.7-0.5,2.3-0.1,2.5c2.6,1.6,0.6,3.1,0,4.6c-0.7,1.8-1.6,3.6-2.6,5.7
	l7.4,3.7c4.7-9.2,9.2-17.9,13.8-26.7L178.6,168.6z M522.3,196l5.2-10.1c1.9-0.5,4.1-0.4,4.7-1.3c2.9-5,5.3-10.3,8-15.7l-16.1-8.1
	l-18.7,36.7l15.3,7.8C525.3,200.9,525.6,199,522.3,196z M234.3,59.2c6-11.9,11.8-23.1,17.4-34.4c0.4-0.9-0.5-3.1-1.5-3.7
	c-3.3-2-6.9-3.5-10.2-5.4c-2.2-1.3-3.6-1-4.7,1.4c-1.9,4.1-4.1,7.9-6.1,12c-0.4,0.9-0.5,1.9-0.2,2.9c0.8,2-2.4,12.4-4.1,12.1
	c-5.9-1-4.1,4.3-6.9,6.8L234.3,59.2z M1058.3,751.8h11.5v-35c-0.4-0.2-0.8-0.4-1.2-0.5c-10.3-1.2-10.3-1.2-10.3,9L1058.3,751.8z
	 M476.9,293.6l-20-10.2l-12.5,24.5l20,10.2L476.9,293.6z M103.3,276.8l10.5,5.4c5.1-9.9,9.9-19.4,14.7-28.9c0.3-0.7,0.3-2.2-0.1-2.4
	c-3-1.7-6.2-3.3-9.3-4.8c2.9,6.6-2.5,9.8-3.9,14.2c-0.1,0.4-1,0.5-1.4,0.7c-1.2,0.7-2.8,1.1-3.3,2.1
	C108,267.2,105.9,271.7,103.3,276.8z M854.5,709v-27c-2.3-0.1-4.5-0.1-6.8,0.1c-0.9,0.1-2.5,1.2-2.5,1.8c-0.2,8.3-0.1,16.6-0.1,25.1
	L854.5,709z M1037.8,547.4c5.2,0,10,0.2,14.7-0.2c1-0.1,2.8-2,2.8-3.1c0.3-7.3,0.2-14.5,0-21.8c-0.3-1.2-1.1-2.2-2.3-2.5
	c-5-0.2-10.1-0.1-15.3-0.1L1037.8,547.4z M1292.7,457.2V435c-5.3,0-10.4-0.1-15.5,0.1c-1,0-2.8,1.4-2.8,2.2
	c-0.2,6.6-0.1,13.2-0.1,19.9L1292.7,457.2z M485,467.2c4.7-9.4,9.3-18.3,13.9-27.5l-8.5-4.1L476.5,463L485,467.2z M1071.5,397.9
	c0-5.6,0.2-10.7-0.1-15.7c-0.1-1-1.9-2.7-2.9-2.8c-5.1-0.3-10.2-0.3-15.3,0c-1.1,0-3.1,1.4-3.1,2.2c-0.3,5.3-0.2,10.7-0.2,16.3
	L1071.5,397.9z M857.8,520c0,8.4,0.1,16.2,0,24.1c0,4,2.8,3.2,5.1,3.4c2.7,0.2,4.4-0.4,4.3-3.7c-0.2-6.5-0.3-13,0-19.4
	c0.2-3.8-1.3-5-4.8-4.6C861.2,519.8,859.8,519.9,857.8,520z M1116.5,454.4c0.5,0.2,1,0.4,1.6,0.5c7.2,0.1,14.4,0.1,21.7,0.1
	c6.8,0,7.2-0.5,5.5-7.7h-28.7V454.4z M727.2,457.4c5.2,0,10.1,0.1,15-0.1c1-0.3,1.8-1.2,2.1-2.2c0.2-4.7,0.1-9.5,0.1-14.4h-17.2
	V457.4z M756.8,548.4c0-9.1,0.1-17.6-0.2-26c0-0.9-2.4-2.5-3.7-2.5c-1.9,0-5.4-1.7-5.5,2.1c-0.3,8.8-0.1,17.5-0.1,26.4L756.8,548.4z
	 M387.7,253.9l8.3-16.5l-9-4.5c-1.6,3.3-3,6-4.4,8.7C378.5,249.9,378.5,249.9,387.7,253.9z M940.5,603.1h18.2V594h-18.2V603.1z"/>
<path d="M1022,375.5c-0.3,2.4-0.3,4.6,3.9,3.3v-20c0-4.3-0.2-8.7,0.1-13c0.1-1.2,1.6-3.3,2.5-3.3c13.9-0.2,27.8,0,41.7,0
	c0.3,0,0.5,0.3,1.1,0.6v33.1h-23.4c-1.8,8-1,37.3,1.7,39.6v-14.3h21.7v55.5h-21.1c-0.3-4.7-0.5-9.3-0.8-13.9l-1.9,0.1v13.7h-54.6
	v-19.7c0.1-2.2,0.1-4.3-0.1-6.5c-0.1-0.9-1.1-1.7-1.8-2.6l-1.3,0.5c0,7.4,0.2,14.7-0.1,22.1c-0.1,2.8-1,5.5-1.8,9.1
	c1.5,0.2,2.9,0.4,4.4,0.5c49,0,98,0,147,0c7.2,0,6.7-0.5,6.8,6.4c0,1.2,1.1,2.3,1.7,3.5c0.5-1.1,0.9-2.3,1.2-3.5
	c0.1-2,0.1-3.9,0.1-5.9c1.4-0.1,2.8-0.2,4.2-0.5c2-0.5,3.9-1.3,5.8-2c-1.3-3.6,2.3-7.7-2.4-11.5c-3.4-2.8-6.3-2.6-9.7-2.7
	c-8.3-0.1-16.7-0.3-25,0c-4.3,0.2-6.5-0.9-5.8-5.5c0-0.9,0-1.8-0.2-2.6h-38.8v-18.8c0-38.7,0-77.4,0.1-116.2c0-2.4-1.2-5.5,3.1-6
	c0.4,0,0.9-2.5,0.7-3.7c-0.6-3.3,2.6-8-3.3-9.5c-0.3-0.1-0.5-1.1-0.5-1.7c0-13.3,0-26.6,0-40.5c4.8,0,9-0.1,13.3,0
	c11.3,0.3,22.6-0.1,33.7,1.1c12.6,1.3,24,14.2,24.9,26.8c0.2,3.1,0.6,6.2,0.6,9.2c0,2.4,1.2,5.1-2.9,6.2c-2.2,0.5-0.6,10.8,1.3,12.6
	c1.1,1.3,1.7,3,1.6,4.7c0.1,24.6,0.1,49.3,0.1,73.9v36.2l5.3,0.4v-23l6.7-0.6c0.1-1.6,0.2-3,0.2-4.4c-0.4-0.4-0.7-0.7-0.8-0.7
	c-5.3,0.7-6.1-2.1-6-6.8c0.2-24.6,0.1-49.3,0.2-73.9c0-2.4-1.5-5.7,3-6.5c0.8-0.2,0.8-4.1,1.3-6.6h67.9c0.1,1.8,0.3,3.4,0.3,5.1
	c0,27.7-0.1,55.5,0.1,83.2c0,4.3-1.2,5.7-5.5,5.5c-6.9-0.3-13.8-0.1-21.1-0.1v5.3h35c-5.5-8.6-2.6-17.9-2.8-26.7
	c-0.4-22.3-0.1-44.6-0.1-66.9V288c5,0,9.7-0.5,14.1,0.3c1.5,0.3,2.5,3.9,3.7,5.9l-0.8,1.2c5.6,0,11.3,0.1,16.9,0
	c3.1-0.1,4.4,0.9,4.4,4.2c-0.1,27.4,0,54.8-0.1,82.2c0,0.6-0.1,1.2-0.3,1.8l-8.3,1.8l0.4,1.6h10.5v-93.9c-3.6-0.4-7.1-0.8-10.7-1.4
	c-0.3,0-0.2-2-0.3-3.4c1.3-0.1,2.5-0.3,3.7-0.3c28.8,0,57.5,0,86.2-0.1c3.7,0,4.8,1.1,4.8,4.8c-0.1,53.8-0.1,107.5-0.1,161.2
	c0,0.9-0.1,1.8-0.2,3.1h-61.2v-24.5h-24.6v24.6h-8.6v-9.5h-12.7v12.9h107.3v24.4c0,11.9-0.2,23.9,0.1,35.8c0.1,4.3-1.4,5.2-5.3,5.1
	c-39.7-0.1-79.4-0.1-119.2,0c-2.1,0-4.2,0.8-6.3,1.3c2.1,0.6,4.2,1.2,6.3,1.7c0.7,0.2,1.5,0.2,2.6,0.4v67.5c5.9,0,11.4,0.2,16.9-0.1
	c3.3-0.1,4.7,0.7,4.6,4.3c-0.1,28.5-0.2,57,0,85.5c0.1,6.1-4.3,3.7-7.3,4.5v11.9c0.2,0.2,0.4,0.5,0.7,0.5c6.5,0.6,6.5,0.6,6.5,7.2
	v41.2h-108.1v-48h9.3v-13.1h-9.4v-93.8h25.6v-67.4c0.4-0.2,0.8-0.4,1.3-0.6l5.7-1.5c-2-0.5-4-1.5-6-1.5c-8.8-0.2-17.6-0.1-26.8-0.1
	v-10.3l-7.2,2.2c6.2,4,3.8,9.7,3.9,14.6c0.3,9.9,0.1,19.8,0.1,29.9l-6.8,0.5V575l6.4,0.4v176.3h-72.4V713h-14.5
	c-0.1-2-0.3-3.5-0.3-5.1c0-44,0-88,0-132c0-3.2-0.1-6.1,4.3-5.7c0-0.5,0-1.1,0-1.6c-5.1-0.6-4.3-4.4-4.3-7.8c0-12.2,0.1-24.5,0-36.7
	c0-3.4,1.1-4.6,4.5-4.5c8.8,0.2,17.6,0.3,26.4,0c4-0.1,5.8,0.9,5.3,5.2c-0.1,1,0.5,2.1,0.8,3.5c1-0.7,1.4-0.8,1.5-1
	c1.1-7.5,1.1-7.5,9-7.6c1.8-0.1,3.5-0.3,5.3-0.6l-0.2-1.8H925l-0.4,1.2c1.2,0.4,2.4,1.1,3.6,1.2c8.7,0.1,17.3,0.2,26,0
	c3.9-0.1,5.1,1.2,5,5c-0.3,9-0.2,18,0,27c0,3.2-1,4.7-4.3,4.3c-3.5-0.4-7-0.7-10.5-1l-0.1,0.1H957v-33.8h-33V516h188.3
	c-0.1,1.9-0.2,3.5-0.3,5.6h-13c-0.8,8-0.8,8-5.8,6.9c-0.2-2.2-0.4-4.5-0.6-6.8h-32.4v42.5c1.8,2.5,3.6,3.9,3.5,5.2s-1.9,2.7-3.3,4.5
	v138.2h13.8v38.5h69.9V576.8l-6.8-0.6v-14.9l6.7-0.7c0.2-0.4,0.3-0.8,0.3-1.2c0-6.8,0.5-13.7-0.1-20.4c-0.5-6.5,2.3-13.2-2.4-19.5
	c-2.1-2.8,2.4-5.8,8.3-4.8v9.7h32.9v5.3l-7.1,0.3v67.9h-25.7v91.3l9.8,0.5v15.1l-9.8,0.6v45.3h105.3v-45.3l-6.9-0.7v-14.9l6.9-0.8
	v-91.4h-21.3v-68h-8.6c-1.3-4.3,0.1-5.5,4.2-5.5c40.2,0.1,80.4,0.1,120.6,0h5.5v-62.3h-107.2v-15.4h15.6v9.5h6v-24.5h27.5V456h58
	V289.7h-91.3c0,0.4,0,0.9,0,1.3h5.2c6.3,0,6.3,0,6.3,6.3v91h-13.5v-5.2l7.1-0.4v-86h-21c-0.2-2.7-0.3-4.8-0.5-7h-13.6
	c0,30.4,0,60.5,0,90.5c0,0.9,0.2,1.8,0.6,2.6c0.8,1.7,1.8,3.3,3.1,5.5h-38.7c-0.9-8-0.9-8,6.7-8h19.5v-90.6h-65
	c-0.5,2.6-0.5,6.5-1.4,6.7c-3.8,0.9-2.8,3.6-2.8,5.8c0,24.3,0,48.7,0,73v4.9l6.2,0.6v7.9l-6.3,0.4v22.8h-8.3v-5.9
	c0-33.6,0.1-67.2-0.1-100.8c0-3,2.2-7.4-3.2-8.6c-0.3-0.1-0.5-1.2-0.4-1.7c1.4-4.7-3.5-10.8,3.3-14.3c0.4-0.2,0.3-1.5,0.3-2.2
	c0-2.5,0.1-5,0-7.4c-0.9-15.1-11.8-27.9-26.7-28.8c-13.8-0.8-27.8-0.5-41.6-0.7c-0.3,0-0.5,0.3-1.1,0.7c0,10.3-0.1,20.8,0.1,31.3
	c0.1,3.1-2.1,7.3,3.2,8.7c0.4,0.1,0.4,1.7,0.4,2.6c0.2,2.5,0.2,5-0.1,7.4c-0.4,2.2-1.5,4.3-2.2,6.5l-1.2-0.3v137h38.5
	c0.2,2.8,0.3,5,0.5,7.4c11.9,0,23.3,0.1,34.7,0c4.1,0,6.6,3.4,7.3,5.6c1.3,4.2,0.4,9.1,0.4,14h-10.4v10.1l-5.3-0.3
	c-0.2-3.4-0.3-6.6-0.5-10.1H986c0-1.9-0.5-4.4,0.1-4.7c4.2-2,2.3-5.5,2.4-8.4c0.3-7,0.1-14.1,0.1-21.4l5.7,0.3v28.3h51.8V442
	c4-1.2,5.8-0.2,5.6,3.8c-0.2,3.3,0,6.7,0,10.2h18.4v-53.2h-18.4c0,3.5-0.2,6.7,0,9.9c0.3,4.1-1.5,5.3-5.4,4v-41.7h23.6v-30.8h-42.2
	v7.2c0,8.8,0.1,17.7-0.1,26.5c0,1-1.4,2.9-2.3,2.9c-1.6,0.1-3.3-0.8-4.9-1.2C1020.9,378.3,1021.5,376.9,1022,375.5L1022,375.5z"/>
<path d="M926.4,708.2l-1.2,3.6h36.4V706c0-60.2,0-120.5-0.1-180.8c0-4.6,1.4-5.7,5.7-5.6c20.5,0.2,41.1,0.2,61.7,0
	c4.6,0,5.7,1.5,5.6,5.8c-0.3,8-0.1,16.1-0.1,24.8c5.7,0,11.1,0.1,16.4,0c3.3-0.1,4.7,0.8,4.7,4.4c-0.1,64.9-0.1,129.8-0.1,194.7
	c0,0.8-0.1,1.5-0.2,2.8h-5.1c-107.1,0-214.2,0-321.3-0.1c-11.8,0-23.7-1.7-35.5-2.9c-13.7-1.3-27.2-3.6-40.9-4.2
	c-14.7-0.7-28.4-5.2-42.2-9.6c-19.6-6.3-39.6-11.7-58.9-18.8c-11.8-4.3-22.8-10.7-34-16.4c-89.2-45.5-178.5-91.1-267.7-136.7
	l-227.2-116c-1.4-0.7-2.7-1.5-4.4-2.3c0.4-1.2,0.8-2.3,1.3-3.5c5.3-10.5,10.5-21,16-31.4c0.6-1.2,2.5-1.7,3.7-2.6
	c0.7-0.5,1.6-1.1,1.8-1.8c1.3-3.9,6.2-6.9,2.8-11.9c-0.2-0.3,0.5-1.4,0.8-2.1c18.7-36.7,37.3-73.4,56-110.2c0.5-0.8,1-1.6,1.6-2.3
	l12.9,6.4c19.7-38.7,39.3-77.2,59-116l5.6,2.6l10.1-19.4l46.4,23.7c0.9,0.6,1.9,1,2.9,1.4c0.8,0.1,1.6,0,2.3-0.2
	c-0.4-0.8-0.5-2.1-1.1-2.4c-2.6-1.6-5.5-2.8-8.2-4.2c-19.8-10.1-39.5-20.2-59.9-30.6l44.4-87.3l18.8,9.5l20.1-39.4L342.3,68
	c-21.5,42.3-42.9,84.3-64.4,126.6l-7.3-3l-1,1.2l8.8,7.2c15.5-30.4,30.9-60.6,46.5-91.4l33,16.7l19.9-39.1l143.5,73.3
	c-6.7,13.3-13.2,26.2-19.9,39.4l18.6,9.7l-35.9,70.6L344.9,208l-4.9,9.5l1.5,1.2l5.1-6.5l37.9,19.3c-3.4,6.7-6.5,12.9-9.7,19.2
	c-5.6,11-11,22.1-16.8,33c-1.9,3.6-4.7,6.8-7.3,10.4c9,4.6,18.9,9.6,28.8,14.6c0.6,0.3,1.6-0.1,2.4-0.1c-0.5-0.9-0.9-2.2-1.7-2.6
	c-6.6-3.5-13.4-6.9-20.1-10.4c-1.1-0.6-2.1-1.2-3.7-2c1.5-3,2.9-5.9,4.3-8.7c4.5-9,9-17.9,13.7-26.8c0.9-1.5,2-2.9,3.2-4.2l-0.1-0.1
	c-2.4,5.1-4.8,10.3-7.3,15.3c-3.9,8-8,15.9-12,24l26.3,13.6l-2.8,4.8l-33.8-17.4c0.9-1.5,2-2.9,3.1-4.2c1.2-1.3,3.3-1.9,4-3.4
	c8.4-16.2,16.6-32.4,24.8-48.6c1-1.9,1.8-3.8,2.8-5.9l-35.8-18.3l-4,7.1l-4.8-2.7c2.2-4.3,4.2-8,6.2-12l139.4,71.1l34.7-68.2
	l-18.7-9.7c6.7-13.2,13.2-26.1,19.9-39.4c-47.1-24.1-93.9-48-141.1-72.1l-20,39.1l-32.9-16.7c-15.5,30.6-30.9,60.8-46.5,91.5
	l-11.2-7.8c0.7-1.4,1.4-2.8,2.2-4.5l7.3,3.3c21.1-41.5,42.1-82.8,63.2-124.3l-84.3-43l-20.1,39.2l-18.8-9.5l-43.2,85l70.1,35.8
	l-2.9,4.7l-50.9-25.9l-10,19.2l-5.7-2.4l-59,115.9l-13.2-6.5c-4.3,8.5-8.4,16.7-12.6,24.9c-14.4,28.3-28.8,56.7-43.2,85
	c-0.5,1.3-0.7,2.7-0.6,4.1c-0.1,1.3,0.5,3,0,3.9c-2.5,4.1-2.9,10-9.1,11.2l-17.4,33.9c1.6,0.9,2.8,1.5,4,2.1
	c60.4,30.9,120.9,61.8,181.3,92.7c106.4,54.4,212.9,108.7,319.3,163.1c9.8,5,19.7,10.4,30,14.1c17.5,6.3,35.4,11.4,53.2,16.9
	c14.8,4.6,29.5,9.7,45.2,10.6c14.2,0.8,28.2,2.8,42.3,4.2c11,1.1,22.1,3,33.1,3c107,0.2,213.9,0.3,320.9,0.1h5.1V551.5H1033v-29.8
	h-69.7v4.9c0,45.7,0,91.4,0,137.1c0,15.2,0.1,30.4-0.1,45.5c0,1.5-1.5,4.3-2.3,4.3c-11.6,0.3-23.2,0.2-34.8,0c-0.8,0-2-1.9-2.1-3
	c-0.1-0.6,1.7-1.5,2.6-2.2L926.4,708.2z"/>
<path d="M944.2,554.8c-0.5-5.2-1-10.3-1.5-15.7l7.7-0.5V526h-12.7c1,4.6-2,9.4,2,13.9c1,1.2,0.4,3.9,0.5,5.9c0,4.1,0,8.3,0,13.1
	h10.1c8.7,0,8.7,0,8.7,9v22.5h-21.7v12.9h-79.4v-5c0-14.1,0.2-28.2-0.1-42.3c-0.1-4.4,1-6.4,5.7-5.8c2.2,0.1,4.4,0.1,6.5,0
	c0-8.6,0.2-17-0.1-25.2c-0.1-4,1-5.5,5.2-5.3c6,0.3,11.9,0.1,17.9,0.1l0.4-1.2c-0.6-0.5-1.2-1.4-2-1.5c-1.4-0.2-2.8-0.2-4.2-0.1
	c-48.2,0-96.4-0.3-144.7,0.2c-16.2,0.2-31.9-2.4-47.6-5.3c-23.4-4.3-46.9-8.4-70.3-12.7c-2.7-0.5-5.4-1.4-7.8-2.6
	c-45.7-23.3-91.4-46.6-137.1-69.9c-1.6-0.9-3.5-1.5-5.4-1.6c2.9,5.1,9.2,5.6,13.4,9.5c-5.5,11-11.1,22.1-16.9,33.2
	c-0.4,0.8-2.9,1.3-3.9,0.9c-3.3-1.3-6.3-3.2-9.5-4.7c-0.9-0.4-2.2-0.1-3.4-0.1l-0.2,1.4c3.9,2,7.9,3.8,11.6,6.1
	c1,0.6,2.1,2.9,1.7,3.7c-8.1,16.3-16.4,32.5-24.9,49.1c-3.5-1.7-6.7-3.5-10-4.9c-1.7-0.6-3.5-1-5.2-1.3c1.3,1.2,2.4,2.8,3.8,3.7
	c3.1,1.9,6.5,3.5,10,5.3l-38.6,75.8l-14.5-7.1l-1.1,1.1c0.9,0.9,1.6,2.2,2.7,2.7c13.1,6.8,26.3,13.5,39.5,20.3
	c2.1,1,4.1,2.2,6.2,3.1c0.8,0.3,1.8,0,2.8-0.1l0.2-1.4l-22-11.5c5-10,10-19.9,15.1-30.1l-11-5.8c18.4-36.2,36.6-72.1,55.1-108.4
	l11.1,5.4l15.5-30l78.5,40.1l-14.8,29.4l38.2,19.6c3.2-6.3,6.4-12.4,9.5-18.5c5.6-11,5.6-10.8,17.7-8.6
	c28.7,5.3,57.5,10.4,86.2,15.6c1.5,0.3,3,0.8,4.5,1.1c0.2,4.2-2.7,2.5-4.4,2.5c-4.7-0.2-8.1,1.7-9.7,6.2c-1.5,4.2-0.1,7.6,3.2,10.3
	c1.2,1,2.6,1.7,4.1,1.9c7.6,0.9,15.3,1.7,23,2.2c7,0.4,6.9-1.1,6.9,7.2c0,32.7,0,65.3,0,98c0,2-0.2,4-0.3,6.3
	c-22.3,1.8-42.6-6.9-64.5-9.5c-0.1,2.2-0.2,4.4-0.3,6.6l1.5,0.2l1.8-3.5c12.5,2.5,24.8,5.1,37.2,7.5c3.5,0.7,4.8,1.8,3.8,5.9
	c-2.1,8.2-3.5,16.5-5.2,25.1c-5.7,0.6-10.8,2.4-11.6,9c-0.6,5.2,2.5,8.3,7,11c-1.3-0.1-2.6-0.1-4,0c-0.8,0.2-1.5,0.6-2.1,1
	c0.5,0.6,1,1.5,1.6,1.6c5.3,1,10.6,2.7,15.9,2.8c20.2,0.3,40.5,0.2,60.7,0.1c1.3-0.1,2.7-0.3,4-0.6l-0.1-1.6c-1.3-0.2-2.7-0.4-4-0.5
	c-7.6,0-15.2-0.2-22.7,0c-3.5,0.1-4.6-1.1-4.5-4.5c0.1-14.9,0-29.7,0-44.6v-5.1l-10.2-1.7l-0.1,0.1h12.3v54.7h30.1v5.7h-5.3
	c-19.3,0-38.7,0.3-58-0.2c-7.2-0.2-14.4-2.2-22.5-3.5c2.5-4.2,2.4-7.4,1-11.2c-1.9-5.1,1.2-11.4,6.3-12.2c5.6-0.8,5.7-4.4,6.5-8.2
	c0.2-1,0.4-2.1,0.6-3.2c1.2-5.8,2.3-11.6,3.5-17.7c-7.2-1.5-13.5-3.5-20-4.1c-7.3-0.7-14.5-6.8-22.2-1.1c-0.5,0.4-3.1-0.7-3.1-1
	c0.1-2.4,0.5-4.8,1.3-7.1c0.3-0.7,2.4-1.3,3.5-1c11.1,2.2,22.2,4.6,33.3,7c8.9,1.9,17.7,3.9,27.1,2.4v-108c-4.1,0-8-0.5-11.7,0.1
	c-6.7,1.1-12.4-2.4-18.5-3.5c-4.1-0.8-6.5-4.4-6.8-9c-0.4-7.2,4-10.5,11.2-12.2c-31.9-5.8-62.7-11.4-93.5-17
	c-2.8-0.5-4.4-0.1-5.8,2.8c-4.2,8.7-8.7,17.2-13.3,26.2l-40.8-20.8l14.8-29.4l-76-38.8c-5.2,10.1-10.3,19.9-15.4,29.9l-11.1-5.3
	l-53.9,105.9l10.9,5.9l-15.2,30.1l22.2,11.4l-2.5,4.9l-53-27.1c1.1-2,1.9-3.4,2.8-4.8l14.5,7.3c12.5-24.6,24.9-49,37.4-73.5
	l-14.5-7.5l2.5-4.8l14.6,7.3l24.9-49l-14.5-7.6l2.6-4.9l14.6,7.3l17-33.4l-14-7.6c0.8-4.8,2.7-5,6.4-3.1
	c46.2,23.8,92.4,47.4,138.6,71c1.9,1,3.9,1.7,6,2.1c24.9,4.6,49.9,9.2,74.9,13.7c9.7,1.7,19.4,4.5,29.1,4.6
	c53.9,0.5,107.9,0.2,161.8,0.3h5.8c-0.2,2.3-0.3,3.9-0.5,5.8h-22.6c0,7.6,0,14.9,0,22.1c0,8.9,0.9,8.1-7.8,8.1h-4.7V602h76.8v-12.8
	h21v-29h-17.8c-1-12.3-1.8-24-2.8-35.7h15.7v15.3l-8,0.4v14.7L944.2,554.8z"/>
<path d="M832.8,240.8c0.5,1,0.8,2.1,1,3.2c0.1,38.4,0.1,76.8,0,115.3c0,0.8-0.2,1.5-0.3,2.9h-89v6c0,21.4-0.1,42.8,0.1,64.1
	c0,4.1-1.1,5.5-5.2,5.2c-4.8-0.3-9.5-0.1-14.7-0.1c-0.2,3.2-0.3,6-0.5,9.4c-1.3-0.8-2.7-1.5-4.2-2.1c-4.1-1.3-8-1-11,2.5
	c-2.5,3-2.9,8.8-1,11.8c1.5,2.4,7.7,3.8,11,3c3.1-0.9,6.2-1.4,9.4-1.6c13.4-0.2,26.9-0.1,40.3-0.1c1.1,0.1,2.2,0.1,3.2-0.1
	c0.8-0.4,1.6-0.9,2.3-1.5c-0.8-0.5-1.7-1.3-2.5-1.3c-6-0.1-12.1-0.1-18.1-0.1h-5.9v-91.9h85.7v91.9h-14.5c-3.2,0-6.5-0.1-9.7,0.1
	c-1.1,0.1-2.1,1-3.1,1.6c1,0.4,2,1.3,3,1.3c6.3,0.1,12.7,0.1,19,0.1c8.5,0,17,0,25.5,0c1.5-0.1,3-0.4,4.4-0.7c0-0.6,0-1.1-0.1-1.7
	h-21c-0.1-2.5-0.3-4.2-0.3-5.8c0-68.8,0-137.6,0-206.3c0-6.1,0-6.1,6-6.1h94.7v217.7h-20.8c-3.4,0-6.8-0.1-10.2,0.1
	c-1.1,0.2-2.1,0.6-3.1,1.2c1,0.6,2.1,1.6,3.1,1.7c9.3,0.1,18.5,0.1,27.8,0.1c5.1,0,10.2,0,15.3,0c1-0.1,2.1-0.2,3.1-0.5l-2.8-12.5
	h-8.6v-152h9.5v-12.7l-9.6-0.5V273h52.8l0.3-1.9c-1.5-0.5-3-0.8-4.6-0.9c-14.5-0.1-29.1-0.2-43.6,0.1c-4.4,0.1-5.5-1.4-5.3-5.5
	c0.3-8.2,0.1-16.4,0.1-24.9h4.7c24.1,0,48.2,0,72.3,0c1.4,0.2,2.8,0.5,4.1,1h0.1h-79.5v28h52.7v5.6h-52.8v6.7c2.5,0,4.8-0.3,7,0.1
	c1.1,0.2,2.7,1.6,2.7,2.6c0.3,4.1,0.1,8.3,0.1,12.8l-9.8,0.5v149.3h8.8c1.4,5.5,2.6,10.3,3.8,15.3h-53.4v-5.5h34.6v-215h-97.7v215.2
	h20.7v5.3h-54.5v-5.6h27.5v-89.6h-83.6v89.9h26.2v5.6c-15.1,0-29.9-0.1-44.7,0.1c-3.8,0-7.5,1.2-11.3,1.5c-2.6,0.2-5.1-0.1-7.6-0.7
	c-2.8-0.7-5.4-2.1-8.1-2.9c-5.6-1.6-11.3-2.9-16.9-4.5c-0.8-0.2-1.5-1.1-2.3-1.7l0.6-1.3c3.4,0.7,6.8,1.4,10.1,2.2s7,1.8,10.6,2.7
	c-0.7-12.9,7.3-17.3,16.9-13.6c0.1-0.6,0.2-1.2,0.2-1.9c-0.8-4.9,1.1-6.6,6.1-6.1c4.7,0.5,9.4,0.1,14.5,0.1v-75.4h89.6
	c0-3.7,0-6.9,0-10.1C832.7,313.8,832.8,277.3,832.8,240.8L832.8,240.8z"/>
<path d="M377.5,253.8c1.1,0,2.4-0.2,3.3,0.2c2.6,1.1,5.2,2.5,8,4l9.9-19.2c11.1,5.6,21.9,11.1,32.7,16.6
	c15.4,7.8,30.7,15.7,46.1,23.5c5.5,2.8,5.5,2.8,2.6,8.4c-0.6,1.1-1.2,2.1-2,3.5l-22.5-11.4c-2.9,5.6-5.7,11.2-8.5,16.8
	c-5.2,10.2-5.2,10.2-15.4,5c-2.5-1.3-4.9-2.4-7.8-3.8c-4.5,8.9-9,17.6-13.9,27c50.9,25.9,102,51.8,153.2,77.8
	c0.3,0.1,1.1-0.8,2.3-1.7l-23.4-12.1c1.4-3.1,2.5-5.7,3.8-8.5l-4.5-2.4c-1.1,1.9-2.2,3.7-3.5,5.9l-76.3-39l3-6.4l-2.9-2.4
	c8.3-16.3,16.7-32.7,25-49c13.9-27.3,27.8-54.7,41.7-82.1c1.3-2.6,2.5-4.1,5.4-2.4c1.4-2.6,2.8-5.1,4-7.6c0.8-1.7,2.9-3.6-0.4-5.2
	c-0.3-0.1-0.3-1.8,0.1-2.5c2.2-4.4,3.5-9.9,6.9-12.9c6.3-5.6,11.8-12.7,20.7-14.9c8.3-2,16.3-1.4,23.9,2.4
	c15.8,8,31.6,16.1,47.3,24.2c0.6,0.4,1.3,0.8,1.8,1.3l-21.5,42.4l-0.9-0.9c-1.5,1.1-3.3,1.9-4.4,3.2c-1.2,1.8-2.2,3.7-3,5.7
	c-0.3,0.7-0.8,1.9-0.6,2c4.2,3.5,0.4,6.3-1,9c-16.6,32.9-33.3,65.8-50.3,99.2l4.8,2.6c4.2-8.2,8.3-16.1,12.5-24.3l6,2.6l2.4-4.4
	l-5.6-3.5l38.5-76.1c5.1,2.7,4.8-2.6,7.4-5.3l60.9,31c-14.2,28-28.1,55.4-42.4,83.5l-23.8-12c-0.9,1.5-1.6,2.8-2.7,4.7l28.8,14.8
	l45-88.4c6.3,3.2,12.3,6.1,18.2,9.3c0.8,0.6,1.2,1.6,1.1,2.6c-0.9,8.6,0.5,10.6,9,12.9c0.4,0.1,0.7,0.5,1.5,1.2
	c-4.2,8.3-8.3,16.6-12.6,24.9c-8,15.8-16.2,31.6-24,47.5c-1.9,3.9-3.7,5.2-7.5,2.5c-1.3-0.8-2.6-1.4-4-1.9
	c-2.2,4.8-4.1,9.2-6.2,13.5c-6,12-12.1,24-18.3,35.9c-0.8,1.2-1.7,2.4-2.7,3.5l0.1,0.1c0.4-1.4,0.9-2.8,1.5-4.2
	c7-13.9,14.2-27.8,21.1-41.7c1.4-2.8,2-6.1,3-9.3l9.9,4.5l37.9-74.6c-8.1-1.7-11.6-6.5-10.4-14.5c-0.1-1-0.7-1.9-1.6-2.3
	c-5-2.7-10.1-5.2-15.4-7.9l-45,88.4l-31.3-16c1.4-2.7,2.5-4.9,3.8-7.3l23.9,12.1c13.8-27.3,27.5-54,41.2-81l-58.7-30l-3.6,6.6
	c-3.4-3.1-4,0-5,2c-7.6,14.8-15.1,29.7-22.7,44.5c-4.4,8.6-8.7,17.3-13.2,26l5.7,3.4l-3.6,6.7l-6-2.4L561.8,352l-7.3-3.7l53.9-105.9
	l-3.2-1.9c4.5-9.2,4.5-9.2,10.7-13.2c0.4-0.3,0.6-0.7,0.8-1.1c6.5-12.9,13-25.8,19.7-38.9c-15.8-8.1-31.3-15.9-46.7-23.8
	c-7.5-3.9-15.4-5.2-23.6-3.3c-9.3,2.2-14.9,9.6-21.3,15.7c-2.8,2.6-3.9,6.9-5.6,10.6c-0.3,0.7,0,1.8,0.2,2.7c0.2,1.4,0.9,3,0.5,4.2
	c-0.9,2.6-2.2,5.1-3.8,7.4c-1,1.4-2.8,2.2-4.2,3.3l-1.1-1L463.6,335l2.8,2.5l-2.9,6.5l73.9,37.7c3.9-6.7,4.8-6.8,10.2-1.7l-3.5,7.9
	l22.9,11.9l-2.7,4.9L408,324.9l15.4-29.3l17.9,9c4.7-9.2,9.2-17.9,13.8-26.9l22.7,11.5c1.2-2.5,2.1-4.6,3.2-7l-81.6-41.7l-9.9,19.3
	l-12-6.1L377.5,253.8z"/>
<path d="M642.7,424.7c-4.4,2.1-9.9,2.8-10.6,9.8c-6.1-3.1-11.5-6-17-8.6c-1-0.5-2.4-0.1-3.6-0.1c0,0.5-0.1,0.9-0.1,1.4
	c4.9,2.5,10,4.8,14.7,7.6c2.9,1.7,5.3,4.5,8.2,6.3c2.6,1.4,5.4,2.5,8.3,3.1c1.5,0.4,3.3-0.2,4.6-0.3c0.5-1.1,1-2.1,1.6-3.1
	c2.3-3.4,2.4-6.8,0.6-10.4c-0.6-1.3-0.8-2.7-0.3-4.1c8-16,16.2-31.9,24.3-47.9c0.2-0.4,0.5-0.8,0.8-1.2l5.8,2.8
	c2.7-5.2,5.4-10.3,8-15.5c11.6-22.8,23.1-45.7,34.8-68.5c2.3-4.5,3.7-8.6,1-13.5c-0.8-1.4,0.5-4,1-6.7l-3.6-2
	c-5.5,6.6-5.9,6.6-14,2.5c-26.7-13.7-53.5-27.3-80.3-40.9c-1.8-0.9-3.5-1.9-5.6-3c7.3-14.4,14.5-28.5,21.9-43.2
	c31.8,16.3,63.4,32.4,95.4,48.7c-1.6,3.4-3.1,6.4-4.7,9.8l5.4,3c1.1-11.5,8.8-11.1,17.2-10.9c24,0.4,47.9,0.1,71.8,0.2
	c1.6,0.2,3.1,0.5,4.6,1l0-0.1c-26,0-51.9,0.4-77.8,0c-7.3-0.1-12.5,0.9-14.6,8.7c-0.4,0.9-0.9,1.8-1.6,2.5l-6.9-3.8
	c1.7-3.5,3.2-6.5,4.7-9.7l-92.9-47.5L623,231.8c11.2,5.7,21.9,11.1,32.6,16.6c18.4,9.4,36.8,18.8,55.1,28.2c3.5,1.8,6.1,1.7,7.9-2.2
	c0.5-0.9,1.1-1.8,1.7-2.6l6.1,3.2c-0.5,3-1.8,5.7-1,7.4c2.1,4.6,1.4,8.5-0.8,12.8c-11.1,21.7-22.1,43.4-33.1,65.2
	c-3.6,7.1-7.3,14.1-10.9,21.2l-6.1-2.5c-8,15.8-15.9,31.4-23.7,46.9c-0.4,0.9-0.8,2.3-0.5,3c2.8,4.9,2,9.5-0.9,13.7l6.6,2.8
	l-0.4,1.2c-0.7,0.2-1.4,0.3-2.1,0.3c-4.2-0.3-8.5-0.2-12.5-1.1c-2.8-0.6-5.5-2.5-8-4.1c-2.3-1.5-4.2-3.9-6.6-5.3
	c-5.4-3.1-11.1-5.8-17-8.9c1.1-2,1.9-3.4,2.7-4.9l18.6,9.5c2.5-5.2,6-8.4,12-7.5L642.7,424.7z"/>
<path d="M748.5,653.4c-0.5-1-0.8-2.1-1-3.2c-0.1-31.9-0.1-63.8,0-95.7c0-0.7,0.2-1.5,0.3-2.6h11.8c0-8.3-0.1-16.1,0-23.9
	c0.1-9.2-1.5-8.3,8.4-8.3c27.2,0,54.4,0.1,81.5-0.1c4.4,0,5.4,1.5,5.4,5.6c-0.1,49.4-0.2,98.8-0.1,148.1c0,1.7-0.2,3.3-0.3,5.4
	h-12.4c0,8.6,0,16.7,0,24.9c-0.2,1.6-0.5,3.1-1,4.6l0,0.1v-31H853V521.7h-91.9v31.5h-12.8L748.5,653.4L748.5,653.4z"/>
<path d="M1022,240.7c0.5,0.8,0.8,1.8,1,2.7c0.1,7.7,0.1,15.5,0,23.2c-0.2,1.9-0.5,3.9-1,5.8c3.2,1.5,4,0.2,3.9-2.6
	c-0.1-8.4,0.1-16.7-0.1-25.1c-0.1-3.7,0.8-5.2,4.8-5.1c13.4,0.3,26.8,0.1,40.7,0.1c0.1,2.2,0.2,4,0.3,5.8c0,10.8,0,21.7,0,32.5
	c0,2,0.7,4.5-2.7,4.8c-0.4,0-1.2,1.8-1,2.6c0.8,3.7-2.8,8.8,3.3,10.8c0.2,0.1,0.3,0.8,0.3,1.3c0,13.7,0,27.5,0,41.5h-45.5v-32.4
	c-12.2-2.1-24.3,1.7-36-2.6V401l0.9,0.6c0.6-0.9,1.7-1.8,1.8-2.8c0.2-2,0.2-4,0.1-6c0-25.8,0-51.7,0-77.5v-5.7h29.8
	c0.1,1.1,0.3,2,0.3,2.8c0,19.8,0,39.6,0,59.5c-0.2,1.3-0.5,2.5-1,3.6l0.1,0.1v-64.8h-27.8c0,21,0,41.8,0.1,62.5c0,2,1.3,4.1,1.3,6.1
	c-0.1,3.5-1.1,6.9-1.3,10.3c-0.2,4.1-0.1,8.3-0.1,12.5h-5.4V301.9c1.8,0.2,4.4-0.1,4.6,0.5c1.6,3.8,4.6,2.1,7,2.3
	c2.9,0.2,5.9,0.1,8.8,0.1h18.3v33.1h42.6c0-11,0.2-21.7-0.1-32.3c-0.1-3.3,2.6-7.9-3.2-9.5c-0.3-0.1-0.3-1.7-0.3-2.6
	c-0.2-2.3-0.2-4.6,0.1-7c0.6-2.4,1.4-4.7,2.3-7l0.9,0.3v-38.6h-42.3v32.7h-6.3C1021.4,262.6,1021.7,251.6,1022,240.7L1022,240.7z"/>
<path d="M841.2,708.2c-2.6,0.3-5.2,0.9-7.8,1c-3.8,0.2-7.6,0-11.4,0c-0.1,0.5-0.3,0.9-0.4,1.4c0.9,0.5,1.9,1.3,2.8,1.3
	c22.1,0.1,44.2,0.1,66.3,0c1-0.2,1.9-0.5,2.7-1l-0.3-1.7h-10.2c-2.8,0-5.6-0.2-8.3,0c-3.8,0.4-4.8-1.3-4.7-4.9
	c0.2-8.3,0.1-16.7,0.1-25.6H858V607h100.7c0.1,1.7,0.2,3.2,0.2,4.7c0,17.3-0.1,34.7,0.1,52c0.1,4.2-1.3,5.3-5.3,5.1
	c-8.6-0.3-17.2-0.1-26.3-0.1c0,12,0,23.4,0,34.8c-0.2,1.6-0.5,3.1-1,4.6h0.1v-41H957v-59h-97.9v69.6h12.7v30.5H895
	c-0.2,2.1-0.3,3.6-0.4,5.2c-0.7,0.2-1.4,0.3-2.1,0.3c-23,0-46,0-69.1,0.1c-4.5,0-3.3-2.7-3.2-5.5h21L841.2,708.2z"/>
<path d="M114.6,246c-9.9-4.8-19.8-9.6-29.6-14.5c-5.2-2.6-10.3-5.3-15.8-8.1c6.5-12.9,12.8-25.4,19.1-37.9
	c12.6-24.7,25.2-49.5,37.8-74.2c6.1-12.1,15-20.9,28.3-24.9c13.8-4.2,26.4-0.9,39.1,6.4l-42.7,84.1l-6.5-2.4
	c-1.9,3.7-3.6,7.2-5.6,11l5.7,3.8c-5.5,10.9-10.9,21.6-16.3,32.3c-3.5,6.9-6.9,13.8-10.5,20.6c-0.9,1.4-1.9,2.7-3,3.9
	c6.4-13,12.9-25.9,19.3-38.9c2.9-5.9,5.9-11.7,8.9-17.5l-5.9-3.5l6.9-13.6l6.3,2.9c13.9-27.3,27.8-54.7,41.7-82
	c-11.8-6.8-23.7-9.4-36.6-5.8c-13.5,3.8-22.2,13.1-28.4,25.3c-12.7,25.2-25.6,50.3-38.3,75.4c-5.8,11.4-11.5,22.7-17.4,34.3
	c1.9,1.1,3.5,2.1,5.1,2.9c11.8,6,23.6,12,35.4,18C112.6,244.3,113.7,245.1,114.6,246z"/>
<path d="M1149,593.8c0-4.3-0.1-7.8,0.1-11.4c0-0.9,1.2-1.7,1.6-2.7s0.7-2.5,0.3-2.8c-4.5-3-1.6-5.2,0-6.7c-0.8-3-1.8-5.3-1.9-7.6
	c-0.2-7.7-0.1-15.4-0.1-23.5l9.8-0.5c0.2-3.2,0.3-6.2,0.5-9.5h12.4c0.1,1.5,0.3,3,0.3,4.5c0,18.4-0.1,36.8,0.1,55.2
	c0,4.1-1.2,5.4-5.3,5.2C1161,593.6,1155.3,593.8,1149,593.8z M1170,592v-61.9h-10v10h-10c0,7.4,0,14.5,0,21.6c0,2-1,4.4,2.1,5.4
	c0.5,0.2,0.7,4,0,4.4c-3,1.9-3,2.8,0.2,4.4c0.6,0.3,0.7,3.8,0.1,4.2c-5.3,3.4-1,7.9-2.5,11.8L1170,592z"/>
<path d="M716.5,706.9c1.5-0.9,2.5-1.5,3.5-2c5.8-3.2,7-9,3.5-14.6c-1.2-2-1.7-4.3-1.4-6.6c1.3-7.9,3.1-15.7,5-23.5
	c0.6-1.5,1.9-2.6,3.5-2.9c3.5-0.4,7.1-0.4,10.6,0c1.2,0.1,3.2,2,3.2,3.1c0.2,15.2,0.2,30.3,0,45.5c0,1.1-1.4,3.1-2.2,3.1
	c-7.7-0.1-15.4-0.5-23-0.8C718.5,708.2,717.9,707.6,716.5,706.9z M728.4,659.1c-1.8,8.7-3.6,17.1-5.1,25.6c-0.2,1.7,0.2,3.3,1.1,4.8
	c3.7,5.5,3.2,11-1.7,15.3c-0.8,0.7-1.7,1.4-3.5,2.9h23.3v-48.5L728.4,659.1z"/>
<path d="M1238.9,529h10.8c0.2,3.3,0.3,6.3,0.5,9.5l6.8,0.6c0.2,1.1,0.4,2.1,0.4,3.2c0,15.8,0,31.5,0.1,47.3c0,3.2-0.9,4.5-4.2,4.3
	c-3.7-0.2-7.4-0.1-11.1,0c-2.3,0-3.3-0.8-3.3-3.2C1239,570.2,1238.9,549.8,1238.9,529z M1255.4,592v-51.8l-6.9-0.5
	c-0.2-3.4-0.3-6.6-0.4-9.7h-7.7V592H1255.4z"/>
<path d="M375.3,84.8c-6.3,12.4-12.3,24.2-18.6,36.6l-30.3-15.5l18.6-36.6L375.3,84.8z M373.5,85.4l-28-14.2
	c-5.9,11.6-11.5,22.7-17.4,34.1l27.9,14.3L373.5,85.4z"/>
<path d="M606.8,494.8c-6.5,1.7-10.6,4.8-10.1,10.6c0.5,6.1,4.6,9.1,11.8,8.8l-6.1,12.1l-33.1-17c4.3-8.4,8.3-16.5,12.5-24.5
	c0.8-0.9,2.1-1.3,3.3-1C592,487.1,598.7,490.7,606.8,494.8z M583.5,484.5l-12.4,24.2l30.8,15.6l4-8.3c-5.6-1.4-9.6-4-10.5-9.6
	s2.3-9.2,7.1-12.2L583.5,484.5z"/>
<path d="M930.8,672H959v17.2c0,5.4,0,10.8,0,16.2c0,2.3-0.5,3.9-3.3,3.9c-8.2-0.1-16.3,0-24.9,0L930.8,672z M956.8,707.8v-34.6
	h-24.5v34.6H956.8z"/>
<path d="M130.9,248.5l-10.5-5.5l26.8-52.7l10.5,5.3C148.8,213.4,140,230.7,130.9,248.5z M147.9,192.1l-25.6,50.4l8.1,4.2l25.6-50.3
	L147.9,192.1z"/>
<path d="M413.9,323.1l11.1-21.8l38.5,19.6c-4.2,3.9-2.8,11.6-10.7,12l-4.3,7.9L413.9,323.1z M461.3,321.2l-35.7-18.1
	c-3.4,6.7-6.5,13-9.8,19.5l31.6,16.1c3.9-2,1.9-9.8,8.8-7.3L461.3,321.2z"/>
<path d="M1112.9,439.1V455h-15.3c-5.7,0-11.4-0.1-17.1,0c-3.2,0.1-3.9-1.8-3.3-4.1c1.1-3.9-3.3-10.7,2.5-11.5
	C1090.5,438.1,1101.5,439.1,1112.9,439.1z M1078.9,440.8v12.4h32.8v-12.4H1078.9z"/>
<path d="M178.6,168.6l-5.8-2.3c-4.5,8.8-9,17.5-13.8,26.7l-7.4-3.7c1-2.1,1.8-3.9,2.6-5.7c0.6-1.5,2.6-3,0-4.6
	c-0.4-0.2-0.3-1.8,0.1-2.5c5.5-10.8,11-21.6,16.7-32.7c4.9,2.4,9.4,4.6,13.8,7.1c0.9,0.9,1.3,2.1,1,3.3
	C183.7,158.9,181.1,163.6,178.6,168.6z M171.6,145.4c-5.1,10.1-10.2,19.8-15,29.5c-0.7,1.4-0.4,3.2-0.5,4.9l1.3,0.3
	c-1.3,2.7-2.6,5.5-4.1,8.5l5.2,2.5c4.7-9.1,9.1-17.8,13.7-26.6l5.9,2.2l7.2-14.3L171.6,145.4z"/>
<path d="M522.3,196c3.3,3,3,4.8-1.7,9.4l-15.3-7.8l18.7-36.7l16.2,8.1c-2.7,5.4-5.2,10.7-8,15.7c-0.5,0.9-2.7,0.8-4.7,1.3L522.3,196
	z M538.4,169.7l-13.8-7l-17.5,34.4l14.6,7.4c0.2-2.6,0.4-4.5,0.4-6.4c0-1.3-0.8-2.7-0.4-3.7c1-2.6,2.2-5.1,3.8-7.4
	c1.1-1.6,2.9-2.6,4.3-3.9l1.2,1.1C533.4,179.5,535.7,174.9,538.4,169.7L538.4,169.7z"/>
<path d="M234.3,59.2l-16.3-8.3c2.8-2.4,1-7.8,6.9-6.8c1.7,0.3,4.9-10.1,4.1-12.1c-0.3-1-0.2-2,0.3-2.9c1.9-4,4.2-7.9,6.1-12
	c1.1-2.5,2.5-2.7,4.7-1.4c3.4,1.9,6.9,3.4,10.2,5.4c0.9,0.6,1.9,2.9,1.5,3.7C246.1,36.1,240.3,47.3,234.3,59.2z M237.4,16
	c-2.1,4-3.9,7.4-5.6,10.8c-0.6,1.1-1.9,2.7-1.5,3.2c3.8,6-2.5,9.2-3.6,13.8c-0.2,0.8-1.3,2.1-1.6,2c-4.1-1.1-3.9,2.2-5.1,4.6l13.7,7
	L251.2,23L237.4,16z"/>
<path d="M1058.3,751.8v-26.5c0-10.2,0-10.2,10.3-9c0.4,0.1,0.8,0.3,1.2,0.5v35L1058.3,751.8z M1060.3,717.7v33h7.9v-33H1060.3z"/>
<path d="M476.9,293.6L464.4,318l-20-10.2l12.5-24.5L476.9,293.6z M446.2,307.3l17.7,8.9l11.2-22l-17.6-9L446.2,307.3z"/>
<path d="M103.3,276.8c2.6-5.1,4.7-9.5,7.1-13.8c0.6-1,2.2-1.4,3.3-2.1c0.5-0.3,1.3-0.4,1.4-0.7c1.4-4.3,6.9-7.6,3.9-14.2
	c3.1,1.6,6.3,3.1,9.3,4.8c0.4,0.2,0.4,1.8,0.1,2.4c-4.8,9.5-9.6,19-14.7,28.9L103.3,276.8z M113.3,280.3c5-9.9,9.7-19.1,14.5-28.6
	l-5-2.4c-4.4,4.2-3.6,11.3-10.7,14.1c-3.4,1.3-4.6,8.1-6.9,12.7L113.3,280.3z"/>
<path d="M748.5,708.5c-0.5-1.3-0.9-2.7-1.1-4.2c-0.1-14.2,0-28.5-0.1-42.7c0-3.4,0.9-4.5,4.4-4.6c3.7,0,4.3,1.6,4.2,4.8
	c-0.1,13.9,0,27.8-0.1,41.8c0,6-1.5,7-7.5,4.7l6-0.7v-48.4h-5.9L748.5,708.5z"/>
<path d="M854.5,709h-9.4c0-8.5-0.1-16.8,0.1-25.1c0-0.7,1.6-1.7,2.5-1.8c2.2-0.2,4.5-0.2,6.8-0.1V709z M852.9,707.8v-24.2H847v24.2
	L852.9,707.8z"/>
<path d="M725.2,539.2c-0.3-0.3-0.8-0.7-0.8-1c0-5.9,0-11.8,0-18.5c6.2,0,12.1-0.1,18.1,0.1c0.7,0,1.9,1.6,1.9,2.5
	c0.2,5.7,0.1,11.4,0.1,18.1l-19.4-1.4h17.5v-17.3h-16.3C725.9,527.9,725.6,533.5,725.2,539.2z"/>
<path d="M1037.8,547.4v-27.7c5.2,0,10.3-0.1,15.3,0.1c1.1,0.4,2,1.4,2.3,2.5c0.2,7.3,0.2,14.5,0,21.8c0,1.1-1.8,3-2.8,3.1
	C1047.8,547.6,1043,547.4,1037.8,547.4z M1054.2,545.6v-23.9h-15.2v23.9H1054.2z"/>
<path d="M1292.7,457.2h-18.4c0-6.7-0.1-13.3,0.1-19.9c0-0.8,1.8-2.2,2.8-2.2c5-0.2,10.1-0.1,15.5-0.1V457.2z M1276.3,437v19h15.3
	v-19H1276.3z"/>
<path d="M485,467.2l-8.5-4.2l13.9-27.4l8.5,4.1C494.3,448.9,489.8,457.8,485,467.2z M484.4,465.3l12.7-24.9l-6-3l-12.7,24.9
	L484.4,465.3z"/>
<path d="M1071.5,397.9h-21.7c0-5.6-0.1-11,0.2-16.3c0-0.8,2-2.2,3.1-2.2c5.1-0.3,10.2-0.3,15.3,0c1.1,0.1,2.9,1.8,2.9,2.8
	C1071.7,387.3,1071.5,392.4,1071.5,397.9z M1069.9,396.6v-15.2h-18.1v15.2H1069.9z"/>
<path d="M857.8,520c2-0.1,3.4-0.2,4.7-0.3c3.5-0.4,5,0.8,4.8,4.6c-0.3,6.5-0.2,13,0,19.4c0.1,3.3-1.7,3.9-4.3,3.7
	c-2.4-0.1-5.2,0.6-5.1-3.4C857.8,536.2,857.8,528.4,857.8,520z M865.2,545.5v-23.7h-6v23.7L865.2,545.5z"/>
<path d="M405.6,603.8c4.2-8.9,8.4-17.8,12.8-27.2l8.6,4.5c-4.4,8.7-8.6,17.2-13,25.5c-0.4,0.7-2.7,0.9-3.7,0.5
	C408.6,606.3,407.1,604.9,405.6,603.8l7.1,2.8l12.7-25l-6.1-2.9c-2.9,5.7-5.5,11.1-8.4,16.3C409.3,598,407.4,600.8,405.6,603.8z"/>
<path d="M1116.5,454.4v-7.1h28.7c1.7,7.3,1.3,7.7-5.5,7.7c-7.2,0-14.4,0-21.7-0.1C1117.5,454.8,1117,454.6,1116.5,454.4z
	 M1144.3,448.4h-26.4v4.8h26.4V448.4z"/>
<path d="M727.2,457.4v-16.7h17.2c0,4.9,0.1,9.7-0.1,14.4c-0.3,1.1-1.1,1.9-2.1,2.2C737.3,457.5,732.4,457.4,727.2,457.4z
	 M742.6,441.8h-13.7V456h13.7V441.8z"/>
<path d="M858.9,708.5c-0.4-0.6-1-1.2-1-1.8c-0.1-8,0-16,0-24.3h9.4c0,8.1,0.1,16.1-0.1,24.1c-0.1,3.3-3.2,3.9-8.4,1.9l6.6-0.7v-24.3
	h-6.4L858.9,708.5z"/>
<path d="M756.8,548.4h-9.4c0-8.9-0.2-17.7,0.1-26.4c0.1-3.8,3.6-2.2,5.5-2.1c1.3,0,3.6,1.6,3.7,2.5
	C756.9,530.8,756.8,539.3,756.8,548.4z M755,547.2v-25.6h-6.4v25.6H755z"/>
<path d="M387.7,253.9c-9.2-4-9.2-4-5-12.3c1.4-2.7,2.7-5.5,4.4-8.7l9,4.5L387.7,253.9z M380.4,248.9l6.6,3.4l7.3-14.3l-6.5-3.4
	L380.4,248.9z"/>
<path d="M940.5,603.1V594h18.2v9.1H940.5z M957,595.2h-15.4v6.8H957V595.2z"/>
<path class="st0" d="M841.2,708.3h-21c-0.1,2.8-1.3,5.5,3.2,5.5c23-0.1,46,0,69.1-0.1c0.7-0.1,1.4-0.2,2.1-0.3
	c0.1-1.6,0.3-3,0.4-5.2h-23.2v-30.5h-12.7v-69.6H957v59h-30.5v41.1c-0.9,0.8-2.7,1.6-2.6,2.2c0.1,1.1,1.3,3,2.1,3
	c11.6,0.2,23.2,0.3,34.8,0c0.8,0,2.3-2.8,2.3-4.3c0.2-15.2,0.1-30.4,0.1-45.5c0-45.7,0-91.4,0-137.1v-4.9h69.7v29.8h21.2V751h-5.1
	c-107,0-213.9,0-320.9-0.1c-11,0-22.1-1.9-33.1-3c-14.1-1.4-28.2-3.4-42.3-4.2c-15.8-0.9-30.4-6-45.2-10.6
	c-17.8-5.5-35.7-10.6-53.2-16.9c-10.3-3.7-20.2-9-30-14.1C417.9,647.9,311.4,593.5,205,539.1c-60.4-30.9-120.9-61.8-181.3-92.7
	c-1.2-0.6-2.4-1.3-4-2.1L37,410.4c6.2-1.2,6.5-7.1,9.1-11.2c0.6-0.9,0-2.6,0-3.9c-0.1-1.4,0.1-2.8,0.6-4.1
	c14.4-28.3,28.8-56.7,43.2-85c4.2-8.2,8.3-16.5,12.6-24.9l13.2,6.5l58.9-115.9l5.7,2.4l10-19.2l50.9,25.9l2.9-4.7L174,140.3l43.2-85
	l18.8,9.4l20.1-39.2l84.3,43.1c-21.1,41.5-42.1,82.7-63.2,124.3l-7.3-3.3c-0.8,1.6-1.5,3.1-2.2,4.5l11.2,7.8
	c15.6-30.7,31-60.9,46.5-91.5l32.9,16.6l20-39.1c47.2,24.1,94,48,141.1,72.1c-6.7,13.3-13.2,26.2-19.9,39.4l18.7,9.7l-34.7,68.2
	l-139.3-71.1c-2,3.9-4,7.7-6.2,12l4.8,2.6l4-7.1l35.8,18.3c-1,2.1-1.8,4-2.8,5.9c-8.2,16.2-16.4,32.5-24.8,48.6
	c-0.7,1.4-2.8,2.1-4,3.4c-1.1,1.3-2.2,2.7-3.1,4.2l33.8,17.4l2.8-4.8L358.1,293c4.1-8.1,8.1-16,12-24c2.5-5.1,4.9-10.2,7.3-15.3
	l12,6.1l9.9-19.3l81.6,41.7c-1.1,2.3-2.1,4.5-3.2,7L455,277.7c-4.6,9-9.1,17.8-13.8,26.9l-17.9-9l-15.4,29.3l156.2,79.8l2.7-4.9
	L544,387.9l3.5-7.9c-5.4-5.1-6.2-5-10.2,1.7L463.5,344l2.9-6.4l-2.8-2.6l67.1-132.1l1.1,1c1.4-1.1,3.2-1.9,4.2-3.3
	c1.6-2.3,2.8-4.8,3.8-7.4c0.4-1.2-0.3-2.8-0.5-4.2c-0.1-0.9-0.5-1.9-0.2-2.7c1.7-3.6,2.9-8,5.6-10.6c6.4-6.1,12-13.5,21.3-15.7
	c8.3-2,16.1-0.6,23.6,3.3c15.4,8,30.9,15.8,46.7,23.8c-6.6,13.1-13.2,26-19.7,38.9c-0.2,0.4-0.5,0.8-0.8,1.1
	c-6.1,4.1-6.1,4.1-10.7,13.2l3.2,1.9l-53.9,106l7.3,3.7l12.4-24.1l6,2.4l3.6-6.7l-5.7-3.4c4.4-8.7,8.8-17.4,13.2-26
	c7.5-14.9,15.1-29.7,22.7-44.5c1-2,1.6-5.1,5-2l3.7-6.6l58.7,30c-13.8,27-27.4,53.8-41.2,81l-23.9-12.1c-1.3,2.4-2.4,4.5-3.8,7.3
	l31.3,16l45-88.4c5.3,2.7,10.4,5.2,15.4,7.9c0.9,0.5,1.5,1.4,1.6,2.3c-1.2,8,2.3,12.7,10.4,14.5l-38,74.7l-9.9-4.5
	c-1,3.3-1.6,6.5-3,9.3c-6.9,14-14,27.8-21.1,41.7c-0.6,1.4-1.1,2.8-1.5,4.2c-6-0.9-9.5,2.3-12,7.5l-18.6-9.5
	c-0.8,1.5-1.6,2.9-2.7,4.9c5.9,3,11.5,5.8,17,8.9c2.4,1.4,4.3,3.7,6.6,5.3c2.5,1.6,5.1,3.5,8,4.1c4.1,0.9,8.3,0.8,12.5,1.1
	c0.7,0,1.4-0.1,2.1-0.3l0.4-1.2l-6.6-2.8c3-4.3,3.7-8.9,0.9-13.7c-0.4-0.7,0-2.1,0.5-3c7.8-15.6,15.7-31.1,23.7-46.9l6.1,2.5
	c3.6-7.1,7.3-14.1,10.9-21.2c11-21.7,22-43.5,33.1-65.2c2.2-4.3,2.9-8.1,0.8-12.8c-0.8-1.7,0.5-4.5,1-7.4l-6.1-3.2
	c-0.6,0.8-1.2,1.7-1.7,2.6c-1.8,3.9-4.4,4-7.9,2.2c-18.4-9.4-36.7-18.8-55.1-28.2c-10.7-5.5-21.4-10.9-32.6-16.6l20.8-40.9
	l92.9,47.5c-1.6,3.2-3,6.2-4.7,9.7l6.9,3.7c0.6-0.8,1.2-1.6,1.6-2.5c2-7.7,7.3-8.8,14.6-8.7c25.9,0.4,51.9,0.1,77.8,0
	c-0.1,36.5-0.1,73.1-0.2,109.6c0,3.2,0,6.5,0,10.1h-89.6v75.4c-5.1,0-9.9,0.4-14.5-0.1c-5-0.5-6.9,1.3-6.1,6.1c0,0.6,0,1.2-0.2,1.9
	c-9.6-3.7-17.6,0.7-16.9,13.6c-3.6-1-7.1-1.9-10.6-2.7s-6.7-1.5-10.1-2.2l-0.6,1.3c0.8,0.6,1.4,1.4,2.3,1.7
	c5.6,1.5,11.3,2.9,16.9,4.5c2.8,0.8,5.3,2.3,8.1,2.9c2.5,0.6,5.1,0.9,7.6,0.7c3.8-0.2,7.5-1.4,11.3-1.5c14.8-0.2,29.6-0.1,44.7-0.1
	v-5.5h-26.3v-89.9h83.6v89.6h-27.5v5.6h54.5v-5.3h-20.7V241.2h97.7v215h-34.6v5.5h53.4c-1.2-5-2.5-9.8-3.8-15.3h-8.8V297l9.8-0.5
	c0-4.5,0.2-8.7-0.1-12.8c-0.1-1-1.7-2.4-2.7-2.6c-2.2-0.4-4.5-0.1-7-0.1v-6.7h52.8v-5.6h-52.7v-28h79.5c-0.3,10.9-0.6,21.9-1,33.2
	h6.3v-32.7h42.3v38.6l-0.9-0.3c-1,2.3-1.7,4.6-2.3,7c-0.2,2.3-0.3,4.6-0.1,7c0,0.9,0,2.5,0.3,2.6c5.8,1.6,3.1,6.3,3.2,9.5
	c0.3,10.7,0.1,21.3,0.1,32.3h-42.6v-33.1h-18.3c-2.9,0-5.9,0.2-8.8-0.1c-2.4-0.2-5.5,1.5-7-2.3c-0.3-0.6-2.8-0.3-4.6-0.5v100.3h5.4
	c0-4.3-0.2-8.4,0.1-12.5c0.2-3.5,1.2-6.9,1.3-10.3c0.1-2-1.2-4.1-1.3-6.1c-0.1-20.7-0.1-41.5-0.1-62.5h27.8v64.7
	c-0.6,1.4-1.2,2.7-1.8,4.1c1.6,0.5,3.3,1.4,4.9,1.2c0.9-0.1,2.3-1.9,2.3-2.9c0.2-8.8,0.1-17.6,0.1-26.5v-7.2h42.2v30.8h-23.6v41.6
	c3.9,1.3,5.6,0.2,5.4-4c-0.2-3.2,0-6.4,0-9.9h18.4V456h-18.5c0-3.5-0.2-6.9,0-10.2c0.2-4-1.5-5-5.6-3.8v13.9h-51.7v-28.3l-5.7-0.3
	c0,7.3,0.2,14.4-0.1,21.4c-0.1,2.8,1.8,6.4-2.4,8.4c-0.6,0.3-0.1,2.8-0.1,4.7h158.1c0.2,3.5,0.3,6.6,0.5,10.1l5.3,0.3V462h10.3
	c0-5,0.9-9.8-0.4-14c-0.7-2.2-3.2-5.7-7.3-5.6c-11.4,0.1-22.8,0-34.7,0c-0.2-2.4-0.3-4.6-0.5-7.4h-38.5V298l1.2,0.3
	c0.8-2.2,1.9-4.3,2.2-6.5c0.2-2.5,0.3-4.9,0.1-7.4c0-0.9-0.1-2.5-0.4-2.6c-5.3-1.4-3.1-5.7-3.2-8.7c-0.2-10.5-0.1-21-0.1-31.3
	c0.6-0.4,0.8-0.7,1.1-0.7c13.9,0.2,27.8-0.1,41.6,0.7c15,0.9,25.8,13.7,26.7,28.8c0.1,2.5,0,5,0,7.4c0,0.8,0.1,2-0.3,2.2
	c-6.9,3.4-1.9,9.6-3.3,14.3c-0.2,0.5,0.1,1.6,0.4,1.7c5.4,1.3,3.2,5.6,3.2,8.6c0.1,33.6,0.1,67.2,0.1,100.8v5.9h8.3v-22.8l6.3-0.4
	v-7.9l-6.2-0.6V375c0-24.3,0-48.7,0-73c0-2.2-1-4.9,2.8-5.8c0.9-0.2,0.9-4.1,1.4-6.7h65v90.6h-19.5c-7.7,0-7.7,0-6.7,8h38.7
	c-1.3-2.2-2.3-3.8-3.1-5.5c-0.4-0.8-0.6-1.7-0.6-2.6c0-30,0-60.1,0-90.5h13.6c0.2,2.2,0.3,4.3,0.5,7h21v86.1l-7.1,0.4v5.2h13.5v-91
	c0-6.3,0-6.3-6.3-6.3h-5.2c0-0.4,0-0.9,0-1.3h91.3V456h-58v-24.6h-27.4v24.5h-6v-9.5h-15.6v15.4h107.2v62.3h-5.5
	c-40.2,0-80.4,0-120.6,0c-4,0-5.4,1.2-4.2,5.5h8.6v68h21.3V689l-6.9,0.8v14.9l6.9,0.7v45.3h-105.3v-45.3l9.8-0.6v-15.1l-9.8-0.5
	v-91.3h25.7V530l7.1-0.3v-5.3h-32.9v-9.7c-5.9-1.1-10.4,1.9-8.3,4.8c4.7,6.3,1.9,13,2.4,19.5c0.5,6.8,0.1,13.6,0.1,20.4
	c-0.1,0.4-0.2,0.8-0.3,1.2l-6.7,0.7v14.9l6.8,0.6v173.9h-69.9v-38.6h-13.8V573.9c1.4-1.8,3.2-3.1,3.3-4.5s-1.8-2.8-3.5-5.2v-42.5
	h32.4c0.2,2.3,0.4,4.6,0.6,6.8c5,1.1,5,1.1,5.8-6.9h13c0.1-2.1,0.2-3.7,0.3-5.6H924v5.2h32.8v33.7H944v-14.7l8-0.4v-15.3h-15.6
	c0.9,11.7,1.8,23.3,2.8,35.7h17.8v29h-21V602h-76.8v-50.2h4.7c8.7,0,7.8,0.8,7.8-8.1c0-7.3,0-14.5,0-22.1h22.5
	c0.2-2,0.3-3.5,0.5-5.8h-5.8c-54,0-107.9,0.2-161.8-0.3c-9.7-0.1-19.4-2.8-29.1-4.6c-25-4.5-49.9-9.1-74.9-13.7
	c-2.1-0.4-4.1-1.1-6-2.1c-46.2-23.6-92.4-47.3-138.6-71c-3.7-1.9-5.7-1.7-6.4,3.1l14,7.6l-17,33.4l-14.5-7.4l-2.6,4.9l14.5,7.6
	l-24.9,49l-14.6-7.3l-2.4,4.9l14.5,7.6c-12.5,24.6-24.9,49-37.4,73.5l-14.5-7.3c-0.8,1.4-1.6,2.8-2.8,4.8l53,27.1l2.5-4.9
	l-22.2-11.4l15.2-30.1l-10.9-5.9l53.9-105.9l11.1,5.3c5.1-10,10.2-19.8,15.4-29.9l76,38.8l-14.8,29.4l40.8,20.8
	c4.6-9,9.2-17.5,13.3-26.2c1.4-2.9,3-3.3,5.8-2.8c30.8,5.6,61.6,11.2,93.5,17c-7.2,1.7-11.6,5-11.2,12.2c0.3,4.5,2.6,8.2,6.8,9
	c6.2,1.2,11.8,4.7,18.5,3.5c3.7-0.6,7.6-0.1,11.7-0.1v108.1c-9.4,1.5-18.2-0.5-27.1-2.4c-11.1-2.4-22.2-4.8-33.3-7
	c-1.1-0.2-3.2,0.3-3.5,1c-0.8,2.3-1.2,4.7-1.3,7.1c0,0.3,2.6,1.4,3.1,1c7.7-5.7,14.9,0.4,22.2,1.1c6.5,0.6,12.9,2.6,20,4.1
	c-1.2,6.1-2.4,11.9-3.5,17.7c-0.2,1-0.4,2.1-0.6,3.2c-0.8,3.8-0.9,7.4-6.5,8.2c-5,0.7-8.2,7-6.3,12.2c1.4,3.8,1.6,7-1,11.2
	c8.1,1.3,15.3,3.3,22.5,3.5c19.3,0.5,38.6,0.2,58,0.2h5.3v-5.7h-30.1v-54.6h-12.3V553.2h12.8v-31.5H853v155.7h-11.8V708.3z
	 M368.6,468.9L312,440l5.3-11.1l-18.6-9.7c6.1-12,12-23.6,17.9-35.4l11.6,5.7c4.9-9.5,9.6-18.8,14.4-28.1l32.5,16.4l2.7-5
	L168.2,265.9c8.7-17.2,17.2-33.7,25.6-50.3l124.7,63.7l2.5-4.8l-3.8-2.8l10.4-20.7l-23.1-9.8l-3.7,6.4c-10.6-5.4-20.9-10.6-31-16
	c-1.7-1.1-3.2-2.4-4.5-4c-2.1-2.4-4.4-2.2-6,0.8c-1.9,3.5-3.7,7.1-5.8,11.1l-64.7-32.9c-0.9,2.2-2.3,4.4-1.9,4.8
	c2.9,2.8,0.2,4.9-0.8,6.9c-3.1,6.5-6.5,12.9-9.8,19.4c-4.3,8.5-8.6,17-13,25.6l-9.7-4.6c-30.1,59.3-60.1,118.1-89.8,176.6L193,501
	c0.9-1.8,1.6-3.3,2.5-5.1l-28.6-14.8c4.1-8,7.9-15.8,12-23.4c1.7-3.2,1.3-4.6-2.1-6.3c-9.8-4.7-19.4-9.9-29.5-15
	c5.3-8.5,7.3-18.5,16.7-24.9l-8.3-4.2l-27.5,54.1l-45.7-23.3l14.3-28.3l-10.9-5.8l55.7-109.7l11.1,5.4l14.5-28l45.5,23.3l-14.3,28.2
	l33.3,17.2L189.3,424l-4.4-1.2l-2.3,4.8c6.3,3.2,12.2,6.3,18.5,9.5l2.5-5.1l-9.2-5c19.1-37.6,38-74.7,56.9-112L326,353l-51.4,101.1
	c-4.9-2.5-9.4-4.5-13.5-7.1c-3.8-2.3-6.3-2.4-7.9,2.4c-0.9,2.1-1.9,4.1-3.1,6l-20.4-10.3l-2.7,5l39.2,20.2c-1.4,2.9-2.6,5.4-4,8.2
	l5,2.4c7.8-15.3,15.5-30.2,23.2-45.4L396,489.4c-8.2,16-16.1,31.6-24.1,47.4l-11.1-5.4l-8.4,16l-17.1-8.7c-4,7.8-7.8,15.2-11.6,22.6
	l-77.1-39.4c2.5-5,4.8-9.8,7.3-14.8l-4.8-2.6c-2.7,5.1-5.1,9.8-7.7,14.8l-19.9-10l-2.4,5l143,73l2.7-5l-7.6-4.1l37.4-73.4l7.7,3.7
	l2.4-4.8l-7.4-4.2l24.8-48.8l7.7,3.7l2.6-4.8l-7.5-4.2l16.9-33.2l7.9,3.5c0.9-1.9,1.6-3.3,2.4-5.1l-48.1-24.4l-2.5,5l6.8,3.9
	c-4.7,9.4-9.3,18.5-14.1,28l28.1,14.6l-14,27.5l-10.9-5.4l-4.2,7.6l-18.5-9.3L368.6,468.9z M463.3,639c17.3,8.9,34.3,17.1,50.9,26.3
	c12.3,6.8,25.3,10.5,38.9,13.2c40,8,79.8,16.4,119.7,24.7c4.6,1,5.1,0.5,4.8-4.7l-4.1-1.4c1-5.4,1.9-10.5,2.9-15.7l-5.2-0.8
	c-1.2,5.3-2.3,10.4-3.5,15.5l-125.7-26.1c4.2-8.3,7.9-15.6,11.8-23.4L533,636c8.2-16.1,16.4-32.1,24.5-48.1l5.2,2.2l2.3-4.8l-13.7-7
	l-2.5,4.6l3.5,2.5l-19.1,37.4l-14.1-7l-11.2,21.7l-18.7-9.3c-2.5,4.8-4.9,9.3-7.3,13.9l-16.1-8L463.3,639z M1103.8,572.3
	c1.7,2,2.6,4.1,3.6,4.1c4.9,0.2,9.8-0.1,14.7-0.3c0.3-3.9,0.5-7.9,0.8-11.8c0-0.5,0.2-1.1-0.1-1.4c-0.9-0.8-1.8-2.1-2.8-2.1
	c-1.2,0.1-2.4,0.8-3.1,1.8c-0.6,0.9-0.4,2.3-0.6,3.4h-17.5c-0.2-2.5-0.4-4.8-0.6-7.1h-5.5c0.2,4.6,0.4,8.8,0.7,13.4L1103.8,572.3z
	 M566.2,560c-3.3,2.1-2.2,9.2-8.6,5.9l-2.2,4.5l13.9,7l2.2-4.8l-4.7-3c1.2-2.6,2.3-4.9,3.5-7.4L566.2,560z"/>
<path class="st0" d="M114.6,246c-0.9-0.9-1.9-1.7-3-2.4c-11.8-6.1-23.6-12-35.4-18c-1.6-0.8-3.2-1.8-5.1-2.9
	c5.9-11.6,11.6-23,17.4-34.4c12.8-25.1,25.7-50.2,38.3-75.4c6.2-12.3,14.8-21.5,28.4-25.3c12.9-3.7,24.9-1,36.6,5.8
	c-13.9,27.3-27.8,54.7-41.7,82l-6.3-2.9l-6.9,13.6l5.9,3.5c-3,5.8-5.9,11.6-8.9,17.5c-6.5,12.9-12.9,25.9-19.3,38.9
	C105,265.6,114.6,246,114.6,246z"/>
<path class="st0" d="M1170,592h-20.1c1.5-3.9-2.8-8.4,2.5-11.8c0.7-0.4,0.6-3.9-0.1-4.2c-3.2-1.6-3.2-2.5-0.2-4.4
	c0.7-0.5,0.5-4.3,0-4.4c-3.1-1-2.1-3.5-2.1-5.4c-0.1-7.1,0-14.2,0-21.6h10.1v-10h10L1170,592z"/>
<path class="st0" d="M728.4,659.1h14.2v48.5h-23.3c1.8-1.5,2.7-2.1,3.5-2.9c4.9-4.3,5.4-9.8,1.7-15.3c-0.9-1.4-1.3-3.1-1.1-4.8
	C724.8,676.2,726.6,667.8,728.4,659.1z"/>
<path class="st0" d="M1255.4,592h-15v-61.9h7.7c0.1,3.1,0.3,6.2,0.4,9.7l6.9,0.5L1255.4,592z"/>
<path class="st0" d="M373.5,85.4l-17.4,34.2l-27.9-14.3c5.8-11.4,11.5-22.5,17.4-34.1L373.5,85.4z M349,109.6
	c2.5-4.9,4.7-9.3,7.2-14.1l-14-7.1c-2.2,4.2-4.3,7.8-5.9,11.6c-0.4,0.9,0.5,3.2,1.5,3.8C341.1,105.9,344.7,107.5,349,109.6z"/>
<path class="st0" d="M583.5,484.5l19,9.8c-4.9,3-8,6.6-7.1,12.2s4.9,8.2,10.5,9.6l-4,8.3l-30.8-15.6L583.5,484.5z"/>
<path class="st0" d="M956.9,707.8h-24.5v-34.6h24.5V707.8z M952.4,704.7c0-4.5,0.1-8.7-0.1-12.8c-0.3-1.2-1.2-2.1-2.3-2.5
	c-4.3-0.3-8.5-0.1-13-0.1v15.4H952.4z"/>
<path class="st0" d="M147.9,192.1l8.1,4.2l-25.6,50.3l-8.1-4.2L147.9,192.1z"/>
<path class="st0" d="M461.3,321.2l-5.1,10.1c-6.9-2.5-4.9,5.3-8.8,7.3l-31.6-16.1c3.3-6.5,6.4-12.8,9.8-19.5L461.3,321.2z"/>
<path class="st0" d="M1078.8,440.8h32.8v12.4h-32.8V440.8z"/>
<path class="st0" d="M171.6,145.4l13.7,7l-7.2,14.3l-5.9-2.2c-4.5,8.8-9,17.5-13.7,26.6l-5.2-2.5c1.5-3,2.8-5.7,4.1-8.5l-1.3-0.3
	c0.1-1.6-0.2-3.5,0.5-4.9C161.5,165.2,166.5,155.5,171.6,145.4z"/>
<path class="st0" d="M538.4,169.7c-2.6,5.2-5,9.8-7.3,14.5l-1.2-1.1c-1.5,1.3-3.3,2.3-4.3,3.9c-1.5,2.3-2.8,4.8-3.8,7.4
	c-0.4,1,0.4,2.5,0.4,3.7c0,1.9-0.2,3.7-0.4,6.4l-14.6-7.4l17.5-34.4L538.4,169.7z"/>
<path class="st0" d="M237.4,16l13.7,7l-17.4,34.4l-13.7-7c1.2-2.4,1-5.7,5.1-4.6c0.3,0.1,1.4-1.2,1.6-2c1.1-4.6,7.3-7.8,3.6-13.8
	c-0.4-0.5,0.9-2.1,1.5-3.2C233.6,23.4,235.3,20,237.4,16z"/>
<path class="st0" d="M1060.3,717.7h7.9v33h-7.9V717.7z"/>
<path class="st0" d="M446.2,307.3l11.3-22l17.6,9l-11.2,22L446.2,307.3z"/>
<path class="st0" d="M113.3,280.3l-8.2-4.1c2.3-4.6,3.6-11.4,6.9-12.7c7.1-2.8,6.3-9.9,10.7-14.1l5,2.4
	C123,261.2,118.3,270.4,113.3,280.3z"/>
<path class="st0" d="M748.5,708.5v-49.3h5.9v48.4l-6,0.7L748.5,708.5z"/>
<path class="st0" d="M852.9,707.8H847v-24.2h5.9L852.9,707.8z"/>
<path class="st0" d="M725.2,539.2c0.4-5.7,0.7-11.4,1.1-17.5h16.3v17.3h-17.5L725.2,539.2z"/>
<path class="st0" d="M1054.2,545.6H1039v-23.9h15.2V545.6z"/>
<path class="st0" d="M1276.3,437h15.3v19h-15.3V437z"/>
<path class="st0" d="M484.4,465.3l-6-3l12.7-24.9l6,3L484.4,465.3z"/>
<path class="st0" d="M1069.9,396.6h-18.1v-15.2h18.1V396.6z"/>
<path class="st0" d="M865.2,545.5h-6v-23.7h6V545.5z"/>
<path class="st0" d="M405.6,603.8c1.8-2.9,3.7-5.8,5.3-8.8c2.8-5.3,5.5-10.6,8.4-16.3l6.1,2.9l-12.7,25L405.6,603.8L405.6,603.8z"/>
<path class="st0" d="M1144.3,448.4v4.8h-26.4v-4.8H1144.3z"/>
<path class="st0" d="M742.6,441.8V456h-13.7v-14.2H742.6z"/>
<path class="st0" d="M858.9,708.5v-25.1h6.4v24.3l-6.6,0.7L858.9,708.5z"/>
<path class="st0" d="M755,547.2h-6.4v-25.6h6.4V547.2z"/>
<path class="st0" d="M380.4,248.9l7.4-14.2l6.5,3.4l-7.3,14.2L380.4,248.9z"/>
<path class="st0" d="M957,595.2v6.8h-15.4v-6.8L957,595.2z"/>
<path d="M368.6,468.9l5.9-10.8l18.5,9.3l4.3-7.5l10.9,5.4l14-27.5L394,423.2c4.8-9.5,9.4-18.6,14.1-28l-6.8-3.9l2.5-5l48.1,24.4
	c-0.8,1.8-1.5,3.2-2.4,5.1l-7.9-3.5l-16.9,33.2l7.5,4.2l-2.6,4.8l-7.7-3.7l-24.9,48.9l7.4,4.2l-2.4,4.8l-7.7-3.7l-37.4,73.4l7.6,4.1
	l-2.7,5l-143-73l2.4-5l19.9,10c2.6-4.9,5.1-9.7,7.7-14.8l4.8,2.6c-2.5,5-4.8,9.8-7.3,14.8l77.1,39.4c3.8-7.4,7.6-14.9,11.6-22.6
	l17.1,8.7l8.4-16l11.1,5.4c8-15.7,15.9-31.3,24.1-47.4l-105.6-53.9c-7.7,15.1-15.4,30-23.2,45.4l-5-2.4c1.4-2.8,2.6-5.4,4-8.2
	L227,450.2l2.7-5l20.3,10.3c1.2-1.9,2.2-3.9,3.1-6c1.6-4.8,4.1-4.7,7.9-2.4c4.1,2.5,8.6,4.5,13.5,7.1L326,353l-74.7-38.2
	c-19,37.3-37.8,74.5-56.9,112l9.2,5l-2.5,5.2c-6.2-3.2-12.2-6.3-18.5-9.5l2.3-4.8l4.4,1.2l42.5-83.5l-33.3-17.2l14.3-28.2
	l-45.5-23.3l-14.5,28l-11.1-5.4L85.9,404.1l10.9,5.8l-14.3,28.3l45.6,23.3l27.5-54.1l8.3,4.2c-9.4,6.4-11.4,16.4-16.7,24.9
	c10,5.2,19.6,10.3,29.5,15c3.4,1.6,3.8,3.1,2.1,6.3c-4.1,7.6-7.9,15.3-12,23.4l28.6,14.8c-0.9,1.8-1.6,3.3-2.5,5.1L63.7,435.2
	c29.8-58.6,59.7-117.4,89.8-176.6l9.7,4.6c4.4-8.6,8.7-17.1,13-25.6c3.3-6.4,6.7-12.8,9.8-19.4c1-2.1,3.7-4.1,0.8-6.9
	c-0.4-0.4,1-2.6,1.9-4.8l64.7,32.9c2.1-4,3.9-7.6,5.8-11.1c1.6-3.1,3.9-3.3,6-0.8c1.2,1.6,2.8,2.9,4.5,4c10.2,5.4,20.5,10.6,31,16
	l3.7-6.4l23.2,9.8l-10.4,20.7l3.8,2.8l-2.5,4.8l-124.7-63.7c-8.4,16.6-16.9,33.1-25.6,50.3L377.9,373l-2.7,5l-32.5-16.4
	c-4.8,9.3-9.5,18.5-14.4,28.1l-11.6-5.7c-6,11.7-11.9,23.4-17.9,35.4l18.6,9.7L312,440L368.6,468.9z M250.6,457.4
	c-6.4-3.3-12.2-6.3-18-9.1c-0.9-0.4-2.2-0.1-3.3-0.1v1.5l38.7,19.8l-3.8,8.4l1.5,1c1-1.1,2-2.3,2.8-3.6c4.9-9.5,9.6-19,14.4-28.4
	c2.2-4.4,4.5-8.7,6.9-13.3l108,55.2c-8.6,16.9-17,33.3-25.5,49.9l-11.1-5.4l-8.3,16l-17.2-8.7l-11.6,22.6l-79.6-40.7
	c2.7-5.3,5.1-10.1,7.5-14.8l-1.1-1c-0.9,0.7-2,1.3-2.6,2.2c-1.6,2.8-3.1,5.7-4.4,8.6c-1.2,2.9-2.7,3.6-5.6,2
	c-4.6-2.6-9.3-4.9-14-7.2c-0.8-0.4-2.1,0.1-3.2,0.2l0.1,1.3c46,23.5,91.9,47,137.9,70.4c0.9,0.4,2.1,0.1,3.2,0.2
	c-0.7-1-1.2-2.3-2.2-2.8c-3.4-1.6-4.8-3-2.6-7.2c11.5-22.2,22.7-44.5,34-66.9c0.7-1.4,1.6-2.8,2.5-4.5c2.3,1.1,4,2.1,5.8,2.8
	c0.6,0.2,1.6-0.2,2.3-0.4c-0.4-0.7-0.5-1.7-1.1-2.1c-1.7-1.2-3.6-2.1-5.8-3.3l25.8-50.8c3.4-0.3,5.7,4,9.7,1.2l-8-4.6l17.8-35
	c3.5-0.8,5.9,4.1,9.9,0.6l-11.7-6c-10.3-5.3-20.6-10.6-30.9-15.8c-1.2-0.6-2.8-0.5-4.2-0.7l-0.1,1.5l6.6,3.7l-14.2,28.1l28.2,14.6
	c-4,8-7.8,15.5-11.7,23.1c-4.3,8.4-2.7,7.5-10.5,3.6c-1.4-0.7-2.7-1.3-4.2-1.9c-1.4,2.5-2.6,4.8-4,7.4L375,460l-5.6,10.7
	c-1.4-0.6-2.4-0.9-3.4-1.4c-15.4-7.9-30.7-15.8-46.1-23.6c-3.1-1.6-8.1-2.9-8.7-5.2c-0.7-2.8,2.3-6.6,3.7-10c0.1-0.2,0-0.6,0-1.2
	l-18.1-9.4L316,382l11.7,5.6l14.3-28l32.7,16.5l1.1-1.6c-1.1-1-2.3-1.9-3.6-2.7c-65.6-33.5-131.1-67-196.7-100.5
	c-3-1.5-5.9-3.2-9-4.9l26.7-52.5c1.4,0.6,2.4,0.9,3.3,1.4c14.3,7.3,28.6,14.6,42.8,21.8c25.1,12.8,50.2,25.7,75.3,38.5
	c1.2,0.6,2.7,0.6,4.1,0.9l0.3-1.4l-3.5-3.1l10.8-21.7c-8.9,1-14.1-5.8-21.2-7.5l-3.9,6.7c-13.2-7.9-27.5-12.8-40-22
	c-1.8,3-3.4,6.2-4.8,9.4c-1.5,3.8-3.1,4.3-6.8,2.4c-18.6-9.7-37.3-19.1-56-28.6c-1.3-0.6-2.6-1-3.9-1.4c-0.5,3.1-0.3,5.2-1.1,6.8
	c-5.2,10.6-10.7,21.2-16.1,31.8c-2.9,5.7-5.8,11.4-8.8,17.2l-9.6-4.7c-0.6,1.1-1.1,1.8-1.5,2.6c-27.7,54.6-55.5,109.2-83.2,163.7
	c-1.3,2.5-3.8,5.4-3.2,7.4c0.5,1.8,4.4,2.8,6.8,4l60.1,30.7c18.8,9.6,37.6,19.2,56.4,28.8c1,0.5,2.5,0.2,3.8,0.3l0.1-1.4l-28.6-14.9
	c4.8-9.5,9.2-18.3,13.8-27.5l-33.2-17.2c3.3-6.6,6.4-13,9.7-19.2c1-1.8,1.1-4.9,4.5-4.1c0-0.9,0.4-2.3-0.1-2.7
	c-0.8-0.8-2.1-1-3.4-1.6c-9.1,18-18.2,35.8-27.4,53.9l-48.1-24.6l14.2-28.3l-10.9-5.8C103,367.2,122,329.9,141,292.6l11.1,5.4
	c4.9-9.5,9.5-18.6,14.4-28.1l48.1,24.6c-4.9,9.7-9.5,18.9-14.2,28.2l33.3,17.2l-43.6,85.8h-6.3c9.1,6.9,16.1,9.5,17.8,6.8l-9.1-5
	l58.3-114.6l77.2,39.4c-17.7,34.8-35.1,69.1-52.7,103.6l-18.7-9.5L250.6,457.4z"/>
<path d="M463.3,639l2.5-4.9l16.1,8c2.4-4.7,4.8-9.2,7.3-13.9l18.7,9.3l11.2-21.7l14.1,7l19.1-37.3l-3.5-2.5l2.5-4.6l13.7,7l-2.3,4.8
	l-5.2-2.2c-8.2,16-16.3,32-24.5,48.1l20.8,10.7c-3.9,7.8-7.7,15.2-11.8,23.4l125.7,26.1c1.2-5.2,2.3-10.2,3.5-15.5l5.2,0.8
	c-1,5.2-1.9,10.3-2.9,15.7l4.1,1.4c0.3,5.1-0.2,5.6-4.8,4.7c-39.9-8.3-79.8-16.6-119.7-24.7c-13.6-2.7-26.6-6.5-38.9-13.2
	C497.7,656.2,480.6,647.9,463.3,639z M556.9,586c0.8,0.5,1.7,0.8,2.6,1.1c1.1,0.1,2.1,0.1,3.2,0.1c-0.6-0.9-1-2-1.9-2.5
	c-2.4-1.4-4.8-2.7-7.4-3.8c-0.7-0.1-1.3-0.1-2,0c0.1,0.8,0,2.1,0.5,2.3c2.9,1.4,1.6,3.1,0.7,5c-5,9.7-9.9,19.5-14.9,29.3
	c-1.2,2.4-2.6,4.8-3.9,7.3l-14-7l-11.3,21.7l-18.6-9.4l-7.3,13.9l-16.2-7.9c-0.3,0.5-0.7,1-1,1.5c1.1,1,2.3,2,3.6,2.8
	c19.3,9.9,38.7,19.8,58,29.6c2.4,1.3,5,2.3,7.7,3c32.6,6.9,65.3,13.6,97.9,20.4c12.8,2.7,25.5,5.4,38.3,8c1.9,0.2,3.7,0.2,5.6,0
	v-1.6l-4.5-1.4c1-5.3,1.9-10.5,2.8-15.7l-1.4-0.5c-4.3,4.1-1.7,11.1-5.4,15.6l-128.2-26.5l12-23.8l-20.7-10.7L556.9,586z"/>
<path d="M1103.8,572.3h-10.4c-0.2-4.5-0.4-8.8-0.7-13.4h5.5c0.2,2.3,0.4,4.6,0.6,7.1h17.5c0.2-1.1,0-2.5,0.6-3.4
	c0.7-1,1.8-1.7,3.1-1.8c1,0,2,1.3,2.8,2.1c0.2,0.2,0.1,0.9,0.1,1.4c-0.2,3.9-0.5,7.9-0.8,11.8c-4.9,0.2-9.8,0.5-14.7,0.3
	C1106.4,576.4,1105.5,574.3,1103.8,572.3z M1094.6,569.7c4.1,3.1,11.2-3.1,12.4,5.2h13.8v-12.8c-1,0.5-2,0.7-2,0.9
	c0.4,6.1-4,4.9-7.5,5c-3.2,0-6.5-0.2-9.7,0s-4.8-1-4.6-4.5c0.1-1.3-0.6-2.7-0.9-4l-1.5,0.4L1094.6,569.7z"/>
<path d="M566.2,560l4.2,2.2c-1.2,2.5-2.3,4.8-3.5,7.4l4.7,3l-2.2,4.8l-13.9-7l2.2-4.5C563.9,569.1,562.9,562.1,566.2,560z
	 M562.7,568.1l-5,0.5c1.1,1.1,2.2,2.1,3.4,3.1c1,0.7,2.1,1.3,3.3,1.7c1.6,0.5,3.2,0.8,4.8,1.1c-1.1-1.2-2.2-2.4-3.2-3.7
	c-0.1-0.2-0.3-0.3-0.4-0.5c-0.5-3,4.2-5.4,1-9.4L562.7,568.1z"/>
<path d="M349,109.6c-4.3-2.1-7.9-3.8-11.3-5.8c-1-0.6-1.9-2.8-1.5-3.8c1.6-3.8,3.7-7.4,5.9-11.6l14,7.1
	C353.7,100.3,351.5,104.7,349,109.6z M354.3,96.2l-11.6-5.9c-2,4.1-3.9,7.8-5.8,11.6l11.5,5.8C350.4,103.8,352.2,100.2,354.3,96.2
	L354.3,96.2z"/>
<path d="M952.4,704.7h-15.5v-15.4c4.5,0,8.8-0.1,13,0.1c1.1,0.4,2,1.3,2.3,2.5C952.5,696,952.4,700.1,952.4,704.7z M937.9,703.3
	h12.5V691h-12.5V703.3z"/>
<path class="st0" d="M250.6,457.4l5.8-10.9l18.7,9.5c17.6-34.5,35-68.8,52.7-103.6l-77.2-39.4l-58.3,114.6l9.1,5
	c-1.7,2.6-8.7,0.1-17.8-6.8h6.3l43.6-85.8l-33.3-17.2c4.7-9.3,9.3-18.4,14.2-28.2l-48.1-24.6c-4.9,9.5-9.5,18.6-14.4,28.1l-11.1-5.4
	c-19,37.4-38,74.6-57.1,112.2l10.9,5.8l-14.2,28.3l48.1,24.5c9.2-18.1,18.3-36,27.4-53.9c1.3,0.6,2.6,0.8,3.4,1.6
	c0.5,0.5,0.1,1.8,0.1,2.7c-3.5-0.8-3.6,2.3-4.5,4.1c-3.3,6.2-6.4,12.6-9.7,19.2l33.2,17.2c-4.6,9.1-9,17.9-13.8,27.5l28.6,14.9
	l-0.1,1.4c-1.3-0.1-2.8,0.3-3.8-0.3c-18.9-9.5-37.7-19.1-56.4-28.8L73,438.2c-2.4-1.2-6.3-2.2-6.8-4c-0.6-2,2-4.9,3.2-7.4
	c27.8-54.6,55.5-109.2,83.3-163.8c0.4-0.8,0.9-1.6,1.5-2.6l9.6,4.7c2.9-5.8,5.9-11.5,8.8-17.2c5.4-10.6,10.8-21.1,16.1-31.8
	c0.8-1.6,0.6-3.8,1.1-6.8c1.3,0.4,2.7,0.8,3.9,1.4c18.7,9.5,37.4,18.9,56,28.6c3.7,1.9,5.3,1.5,6.8-2.4c1.4-3.2,3-6.4,4.8-9.4
	c12.5,9.2,26.7,14.2,40,22l3.9-6.7c7.1,1.7,12.3,8.4,21.2,7.5L315.6,272l3.5,3.1l-0.3,1.4c-1.4-0.3-2.9-0.3-4.1-0.9
	c-25.1-12.8-50.2-25.6-75.3-38.5c-14.3-7.3-28.5-14.6-42.8-21.8c-0.9-0.5-2-0.8-3.3-1.4l-26.7,52.5c3.2,1.7,6.1,3.4,9,4.9
	c65.6,33.5,131.2,67,196.8,100.5c1.3,0.8,2.5,1.7,3.6,2.7l-1.1,1.6L342,359.6l-14.3,28L316,382l-19.2,37.8l18.1,9.4
	c0,0.6,0.1,1,0,1.2c-1.4,3.4-4.5,7.1-3.7,10c0.6,2.4,5.6,3.6,8.7,5.2c15.3,7.9,30.7,15.8,46.1,23.6c0.9,0.5,2,0.8,3.4,1.4L375,460
	l18.6,9.4c1.4-2.6,2.7-4.9,4-7.4c1.5,0.7,2.9,1.3,4.2,1.9c7.8,3.8,6.2,4.8,10.5-3.6c3.9-7.5,7.7-15.1,11.7-23.1l-28.2-14.6
	l14.2-28.1l-6.6-3.7l0.1-1.5c1.4,0.2,3,0.1,4.2,0.7c10.3,5.2,20.6,10.5,30.9,15.8l11.7,6c-4,3.4-6.3-1.5-9.9-0.6l-17.8,35l8,4.6
	c-4,2.8-6.3-1.5-9.7-1.2l-25.8,50.8c2.1,1.2,4,2.1,5.8,3.3c0.6,0.4,0.7,1.4,1.1,2.1c-0.8,0.1-1.7,0.6-2.3,0.4
	c-1.8-0.7-3.6-1.7-5.8-2.8c-1,1.7-1.8,3.1-2.5,4.5c-11.4,22.4-22.5,44.7-34.1,66.9c-2.2,4.2-0.8,5.6,2.6,7.2c1,0.4,1.5,1.8,2.2,2.8
	c-1.1,0-2.3,0.3-3.2-0.2c-46-23.4-92-46.9-137.9-70.4l-0.1-1.3c1.1-0.1,2.4-0.6,3.2-0.2c4.7,2.3,9.4,4.6,14,7.2
	c2.9,1.7,4.4,0.9,5.6-2c1.3-3,2.8-5.9,4.4-8.6c0.5-0.9,1.7-1.5,2.6-2.2l1.1,1c-2.4,4.7-4.8,9.4-7.5,14.8l79.7,40.7l11.6-22.6
	l17.2,8.7l8.3-16l11.1,5.4c8.5-16.6,16.8-33,25.5-49.9l-108-55.2c-2.4,4.6-4.7,9-6.9,13.3c-4.8,9.5-9.6,19-14.4,28.4
	c-0.8,1.3-1.8,2.5-2.8,3.6l-1.5-1l3.8-8.4l-38.8-19.8v-1.5c1.1,0,2.4-0.4,3.3,0.1C238.4,451.1,244.2,454.1,250.6,457.4z
	 M174.9,455.4L144,439.8l-12.7,25l30.9,15.6L174.9,455.4z M217.2,295.8c-4.1,8.2-8.1,15.8-11.8,23.5c-0.4,0.8,0.6,2.9,1.6,3.4
	c8.4,4.5,16.9,8.8,25.4,13c0.9,0.5,3.1,0.3,3.4-0.3c4.2-7.8,8.1-15.7,12.2-23.8L217.2,295.8z M425.5,434.4c4.1-8,8.2-15.8,12-23.7
	c0.1-1.1-0.3-2.1-1.1-2.8c-7.7-4.1-15.5-8-23.5-12.2c-4.1,8-8,15.5-11.6,23.1c-0.4,0.9,0.4,3.3,1.3,3.8
	C410,426.6,417.5,430.4,425.5,434.4z M362.5,537l-13.7,29.2l-11.4-6.1c2.1-4.3,4-8.3,6-12.3l-6.1-3.1c-3.5,6.7-6.8,13.3-10.3,20
	l25.6,13.1l18.5-36.2L362.5,537z M78,437.4l13-25.5l-8.5-4.3c-4.4,8.7-8.6,17-12.9,25.5L78,437.4z M155.4,264.3
	c-4.5,8.9-8.6,17.1-12.9,25.6l8.4,4.2l12.9-25.6L155.4,264.3z M326.4,383.7c3.2-6.2,6.3-12,9.3-17.9c4.1-8,4.1-8-4.2-11.7
	c-0.2-0.1-0.6,0.1-1.3,0.2l-12.7,24.9L326.4,383.7z M312.5,271.3l8.8-17.2c-4.4-2.2-8.5-4.4-12.7-6.3c-1.2-0.3-2.4,0.1-3.3,1
	c-2.7,4.8-5,9.8-7.6,15L312.5,271.3z M300.1,252.2c-4-2.1-7.6-4-11.3-5.9c-8.8-4.5-8.9-4.5-13.2,4.5c-0.1,0.2,0,0.6,0.1,1.6l19.2,10
	L300.1,252.2z M273.8,458.6l-16.1-8.2c-1.1,2.2-2.4,4-2.9,6c-0.3,1,0.3,3.1,1.1,3.6c4.3,2.5,8.9,4.6,13.6,7
	C271,464,272.3,461.5,273.8,458.6z M399,486.1l8.3-15.8l-8.3-4.6l-8.2,16.2L399,486.1z M392.2,472c-4.4-2.3-8.6-4.2-12.5-6.5
	c-2.8-1.6-3.8-0.6-5.3,1.8c-2.4,3.8-1.8,6.1,2.4,7.5c1.4,0.6,2.8,1.3,4.1,2.1C388.5,480.8,388.5,480.8,392.2,472z M307.3,439.3
	c1.2-2.3,2.4-3.9,2.9-5.8c0.3-1.1-0.1-3.3-0.9-3.8c-4.4-2.5-9.1-4.7-13.9-7.1l-4.1,8.4L307.3,439.3z M256.9,242.9l6.6,3.1l4.8-9.6
	C261.8,231.8,261.8,231.8,256.9,242.9z"/>
<path class="st0" d="M556.9,586.1l-25.7,50.6l20.7,10.7l-12,23.8L668,697.8c3.7-4.5,1.1-11.5,5.4-15.6l1.4,0.5
	c-0.9,5.2-1.9,10.4-2.8,15.7l4.5,1.5v1.6c-1.9,0.2-3.7,0.2-5.6,0c-12.8-2.6-25.5-5.4-38.3-8c-32.6-6.9-65.3-13.6-97.9-20.4
	c-2.7-0.7-5.2-1.7-7.7-3c-19.4-9.8-38.7-19.7-58-29.7c-1.3-0.8-2.5-1.7-3.6-2.8c0.4-0.5,0.7-1,1-1.5l16.2,7.9l7.3-13.9l18.6,9.4
	l11.3-21.7l14,7c1.4-2.5,2.7-4.9,3.9-7.3c5-9.7,9.9-19.5,14.9-29.3c0.9-1.8,2.2-3.6-0.7-5c-0.4-0.2-0.3-1.5-0.5-2.3
	c0.7-0.1,1.3-0.1,2,0c2.5,1.1,5,2.4,7.4,3.8c0.8,0.5,1.3,1.7,1.9,2.5c-1.1,0.1-2.1,0-3.2-0.1C558.6,586.9,557.7,586.5,556.9,586.1z
	 M538.2,643.6l-0.6,0.9c0.2,0.4,0.4,0.8,0.6,1.2c3,3.7,3.3,7.5,0.7,11.5c-2.5,3.8-6.3,4.5-10.2,3.5c-4.3-1.2-6.5-4.3-6.6-8.9
	c-0.1-1.2-0.7-2.2-1.7-2.9c-8.8-4.7-17.7-9.3-26.7-13.7c-1.3-0.3-2.7,0.1-3.6,1.1c-1.5,2.1-2.7,4.5-3.6,6.9c-0.3,0.9,0.3,2.9,1,3.3
	c15,7.8,30.1,15.5,45.3,23.1c2,1,4.1,1.3,5.4-1.5c2.8-5.7,5.8-11.3,8.5-17c0.4-0.9,0.1-2.9-0.6-3.4
	C543.5,646.3,540.9,644.9,538.2,643.6z M511.3,640.8c3.2,1.6,6,2.9,8.6,4.4c2.1,1.2,3.3,0.8,4.3-1.4c2.6-5.4,5.4-10.6,8.4-16.3
	l-11.5-6C517.8,628,514.6,634.2,511.3,640.8L511.3,640.8z"/>
<path class="st0" d="M1094.6,569.7v-9.8l1.5-0.4c0.3,1.3,1,2.7,0.9,4c-0.3,3.5,1.2,4.7,4.6,4.5s6.5,0,9.7,0c3.5,0,7.9,1.1,7.5-5
	c0-0.2,1-0.5,2-0.9v12.8H1107C1105.8,566.6,1098.7,572.8,1094.6,569.7z"/>
<path class="st0" d="M562.7,568.1l3.9-7.2c3.2,4.1-1.5,6.5-1,9.4c0.1,0.2,0.2,0.4,0.4,0.5c1.1,1.2,2.2,2.4,3.2,3.7
	c-1.6-0.4-3.3-0.6-4.8-1.1c-1.2-0.4-2.3-0.9-3.3-1.7c-1.2-1-2.3-2-3.4-3.1L562.7,568.1z"/>
<path class="st0" d="M354.3,96.2c-2.1,4.1-3.9,7.6-5.9,11.6l-11.5-5.8c1.9-3.8,3.8-7.5,5.8-11.6L354.3,96.2z"/>
<path class="st0" d="M937.9,703.3V691h12.5v12.3L937.9,703.3z"/>
<path d="M174.9,455.4l-12.7,25l-30.9-15.6l12.7-25L174.9,455.4z M133.3,464.1l28.3,14.3l2.5-5.1l-14-7.3l7.2-14l14.2,7.1
	c0.3-1,0.8-2.1,1.1-3.3l-27.9-14.2C140.8,449.3,137.1,456.6,133.3,464.1z M157.8,453.9l-5.9,11.6l11.5,5.9c2-4,3.9-7.7,5.9-11.6
	L157.8,453.9z"/>
<path d="M217.2,295.8l30.8,15.7c-4.1,8.2-8.1,16.1-12.2,23.8c-0.3,0.6-2.5,0.8-3.4,0.3c-8.5-4.2-17-8.5-25.4-13
	c-0.9-0.5-1.9-2.6-1.6-3.4C209.1,311.6,213.1,304,217.2,295.8z M224.9,319.1l7.1-14.2l-14.3-7.1c-4,7.9-7.7,15.4-11.5,23.1
	l28.2,14.3l4.5-8.8L224.9,319.1z M226.7,318.5l11.5,5.9l5.9-11.6l-11.6-5.7C230.4,311.1,228.6,314.6,226.7,318.5L226.7,318.5z"/>
<path d="M425.5,434.4c-7.9-4-15.5-7.7-22.9-11.7c-0.9-0.5-1.8-2.9-1.3-3.8c3.6-7.6,7.6-15.1,11.6-23.1c8.1,4.1,15.8,8.1,23.5,12.2
	c0.8,0.7,1.2,1.7,1.1,2.8C433.6,418.5,429.6,426.3,425.5,434.4z M413.4,397.7l-11.7,23l23.2,11.8l11.7-23l-5-2.6
	c-0.8,1.4-1.5,2.6-2.1,3.8c-5.8,11-5.8,11.1-16.6,4.2c-1-1-1.5-2.4-1.3-3.8c1.5-3.7,3.5-7.2,5.4-10.8c0.1-0.2-0.1-0.5-0.1-1
	L413.4,397.7z M412,413.1l11.5,5.9l5.9-11.6l-11.6-5.9L412,413.1z"/>
<path d="M362.5,537l8.6,4.5l-18.5,36.2l-25.6-13.1c3.5-6.7,6.9-13.3,10.3-20l6.1,3.1c-2,4.1-3.9,8-6,12.3l11.4,6.1L362.5,537z
	 M337.8,546.5l-9,17.4l23.3,11.8c5.8-11.5,11.4-22.5,17.1-33.7l-6-3.2c-4.5,9.7-9,19.2-13.6,29.1l-14.2-7.3l6-12.3L337.8,546.5z"/>
<path d="M78,437.4l-8.4-4.3c4.3-8.6,8.5-16.9,12.9-25.5l8.5,4.3L78,437.4z M83.2,409.4l-11.7,23.2l5.9,2.8c4-7.8,7.7-15.1,11.7-22.8
	L83.2,409.4z"/>
<path d="M155.3,264.3l8.4,4.3l-12.9,25.6l-8.4-4.2C146.7,281.4,150.9,273.1,155.3,264.3z M156,266.2l-11.7,23.1l5.9,2.9l11.7-23
	L156,266.2z"/>
<path d="M326.4,383.7l-8.9-4.5l12.7-24.9c0.7-0.1,1.1-0.3,1.3-0.2c8.2,3.6,8.3,3.7,4.2,11.7C332.6,371.7,329.6,377.5,326.4,383.7z
	 M325.8,381.8c4-7.9,7.9-15.3,11.8-22.9l-6.5-3.2c-4,7.9-7.8,15.3-11.6,23L325.8,381.8z"/>
<path d="M312.5,271.3l-14.8-7.5c2.6-5.2,5-10.2,7.6-15c0.8-0.9,2.1-1.3,3.3-1c4.2,1.9,8.3,4.1,12.7,6.3L312.5,271.3z M311.9,269.4
	l7.5-14.7l-12.4-6.3c-2.6,5-5,9.7-7.5,14.7L311.9,269.4z"/>
<path d="M300.1,252.1l-5.1,10.3l-19.2-10c-0.1-1.1-0.2-1.4-0.1-1.6c4.3-9,4.4-9,13.2-4.5C292.5,248.1,296.1,250.1,300.1,252.1z
	 M298.3,252.6l-17.5-8.8l-4,7.8l17.5,8.9C295.7,257.8,296.9,255.5,298.3,252.6z"/>
<path d="M273.8,458.6c-1.5,2.9-2.8,5.5-4.3,8.4c-4.8-2.4-9.3-4.5-13.6-7c-0.8-0.5-1.4-2.5-1.1-3.6c0.5-2,1.8-3.8,3-6L273.8,458.6z
	 M255.4,458.2l13.6,6.9l2.8-6l-13.5-6.8C257.3,454.4,256.5,456,255.4,458.2z"/>
<path d="M399,486.1l-8.3-4.2l8.2-16.2l8.4,4.6L399,486.1z M398.4,484.3l6.9-13.7l-5.8-3.1c-2.3,4.6-4.6,8.9-6.9,13.5L398.4,484.3z"
	/>
<path d="M392.2,472c-3.7,8.8-3.7,8.8-11.3,4.9c-1.3-0.8-2.7-1.5-4.1-2.1c-4.2-1.5-4.8-3.7-2.4-7.5c1.5-2.4,2.5-3.5,5.3-1.8
	C383.6,467.8,387.8,469.7,392.2,472z M390.4,472.7l-13.5-6.9l-3,6l13.6,6.9L390.4,472.7z"/>
<path d="M307.3,439.2l-16-8.2l4.1-8.5c4.8,2.4,9.5,4.6,13.9,7.1c0.8,0.5,1.2,2.6,0.9,3.8C309.7,435.3,308.4,437,307.3,439.2z
	 M309.7,431.5l-13.7-7l-3,6l13.5,6.8L309.7,431.5z"/>
<path d="M256.9,242.9c5-11.1,5-11.1,11.4-6.5l-4.8,9.6L256.9,242.9z M262.9,244l3.8-7.4l-4.1-2c-1.4,2.6-2.6,5-3.9,7.6L262.9,244z"
	/>
<path d="M538.2,643.6c2.7,1.3,5.4,2.7,7.9,4.2c0.7,0.5,1,2.5,0.6,3.4c-2.7,5.7-5.8,11.3-8.5,17c-1.3,2.8-3.5,2.4-5.4,1.5
	c-15.1-7.6-30.2-15.3-45.2-23.1c-0.7-0.4-1.3-2.4-1-3.3c0.9-2.5,2.1-4.8,3.6-6.9c0.9-1,2.3-1.4,3.6-1.1c9,4.4,17.9,9,26.7,13.7
	c1,0.7,1.6,1.7,1.7,2.9c0.1,4.6,2.3,7.8,6.6,8.9c4,1.1,7.7,0.3,10.2-3.5c2.7-4,2.3-7.8-0.7-11.5c-0.3-0.4-0.5-0.8-0.6-1.2
	L538.2,643.6z M487.1,644.8l48.8,24.8l10.3-20.4l-4.8-2.5c0.1,0.8,0.1,1.2,0.2,1.6c1,7.9-2,12.8-8.5,14.1
	c-5.8,1.1-10.5-2.8-12.6-10.1c-0.3-1.3-1.1-2.3-2.2-3.1c-8.7-4.6-17.4-9-26.4-13.6L487.1,644.8z"/>
<path d="M511.3,640.8c3.3-6.6,6.5-12.8,9.8-19.3l11.5,6c-2.9,5.7-5.8,11-8.4,16.3c-1.1,2.2-2.2,2.6-4.3,1.4
	C517.3,643.7,514.5,642.5,511.3,640.8z M522.2,644.8l8.5-16.8l-9-4.7c-2.9,5.7-5.6,11.1-8.5,16.8L522.2,644.8z"/>
<path class="st0" d="M133.3,464.1c3.8-7.5,7.5-14.9,11.4-22.4l27.9,14.2c-0.4,1.1-0.8,2.3-1.1,3.3l-14.2-7.1l-7.2,14l14,7.3
	l-2.5,5.1L133.3,464.1z"/>
<path class="st0" d="M157.8,453.9l11.5,5.9c-2,3.9-3.9,7.6-5.9,11.6l-11.5-5.9L157.8,453.9z"/>
<path class="st0" d="M224.9,319.1l13.9,7.3l-4.5,8.8l-28.2-14.3c3.8-7.7,7.6-15.2,11.5-23.1l14.3,7.1L224.9,319.1z"/>
<path class="st0" d="M226.7,318.5c2-3.9,3.8-7.4,5.8-11.4l11.6,5.7l-5.9,11.6L226.7,318.5z"/>
<path class="st0" d="M413.4,397.7l3.3,1.7c0.1,0.5,0.2,0.8,0.1,1c-1.8,3.6-3.8,7.1-5.4,10.8c-0.2,1.4,0.2,2.8,1.3,3.8
	c10.8,6.9,10.9,6.8,16.6-4.2c0.6-1.2,1.3-2.4,2.1-3.8l5,2.6l-11.7,23l-23.2-11.8L413.4,397.7z"/>
<path class="st0" d="M412,413.1l5.8-11.6l11.6,5.9l-5.9,11.6L412,413.1z"/>
<path class="st0" d="M337.8,546.5l3.7,2l-6,12.3l14.2,7.2c4.6-9.9,9.1-19.4,13.6-29.1l6,3.2c-5.7,11.2-11.3,22.2-17.1,33.7
	l-23.2-11.9L337.8,546.5z"/>
<path class="st0" d="M83.2,409.4l5.8,3.2c-3.9,7.7-7.7,15-11.7,22.8l-5.9-2.8L83.2,409.4z"/>
<path class="st0" d="M156,266.2l5.9,3l-11.7,23l-5.9-2.9L156,266.2z"/>
<path class="st0" d="M325.8,381.8l-6.4-3.2c3.9-7.6,7.6-15.1,11.6-23l6.6,3.2C333.6,366.5,329.8,374,325.8,381.8z"/>
<path class="st0" d="M311.9,269.4l-12.5-6.4c2.6-5,5-9.6,7.5-14.7l12.4,6.3L311.9,269.4z"/>
<path class="st0" d="M298.3,252.6c-1.5,2.9-2.6,5.2-3.9,7.9l-17.5-8.9l4-7.8L298.3,252.6z"/>
<path class="st0" d="M255.4,458.2c1.1-2.2,1.9-3.8,2.9-5.8l13.5,6.8l-2.8,6L255.4,458.2z"/>
<path class="st0" d="M398.5,484.3l-5.8-3.3c2.3-4.6,4.6-8.9,6.9-13.5l5.8,3.1L398.5,484.3z"/>
<path class="st0" d="M390.4,472.6l-3,6l-13.6-6.9l3-6L390.4,472.6z"/>
<path class="st0" d="M309.7,431.5l-3.2,5.8l-13.5-6.8l3-6L309.7,431.5z"/>
<path class="st0" d="M262.8,244l-4.3-1.8c1.3-2.6,2.6-4.9,3.9-7.6l4.1,2L262.8,244z"/>
<path class="st0" d="M487.1,644.8l4.7-9.1c9,4.6,17.7,9,26.4,13.6c1.1,0.7,1.9,1.8,2.2,3.1c2,7.4,6.8,11.3,12.6,10.1
	c6.5-1.3,9.5-6.3,8.5-14.1c0-0.4-0.1-0.8-0.2-1.6l4.8,2.5l-10.3,20.4L487.1,644.8z"/>
<path class="st0" d="M522.2,644.8l-9-4.7c2.9-5.6,5.6-11.1,8.5-16.8l9,4.7L522.2,644.8z"/>
</svg>
