<?xml version="1.0" encoding="utf-8"?>
<!-- Generator: Adobe Illustrator 24.1.1, SVG Export Plug-In . SVG Version: 6.00 Build 0)  -->
<svg version="1.1" id="图层_1" xmlns="http://www.w3.org/2000/svg" xmlns:xlink="http://www.w3.org/1999/xlink" x="0px" y="0px"
	 viewBox="0 0 1366 764" style="enable-background:new 0 0 1366 764;" xml:space="preserve">
<style type="text/css">
	.st0{fill:#FFFFFF;}
</style>
<path class="st0" d="M0,308.1V0h1366v764H0V309.2c2.2,1,4.4,1.8,6.5,2.9c28.1,13.8,56.3,27.6,84.4,41.4
	c66.3,32.4,132.7,64.8,199.1,97.2c41.1,19.9,81.1,42.2,125.5,55.5c11.4,3.4,22.4,8,33.9,10.8c8.8,2.1,18.2,2.3,27.4,3.2
	c16.5,1.7,32.9,4.8,49.4,4.8c126.7,0.4,253.5,0.2,380.2,0.2h6.7V369.1h104.5v390.5H1358v-584h-163.5v-19.4h-51.4v19.4h-126v18.1
	h-182c-0.2-0.8-0.3-1.6-0.3-2.4c1.6-18.7-13-31.3-33.6-31.2c-86.5,0.5-173,0.2-259.6,0.1c-3.8,0-7.6-0.8-11-2.4
	c-34.5-16.7-68.8-33.6-103.3-50.4c-11.7-5.7-23.1-5.3-33.3,3.1c-2.5,2-4.1,1.1-6.2,0C337.6,86.1,287.3,61.5,237,36.9l-73.6-36
	l-29.4,55.2c-25.8-8.9-43.5,3.1-53,22.5c-9.6,19.7-20.4,38.7-30.7,58.1c-3.4,6.4-6.8,12.8-10.4,19.7l32.3,16
	c-12.8,24.1-25.3,47.7-37.9,71.3C23,265.2,11.5,286.7,0,308.1z"/>
<path d="M0,308.1c11.5-21.5,23-43,34.5-64.5c12.5-23.6,25-47.1,37.9-71.3l-32.3-16c3.6-6.9,7-13.3,10.4-19.7
	c10.3-19.3,21.1-38.4,30.7-58c9.4-19.5,27.2-31.4,53-22.5l29.3-55.2l73.6,36c50.3,24.6,100.6,49.2,150.9,73.8c2.2,1.1,3.8,2,6.2,0
	c10.2-8.4,21.6-8.8,33.3-3.1c34.4,16.8,68.8,33.7,103.3,50.4c3.4,1.6,7.2,2.4,11,2.4c86.5,0.1,173.1,0.4,259.6-0.1
	c20.6-0.1,35.1,12.5,33.6,31.2c0,0.8,0.1,1.6,0.3,2.4h182v-18.1h126v-19.4h51.4v19.4H1358v584h-340.5V369.1H913v156.1h-6.7
	c-126.8,0-253.5,0.2-380.2-0.2c-16.5-0.1-32.9-3.1-49.4-4.8c-9.1-1-18.5-1.1-27.4-3.2c-11.5-2.8-22.5-7.4-33.9-10.8
	c-44.3-13.3-84.4-35.5-125.5-55.5c-66.5-32.2-132.8-64.6-199.1-97.2c-28.2-13.8-56.3-27.6-84.4-41.4c-2.1-1-4.3-1.9-6.5-2.9V308.1z
	 M134.9,58c-1-0.1-1.9-0.3-2.8-0.6c-19.8-8.2-39.2,1.6-47.4,18.2c-5.8,11.6-12.1,23-18.2,34.5l-24.3,45.7l32.4,16L2.1,308.1
	c16.1,7.9,31.8,15.7,47.5,23.4c73.7,36.1,147.3,72.4,221.2,108.1c49,23.6,96.4,50.7,149.2,66.5c11.2,3.3,22.2,7.2,33.5,9.8
	c8.9,2,18.2,2.3,27.3,3.3c14.8,1.6,29.6,4.4,44.4,4.5c126.5,0.4,253.1,0.2,379.6,0.2h6v-149c0-7.2,0-7.2,7.7-7.2h100.2v390.7h337.3
	V177.5h-69.9c-29,0-57.9-0.1-86.9,0.1c-4.9,0-6.6-1.4-6.2-6.1s0.1-9.1,0.1-13.8h-48.5c0,4.8-0.3,9.3,0.1,13.6
	c0.5,5.1-1.7,6.2-6.7,6.2c-37.4-0.2-74.9-0.1-112.3-0.1h-7.2v17.7h-184c-1.5-6.7-1.9-13.3-4.6-18.9c-5.5-11.6-16.5-14.4-28.9-14.4
	c-86.7,0.1-173.4,0.1-260.1,0c-3.1,0.1-6.1-0.5-9-1.6c-18.1-8.6-36.1-17.5-54.1-26.3c-16.9-8.3-33.8-16.4-50.6-24.8
	c-11.6-5.8-22.7-5.6-32.7,3.1c-2.9,2.5-4.9,1-7.4-0.2l-197-96.3C181.5,11.6,172.9,7.4,164,3L134.9,58z"/>
<path class="st0" d="M134.9,58l29.2-55c8.9,4.3,17.5,8.5,26.1,12.7l197,96.3c2.4,1.2,4.5,2.7,7.4,0.2c10-8.7,21-8.9,32.7-3.1
	c16.8,8.3,33.7,16.5,50.6,24.8c18,8.8,36,17.7,54.1,26.3c2.9,1.2,5.9,1.7,9,1.6c86.8,0.1,173.5,0.1,260.1,0
	c12.4,0,23.4,2.9,28.9,14.4c2.7,5.6,3.1,12.2,4.6,18.9h184v-17.7h7.2c37.4,0,74.9-0.1,112.3,0.1c5,0,7.2-1.1,6.7-6.2
	c-0.4-4.4-0.1-8.8-0.1-13.6h48.5c0,4.7,0.3,9.2-0.1,13.8s1.3,6.1,6.2,6.1c29-0.2,57.9-0.1,86.9-0.1h69.9v580.8h-337.3V367.6H918.7
	c-7.7,0-7.7,0-7.7,7.2v149h-6c-126.5,0-253.1,0.2-379.7-0.2c-14.8,0-29.6-2.9-44.4-4.5c-9.1-1-18.5-1.3-27.3-3.3
	c-11.4-2.5-22.4-6.4-33.5-9.8c-52.8-15.8-100.2-42.9-149.2-66.5c-73.9-35.7-147.5-72-221.2-108.1C34,323.7,18.3,316,2.2,308.1
	l72.3-136.4l-32.4-16l24.3-45.6c6.1-11.5,12.4-22.8,18.2-34.5C92.8,59,112.2,49.3,132,57.4C132.9,57.7,133.9,57.9,134.9,58z
	 M825.7,310.1l0.2,0.2c-6.4-0.4-12.8-0.8-19.2-0.9c-0.7,0-1.9,2.1-1.8,3.2s1.5,2.6,2.4,2.6c6.3,0.2,12.7,0.1,20.1,0.1L825.7,310.1z
	 M758.2,263.4c-0.5,3.9-1,7.9-1.6,12.5c5.4,0,9.6,0.2,13.7-0.1c1.1-0.1,3-1.6,3.1-2.7c0.4-3.4,0.1-6.9,0.1-11.4l-15.6,1.9
	L758.2,263.4z M844.5,410.4c0.4-1.2,1.2-2.5,1.2-3.7c0.1-12.2,0.1-24.4,0-36.5c0-1.5-1-4-2-4.3c-2.1-0.5-5.2-0.7-6.7,0.5
	s-1.4,4-2,6.3l-6.3,0.5c0,11.4,0,22.5,0,33.6c0,1.4,0.3,2.7,0.5,5.1l15.5-1.6L844.5,410.4z M906.6,410.4c0.3-0.4,1-0.7,1-1.1
	c0-12,0-23.9,0-36l-5-0.8c-0.8-7.4-1.2-7.8-8.4-6.2v45.6l12.6-1.7L906.6,410.4z M1100.4,678l-0.2-0.2c1.6,0.4,3.3,1.2,4.9,1.2
	c25.2,0.1,50.5,0.1,75.7,0c1.6,0,3.1-0.2,4.6-0.3v-13.5c-0.6-0.3-0.9-0.7-1.2-0.7c-27.3-0.1-54.5-0.1-81.8-0.2c-1.1,0-3,1-3,1.5
	C1099.6,669.9,1100,674,1100.4,678z M758.4,278.4c-0.7,2.5-1.3,5-2,7.5h-0.7v-23.1l-8-0.6c0-0.4,0-0.8,0-1.2h22.5
	c0.2-1,0.3-1.9,0.4-2.9c0-16.6,0-33.2,0-49.8c0-1-0.8-2.1-1.2-3.1c-1.8-0.5-3.6-0.9-5.5-1.1c-6.2-0.1-12.5-0.1-18.7-0.1
	c0-0.5,0-1,0-1.5h26.6c0.7-10.2,1.3-19.7,1.9-29.1c0-0.7-0.1-1.4,0-2.1c0.7-4.5-1-6.1-6-6.1c-25.5,0.2-50.9,0.1-76.4,0.1
	c-1.9,0-3.8,0.3-5.8,0.5v36.9h36.4v1.4h-22c-14.6,0-14.6,0-14.6,13.8c0,9.2,0,18.4,0,27.6V261h36v1.3c-10,0-19.9,0.2-29.8-0.1
	c-5-0.2-6.3,1.6-6.2,6.1c0.3,14.5,0.1,29,0.1,43.6c0,1.5,0.2,3,0.4,5.2h36.8c0,0.4,0,0.7,0,1.1H675c0.8-2.7,1.5-5.2,2.2-8
	c6.3,1.2,7.1-2.2,6.9-7.3c-0.3-10.6-0.1-21.3-0.1-31.9c0-8.7,0-8.7-8.8-8.7h-27.1v-1.8h36v-49.3c0-7.3,0-7.3-7.5-7.3h-32.3v-1.4
	h31.8v-36.9h-68.4c0,11.6-0.1,22.7,0.2,33.9c0,1.1,2.3,2.8,3.7,3.1c3,0.5,6.2,0.1,9.3,0.1c-2,1.3-4,1.3-6,1.3c-7.2,0-7.2,0-7.2,7.1
	c0,14.5,0,29,0,43.6v5.8l14,0.6c0,0.5,0,0.9,0,1.4c-3,0-6.1,0.1-9.1,0c-3.6-0.2-4.9,1.2-4.9,4.6c0.2,7.6,0,15.2,0,22.8v27.4h41.6
	c0,0.5,0,1,0,1.4h-6c-38.7,0-77.5,0-116.2,0c-3.3,0.1-6.5,0.4-9.7,1c-5.5,0.9-9.4-3.4-7.5-8.5c0.4-1.1,0.9-2.1,1.6-3.5l-41.5-9.5
	c-2.5,3.6-3.7,7-6.1,8.4c-3.4,1.9-6.1-0.8-8.8-3.3c-2.5-2.4-6.3-3.5-9.5-5.2c-1.5-0.8-3-1.7-4.5-2.5c2.4,0.2,4.8,0.9,6.9,2.1
	c2.1,1,4.2,2,6,2.9l14.6-12.7l0.9,0.8c-0.9,2.4-1.7,4.7-2.6,7.3c16.1,3.8,31.6,7.6,47.1,10.9c5.8,1.2,8.8,3.8,8,9.6h84.8
	c0-17.1,0.1-33.9-0.1-50.7c0-1.5-1.7-3-1.8-3.2c0.8-3.1,1.8-5.2,1.8-7.2c0.1-28.2,0.1-56.3,0.1-84.5c0-1.7-0.2-3.4-0.3-5.7h-7
	c-17.3,0-34.7,0-52,0c-6.4,0-13.8-2-16.3,7.5c-0.9-1.7-1.5-3.1-1-3.8c3-4.2,0.4-5.7-3.2-7.4c-10.4-4.9-20.6-10.1-31-15.1
	c-10.9-5.3-21.9-10.6-33.2-16.2c-5.5,10.4-10.8,20.4-16.2,30.6c20.2,9.9,39.7,19.4,59.2,28.9c4.6,2.3,9.3,6.1,14.3,0.5
	c0-0.1,0.6,0.3,0.1,0c4.4,10-1.5,17.4-5.6,25.1c-3.8,7-7.9,13.8-11.8,20.6l0.1,0.1c1.3-2.9,2.3-5.9,3.8-8.7c3.6-7,7.3-14,11.3-21.5
	c-6.3-0.9-9.2-3.5-8.3-9.1c0.1-0.7-0.8-1.9-1.6-2.3c-4-2.1-8-4-12.6-6.3l-32.6,61.2c-6.2-3-11.8-5.6-17.3-8.5
	c-1-0.5-1.4-1.9-2.1-2.9c1.3,0.1,2.8-0.1,3.9,0.4c4.6,2.1,9.1,4.4,14.1,6.8c10.5-19.9,20.7-39.1,31.1-58.5l-44.1-21.5
	c-2.8,2.3-6,3.8-7.3,6.3c-9.1,16.5-17.8,33.3-26.4,49.6l3.9,5.7l-6.3-1.3c-1.7,3.3-3.3,6.3-4.9,9.3c-3.3,6.1-3.3,6.1-6.4,5.6
	c0.6-1.3,1.2-2.6,1.8-3.8c11.3-21.4,22.7-42.8,33.9-64.2c1-2,0.5-4.6,1.4-6.7c1.1-2.5,2.4-4.8,4-7c0.6-0.9,2.5-1,2.9-1.9
	c5-9.1,9.8-18.4,14.9-28.1c-12.9-6.2-25.7-11.7-37.8-18.3c-13.2-7.2-37.4,8-35.3,22.4c0.3,1.9-2.1,4.3-3.7,6.2
	c-1.1,1.4-3.4,2.2-4.2,3.8c-6.9,12.6-13.6,25.4-20.4,38.1c-5.1,9.6-10.4,19.1-15.2,28.8c-4.6,9.3-12.2,17.5-11.4,29.4l53.5,26.2
	l5.5-2.7c-0.2,2.2-0.4,4.3-0.7,7l15.2,7.6c-0.8,0.6-2,0.7-2.9,0.2c-19.1-9.4-38.3-18.7-57.4-28.2c-9.1-4.5-18-9.3-27.1-13.9
	c1.4,0.1,3.5,0.9,4,0.3c4-4.1,7.6-8.4,11.9-13.3l-28.9-14l-8.3,15.2c3,1.7,6,3.3,8.9,5l12.6,7L283.2,219l0.7-1.4
	c2.3,0.9,4.5,2,6.6,3.1c3.5,2.3,5.5,1.3,7-2.2c1.9-4.2,4.2-8.2,6.5-12.5c3.3,1.6,6.5,3,9.5,4.6c2.8,1.6,4.2,0.9,5.5-1.8
	c2.5-5.1,5.3-10.1,8-15.1l16.5,7.7c11.2-21.1,22.1-41.6,33-62.2c0.4-0.8,0.3-1.9,0.5-2.9c0.6-2.5,0.8-6.6,2.2-7.1
	c6.4-2.2,5.8-8.2,9.6-12.7l-65.2-31.9c-6.2,11.7-12.1,23-18.3,34.3c-3.5,6.5-7.4,12.8-11,19.2l0.1,0.1c3.7-7.6,7.3-15.3,11.2-22.8
	c5.4-10.3,10.9-20.6,16.7-31.3l-66.3-32.4c-0.8,5.8-7.9,9-4,15.6c0.6,1-2.9,5.8-3.7,5.6c-4.2-1-4.1,2.3-5.1,4.1
	c-13.1,24.3-26,48.7-38.9,73c-0.9,1.5-1.9,2.8-3,4.1l0.1,0.1c0.6-2,1.4-3.9,2.3-5.8c12.7-24.1,25.5-48.1,38.2-72.2
	c0.8-1.5,1.7-4,1-5.2c-2.4-3.8,1.1-7.5,2.5-7.7c7.7-1.2,6.1-8.1,10-12L165.9,7.4L159,19.3l4.4,3.5l-3.8,6.7l-4.8-1.8l-52.2,92.8
	l6.7,3.8l-2.8,6.2l22.4,11.2l-0.6,1.1L97.7,128l35.9-67.9c-6.9-0.9-12.7-2.6-18.3-2.3c-13.3,0.8-22.1,8.2-28,19.4
	C77.7,96,67.7,114.4,57.9,133c-3.7,7-7.4,14.1-11.2,21.4c13.3,6.5,25.9,12.6,38.4,18.9c6.8,3.4,13.3,7.1,20,10.6l0.1-0.1l-21.9-9.4
	c-1.2,1.8-2.2,3.4-3.1,4.8l-4.8,0.5l-15.5,25.7l61.6,30.1l4.1-6.5l1,0.5l-4.4,7.9l-62.5-30.6l-17.5,33.2l61.2,29.9l7.7-14.1l1.2,0.6
	l-8.2,15.5l-62.6-30.6l-16.4,31c4.5,2.3,8.7,4.3,12.8,6.5c7.3,3.8,14.6,7.7,22,11.6l0.1-0.1l-30.8-13.7l-3.3,5.3l-5.1-1.4
	c-4.7,8.8-9.3,17.5-14.1,26.5l61.3,29.9l7.8-14.1l1.1,0.5c-2.4,4.6-4.8,9.3-7.4,14.3L175,389l7.8-14.1l1,0.5l-7.3,14.6l57.3,28
	l14.1-26.8l-6-3.7c1-2,1.8-3.8,2.7-5.7l-11-6.7l-0.1,0.1l18.4,7.6l9.4-15.1l-0.1-0.1c-0.4,1.5-0.9,3-1.5,4.4
	c-6.5,12.3-13,24.5-19.5,36.8c-1.6,3.1-3.2,6.2-4.9,9.6c1.9,1,3.3,1.8,4.7,2.5c12,5.9,23.9,11.7,35.9,17.5
	c50.5,24.5,99.8,51.5,154.2,67.8c6.8,2,13.5,4.6,20.4,5.9c10.5,1.8,21.1,3,31.7,3.9c18.9,1.7,37.7,4.1,56.6,4.5
	c33,0.7,66,0.2,99.1,0.2c38.6,0,77.1-0.1,115.7,0.1c4.6,0,6.3-1.3,6-5.8s-0.1-8.7-0.1-13.1c1,4.3,1.3,8.8,1,13.3
	c-0.3,4.1,1.2,5.6,5.6,5.6c18.5-0.2,36.9,0,55.3-0.1c1.5-0.2,3-0.5,4.4-1.1c0.4-0.8,1.2-1.7,1.2-2.5c0.1-11.1,0.1-22.1,0-33.2
	c0-0.8-0.8-1.7-1.2-2.5c-1.6-0.5-3.2-0.9-4.9-1.1c-9-0.1-18.1-0.1-27.1-0.1h-34v-14.3h0.8v12.3h66V444h-66.9v-16.4h0.9v14.2h66
	v-36.5h-66.9v-17.1c0.7,3.6,0.9,7.4,0.7,11.1c-0.2,3.4,1.2,4.7,4.8,4.7c19-0.1,38-0.1,57,0c3.6,0,4.9-1.2,4.8-4.7
	c-0.2-8,0-15.9,0-23.9c0-11,1.3-9.8-10.4-9.8c-18.9,0-37.9,0-56.8,0v-0.9h66.8c0.4-2.9,0.7-4.9,0.9-6.9l0.9,0.1
	c0.3,2,0.6,4.1,0.9,6.6h20.9c-0.9,1.9-2.3,3.5-2.5,5.2c-0.4,3.7-0.1,7.4-0.1,11.1v32.1h-18.4v65.3l6.1,1v6.1c-2.8,1.8-6.3,3-6.3,4.3
	c-0.5,10.2-0.3,20.4-0.3,30.5c0.7,0.3,1.4,0.5,2.2,0.6c24.2,0,48.3,0,72.5,0.1c3.4,0,4.5-1.5,4.4-4.5c-0.1-7.8-0.2-15.6,0-23.4
	c0.2-3.9-0.5-6.6-5.4-6.2v-7.4l5.1-1.2v-65.3h-15.2c0-14.2-0.2-27.6,0.1-41.1c0.1-4.2-0.9-6.7-5.6-6.9H1022
	c0.3,3.5,0.5,6.8,0.8,10.5h132c0,2.6,0.1,4.7-0.1,6.7c0,0.3-1.5,0.5-2.3,0.7c-1.9-1.7-3.8-3.4-5.6-5.2c-16.8-1.2-34.3-1.2-51.8-1.3
	c-4.2,0-8.8-0.9-8.7,5.6c-6.3-5.6-6.3-5.6-14.8-5.6h-48.7v101.8c1.2,0.1,2.1,0.3,3,0.3c41,0,81.9,0,122.8,0c1.3,0,2.5-0.8,3.8-1.1
	c0.4-1.8,1.1-3.5,1.2-5.3c0.1-19.5,0-39,0-58.4v-5.1h0.9v132.6h-103.8v-1.1h6c30.1,0,60.1-0.1,90.2,0.1c5.4,0,6.9-1.6,6.8-6.7
	c-0.3-13.8-0.1-27.6-0.1-41.4v-10.3c-6.3-0.6-12-1.5-17.7-1.5c-20.6-0.2-41.1-0.1-61.7-0.1h-51c-0.4,1.5-0.6,3-0.8,4.6
	c0,17.2-0.1,34.4,0.1,51.5c0,1.7,2.3,3.3,3.3,4.7c-3.3-0.6-3.6,1.9-3.5,5.2c0.1,9.2,0.3,18.4-0.1,27.6c-0.2,4.5,1.4,5.7,6,5.6
	c26-0.2,52-0.1,78-0.1h5.9c-9.7,1.2-19.5,1.9-29.3,2c-9.8,0.1-19.7-0.7-29.6-0.8c-10.1-0.2-20.2,0-31,0c0,7.2,0.1,13.7,0,20.2
	c0,3.1,2,3.2,4.4,3.2c8.1,0,16.2,0,24.3,0h24.6v1.2h-52.8v74.8h46.3v2.2c-15.3,1.4-30.8-0.1-46.3,0.8v72.6h70.9V749
	c0-17.2,0.2-34.3-0.1-51.5c-0.1-6,2.8-12.7-4.2-17.9l8.3-0.9v-73.9c1.3,17.3,1.3,34.7,1.4,52c0,1.8,0.8,3.5,1.2,5.3
	c1.4,0.4,2.9,1.1,4.4,1.1c14.3,0.1,28.7-0.1,43,0.1c4.7,0.1,6-1.5,5.9-5.8c-0.2-23.1-0.1-46.2-0.1-69.3c0-1.6-0.8-3.1-1.2-4.7
	l-13.2-4.6h14.6v-11.2h1.1v5.8c0,28,0.1,55.9-0.1,83.9c0,4.7,1.3,6.1,6.2,5.9c8.8-0.4,17.6-0.1,27-0.1v15.7l9.5,0.6l0.2,1.9
	c-1.8,0.5-3.6,0.8-5.4,0.9c-29.5,0.1-59,0.2-88.5-0.1c-5.5,0-6.7,1.7-6.7,6.6c0.3,20.2,0.3,40.4,0,60.5c-0.1,4.8,1.2,6.3,6.4,6.3
	c39.1-0.2,78.2-0.1,117.3-0.1h7v-6.4c0-16.6,0.3-33.3-0.1-49.9c-0.2-6.5,2.8-13.7-3.9-19.7h8.2c-0.3,3.2-0.8,6-0.8,8.8
	c-0.1,20.4,0.1,40.7-0.1,61.1c-0.1,4.8,1.3,6.3,6.5,6.3c36.7-0.2,73.4-0.1,110.1-0.1c1.6,0,3.2-0.1,5.2-0.2V682h-94.5
	c0.4-4.7,1-8.8,1-12.8c0.2-8.3,0-16.6,0-25V629h1.5v5c0,12.8,0,25.5,0.1,38.2c0,1.6,0.8,3.1,1.2,4.7c1.6,0.4,3.3,1.1,4.9,1.1
	c27.1,0.1,54.2,0.1,81.3,0c1.4,0,2.8-0.2,4.3-0.3V577c-18.8,0-37,0-55.3,0c-3.8,0-8-0.8-8.3,4.8c-0.8,0.3-1.6,0.4-2.4,0.5
	c0.5-5.2-2.7-5.5-6.6-5.3c-5,0.2-10,0.1-14.9,0c-2.9,0-4.6,0.9-4.4,4c0,1.2-0.1,2.4-0.3,3.5h-0.8c-0.3-2.4-0.6-4.8-0.9-7.5
	c-10.9,0-21.4-0.1-31.9,0.1c-1.3,0-2.6,1.8-3.7,2.8c-0.6,0.5-0.8,2-1.2,2c-5.4,0-4.3,3.8-4.3,6.8c-0.2,3.5-0.2,7.1,0.1,10.6
	c0.2,2.2,1.4,4.3,2.3,6.7c-3.5,1.4-3.4-1.3-3.4-4.2c0-23.9,0-47.8,0-71.7c0-1,0.1-2,0.3-3c0.8,14.2,1,28.3,0.7,42.4
	c-0.1,4.8,1.2,6.5,6.4,6.4c41.1-0.2,82.3-0.2,123.4,0c4.6,0,5.9-1.3,5.9-5.7c-0.2-26.7-0.2-53.5,0-80.2c0-4.3-1.1-5.8-5.8-5.7
	c-27.1,0.2-54.2,0.1-81.3,0.1c-14.2,0-28.4,0.2-42.6-0.1c-4.7-0.1-6.3,1.5-5.9,5.9c0.3,3.3,0.1,6.6,0.1,10h-0.8v-92h0.8v5.2
	c0,18.1-0.2,36.1,0.1,54.2c0.1,4-3.2,10,4.9,11.1c0.2,0,0.4,0.6,0.4,0.9c0,4.5,3.4,3.8,6.2,3.8c16.2,0,32.5,0,48.7,0
	c4.3,0,9,0.9,9.3-5.5c1,0.4,1.9,0.5,1.9,0.7c0,5.4,4,4.8,7.7,4.8c16.6,0,33.2,0,49.8,0h6V376.1h-6.4c-16,0-32.1,0.1-48.2-0.1
	c-4.3,0-8.4-0.5-9.3,5.1c-0.5,0-1,0-1.6,0c-1.3-2.4-3.3-4.9-5.4-4.9c-18.1-0.3-36.2-0.2-54.2-0.1c-1.3,0-3.8,0.8-3.8,1.2
	c-0.1,4.7-4.4,3.8-7,5.5v-8.5h135.9V180.6h-134.4c-59.6,0-119.2,0-178.8-0.1c-4.4,0-6,1.3-5.7,5.5c0.3,4.9,0.1,9.8,0.1,14.7
	c-1.9,0.1-3,0.3-4.1,0.3c-7.7,0-7.3-0.9-7.3,7.3c0,13.5,0,26.9,0,40.4c0,10,0,10,10.3,10.9c0.3,0,0.6,0.4,1.1,0.9
	c0,4.5,0.2,9.3-0.1,14.1c-0.2,3.9,1.3,5.4,5.4,5.2c15.8-0.9,31.7,1.7,47.7-1.8c0,7,0,13.9,0,20.8c0,6.6,0.1,13.2,0.1,19.5h-35
	c0-0.4,0-0.9,0-1.3h33.6c0-11.4,0.1-22-0.2-32.6c0-1.1-2.4-3.2-3.7-3.2c-18.6-0.2-37.3-0.2-55.9,0c-1.2,0-3.4,1.5-3.4,2.3
	c-0.2,11.1-0.2,22.2-0.2,33.2l7.7,1c0,0.3-0.1,0.6-0.2,0.9h-49.3v-7.7c0-35.4,0-70.8,0-106.3c0-3.1,0.3-5.8-4.6-5.8
	c-20.1,0.2-40.2,0.1-60.3,0.2c-1.6,0-3.3,1-4.9,1.5l0.2,1.7l8.9,1.4v96.5h15v18.4h-32.3v-7.6h8.2c0.2,2.2,0.4,3.9,0.6,5.9h6.3V268
	l-5.5-0.9l5.4-1.7v-61.5h-14.4c-0.8-1.7-1.5-3-2.1-4.3l-10.6-1.5v68.6h-23.6l-0.1-1.5c1.2-0.3,2.4-0.6,3.6-0.7
	c3.7-0.1,7.4-0.3,11.1,0c3.9,0.3,5.1-1.2,5.1-4.9c-0.1-18.8-0.2-37.5,0-56.3c0-4.2-1.7-5-5.6-4.9c-12.7,0.2-25.5,0.1-38.2,0.1
	c-6.2,0-9.3,2.4-9.3,8.4c-0.2,18.9-0.1,37.9-0.1,56.6l5.9,2.6l-6.5,2.4v14.9l-1.8,0.2c-0.5-1.7-0.8-3.5-0.9-5.3
	c-0.1-22.8,0-45.7-0.2-68.5c0-2.1-2-4.1-2.3-6.3c-0.2-2.7-0.1-5.4,0.3-8c0.2-1,1.8-1.8,1.9-2.8c0.6-9.7-2.2-21.2-14.3-25.6
	c-12.4-4.5-25.4-1.5-38.1-2.1c-1.5,9.3-0.6,23.4,1.6,32.1c0.4,1.9,0.3,3.9-0.1,5.8c-0.5,2.6-2,5.1-2,7.6c-0.2,28.3-0.1,56.7-0.1,85
	v6.3h27.3c1,5.5,1,5.5,6.3,5.5c5.2,0,10.3,0,15.5,0c9.4,0,10.9,1.7,9,10.8l-5.9,0.7c-0.3,2-0.6,3.8-1,5.6h-0.9
	c-0.2-1.8-0.3-3.6-0.5-6.1h-70.5v-10.3h0.7c0.2,2.7,0.3,5.5,0.5,8.5c4.5,0,8.5-0.1,12.5,0c3,0.1,3.8-1.3,3.7-3.9
	c-0.1-8.5,0-17,0-25.5v-10.8L758.4,278.4z M984.2,316.5h34.1V199.1h-34.1V316.5z M1168.5,177.5c2.9,0,5.9,0.1,8.8,0
	c14.7-0.3,12.5,2.9,12.8-12.8c0-3.3-1.4-4.3-4.6-4.3c-8.3,0.1-16.5-0.1-24.8,0c-14.8,0.3-12.5-2.7-12.8,12.8
	c-0.1,3.3,1.4,4.4,4.6,4.3C1157.8,177.4,1163.1,177.5,1168.5,177.5L1168.5,177.5z M677.9,180.5c0,3.9-0.2,7.8,0.1,11.6
	c0.1,1.2,1.8,2.3,2.8,3.4c1.1-1.1,3-2.3,3-3.4c0.3-8,0.3-15.9,0-23.9c0-1-1.7-2-2.7-3c-1.1,1-3.1,2-3.2,3.1
	C677.7,172.4,677.9,176.4,677.9,180.5L677.9,180.5z M776.9,303.9c0.1,2.3,0.1,4.6,0,6.8c-0.5,3.9,1.4,4.9,5.1,4.7
	c3.8-0.2,7.7,0,11.6,0c10.8,0,10.9,0,9.9-10.5c0-0.3-0.4-0.5-0.8-1L776.9,303.9z M318.4,213l15.1,7.3c3.1-5.9,5.9-11.2,9.1-17.3
	l-14.8-7.6L318.4,213z M1022.8,199.6c10,0.6,10,0.6,10-8.1v-3.2c0-8.4-0.3-8.6-10-7.2L1022.8,199.6z M933.1,316.6
	c3.7-13.9,1.5-16.7-12-15.7c-0.3,0-0.6,0.4-0.9,0.6v15.1H933.1z M1022.8,279.3c10,0.6,10,0.6,10-8v-3.2c0-8.4-0.2-8.6-10-7.3
	L1022.8,279.3z"/>
<path d="M317.8,235c9,4.6,18,9.4,27,13.9c19.1,9.5,38.3,18.8,57.4,28.2c0.9,0.5,2,0.4,2.9-0.2l-15.2-7.6c0.3-2.6,0.5-4.8,0.7-7
	l-5.5,2.7l-53.5-26.2c-0.8-11.9,6.9-20.1,11.4-29.4c4.8-9.7,10.1-19.2,15.2-28.8c6.8-12.7,13.5-25.5,20.4-38.1
	c0.8-1.5,3-2.3,4.2-3.8c1.5-1.9,3.9-4.3,3.7-6.2c-2-14.3,22.1-29.6,35.3-22.4c12.1,6.6,24.9,12.1,37.8,18.3
	c-5.1,9.7-9.9,19-14.9,28.1c-0.5,0.9-2.3,1-2.9,1.9c-1.6,2.2-2.9,4.5-4,7c-0.8,2.1-0.4,4.7-1.4,6.7c-11.2,21.5-22.6,42.8-33.9,64.2
	c-0.6,1.2-1.2,2.5-1.8,3.8c3.1,0.5,3.1,0.5,6.4-5.6c1.6-3,3.2-6,4.9-9.3l6.2,1.3l-3.9-5.6c8.6-16.4,17.3-33.1,26.4-49.6
	c1.4-2.5,4.5-4,7.3-6.3l44.1,21.5c-10.3,19.5-20.5,38.7-31.1,58.5c-5-2.4-9.5-4.7-14.1-6.8c-1.1-0.5-2.6-0.3-3.9-0.4
	c0.7,1,1.1,2.4,2.1,2.9c5.5,2.9,11.1,5.5,17.3,8.5l32.6-61.2c4.5,2.2,8.6,4.1,12.6,6.3c0.8,0.4,1.7,1.6,1.6,2.3
	c-0.9,5.6,2,8.2,8.3,9.1c-3.9,7.5-7.7,14.4-11.3,21.5c-1.4,2.8-2.5,5.8-3.8,8.7c-3.5,6.1-7.2,12.1-10.6,18.3
	c-3.4,6.1-3.4,6.3-10.2,3.3l-2.2,8.6l1.7,0.4l3.1-4.5h93.9v-1.3h-87.8l3.5-7.2c2.8-5.9,5.7-11.7,8.5-17.6c4-6.9,8.1-13.7,11.8-20.6
	c4.2-7.7,10-15.1,5.6-25.1c0.5,0.3,0-0.1-0.1,0c-5,5.6-9.6,1.8-14.3-0.5c-19.5-9.5-39-19-59.2-28.9c5.4-10.2,10.6-20.1,16.2-30.6
	c11.4,5.5,22.3,10.9,33.2,16.2c10.3,5.1,20.6,10.2,31,15.1c3.6,1.7,6.2,3.1,3.2,7.4c-0.5,0.7,0.1,2.1,1,3.8c2.6-9.5,10-7.4,16.3-7.5
	c17.3,0,34.7,0,52,0h7c0.1,2.3,0.3,4,0.3,5.7c0,28.2,0,56.3-0.1,84.5c0,2-1,4.1-1.8,7.2c0.1,0.2,1.8,1.7,1.8,3.2
	c0.2,16.8,0.1,33.5,0.1,50.7h-84.8c0.8-5.8-2.2-8.3-8-9.6c-15.5-3.3-31-7.1-47.1-10.9c0.9-2.6,1.8-4.9,2.6-7.3l-0.9-0.8l-14.6,12.7
	c-1.8-0.9-3.9-1.9-6-2.9c-2.1-1.2-4.5-1.9-6.9-2.1c1.5,0.8,3,1.7,4.5,2.5c3.2,1.7,7,2.9,9.5,5.2c2.7,2.5,5.4,5.3,8.8,3.3
	c2.5-1.4,3.7-4.9,6.1-8.4l41.5,9.5c-0.7,1.4-1.2,2.4-1.6,3.5c-1.8,5.1,2.1,9.4,7.5,8.5c3.2-0.6,6.5-0.9,9.7-1
	c38.7-0.1,77.5-0.1,116.2,0h6c0-0.5,0-1,0-1.4h-41.5v-27.4c0-7.6,0.1-15.2,0-22.8c-0.1-3.4,1.2-4.9,4.9-4.6c3,0.2,6.1,0,9.1,0
	c0-0.5,0-0.9,0-1.4l-14-0.6v-5.8c0-14.5,0-29,0-43.6c0-7.1,0-7.1,7.2-7.1c2,0,4,0,6-1.3c-3.1,0-6.3,0.3-9.3-0.1
	c-1.4-0.2-3.7-2-3.7-3.1c-0.3-11.1-0.2-22.3-0.2-33.9h68.5v36.9h-31.8v1.4h32.3c7.5,0,7.5,0,7.5,7.3v49.3h-36v1.8h27.1
	c8.8,0,8.8,0,8.8,8.7c0,10.6-0.2,21.3,0.1,31.9c0.2,5.1-0.6,8.5-6.9,7.3c-0.8,2.8-1.5,5.3-2.2,8h47.3c0-0.4,0-0.7,0-1.1h-36.7
	c-0.2-2.2-0.4-3.7-0.4-5.2c0-14.5,0.1-29-0.1-43.6c-0.1-4.5,1.2-6.3,6.2-6.1c9.9,0.3,19.9,0.1,29.8,0.1V261h-36v-15.6
	c0-9.2,0-18.4,0-27.6c0-13.8,0-13.8,14.6-13.8h21.9v-1.4h-36.3v-36.9c2-0.2,3.9-0.5,5.8-0.5c25.5,0,50.9,0.1,76.4-0.1
	c5-0.1,6.7,1.6,6,6.1c-0.1,0.7,0,1.4,0,2.1c-0.6,9.5-1.2,19-1.9,29.1h-26.6c0,0.5,0,1,0,1.5c6.2,0,12.5-0.1,18.7,0.1
	c1.9,0.2,3.7,0.6,5.5,1.1l0.1-0.1h-27.6c0-1,0.1-2,0.2-2.9c9-0.7,18-1.3,28.2-2l1.9-33h-84.7v33.5c1.3,0.1,2.2,0.2,3.1,0.2
	c10,0,19.9-0.1,29.9,0.1c1.4,0,2.7,1.4,4,2.2c-1.4,0.8-2.7,2.1-4.1,2.1c-5.2,0.3-10.3,0.1-15.5,0.1h-17.5v53.8h6.3
	c8.8,0,17.7,0,26.6,0c3.4,0,3.4,0.2,3,4.5h-35.8v51.8h5.8c9,0,18.1,0.1,27.1,0c3.6,0,4.6,1.1,3,4.1h-50.4c1-3.8,2-7.3,3-11.2
	l5.8-0.5v-44.4H646c-1.6-4.4,1.1-4.3,3.8-4.3c10.6,0,21.3,0,31.9,0v-53.6c-2.1-0.1-3.9-0.2-5.7-0.2c-9.8,0-19.6,0.1-29.3-0.1
	c-1.8,0-3.5-1.4-5.3-2.1c1.7-0.8,3.4-2.2,5.1-2.3c9.3-0.2,18.7-0.1,28.2-0.1v-33.6H610V200c4.5,2.7,11.2-2,14.4,3.3l-0.4,2.1h-14
	v53.2c13.9,2.1,13.9,2.1,13.5,5.1H610v51.8h13c8.3,0,16.6-0.1,24.9,0.1c1.1,0,2.1,1.2,3.2,1.9c-1,0.9-2.1,1.7-3.3,2.3
	c-1.1,0.4-2.5,0.1-3.8,0.1c-38.4,0-76.8,0-115.1,0c-3.8,0.1-7.7,0.5-11.4,1.2c-6,0.9-10.1-2.5-9.7-8.4c0.1-1.3,0.2-2.7,0.4-4.1
	l-36.4-8.4c-3.3,3.4-5.3,6.6-8.2,8c-1.9,0.9-5.4-0.7-7.8-1.9c-2.9-1.4-5.2-3.8-7.9-5.4c-3.1-1.8-6.3-3.3-9.9-5
	c0.9-1.3,1.8-3,2.1-2.9c4.5,1.6,9,3.4,13.6,5.3l14.2-12.4l4,2l-2.8,7c15.2,3.5,29.8,6.9,44.4,10.1c6,1.3,10.8,3.4,10.6,10.1h80.7
	c0-14.8,0.1-29.1-0.1-43.4c0-3,1.8-6.8-2.3-9c-0.4-0.2,0-2,0.3-2.9c0.6-2.2,2-4.3,2-6.4c0.2-26.9,0.1-53.8,0.1-80.7v-5.8h-6.5
	c-17,0-33.9,0.1-50.9,0c-6.4,0-13.3-1.4-14.7,7.9l-5.9-3.2l3.4-6.7l-66.8-32.6c-5.1,9.6-9.9,18.6-14.8,27.9
	c21.2,10.4,42,20.5,62.8,30.6c1.4,0.6,4.5,0.6,4.9-0.1c2.4-4.1,4.7-1.9,7.1-0.4c-0.3,1.8-0.5,3.5-0.7,5.2c-0.5,3.5,0,7.4-1.5,10.4
	c-7.6,15.1-15.8,29.9-23.7,44.8c-1.4,2.7-2.7,5.5-4.4,8.9h87.1c-0.2,1.9-0.3,3.3-0.4,4.4h-94.6l-3.1,4.9l-5-2.5
	c3.5-10.7,3.5-10.7,11.1-8l26.9-50.7c-5.2-1.9-8.1-4.6-7.3-9.8c0.1-0.8-1.1-2.1-2-2.6c-3.1-1.7-6.4-3.2-9.9-4.9l-32.6,61.2
	L440,240.2l3.2-5.4l17.3,8.2l29.5-55.7l-41.1-20.1c-2.7,2.1-5.8,3.4-7,5.6c-8.8,15.9-17.1,32-25.6,48c1.7,1.8,2.9,4,2.2,5.3
	s-3.3,1.7-5.1,2.5l-0.7-1l-8.8,16.3l-5.6-3c8.5-16,17.2-31.4,24.9-47.2c4.6-9.6,12.7-17.8,13.1-29.3c0.1-3.4,4.8-6.2,7-9.1
	c5.9-7.8,9.7-17.1,14.4-26c-11.9-5.8-23.1-11.5-34.6-16.7c-12.2-5.5-26.3-0.8-32.3,10.8c-2,3.8-1.9,8.6-3.9,12.3
	c-2.3,4.3-6.5,7.6-9,11.8c-5.8,10-10.9,20.4-16.3,30.6c-5.3,9.9-10.8,19.7-15.7,29.8c-4.7,9.7-12.7,18.2-12,30.4l52.2,25.5
	c2.5-5,5.1-3.7,7.8-0.9l-2.2,5.7c4.1,2,8,3.7,11.6,5.8c1.5,0.9,2.6,2.7,3.8,4c-2-0.1-4.3,0.3-6.1-0.3c-2.8-0.9-5.3-2.5-7.9-3.8
	c-36-17.6-72-35.3-108.1-52.9c-2.6-1.3-5.5-2.2-1.6-5.6l11,5.2c3.1-5.7,6.2-11.2,9.2-16.7l12.9,6.2c3.4-6.2,6.6-12.1,10-18.5l16,7.6
	c0.4-0.4,0.8-0.9,1.1-1.4c10.2-19.2,20.4-38.3,30.6-57.5c0.5-1,0.3-2.3,0.7-3.3c1.1-3.3,1.4-8.6,3.7-9.6c5.1-2.2,5.1-6.8,8.1-10.4
	L325,87c-0.8,0.6-1,0.7-1,0.8c-20.2,38-40.4,76-60.6,114.1c-1.1,2.2-1.1,5-1.8,8l-7.7-3.9c2.3-3.1,4.9-5.8,6.5-8.9
	c10.2-18.8,20.2-37.7,30.2-56.5c9.8-18.5,19.6-37.1,29.6-56l-63.1-30.8c-1.6,3.4-4.4,6.7-4.2,9.8c0.4,7,0.1,8.6-6.1,11.1
	c-0.7,0.5-1.3,1.2-1.6,2c-8.6,16.2-17.7,32.2-25.7,48.6c-7.7,15.9-20.1,29.9-21.2,48.7c1.6,0.8,3.4,1.7,5.2,2.6
	c9.8,4.8,19.6,9.7,29.5,14.4c3.3,1.6,3.4,3,0.7,5.3c-5.6-2.8-11-5.4-16.4-8.1c-17-8.3-34.1-16.6-51.1-24.9c-2.5-1.2-5.9-2.4-1.8-5.8
	l21.8,10.6c2.1-1.9,3.7-3.6,5.6-5.1c1-0.8,2.8-1,3.3-2c15.3-28.5,30.5-57.1,45.6-85.8c0.5-1.2,0.6-2.5,0.3-3.7
	c-0.7-2.3,1.6-10.4,3.6-10.3c7.4,0.3,4.8-6.4,9-9L166.2,9.3c-1.9,3.5-3.4,6.5-5,9.5l4.2,3.3l-5,9.5l-4.1-1.5
	c-7.7,12.5-15.6,24.4-22.5,36.8c-9.8,17.5-19,35.4-28.5,53.3l5.9,3.6c-0.9,2.1-1.7,4-2.6,6.1c6.7,3.3,13.3,6.4,19.7,9.8
	c1.1,0.6,1.6,2.2,2.4,3.3c-1.5,0.2-3.3,1-4.5,0.5c-3.9-1.5-7.6-3.5-11.4-5.4c-6.3-3.1-12.5-6.3-19.1-9.5l35-66.1
	C115.9,54.9,98.6,60.7,90,76c-5.3,9.5-10.2,19.2-15.3,28.8l-26,49l95,46.5l-2.3,3.9L84.2,176l-3.9,5.9l-5.1-2.4l0.1,0.1l4.8-0.5
	c0.9-1.4,2-3,3.1-4.8l21.9,9.4c1.4,1.1,2.8,2,4.3,2.9c8.6,4.3,17.3,8.5,25.9,12.8c1.8,0.9,3.6,1.9,5.4,2.9l0.8-1.5
	c-3.8-1.8-7.5-3.7-11.3-5.5c-8.4-3.9-16.8-7.7-25.2-11.5c-6.7-3.6-13.3-7.2-20-10.6C72.6,167,60,160.9,46.7,154.4
	c3.9-7.4,7.5-14.4,11.2-21.4c9.8-18.6,19.8-37,29.5-55.7c5.9-11.3,14.7-18.6,28-19.4c5.6-0.3,11.4,1.3,18.3,2.3L97.7,128l30.5,14.9
	l0.6-1.1l-22.4-11.1l2.8-6.2l-6.7-3.8l52.2-92.8l4.8,1.8l3.8-6.7l-4.4-3.5l6.9-11.9l89.6,43.8c-4,3.9-2.3,10.8-10,12
	c-1.3,0.2-4.9,3.8-2.5,7.7c0.7,1.2-0.2,3.6-1,5.2c-12.7,24.1-25.5,48.1-38.2,72.2c-0.9,1.9-1.6,3.8-2.3,5.8
	c-3.6,6.4-8.7,11.8-14.8,15.8l-22-10.6c7,4.7,14.3,8.8,22,12.2c5.2,2.5,10.6,4.6,15.9,6.9l30.3,16l1-1.8l-31.3-14.1l-6.4-4.6
	c0.7-1.9,2.6-5.1,2-5.5c-3.7-3.1-0.3-5.3,0.6-7.7c0.8-2.3,1.8-4.5,2.6-6.7c1.1-1.3,2.1-2.7,3.1-4.1c13-24.3,25.9-48.7,38.9-73
	c0.9-1.8,0.9-5.1,5.1-4.1c0.8,0.2,4.2-4.6,3.7-5.6c-3.9-6.6,3.2-9.8,4-15.6L322.4,84c-5.7,10.8-11.3,21-16.7,31.4
	c-3.9,7.5-7.5,15.2-11.2,22.8c-1.1,1.3-2.1,2.7-3,4.1c-10.1,19-20.1,38-30.3,56.9c-1,1.9-2.8,3.4-4.2,5c-0.4,0.4-0.7,0.7-1.1,1
	l3.9,1.9c0.5-2,1.2-3.9,2-5.8c8.8-16.6,17.6-33.2,26.4-49.9c2.3-4.4,4.2-8.9,6.3-13.3c3.7-6.4,7.5-12.7,11-19.2
	c6.1-11.2,12-22.5,18.3-34.3l65.1,31.9c-3.9,4.5-3.2,10.5-9.7,12.7c-1.4,0.5-1.5,4.6-2.2,7.1c-0.3,0.9-0.1,2.1-0.5,2.9
	c-10.9,20.6-21.8,41.1-33,62.2l-16.5-7.7c-2.7,5.1-5.5,10-8,15.1c-1.3,2.7-2.8,3.4-5.5,1.8c-3-1.7-6.1-3-9.5-4.6
	c-2.3,4.4-4.7,8.4-6.5,12.5c-1.6,3.6-3.5,4.5-7,2.2c-2.1-1.2-4.3-2.2-6.6-3.1l-0.7,1.4l34.9,16.2L317.8,235z"/>
<path d="M901.1,199.8c0.6,1.3,1.3,2.6,2.1,4.3h14.4v61.5l-5.4,1.7l5.5,0.9v48.5h-6.3c-0.2-2-0.4-3.7-0.6-5.9h-8.2v7.6h32.3v-18.4
	h-15v-96.5l-8.9-1.4l-0.2-1.7c1.6-0.5,3.3-1.5,4.9-1.5c20.1-0.1,40.2,0.1,60.3-0.2c5-0.1,4.6,2.6,4.6,5.8c0,35.4,0,70.8,0,106.2v7.7
	h49.4c0.1-0.3,0.1-0.6,0.2-0.9l-7.7-1c0-11-0.1-22.1,0.2-33.2c0-0.8,2.2-2.3,3.4-2.3c18.6-0.2,37.3-0.2,55.9,0c1.3,0,3.6,2,3.7,3.2
	c0.3,10.6,0.2,21.2,0.2,32.6h-33.6c0,0.5,0,0.9,0,1.3h35c0-6.3-0.1-12.9-0.1-19.5c0-6.9,0-13.8,0-20.8c-16,3.5-32,0.9-47.7,1.8
	c-4.1,0.2-5.7-1.2-5.4-5.2c0.3-4.8,0.1-9.5,0.1-14.1c-0.6-0.5-0.8-0.8-1.1-0.9c-10.3-0.9-10.3-0.9-10.3-10.9c0-13.5,0-26.9,0-40.4
	c0-8.2-0.3-7.3,7.3-7.3c1.1,0,2.2-0.1,4.1-0.3c0-4.9,0.2-9.8-0.1-14.7c-0.3-4.2,1.4-5.5,5.7-5.5c59.6,0.1,119.2,0.1,178.8,0.1h134.4
	v193.9h-135.9v8.6c2.6-1.7,6.9-0.9,7-5.5c0-0.5,2.5-1.2,3.8-1.2c18.1-0.1,36.2-0.2,54.2,0.1c2,0,4,2.5,5.4,4.9c0.5,0,1,0,1.6,0
	c0.8-5.6,4.9-5.1,9.3-5.1c16,0.1,32.1,0.1,48.2,0.1h6.4v107.3h-6c-16.6,0-33.2,0-49.8,0c-3.7,0-7.7,0.6-7.7-4.8
	c0-0.2-0.9-0.4-1.9-0.7c-0.2,6.4-4.9,5.5-9.3,5.5c-16.2-0.1-32.5,0-48.7,0c-2.9,0-6.3,0.7-6.2-3.8c0-0.3-0.2-0.9-0.4-0.9
	c-8-1.1-4.8-7.1-4.9-11.1c-0.3-18.1-0.1-36.1-0.1-54.2v-5.2h-0.8v92h0.8c0-3.3,0.2-6.7-0.1-10c-0.4-4.4,1.2-5.9,5.9-5.9
	c14.2,0.3,28.4,0.1,42.6,0.1c27.1,0,54.2,0.1,81.3-0.1c4.7,0,5.9,1.4,5.8,5.7c-0.2,26.7-0.2,53.5,0,80.2c0,4.4-1.2,5.7-5.9,5.7
	c-41.1-0.2-82.3-0.2-123.4,0c-5.3,0-6.5-1.7-6.4-6.4c0.3-14.1,0.1-28.3-0.7-42.4c-0.1,1-0.2,2-0.3,3c0,23.9,0,47.8,0,71.7
	c0,2.9-0.1,5.6,3.4,4.2c-0.8-2.4-2-4.5-2.3-6.7c-0.2-3.5-0.3-7.1-0.1-10.6c0-3-1-6.8,4.3-6.8c0.4,0,0.6-1.5,1.2-2
	c1.1-1.1,2.4-2.8,3.7-2.8c10.5-0.2,21-0.1,31.9-0.1c0.3,2.7,0.6,5.1,0.9,7.5h0.8c0.2-1.2,0.3-2.3,0.3-3.5c-0.2-3.1,1.4-4,4.4-4
	c5,0.1,10,0.2,14.9,0c3.9-0.1,7.2,0.2,6.6,5.3c0.8-0.1,1.6-0.2,2.4-0.5c0.3-5.7,4.5-4.8,8.3-4.8c18.2,0,36.5,0,55.3,0v100.8
	c-1.5,0.1-2.9,0.3-4.3,0.3c-27.1,0-54.2,0-81.3,0c-1.6,0-3.3-0.7-4.9-1.1l-0.1,0.1h89.3v-98.2c-18.3,0-36.1,0.1-54-0.1
	c-3.6,0-6.1,0.5-6,4.5h-4.9c-1.4-1.8-2.3-4.1-3.4-4.2c-6.9-0.3-13.8-0.2-20.8-0.2c-0.2,3-0.3,5-0.4,7.5c-6.8,0.6-2.9-5.1-5.2-7.3
	h-31.4c-0.7,1.5-1.3,4-2,4c-5.3,0.2-3.6,4-3.8,6.6c-0.2,3.4-0.2,6.7,0,10.1c0.1,1.3,1.2,2.5,1.9,3.7c0.5,0.9,1.2,1.8,1.7,2.7
	c-1,0.5-1.9,1.4-3,1.5c-1.9,0.1-3.7,0-5.6-0.2v-23c0-18.6-0.1-37.2,0.1-55.8c0-1.6,1.6-3.3,2.4-4.9c0.8,1.7,2.2,3.3,2.3,5
	c0.3,6.4,0.1,12.8,0.1,19.1v25.6H1351v-86.7h-131.5c0.2,3.7,0.1,7.3-0.1,11c-0.2,1.9-1.5,3.8-2.3,5.6c-0.9-1.8-2.5-3.6-2.5-5.4
	c-0.2-29-0.1-58.1-0.2-87.1c0-1.1-0.3-2.3,0.1-3.1s1.6-2.1,2.4-2c1.1,0.3,2,1.1,2.4,2.1c0.3,1.4,0.3,2.8,0.2,4.2
	c0,19.8,0,39.7,0,59.5c0,1.7,0.1,3.8,1.1,4.9c1.4,1.7,3.6,2.7,5.5,4c17,1,34.5,0.9,52,1.1c3.9,0,7.3,0,7.7-6.6l8.5,6.3h56.7V378.3
	h-58.9c0,4.4-2.6,5.3-6.2,3.9c-1.3-1.6-2.9-3.8-4.4-3.8c-18.8-0.3-37.6-0.2-56.2-0.2c-1.6,4.6-5.5,6.7-10.9,5.8v-5.7
	c0-6.6,0-6.5,6.7-5.1c1.5,0.2,2.9,0.2,4.4,0.1h125.6v-69.9h-131.6c0,14.3,0,28.2,0,42.1c0,1.8,0.3,3.6-0.1,5.3
	c-0.3,1.2-1.7,2.1-2.6,3.1c-0.8-1-1.9-1.9-2.2-3c-0.4-1.3-0.1-2.8-0.1-4.2c0-8.8,0-17.6,0-26.8h-88.1c-1.5,0.1-2.9,0-4.4-0.2
	c-0.6-0.1-1.5-1.2-1.5-1.8c0.1-0.9,0.7-1.8,1.6-2.2c1.4-0.3,2.9-0.3,4.4-0.2h89.4v-17.1h135.4V182.8H1036c0,2.8,0.1,5,0,7.3
	c-0.2,4,0.7,8.7-1.2,11.8c-1.1,1.8-6.6,1.1-10.4,1.6V257c1.7,0.2,3.5,0.3,5.2,0.2c5.2-0.7,7,1.3,6.5,6.2c-0.4,4.7-0.1,9.4-0.1,13.8
	h53.4v42.7c-11.4,0-23.4,0.1-35.4-0.1c-1.5,0-3-1.4-4.5-2.2c1.6-0.7,3.1-2,4.7-2c9.7-0.2,19.4-0.1,29.1-0.1V283h-59v32.3
	c1,0,1.9,0.1,2.9,0.3c1.8,0.6,3.4,1.5,5.2,2.2c-1.8,0.7-3.5,2-5.3,2c-12.4,0.2-24.7,0.1-37.1,0.1h-11.5V200.5h-59.5
	c0.4,1.1,1.9,3.1,1.9,5.1c0.2,28.7,0.1,57.4,0.1,86.1v5.9c4.5,0,8.2-0.2,11.8,0.1c1.4,0.1,3.7,1.5,3.8,2.5
	c0.3,6.5,0.2,12.9,0.2,19.4h-35.3v-11.1c1.4-0.1,2.3-0.2,3.3-0.2c4.4-0.1,9.3-1.1,8.5,5.9c0,0.4,1.6,1,3,2v-46.6l-5.3-1.1l-0.7-1.5
	l5.9-3.5v-58h-15L901.1,199.8L901.1,199.8z M1350.9,301.7l-0.1-1.2h-133.3v16.4H1123v1.7h93.6v32.6h2.1c0-14.4,0.2-28.8-0.1-43.2
	c-0.1-5.2,1.7-6.5,6.9-6.5c39.8,0.2,79.7,0.1,119.5,0.1L1350.9,301.7z"/>
<path d="M59.7,290.1c-7.3-3.9-14.6-7.8-22-11.6c-4.1-2.2-8.3-4.2-12.8-6.5l16.5-31l62.6,30.7l8.2-15.5l-1.2-0.6l-7.7,14.1
	l-61.2-29.9l17.5-33.2l62.4,30.6l4.4-7.9l-1-0.5l-4.1,6.5l-61.6-30.1c5.4-8.9,10.5-17.3,15.5-25.7l-0.1-0.1
	c-4.1,8.4-8.2,16.7-12.5,25.5l58.2,28.4c2.4-4.5,4.5-8.4,6.5-12.3c1.4-2.8,3-3.4,5.5-0.7c-3.5,6.6-6.9,13.1-10.1,19.1l-62.5-30.8
	l-16.1,30.4l58.4,28.6c2.3-4.3,4.4-8.3,6.7-12.1c0.5-0.8,2.2-1,3.3-1.5c0.3,0.9,1.3,2,1,2.6c-3,5.9-6.2,11.8-9.1,17.1l-62.5-30.8
	c-5.1,9.8-10,19-15,28.5l58.3,28.5l6.8-12.2l1.6-0.3c0.5,1.4,1.7,3,1.3,4c-2.4,5.1-5.2,10.1-7.7,14.7L30,278l-3.6,5.8l-5-1.6
	c-4.2,8-8.4,15.9-12.7,23.9l58.5,28.6c2.2-4.2,4.1-8.1,6.3-11.7c0.6-1,2.3-1.5,3.4-2.1c0.2,1.4,1,3.1,0.5,4.3
	c-1.7,3.8-3.8,7.5-6,11.7l21,10.2c24.4-45.9,48.4-91,72.5-136.4l60.6,29.7c-2.4,5-2.5,4.7-5.9,2.9c-15.2-8-30.6-15.8-45.8-23.6
	l-4.1,6l-7.2-3l-13.1,24.8l53.6,26.2l8.3-15.2l1.6-0.2c0.5,1.4,1.7,3.1,1.2,4c-2.9,6.1-6.2,12-9.1,17.5l-57.7-28.4
	c-5.4,10.3-10.7,20.1-16.2,30.4l53.5,26.2c2.3-4.3,4.4-8.3,6.7-12c0.5-0.8,2.1-1.1,3.2-1.6c0.3,1.1,1.2,2.6,0.8,3.4
	c-2.8,5.7-5.9,11.2-8.7,16.4L129,285.6c-5.1,9.7-10,19-15,28.5l53.6,26.2c1.6-3,2.9-5.6,4.3-8c2.6-4.7,2.6-4.7,6.2-1.7
	c-2.4,4.5-4.9,9-7.2,13.7c-1.3,2.6-2.5,2.6-5.1,1.2c-15.2-8.1-30.6-15.9-45.9-23.8l-4,6l-7.5-2.9c-4.3,8.1-8.4,15.9-12.7,24
	l53.3,26.1l8.2-14.6c1,0.4,1.9,0.9,2.8,1.4c-1.9,5.1-3.9,10.2-6,15.6l20.3,9.9c2.2-4,4.3-7.8,6.2-11.6c1.6-3.3,3.3-3.2,5.5-0.6
	c-2.5,4.9-4.8,9.5-7.3,14.3l54.3,26.6l12.8-24l-5.9-3.5l2.6-6.3l-52.1-25.2l9.7-17.9c5,7.2-3,10.8-2.4,16.2l53.8,26.2l14.9-28.4
	c-3.6-1.8-6.5-3.2-9.5-4.6c-15.6-7.4-31.3-14.6-46.8-22.1c-0.9-0.4-1.6-3-1.1-4c2.1-4.7,4.8-9.1,7.1-13.8c1.6-3.2,3.3-2.6,5.4-0.3
	l-7.4,14.3l54.4,26.6l16.2-30.4L226,290.1c2.8-5.4,5.9-11.2,8.9-17c1.7-3.2,3.4-2.2,5.3-0.2c-2.6,5.1-5.2,9.9-7.8,15.1l54.5,26.6
	c4.5-8.5,8.8-16.7,13.2-24.8l-5.9-3.5c0.9-2.1,1.7-4,2.7-6.3l-52.1-25.1l2.3-4.1c19.9,9.7,39.4,19.3,59,28.6
	c3.8,1.8,2.9,3.6,1.5,6.2c-19.8,37.2-39.6,74.5-59.4,111.7c-3.6,6.7-7.1,13.5-10.8,20.5c11.9,5.8,23.3,11.5,34.9,17
	c49.5,23.4,97.1,51,150.2,67.1c11.9,3.6,23.1,9.1,35.8,10c9.2,0.7,18.3,2,27.4,2.9c14.6,1.5,29.3,4,43.9,4.1
	c73.6,0.4,147.2,0.2,220.8,0.2h7.1c0-5.7-0.2-10.8,0.1-15.9c0.1-1.3,1.5-2.5,2.3-3.8c0.8,1.3,2.3,2.5,2.4,3.8
	c0.3,5.1,0.1,10.2,0.1,15.9c13.7,0,26.8-0.1,39.8,0c7.9,0,15.8,0.3,23.7,0.5l-0.1-0.1c-1.4,0.5-2.9,0.9-4.4,1.1
	c-18.5,0.1-36.9-0.1-55.3,0.1c-4.5,0-5.9-1.5-5.6-5.6c0.3-4.4,0-8.9-1-13.3c0,4.4-0.3,8.7,0.1,13.1s-1.4,5.8-6,5.8
	c-38.6-0.2-77.1-0.1-115.7-0.1c-33,0-66,0.5-99.1-0.2c-18.9-0.4-37.7-2.7-56.6-4.5c-10.6-1-21.2-2.1-31.7-3.9
	c-7-1.2-13.6-3.8-20.4-5.9c-54.5-16.2-103.7-43.3-154.2-67.7c-12-5.8-23.9-11.7-35.9-17.5c-1.4-0.7-2.8-1.5-4.7-2.5
	c1.7-3.4,3.2-6.5,4.9-9.6c6.5-12.3,13.1-24.5,19.5-36.8c0.6-1.4,1.1-2.9,1.5-4.4c0.9-1,1.8-2.1,2.5-3.2c7.3-13.6,14.6-27.3,21.8-41
	c7.3-13.8,14.6-27.5,22.1-41.7l-28.8-12.8c-9.9-6.4-20.7-10.8-31.5-15.3c4.4,2.8,9,5.2,13.7,7.3c5.9,2.7,11.9,5.3,17.9,7.9l19.6,11
	c-1,2-1.8,3.9-2.7,5.8l6.1,3.7l-14.5,27.3c-6.3-3-12.1-5.9-18-8.7c-7.5-3.5-15.1-6.9-22.7-10.3l-16.4-9.4l4.4-9l-1.1-0.4l-5.7,10.8
	l18.9,7.9c7.1,3.8,14.3,7.6,21.4,11.4c6.1,3.1,12.2,6,18.5,9.2l-17.7,33l-57.3-28l7.3-14l-1.3-0.5l-8,15.1l58.2,28.5
	c-2.5,5.7-4.7,10.7-6.9,15.7l-9.4,15.1l-18.4-7.6c-1.5-1.1-3.2-2.2-4.8-3.1c-11.2-5.6-22.4-11.1-33.9-16.8l6.3-12.4l-1.1-0.5
	l-7.3,13.7c9.2,4.4,17.8,8.7,26.5,12.8c4.8,2.2,9.6,4.2,14.4,6.2l11,6.7c-0.9,1.9-1.7,3.6-2.7,5.7l6,3.7l-14.1,26.8l-57.3-28
	l7.3-14.6l-1-0.5L175,389L69.2,337.4c2.6-5,5-9.7,7.4-14.3l-1.1-0.5l-7.7,14.1L6.6,306.8c4.8-9,9.4-17.7,14.1-26.5l5.1,1.4l3.3-5.3
	L59.8,290l26.7,14.6l7.2-13.8l-0.9-0.5L86,302c-2.3-1.1-4.1-2-6-2.8C73.3,296.2,66.5,293.2,59.7,290.1z M162.7,299.7L129,282
	l-0.8,1.5c3.3,1.6,6.6,3.3,9.9,4.9C146.3,292.1,154.6,295.9,162.7,299.7l23.1,12.6l8.5-16.1l-1.1-0.5l-7.8,14
	c-2.4-1-4.4-1.9-6.3-2.7L162.7,299.7z M188.3,268.8l15.8,9.1c3-5.6,5.9-11.2,8.8-16.8l-1.1-0.5l-8,14.5c-5.6-2.3-10.6-4.3-15.6-6.3
	c-1-0.9-2.1-1.7-3.3-2.4c-10.8-5.3-21.6-10.6-32.3-15.8c-1.8-0.9-3.7-1.8-5.5-2.8l-0.6,1.3c9.8,4.8,19.6,9.6,29.4,14.3
	C179.8,265.4,184.1,267,188.3,268.8L188.3,268.8z M118.9,319.8l50,24.5l7-13.4l-1-0.5l-6.9,11.9l-56.7-27.6l-4,7.7l7.7,3.2
	L118.9,319.8z M173,217.9l46.4,22.5l0.6-1.2l-54.5-26.7l-4.1,7.7l7.8,3.2L173,217.9z"/>
<path d="M1100.3,662c-0.4-1.8-1.2-3.5-1.2-5.3c-0.1-17.3-0.1-34.6-1.4-52v74l-8.3,0.9c7.1,5.3,4.1,12,4.2,17.9
	c0.3,17.2,0.1,34.3,0.1,51.5v6.2h-70.9v-72.6c15.5-1,31,0.6,46.3-0.8v-2.2H1023v-74.8h52.8v-1.2h-24.6c-8.1,0-16.2,0-24.3,0
	c-2.4,0-4.4-0.1-4.4-3.2c0.1-6.5,0-13,0-20.2c10.8,0,20.9-0.1,31,0c9.8,0.2,19.7,0.9,29.6,0.8c9.8-0.1,19.6-0.8,29.3-2h-5.9
	c-26,0-52-0.1-78,0.1c-4.5,0-6.1-1.2-6-5.6c0.3-9.2,0.2-18.4,0.1-27.6c0-3.3,0.2-5.8,3.5-5.2c-1-1.3-3.3-3-3.3-4.7
	c-0.3-17.2-0.2-34.4-0.1-51.5c0.1-1.5,0.4-3.1,0.8-4.6h51c20.6,0,41.1-0.1,61.7,0.1c5.7,0,11.4,1,17.7,1.5v10.4
	c0,13.8-0.2,27.6,0.1,41.4c0.1,5-1.3,6.7-6.8,6.7c-30.1-0.2-60.1-0.1-90.2-0.1h-6v1.1h103.7V408.3h-0.9v5.1c0,19.5,0,39,0,58.4
	c0,1.8-0.8,3.5-1.2,5.3l0.1,0.1c-0.1-22.7-0.2-45.3-0.3-68c0-0.5-0.2-1.2,0.1-1.6c0.6-0.7,1.5-1.9,2-1.8c1.1,0.3,1.9,1,2.4,2
	c0.4,1.1,0.1,2.4,0.1,3.7c0,42.3,0,84.7,0,127c0,1.1,0.4,2.4-0.1,3.1c-0.8,1.1-2.3,2.5-3.5,2.4c-3.2-0.1-6.4-1.3-9.5-1.3
	c-29.9-0.1-59.8-0.1-89.7-0.1c-1.5,0.2-2.9,0.1-4.4-0.2c-1-0.5-1.7-1.4-2-2.5c-0.1-0.5,1.1-1.8,1.9-2c1.5-0.2,2.9-0.3,4.4-0.2h98
	v-55.6c-8.5-0.3-16.7-0.6-24.9-0.9c-4.1-0.2-8.1-0.2-12.2,0c-9.5,0.8-19.3-2.2-28.6,2c-0.9,0.4-2.2,0-3.2-0.3
	c-2.6-0.5-5.1-1.6-7.6-1.7c-10.7-0.2-21.4-0.1-32.1-0.1h-18.8v54.9l6,3.9l-6,3.8v33h85.4c2.6,0,6-0.7,4.6,3.9
	c-0.5,0.2-1.1,0.4-1.6,0.5c-9,0.7-18,1.4-27,2c-1.1,0-2.2-0.1-3.3-0.4c-2.4-0.5-4.8-1.5-7.2-1.5c-9.4-0.2-18.8-0.1-28.2-0.1h-22.8
	v20.1c16.5,0,32.5-0.1,48.6,0.1c1.9,0,3.7,1.5,5.6,2.4c-1.9,0.8-3.8,2.2-5.8,2.2c-12.2,0.2-24.3,0.1-36.5,0.1h-11.9V678h46.5
	c0.6,6,0.6,6-4.7,6.1s-10.3,0-15.5,0h-26.3V753h68.2c0-22.2,0-44-0.1-65.8c0-1-0.7-2.8-1.3-2.9c-4.6-0.9-2.6-3.7-2.6-6.2l7.3-0.5v-6
	c0-21.8-0.1-43.6,0.1-65.3c0-1.5,1.5-3,2.3-4.5c0.7,1.5,2,3,2,4.6C1100.4,624.8,1100.3,643.4,1100.3,662L1100.3,662z"/>
<path d="M1152.3,382.5c0.8-0.2,2.3-0.4,2.3-0.7c0.2-2.1,0.1-4.1,0.1-6.7h-132c-0.3-3.7-0.5-7-0.8-10.5H886.8
	c4.7,0.2,5.7,2.7,5.6,6.9c-0.3,13.4-0.1,26.9-0.1,41.1h15.2V478l-5.1,1.2v7.4c4.9-0.4,5.6,2.3,5.4,6.2c-0.3,7.8-0.2,15.6,0,23.4
	c0,3.1-1,4.5-4.4,4.5c-24.2-0.1-48.3-0.1-72.5-0.1c-0.7-0.1-1.5-0.3-2.2-0.6c0-10.1-0.2-20.3,0.3-30.5c0.1-1.3,3.5-2.5,6.3-4.3v-6.1
	l-6.1-1v-65.3h18.3v-32.1c0-3.7-0.3-7.5,0.1-11.1c0.2-1.7,1.6-3.4,2.5-5.2h-20.9c-0.3-2.6-0.6-4.6-0.9-6.6l-0.9-0.1
	c-0.3,2-0.5,4-0.9,6.9h-66.9v0.9c18.9,0,37.9,0,56.8,0c11.8,0,10.4-1.2,10.4,9.8c0,8-0.1,15.9,0,23.9c0.1,3.4-1.3,4.7-4.8,4.7
	c-19-0.1-38-0.1-57,0c-3.6,0-5-1.3-4.8-4.7c0.2-3.7,0-7.4-0.7-11.1v17.1h67v36.5h-66v-14.2h-0.9V444h66.8v34.2h-66v-12.3h-0.8v14.3
	h34c9,0,18.1,0,27.1,0.1c1.7,0.2,3.3,0.6,4.9,1.1l0.1-0.1h-68.5c0-4.5-0.2-9.8,0.1-15c0.1-1.1,1.6-2.2,2.4-3.3
	c0.8,1.1,2.3,2.2,2.4,3.4c0.3,3.4,0.1,6.9,0.1,10.3h63.1v-31.4c-13.4,0-26.5-0.1-39.5,0c-8.4,0.1-16.8,0.8-25.3,0.8
	c-1.1,0-3.1-2.1-3.2-3.4c-0.3-4.9-0.3-9.9,0-14.9c0.1-1.3,1.7-2.4,2.7-3.6c0.8,1.2,2.1,2.4,2.2,3.6c0.3,4.2,0.1,8.4,0.1,12.8h63
	v-33.7c-11.8,0-23.2-0.1-34.7,0c-10.1,0.1-20.2,0.7-30.3,0.7c-1,0-2.9-2-3-3.2c-0.3-5.3-0.3-10.6,0-15.9c0.1-1.3,1.5-2.6,2.4-3.9
	c0.8,1.3,2.3,2.5,2.4,3.8c0.3,4.3,0.1,8.7,0.1,13.2h62.9v-33.7c-21.6,0-42.8,0-64-0.1c-1.3,0-2.7-1.4-4-2.1c1.1-1.2,2.4-2.3,3.7-3.3
	c0.8-0.5,2.2-0.1,3.3-0.1h61.2c0.2-2.5,0.3-4.3,0.4-6c3.9-0.3,3.9-0.3,5,5.9c6.5,0,13.1-0.1,19.7,0.1c1.3,0,2.6,1.3,3.9,2
	c-1.1,1-2.2,2.2-3.4,3.1c-0.5,0.4-1.3,0.3-2.2,0.5v46.5h-18.4v62.2l6.4,0.8c1.9,9.8,1.5,10.5-6.5,12v29.2h75.7v-29.4l-4.9-0.9v-10.8
	l4.8-0.8v-62.4h-15.3V368c-0.8,0-1.7-0.2-2.5-0.5c-1.4-0.9-2.8-1.9-4.1-2.9c1.5-0.8,3.1-2.2,4.6-2.2c43.7-0.1,87.4-0.1,131.2,0
	c1.3,0.1,2.6,0.3,3.8,0.6c0.2,3.4,0.3,6.5,0.5,10.2h122.5c10.8,0,10.8,0,9.9,10.5c-0.3,0.6-0.6,1.1-1,1.6L1152.3,382.5L1152.3,382.5
	z"/>
<path d="M1262,676.8c-0.4-1.6-1.2-3.1-1.2-4.7c-0.1-12.8-0.1-25.5-0.1-38.2V629h-1.5v15.2c0,8.3,0.1,16.6,0,25
	c-0.1,4.1-0.7,8.1-1,12.8h94.5v73.3c-1.9,0.1-3.5,0.2-5.2,0.2c-36.7,0-73.4-0.1-110.1,0.1c-5.2,0-6.6-1.5-6.5-6.3
	c0.3-20.3,0.1-40.7,0.1-61.1c0-2.8,0.5-5.6,0.8-8.8h-8.2c6.6,6,3.7,13.2,3.9,19.7c0.4,16.6,0.1,33.3,0.1,49.9v6.4h-7
	c-39.1,0-78.2-0.1-117.3,0.1c-5.3,0-6.5-1.5-6.4-6.3c0.3-20.2,0.3-40.4,0-60.5c-0.1-4.9,1.1-6.7,6.7-6.6c29.5,0.3,59,0.1,88.5,0.1
	c1.8-0.2,3.7-0.5,5.4-0.9l-0.2-1.9l-9.5-0.6v-15.8c-9.4,0-18.2-0.3-27,0.1c-4.9,0.2-6.3-1.3-6.2-5.9c0.2-28,0.1-55.9,0.1-83.9v-5.8
	h-1.1v11.1h-14.6l13.2,4.6l0.1-0.1c-4.2-0.6-8.4-1.1-12.5-1.9c-1.3-0.3-2.4-1.4-3.6-2.1c1.2-0.8,2.3-2.1,3.5-2.2
	c4-0.3,8-0.1,12.4-0.1v-11.3c5-1.5,4.5,1.5,4.5,4.1c0,28.5,0,57,0,85.5v6.4h32.3V678h9.3v6.3h-98.8v69.1H1226
	c0.2-0.6,0.4-1.1,0.5-1.7c0-21.4,0-42.8,0-64.3c0-1-0.5-2.8-1.2-3c-4.3-1.2-2.8-3.7-2.2-6.1h10.4v75h117.7v-69.2h-95.6
	c-0.2-1.5-0.3-3-0.2-4.6c0.6-3.8,1.9-7.5,2-11.3c0.3-12.4,0-24.8,0.2-37.2c0-1.5,1.5-2.9,2.3-4.3c0.7,1.4,2,2.7,2,4.1
	C1262.1,646.1,1262,661.5,1262,676.8L1262,676.8z"/>
<path d="M758.3,278.4l15.3-1.7v10.8c0,8.5-0.1,17,0,25.5c0,2.6-0.7,4-3.7,3.9c-4-0.1-8.1,0-12.5,0c-0.2-3.1-0.4-5.8-0.5-8.5h-0.7
	v10.2h70.5c0.2,2.5,0.4,4.3,0.5,6.1h0.9c0.3-1.8,0.6-3.6,1-5.6l5.9-0.7c1.9-9,0.4-10.8-9-10.8c-5.2,0-10.3,0-15.5,0
	c-5.3,0-5.3,0-6.3-5.5h-27.3v-6.2c0-28.3,0-56.7,0.1-85c0-2.5,1.5-5,2-7.6c0.4-1.9,0.5-3.9,0.1-5.8c-2.2-8.7-3.1-22.9-1.6-32.1
	c12.7,0.7,25.7-2.4,38.1,2.1c12.1,4.4,14.9,15.8,14.3,25.6c-0.1,1-1.8,1.8-1.9,2.8c-0.5,2.6-0.6,5.3-0.3,8c0.3,2.1,2.3,4.2,2.3,6.3
	c0.2,22.8,0.1,45.7,0.2,68.5c0.1,1.8,0.4,3.5,0.9,5.3l1.8-0.2v-14.9l6.5-2.4l-5.9-2.6c0-18.8-0.1-37.7,0.1-56.6
	c0.1-5.9,3.2-8.4,9.3-8.4c12.7,0,25.5,0.1,38.2-0.1c3.9-0.1,5.7,0.7,5.6,4.9c-0.2,18.8-0.2,37.5,0,56.3c0,3.7-1.2,5.1-5.1,4.9
	c-3.7-0.3-7.4-0.1-11.1,0c-1.2,0.1-2.5,0.4-3.6,0.7l0.1,1.5h23.6v-68.6l10.6,1.5l0.1-0.1l-10,1.1c0,16-0.1,31.8,0,47.5
	c0,6.7,0.5,13.5,0.8,20.4h-26.3v-6h18.4v-62.2h-45.4c-1.4,2.6-3.8,5.1-3.9,7.6c-0.3,18-0.2,36.1-0.2,54.1c2.4,0.8,4.8,2.4,4.6,3.4
	c-0.4,1.8-2.5,3.2-4.9,6V285c-4.7,1.3-6.3,0.3-6.5-4.3c-1.1-26.5,2.8-53-2-79.4c-0.5-3.1,1.6-6.5,2.1-9.8c1.7-11.1-4.8-22-16.2-23.6
	c-10.9-1.5-22.2-0.3-33.4-0.3c-0.1,0.9-0.2,1.7-0.1,2.6c1.2,8.8-2.1,17.7,2.5,26.6c1.8,3.4-2.3,9.3-2.4,14
	c-0.3,28.1-0.1,56.3-0.1,84.4c0,1.7,0.2,3.4,0.3,5.5h27.5c0.4,1.9,0.8,3.4,1.2,5.2c7.6,0,15.2-0.1,22.7,0.1c1.7,0.1,3.3,0.5,4.8,1.4
	c5.3,3.3,2.4,7.9,2.6,12.3L832,320c-1.7,2.9-3,5-4.3,7.1c-1-2.1-2-4.3-3.3-7.3h-70.5c0-4.1-0.2-7.7,0.1-11.1
	c0.1-1.1,1.6-2.2,2.4-3.2c0.7,1,1.9,2,2,3c0.2,2.2,0.2,4.4,0.1,6.7h12.7v-36.8h-13L758.3,278.4z"/>
<path d="M1152.3,477.1c-1.3,0.4-2.5,1.1-3.8,1.1c-40.9,0-81.9,0-122.8,0c-0.9,0-1.8-0.2-3-0.3V376.1h48.7c8.5,0,8.5,0,14.8,5.6
	c-0.1-6.5,4.5-5.6,8.7-5.6c17.5,0,35,0,51.8,1.3c1.9,1.7,3.7,3.5,5.6,5.2l0.1-0.1l-5,0.4c-0.5-1.7-0.9-3.2-1.4-4.7
	c-16.5,0-32.7-0.1-49,0.1c-3.3,0-8.2-2.2-9,3.9c0,0.3-1.9,0.9-2.4,0.6c-2-1-3.9-2.4-6.8-4.3h-54.6V477h6.9l121.2,0.2L1152.3,477.1z"
	/>
<path d="M984.2,316.5V199.1h34.1v117.4H984.2z M1016.8,315.4V200.7h-31.2v114.7H1016.8z"/>
<path d="M1100.4,678c-0.3-4-0.8-8.1-0.9-12.2c0-0.5,2-1.5,3-1.5c27.3,0,54.5,0.1,81.8,0.2c0.3,0,0.6,0.3,1.2,0.7v13.5
	c-1.5,0.1-3,0.3-4.6,0.3c-25.2,0-50.5,0-75.7,0c-1.7,0-3.3-0.8-4.9-1.2h83.9v-11.3h-83.7L1100.4,678z"/>
<path d="M1168.5,177.5c-5.3,0-10.7-0.1-16,0c-3.2,0.1-4.7-1-4.6-4.3c0.3-15.6-2-12.6,12.8-12.8c8.3-0.1,16.5,0.1,24.8,0
	c3.2-0.1,4.7,1,4.6,4.3c-0.3,15.7,1.9,12.5-12.8,12.8C1174.3,177.6,1171.4,177.5,1168.5,177.5z M1187.7,162.8h-37.5v12.6h37.5V162.8
	z"/>
<path d="M906.8,410.1l-12.6,1.7v-45.6c7.2-1.5,7.6-1.2,8.4,6.2l5,0.8c0,12,0,24,0,36c0,0.4-0.7,0.8-1,1.1c0-11.9,0-23.9,0-35.7
	l-5.5-1c-0.1-2-0.2-3.8-0.3-5.7H896v42.3L906.8,410.1z"/>
<path d="M769.3,205.1c0.4,1,1.2,2.1,1.2,3.1c0.1,16.6,0.1,33.2,0,49.8c-0.1,1-0.2,1.9-0.4,2.9h-22.5c0,0.4,0,0.8,0,1.2l8,0.6v23.2
	h0.7c0.7-2.5,1.3-5,2-7.5l-0.1-0.1v10.6c-1,0-2,0-3-0.2c-0.7-8.3-1.3-16.5-2-24.9c-0.7,0-1.4-0.1-2-0.3c-2.1-0.7-5.8,1.8-5.8-2.3
	c0-0.7,4-1.8,6.2-1.9c5.8-0.3,11.6-0.1,17.8-0.1V205L769.3,205.1z"/>
<path d="M1152.3,583.4c0.4,1.6,1.2,3.1,1.2,4.7c0.1,23.1,0,46.2,0.1,69.3c0,4.3-1.2,5.9-5.9,5.8c-14.3-0.3-28.7-0.1-43-0.1
	c-1.5,0-2.9-0.7-4.4-1.1l-0.1,0.1h51.9c0-3.6,0-5.9,0-8.2c0.1-23.5,0.2-47,0.2-70.6L1152.3,583.4z"/>
<path d="M844.7,410.2l-15.5,1.6c-0.2-2.3-0.5-3.7-0.5-5.1c0-11.1,0-22.1,0-33.6l6.3-0.5c0.7-2.3,0.6-5.2,2-6.3s4.6-1,6.7-0.5
	c1,0.2,2,2.8,2,4.3c0.2,12.2,0.1,24.4,0,36.5c0,1.2-0.8,2.5-1.2,3.7v-42.5h-6.2c-0.4,2.2-0.7,4-1.1,5.9l-6.6,0.6v35.7L844.7,410.2z"
	/>
<path d="M318,235.2l-12.6-7.1c-2.9-1.6-5.9-3.3-8.9-5l8.3-15.2l28.9,14c-4.3,4.9-7.9,9.2-11.9,13.3c-0.6,0.6-2.6-0.2-4-0.3
	L318,235.2z M298.4,222.9l22.3,10.9l10.5-11.3L305.4,210L298.4,222.9z"/>
<path d="M677.9,180.5c0-4.1-0.2-8.2,0.2-12.2c0.1-1.1,2.1-2.1,3.2-3.1c0.9,1,2.6,2,2.7,3c0.2,8,0.3,15.9,0,23.9c0,1.2-2,2.3-3,3.4
	c-1-1.1-2.7-2.2-2.8-3.4C677.7,188.3,677.9,184.4,677.9,180.5z M681.6,167.1h-1.2v26.7h1.2V167.1z"/>
<path d="M776.9,303.9h25.8c0.4,0.5,0.7,0.8,0.8,1c0.9,10.5,0.9,10.5-9.9,10.5c-3.9,0-7.7-0.2-11.6,0c-3.7,0.2-5.6-0.8-5.1-4.7
	C777,308.4,777,306.2,776.9,303.9z M801.4,305.5h-22.8v7.7h22.8V305.5z"/>
<path d="M318.4,213l9.4-17.6l14.8,7.6c-3.2,6-6,11.4-9.1,17.3L318.4,213z M328.4,197.5c-2.7,5.1-5.2,9.7-7.8,14.8l12.3,6
	c2.7-5.1,5.1-9.8,7.7-14.8L328.4,197.5z"/>
<path d="M1022.8,199.6v-18.4c9.8-1.4,10-1.2,10,7.2v3.2C1032.8,200.2,1032.8,200.2,1022.8,199.6z M1030.4,182.3l-6,0.3v15.3l6-0.3
	V182.3z"/>
<path d="M933.1,316.6h-12.9v-15.1c0.3-0.2,0.6-0.5,0.9-0.6C934.6,299.8,936.8,302.6,933.1,316.6z M921.4,303v12.1h10.3V303H921.4z"
	/>
<path d="M758,263.6l15.5-1.9c0,4.5,0.3,8-0.1,11.4c-0.1,1-1.9,2.6-3.1,2.7c-4.1,0.3-8.3,0.1-13.7,0.1c0.6-4.7,1.1-8.6,1.6-12.5
	c0.2,3.5,0.4,6.9,0.6,10.4h12.3v-10.2H758z"/>
<path d="M1022.8,279.3v-18.4c9.8-1.3,10-1.2,10,7.3v3.2C1032.8,279.9,1032.8,279.9,1022.8,279.3z M1024.2,277.7h6.1v-15.3l-6.1,0.3
	V277.7z"/>
<path d="M825.7,310.1l1.7,5.2c-7.4,0-13.7,0.1-20.1-0.1c-0.9,0-2.4-1.7-2.4-2.6s1.2-3.2,1.8-3.2c6.4,0.1,12.8,0.5,19.2,0.9
	c-6.3,0.6-13-1.2-18.9,2.1c5.5,1,11,1.3,16.5,0.9C824.3,313.3,825,311.3,825.7,310.1z"/>
<path d="M825.7,481.4c0.4,0.8,1.2,1.7,1.2,2.5c0.1,11.1,0.1,22.1,0,33.2c0,0.8-0.8,1.7-1.2,2.5l0.1,0.1v-38.4L825.7,481.4z"/>
<path class="st0" d="M825.9,481.3v38.4c-7.9-0.2-15.8-0.5-23.7-0.5c-13-0.1-26.1,0-39.8,0c0-5.7,0.2-10.8-0.1-15.9
	c-0.1-1.3-1.5-2.6-2.4-3.8c-0.8,1.3-2.3,2.5-2.3,3.8c-0.3,5.1-0.1,10.2-0.1,15.9h-7.1c-73.6,0-147.2,0.2-220.8-0.2
	c-14.6-0.1-29.3-2.6-43.9-4.1c-9.1-0.9-18.2-2.3-27.4-2.9c-12.7-0.9-23.9-6.4-35.8-10c-53.1-16.1-100.6-43.6-150.2-67.1
	c-11.5-5.5-22.9-11.2-34.9-17c3.7-7.1,7.2-13.8,10.8-20.5c19.8-37.3,39.6-74.5,59.4-111.7c1.4-2.7,2.3-4.4-1.5-6.2
	c-19.6-9.3-39-18.9-59-28.6l-2.3,4.1l52.1,25.1c-1,2.2-1.8,4.1-2.7,6.3l5.9,3.5c-4.3,8.2-8.6,16.3-13.2,24.8L232.3,288
	c2.7-5.2,5.2-10,7.8-15.1c-1.9-2-3.6-2.9-5.3,0.2c-3.1,5.8-6.1,11.6-8.9,17l58.8,28.4l-16.2,30.4l-54.4-26.6l7.4-14.3
	c-2.2-2.2-3.8-2.9-5.4,0.3c-2.3,4.6-5,9.1-7.1,13.8c-0.5,1,0.2,3.6,1.1,4c15.5,7.5,31.2,14.8,46.8,22.1c3,1.4,5.9,2.9,9.5,4.6
	l-14.9,28.4L197.7,355c-0.6-5.4,7.4-9,2.4-16.2l-9.7,17.9l52.1,25.2l-2.6,6.3l5.9,3.5l-12.8,24l-54.3-26.5c2.4-4.8,4.8-9.5,7.3-14.3
	c-2.1-2.6-3.8-2.7-5.5,0.6c-1.9,3.8-4,7.5-6.2,11.6l-20.3-9.9c2.1-5.4,4.1-10.5,6-15.6c-0.9-0.5-1.8-1-2.8-1.4l-8.2,14.6l-53.4-26.1
	c4.3-8.1,8.4-15.9,12.7-24l7.5,2.9l4-6c15.3,7.9,30.7,15.8,45.9,23.8c2.6,1.4,3.8,1.4,5.1-1.2c2.3-4.6,4.8-9.1,7.2-13.7
	c-3.6-3-3.7-2.9-6.2,1.7c-1.4,2.5-2.6,5-4.3,8L114,314.1c5-9.5,9.9-18.8,15-28.5l57.6,28.4c2.8-5.2,5.9-10.7,8.7-16.4
	c0.4-0.8-0.5-2.2-0.8-3.4c-1.1,0.5-2.7,0.8-3.2,1.6c-2.3,3.8-4.3,7.7-6.7,12l-53.5-26.2c5.5-10.3,10.7-20.1,16.2-30.4l57.7,28.4
	c2.9-5.5,6.2-11.4,9.1-17.5c0.5-1-0.8-2.7-1.2-4l-1.6,0.2l-8.3,15.2l-53.6-26.2l13.1-24.8l7.2,3l4.1-6c15.2,7.8,30.6,15.6,45.8,23.6
	c3.4,1.8,3.4,2,5.9-2.9l-60.6-29.7c-24.1,45.4-48.1,90.6-72.5,136.4l-21-10.2c2.2-4.2,4.3-7.8,6-11.7c0.5-1.2-0.3-2.8-0.5-4.3
	c-1.2,0.7-2.8,1.1-3.4,2.1c-2.2,3.6-4.1,7.5-6.3,11.7L8.7,306.1c4.3-8.1,8.5-16,12.7-23.9l5,1.6L30,278l57.4,28.3
	c2.4-4.6,5.3-9.6,7.7-14.7c0.4-1-0.8-2.6-1.3-4l-1.6,0.3l-6.8,12.2l-58.4-28.5c5-9.6,9.9-18.8,15-28.6l62.5,30.8
	c2.8-5.3,6.1-11.2,9.1-17.1c0.3-0.6-0.6-1.7-1-2.6c-1.2,0.5-2.8,0.6-3.3,1.5c-2.3,3.8-4.3,7.8-6.7,12.1l-58.3-28.6l16.1-30.4
	l62.5,30.8c3.2-6,6.6-12.5,10.1-19.1c-2.6-2.7-4.1-2.1-5.5,0.7c-2,3.9-4.1,7.8-6.5,12.3L62.7,205c4.3-8.8,8.4-17.1,12.5-25.5
	l5.1,2.4l3.9-5.9l57.1,28.1l2.3-3.9l-95-46.5l26-49c5.1-9.6,10-19.2,15.3-28.7c8.6-15.3,25.9-21.1,40.7-13.6l-35,66.1
	c6.5,3.3,12.8,6.4,19.1,9.5c3.8,1.9,7.5,3.9,11.4,5.4c1.2,0.5,3-0.3,4.5-0.5c-0.8-1.1-1.3-2.7-2.4-3.3c-6.4-3.4-13-6.5-19.7-9.8
	c0.9-2.2,1.7-4.1,2.6-6.1l-5.9-3.6c9.5-17.9,18.7-35.8,28.5-53.3c7-12.4,14.9-24.3,22.5-36.8l4.1,1.5l5-9.5l-4.2-3.3
	c1.6-3.1,3.2-6,5-9.6L253.7,52c-4.1,2.6-1.6,9.4-9,9c-2-0.1-4.4,8.1-3.6,10.3c0.4,1.2,0.3,2.5-0.3,3.7
	c-15.1,28.7-30.3,57.3-45.6,85.8c-0.5,1-2.4,1.2-3.3,2c-1.8,1.5-3.4,3.1-5.6,5.1l-21.8-10.5c-4.1,3.4-0.7,4.6,1.8,5.8
	c17,8.3,34.1,16.6,51.1,24.9c5.4,2.6,10.8,5.3,16.4,8.1c2.8-2.3,2.6-3.7-0.7-5.3c-9.9-4.7-19.7-9.6-29.5-14.4
	c-1.8-0.9-3.6-1.8-5.2-2.6c1.1-18.8,13.5-32.8,21.2-48.7c8-16.5,17-32.4,25.7-48.6c0.3-0.8,0.9-1.5,1.6-2c6.2-2.5,6.5-4.1,6.1-11.1
	c-0.2-3.1,2.6-6.3,4.2-9.8l63.1,30.8c-10,18.9-19.8,37.4-29.6,56c-10,18.9-20,37.7-30.2,56.5c-1.7,3.1-4.2,5.8-6.5,8.9l7.7,3.9
	c0.6-3,0.6-5.8,1.8-8c20.1-38.1,40.3-76.1,60.6-114.1c0.1-0.1,0.3-0.2,1-0.8l61.6,30.1c-3,3.6-3,8.2-8.1,10.4
	c-2.3,1-2.6,6.2-3.7,9.6c-0.4,1.1-0.2,2.4-0.7,3.3c-10.2,19.2-20.3,38.3-30.6,57.5c-0.3,0.5-0.7,1-1.1,1.4l-16-7.6
	c-3.5,6.4-6.7,12.3-10,18.5l-13-6.1c-3,5.6-6.1,11.1-9.2,16.7l-11-5.2c-3.9,3.4-1,4.4,1.6,5.6c36,17.6,72.1,35.2,108.1,52.9
	c2.6,1.3,5.1,2.9,7.9,3.8c1.9,0.6,4.1,0.2,6.1,0.3c-1.3-1.4-2.3-3.1-3.8-4c-3.6-2.1-7.5-3.8-11.6-5.8l2.2-5.7
	c-2.7-2.8-5.4-4-7.8,0.9l-52.2-25.5c-0.6-12.2,7.4-20.7,12-30.4c4.9-10.1,10.4-19.9,15.7-29.8c5.4-10.2,10.6-20.6,16.3-30.6
	c2.4-4.2,6.6-7.5,9-11.8c2-3.7,2-8.5,3.9-12.3c6-11.6,20.1-16.3,32.3-10.8c11.5,5.2,22.7,10.9,34.6,16.7c-4.7,8.9-8.5,18.2-14.4,26
	c-2.2,2.9-6.8,5.7-7,9.1c-0.4,11.6-8.4,19.7-13.1,29.3c-7.7,15.8-16.3,31.2-24.9,47.2l5.6,3l8.8-16.3l0.7,1c1.8-0.8,4.4-1.1,5.1-2.5
	s-0.5-3.6-2.2-5.3c8.5-16,16.9-32.1,25.6-48c1.2-2.3,4.4-3.6,7-5.6l41.1,20.1L460.5,243l-17.2-8.2l-3.2,5.4l23.2,11.3l32.6-61.2
	c3.5,1.7,6.8,3.1,9.9,4.9c0.9,0.5,2.1,1.8,2,2.6c-0.8,5.2,2,7.9,7.3,9.8l-26.9,50.8c-7.5-2.8-7.5-2.8-11.1,8l5,2.5l3.1-4.9h94.6
	c0.1-1,0.2-2.5,0.4-4.4H493c1.7-3.4,3-6.2,4.4-8.9c7.9-14.9,16.1-29.8,23.7-44.8c1.5-3,1-6.9,1.5-10.4c0.2-1.7,0.5-3.4,0.7-5.2
	c-2.4-1.5-4.6-3.7-7.1,0.4c-0.4,0.7-3.6,0.7-4.9,0.1c-20.9-10-41.6-20.2-62.8-30.6c4.9-9.3,9.7-18.3,14.8-27.9l66.8,32.6l-3.4,6.7
	l5.9,3.2c1.3-9.3,8.2-7.9,14.7-7.9c17,0.1,33.9,0,50.9,0h6.5v5.8c0,26.9,0,53.8-0.1,80.7c0,2.1-1.4,4.3-2,6.4
	c-0.3,1-0.7,2.7-0.3,2.9c4.1,2.3,2.3,6,2.3,9c0.2,14.3,0.1,28.7,0.1,43.4h-80.8c0.2-6.6-4.6-8.8-10.6-10.1
	c-14.7-3.2-29.3-6.6-44.4-10.1l2.8-7l-4-2l-14.2,12.4c-4.6-1.8-9.1-3.6-13.6-5.3c-0.2-0.1-1.1,1.6-2.1,2.9c3.5,1.8,6.8,3.2,9.9,5
	c2.8,1.6,5.1,4,7.9,5.4c2.4,1.2,5.9,2.8,7.8,1.9c3-1.4,5-4.7,8.2-8l36.4,8.4c-0.1,1.4-0.3,2.8-0.4,4.1c-0.4,5.9,3.7,9.3,9.7,8.4
	c3.8-0.6,7.6-1,11.4-1.1c38.4-0.1,76.7-0.1,115.1,0c1.3,0,2.7,0.3,3.8-0.1c1.2-0.6,2.3-1.4,3.3-2.3c-1.1-0.6-2.1-1.8-3.2-1.9
	c-8.3-0.2-16.6-0.1-24.9-0.1h-13v-51.9h13.4c0.4-3,0.4-3-13.5-5.1v-53.2h14l0.4-2.1c-3.2-5.3-9.8-0.6-14.4-3.3v-32.8h64.8v33.7
	c-9.5,0-18.8-0.1-28.2,0.1c-1.7,0-3.4,1.5-5.1,2.3c1.8,0.7,3.5,2,5.3,2.1c9.8,0.2,19.5,0.1,29.3,0.1c1.8,0,3.6,0.1,5.7,0.2v53.6
	c-10.7,0-21.3,0-31.9,0c-2.7,0-5.4-0.1-3.8,4.3h35.6V308l-5.8,0.5c-1,3.9-2,7.4-3,11.2h50.4c1.6-3,0.6-4.2-3-4.1
	c-9,0.1-18.1,0-27.1,0h-5.7v-51.8h35.7c0.4-4.3,0.4-4.4-3-4.5c-8.8-0.1-17.7,0-26.6,0h-6.3v-53.9h17.5c5.2,0,10.3,0.2,15.5-0.1
	c1.4-0.1,2.8-1.4,4.1-2.1c-1.3-0.8-2.7-2.2-4-2.2c-10-0.2-19.9-0.1-29.9-0.1c-0.9,0-1.8-0.1-3.1-0.2v-33.5h84.7l-1.9,33
	c-10.2,0.7-19.2,1.3-28.2,2c-0.2,1-0.2,1.9-0.2,2.9h27.6v54.2c-6.3,0-12-0.2-17.8,0.1c-2.2,0.1-6.2,1.3-6.2,1.9
	c0,4.2,3.7,1.7,5.8,2.3c0.7,0.1,1.4,0.2,2,0.3c0.6,8.4,1.2,16.7,2,24.9c1,0.1,2,0.2,3,0.2v-10.6h13v36.8h-12.7
	c0.1-2.2,0.1-4.5-0.1-6.7c-0.2-1.1-1.3-2-2-3c-0.8,1.1-2.3,2.1-2.4,3.2c-0.3,3.5-0.1,7-0.1,11.1h70.5c1.4,3,2.4,5.2,3.3,7.3
	c1.2-2.2,2.5-4.3,4.2-7.2l5.4-0.3c-0.2-4.4,2.7-9-2.6-12.3c-1.5-0.9-3.1-1.3-4.8-1.4c-7.5-0.1-15.1-0.1-22.7-0.1
	c-0.4-1.8-0.8-3.3-1.2-5.2h-27.6c-0.1-2.1-0.3-3.8-0.3-5.5c0-28.1-0.2-56.3,0.1-84.4c0-4.7,4.1-10.6,2.4-14
	c-4.6-8.9-1.3-17.8-2.5-26.6c0-0.9,0-1.7,0.1-2.6c11.2,0,22.5-1.2,33.4,0.3c11.4,1.6,17.9,12.4,16.2,23.6c-0.5,3.3-2.6,6.7-2.1,9.8
	c4.8,26.4,0.9,53,2,79.4c0.2,4.6,1.8,5.6,6.5,4.3v-13.5c2.4-2.8,4.5-4.2,4.9-6c0.2-1-2.2-2.6-4.6-3.4c0-18-0.2-36.1,0.2-54.1
	c0-2.5,2.5-5,3.9-7.6h45.4v62.2h-18.4v6H892c-0.3-6.9-0.8-13.7-0.8-20.4c-0.1-15.8,0-31.5,0-47.5l10-1.1v5.6h15v58l-5.9,3.5l0.7,1.5
	l5.3,1.1v46.6c-1.4-0.9-3-1.5-3-2c0.8-7-4.2-6-8.5-5.9c-0.9,0-1.8,0.1-3.3,0.2v11.1h35.3c0-6.5,0.2-13-0.2-19.4
	c0-0.9-2.4-2.3-3.8-2.5c-3.6-0.4-7.3-0.1-11.8-0.1v-5.9c0-28.7,0-57.4-0.1-86.1c0-2-1.5-4-1.9-5.1h59.5v119.4h11.4
	c12.4,0,24.7,0.1,37.1-0.1c1.8,0,3.6-1.3,5.3-2c-1.7-0.8-3.4-1.6-5.2-2.2c-0.9-0.2-1.9-0.3-2.9-0.3V283h59v32.5
	c-9.7,0-19.4-0.1-29.1,0.1c-1.6,0-3.1,1.3-4.7,2c1.5,0.8,3,2.2,4.5,2.2c12,0.2,23.9,0.1,35.4,0.1v-42.7H1036c0-4.3-0.3-9.1,0.1-13.8
	c0.4-4.9-1.4-6.9-6.5-6.2c-1.7,0.1-3.5,0-5.2-0.2v-53.5c3.8-0.5,9.4,0.2,10.4-1.6c1.9-3.1,1-7.8,1.2-11.8c0.1-2.3,0-4.5,0-7.3h315.2
	v115.6h-135.4v17.1h-89.4c-1.5-0.1-2.9-0.1-4.4,0.2c-0.8,0.4-1.4,1.3-1.6,2.2c-0.1,0.5,0.8,1.6,1.5,1.8c1.5,0.2,2.9,0.3,4.4,0.2
	h88.1c0,9.2,0,18,0,26.8c0,1.4-0.3,2.9,0.1,4.2c0.3,1.1,1.4,2,2.2,3c0.9-1,2.3-2,2.6-3.1c0.4-1.7,0.1-3.5,0.1-5.3
	c0-13.9,0-27.9,0-42.1h131.6v69.9h-125.6c-1.5,0.1-2.9,0.1-4.4-0.1c-6.7-1.4-6.7-1.4-6.7,5.1v5.7c5.4,0.9,9.4-1.1,10.9-5.8
	c18.7,0,37.4-0.1,56.2,0.2c1.6,0,3.1,2.3,4.4,3.8c3.6,1.5,6.2,0.5,6.2-3.9h58.9v103.1h-56.7l-8.5-6.3c-0.4,6.6-3.8,6.6-7.7,6.6
	c-17.5-0.1-35-0.1-52-1.1c-1.9-1.3-4.1-2.4-5.5-4c-1-1.2-1.1-3.3-1.1-4.9c-0.1-19.8,0-39.7,0-59.5c0.2-1.4,0.1-2.8-0.2-4.2
	c-0.4-1-1.3-1.8-2.4-2.1c-0.8,0-2,1.1-2.4,2s-0.1,2.1-0.1,3.1c0,29,0,58.1,0.2,87.1c0,1.8,1.6,3.6,2.5,5.4c0.8-1.9,2-3.7,2.3-5.6
	c0.2-3.7,0.3-7.3,0.1-11h131.7v86.7h-131.8v-25.5c0-6.4,0.2-12.8-0.1-19.1c-0.1-1.7-1.5-3.4-2.3-5c-0.8,1.6-2.4,3.3-2.4,4.9
	c-0.2,18.6-0.1,37.2-0.1,55.8v23c1.9,0.2,3.7,0.3,5.6,0.2c1-0.1,2-1,3-1.5c-0.6-0.9-1.2-1.8-1.7-2.7c-0.7-1.2-1.8-2.4-1.9-3.7
	c-0.2-3.4-0.2-6.7,0-10.1c0.2-2.7-1.5-6.4,3.8-6.6c0.7,0,1.3-2.5,2-4h31.4c2.3,2.2-1.7,7.9,5.2,7.3c0.1-2.5,0.2-4.6,0.4-7.5
	c7,0,13.9-0.2,20.8,0.2c1,0,2,2.4,3.4,4.2h4.9c-0.1-4,2.4-4.5,6-4.5c17.9,0.2,35.8,0.1,54,0.1V677H1262c0-15.4,0.2-30.8,0-46.2
	c0-1.4-1.3-2.7-2-4.1c-0.8,1.4-2.3,2.9-2.3,4.3c-0.2,12.4,0.1,24.8-0.2,37.2c-0.1,3.8-1.4,7.5-2,11.3c-0.1,1.5,0,3.1,0.2,4.6h95.6
	v69.2h-117.8v-75h-10.4c-0.6,2.4-2.1,4.9,2.2,6.1c0.7,0.2,1.2,2,1.2,3c0.1,21.4,0.1,42.8,0,64.3c-0.1,0.6-0.3,1.2-0.5,1.7h-126.4
	v-69.1h98.8V678h-9.3v-16.2h-32.3v-6.4c0-28.5,0-57,0-85.5c0-2.6,0.5-5.6-4.5-4.1v11.3c-4.4,0-8.4-0.2-12.4,0.1
	c-1.2,0.1-2.3,1.4-3.5,2.2c1.2,0.7,2.3,1.9,3.6,2.1c4.1,0.8,8.3,1.3,12.5,1.9c-0.1,23.5-0.2,47-0.2,70.6c0,2.3,0,4.6,0,8.2h-51.9
	c0-18.6,0.1-37.2,0-55.8c0-1.5-1.3-3-2-4.6c-0.8,1.5-2.3,3-2.3,4.5c-0.2,21.8-0.1,43.6-0.1,65.3v6l-7.3,0.5c0,2.5-1.9,5.3,2.6,6.2
	c0.6,0.1,1.3,1.9,1.3,2.9c0.1,21.8,0.1,43.5,0.1,65.8h-68.2v-68.8h26.3c5.2,0,10.3,0,15.5,0s5.3-0.1,4.7-6.1h-46.5v-71.7h11.9
	c12.2,0,24.3,0.1,36.5-0.1c1.9,0,3.8-1.4,5.8-2.2c-1.8-0.8-3.7-2.4-5.6-2.4c-16-0.2-32.1-0.1-48.6-0.1v-20.1h22.6
	c9.4,0,18.8-0.1,28.2,0.1c2.4,0,4.8,1,7.2,1.5c1.1,0.3,2.2,0.4,3.3,0.4c9-0.6,18-1.3,27-2c0.6-0.1,1.1-0.3,1.6-0.5
	c1.4-4.5-2-3.9-4.6-3.9h-85.4v-33l6-3.8l-6-3.9v-54.9h18.8c10.7,0,21.4-0.1,32.1,0.1c2.6,0,5.1,1.1,7.6,1.7c1.1,0.2,2.4,0.6,3.2,0.3
	c9.3-4.1,19.1-1.2,28.6-2c4.1-0.2,8.1-0.2,12.2,0c8.2,0.2,16.4,0.6,24.9,0.9v55.6h-98c-1.5-0.1-2.9-0.1-4.4,0.2
	c-0.8,0.2-2,1.4-1.9,2c0.3,1.1,1,2,2,2.5c1.4,0.3,2.9,0.4,4.4,0.2c29.9,0,59.8,0,89.7,0.1c3.2,0,6.3,1.2,9.5,1.3
	c1.2,0,2.7-1.3,3.5-2.4c0.5-0.7,0.1-2.1,0.1-3.1c0-42.3,0-84.7,0-127c0-1.2,0.3-2.6-0.1-3.7c-0.5-1-1.4-1.7-2.4-2
	c-0.5-0.1-1.5,1-2,1.8c-0.3,0.4-0.1,1-0.1,1.6c0.1,22.7,0.2,45.3,0.3,68l-121.1-0.2h-6.9v-98.6h54.6c2.9,1.9,4.7,3.3,6.8,4.3
	c0.6,0.3,2.4-0.3,2.4-0.6c0.8-6.1,5.7-3.8,9-3.9c16.2-0.2,32.4-0.1,49-0.1c0.5,1.6,0.9,3,1.4,4.7l5-0.4l3.3,2.9
	c0.4-0.5,0.7-1.1,1-1.6c0.9-10.5,0.9-10.5-9.9-10.5h-122.6c-0.2-3.7-0.3-6.8-0.5-10.2c-1.3-0.3-2.5-0.5-3.8-0.6
	c-43.7,0-87.4,0-131.2,0c-1.5,0-3.1,1.5-4.6,2.2c1.4,1,2.7,2,4.1,2.9c0.8,0.3,1.6,0.4,2.5,0.5v46.3h15.3v62.4l-4.8,0.8v10.9l4.9,0.9
	v29.5h-75.7v-29.2c8-1.5,8.4-2.2,6.5-12l-6.4-0.8v-62.1h18.4V368c1-0.2,1.8-0.2,2.2-0.5c1.2-1,2.3-2.1,3.4-3.1
	c-1.3-0.7-2.6-1.9-3.9-2c-6.6-0.2-13.2-0.1-19.7-0.1c-1-6.2-1-6.2-5-5.9c-0.1,1.7-0.3,3.4-0.4,6h-61.2c-1.1,0-2.5-0.4-3.3,0.1
	c-1.3,1-2.6,2.1-3.7,3.3c1.3,0.7,2.7,2.1,4,2.1c21.2,0.1,42.3,0.1,64,0.1v33.8h-63c0-4.5,0.2-8.9-0.1-13.2c-0.1-1.3-1.6-2.6-2.4-3.8
	c-0.8,1.3-2.3,2.6-2.4,3.9c-0.3,5.3-0.3,10.6,0,15.9c0.1,1.2,1.9,3.2,3,3.2c10.1,0,20.2-0.6,30.3-0.7c11.4-0.1,22.8,0,34.7,0v33.7
	h-63c0-4.4,0.2-8.6-0.1-12.8c-0.1-1.3-1.4-2.4-2.2-3.6c-0.9,1.2-2.6,2.4-2.7,3.6c-0.3,4.9-0.3,9.9,0,14.9c0.1,1.3,2.1,3.4,3.2,3.4
	c8.4,0,16.8-0.7,25.3-0.8c13-0.1,26.1,0,39.5,0v31.4h-63c0-3.4,0.2-6.9-0.1-10.3c-0.1-1.2-1.5-2.3-2.4-3.4c-0.8,1.1-2.3,2.1-2.4,3.3
	c-0.3,5.3-0.1,10.5-0.1,15L825.9,481.3z M435.8,342c-4.5-0.1-8.2,3.3-8.1,7.5s3.5,7.6,8.1,7.6s8.1-3.3,8.1-7.5S440.5,342,435.8,342z
	 M523.6,482.4c0-4.6-3-7.5-7.9-7.6c-4.5-0.1-8.3,3.2-8.4,7.2c-0.2,4.3,3.6,7.9,8.4,7.9C520.4,489.9,523.6,486.8,523.6,482.4
	L523.6,482.4z M515.9,375.7c4.3,0,7.8-3.5,7.8-7.8c0,0,0-0.1,0-0.1c-0.1-4.4-3.8-7.8-8.1-7.6c-0.2,0-0.3,0-0.5,0
	c-4.5,0.2-7.9,3.9-7.7,8S511.7,375.8,515.9,375.7L515.9,375.7z M389.7,451.7c0.1-4.6-2.9-7.7-7.7-7.8s-8.6,3.4-8.6,7.7
	c0,4.2,3.6,7.5,8.2,7.5C386.4,459.1,389.6,456.1,389.7,451.7L389.7,451.7z M686.3,373.9c2.2-11.5,0.6-13-10.9-10.9v10.9H686.3z
	 M686.4,488.6v-11.3h-11v11.2L686.4,488.6z M1240.2,603.8c0.9,1.6,1.4,3.7,2.1,3.8c6.4,0.7,12.9,1,19.4,1.4v-5.2H1240.2z
	 M1224.1,282.5v-5.9h-6.1v5.9H1224.1z M1285.1,282.3c7.1,0.6,7.2,0.5,6-5.8h-6V282.3z"/>
<path class="st0" d="M502.5,235.8c-2.8,5.9-5.7,11.7-8.5,17.6l-3.5,7.2h87.8v1.3h-93.9l-3.1,4.5l-1.7-0.4l2.2-8.6
	c6.9,3,6.8,3,10.2-3.3s7-12.2,10.6-18.3L502.5,235.8z"/>
<path class="st0" d="M202.6,178.5c-5.3-2.3-10.6-4.5-15.9-6.9c-7.7-3.5-15-7.5-22-12.2l22,10.6c6.1-4,11.2-9.4,14.8-15.8l-0.1-0.1
	c-0.9,2.2-1.8,4.5-2.6,6.7c-0.9,2.4-4.4,4.6-0.6,7.7c0.6,0.5-1.3,3.6-2,5.5l6.4,4.6L202.6,178.5z"/>
<path class="st0" d="M294.4,138.1c-2.1,4.4-4,9-6.3,13.3c-8.7,16.7-17.6,33.3-26.4,49.9c-0.8,1.9-1.5,3.8-2,5.8l-3.9-1.9
	c0.4-0.3,0.8-0.6,1.1-1c1.4-1.7,3.2-3.1,4.2-5c10.1-18.9,20.1-37.9,30.3-56.9c0.9-1.5,1.9-2.8,3-4.1L294.4,138.1z"/>
<path class="st0" d="M105.1,183.9c8.4,3.8,16.8,7.6,25.2,11.5c3.8,1.8,7.6,3.7,11.3,5.5l-0.8,1.5c-1.8-1-3.6-2-5.4-2.9
	c-8.6-4.3-17.3-8.5-25.9-12.8c-1.5-0.9-2.9-1.8-4.3-2.9L105.1,183.9z"/>
<path class="st0" d="M202.5,178.6l31.3,14.1l-1,1.8L202.5,178.6L202.5,178.6z"/>
<path class="st0" d="M1350.9,301.7h-5.9c-39.8,0-79.7,0.1-119.5-0.1c-5.2,0-7.1,1.3-6.9,6.5c0.3,14.4,0.1,28.8,0.1,43.2h-2.1v-32.6
	H1123v-1.7h94.4v-16.4h133.3L1350.9,301.7z"/>
<path class="st0" d="M261.3,367.7c2.2-5,4.4-9.9,6.9-15.7L210,323.6l7.9-15.2l1.3,0.5l-7.3,14l57.3,28l17.7-33
	c-6.3-3.1-12.5-6-18.5-9.2c-7.2-3.7-14.3-7.6-21.4-11.4l-0.1,0.1c7.6,3.4,15.2,6.8,22.7,10.3c5.9,2.7,11.7,5.6,18,8.7l14.5-27.2
	l-6-3.7c0.9-1.9,1.8-3.7,2.7-5.8l-19.6-11l-0.1,0.1l28.8,12.8c-7.5,14.2-14.8,28-22.1,41.7s-14.5,27.3-21.8,41
	c-0.7,1.1-1.6,2.2-2.5,3.2L261.3,367.7z"/>
<path class="st0" d="M118.9,319.8l-3.9,5.7l-7.7-3.2l4-7.7l56.7,27.6l6.8-11.9l1,0.5l-7,13.4L118.9,319.8z"/>
<path class="st0" d="M172.9,217.8l-3.7,5.6l-7.8-3.2l4.1-7.7l54.5,26.7l-0.6,1.2L172.9,217.8z"/>
<path class="st0" d="M233.6,375c-4.8-2.1-9.7-4-14.4-6.2c-8.7-4.1-17.3-8.3-26.5-12.8l7.3-13.7l1.1,0.5l-6.3,12.4
	c11.5,5.7,22.7,11.2,33.9,16.8c1.7,0.9,3.3,2,4.8,3.1L233.6,375z"/>
<path class="st0" d="M188.2,268.8c-4.1-1.8-8.4-3.4-12.4-5.3c-9.9-4.7-19.6-9.5-29.4-14.3l0.6-1.3c1.8,0.9,3.6,1.9,5.5,2.8
	c10.8,5.3,21.6,10.5,32.3,15.8C186,267.2,187.1,268,188.2,268.8L188.2,268.8z"/>
<path class="st0" d="M59.7,290.1c6.8,3,13.6,6,20.3,9.1c1.8,0.8,3.6,1.7,6,2.8l6.8-11.7l0.9,0.5l-7.2,13.8L59.8,290L59.7,290.1z"/>
<path class="st0" d="M162.7,299.7l16.4,7.3c2,0.9,4,1.7,6.3,2.7l7.8-14l1.1,0.5l-8.5,16.1L162.7,299.7L162.7,299.7z"/>
<path class="st0" d="M162.8,299.6c-8.2-3.7-16.5-7.5-24.7-11.2c-3.4-1.5-6.6-3.3-9.9-4.9l0.9-1.5l33.7,17.7L162.8,299.6z"/>
<path class="st0" d="M188.1,268.9c5,2,10,4,15.6,6.3l8-14.5l1.1,0.5c-2.9,5.6-5.9,11.1-8.8,16.8l-15.8-9.1L188.1,268.9z"/>
<path class="st0" d="M279,268.8c-6-2.6-12-5.2-17.9-7.9c-4.8-2.1-9.3-4.5-13.7-7.3c10.8,4.5,21.7,8.9,31.5,15.3L279,268.8z"/>
<path class="st0" d="M246.9,297.5l-18.9-7.9l5.8-10.8l1.1,0.4l-4.4,9l16.4,9.4L246.9,297.5z"/>
<path class="st0" d="M1016.8,315.4h-31.2V200.7h31.2L1016.8,315.4z"/>
<path class="st0" d="M1100.4,678v-11.4h83.7v11.3h-83.9L1100.4,678z"/>
<path class="st0" d="M1187.7,162.8v12.6h-37.5v-12.6H1187.7z"/>
<path class="st0" d="M906.8,410.1H896v-42.3h4.8c0.1,2,0.2,3.7,0.3,5.7l5.5,1c0,11.8,0,23.7,0,35.7L906.8,410.1z"/>
<path class="st0" d="M844.7,410.2h-14.1v-35.7l6.6-0.6c0.3-1.9,0.7-3.7,1.1-5.9h6.2v42.5L844.7,410.2z"/>
<path class="st0" d="M298.4,222.9l7-13l25.9,12.6l-10.5,11.3L298.4,222.9z"/>
<path class="st0" d="M681.6,167.1v26.7h-1.2v-26.6L681.6,167.1z"/>
<path class="st0" d="M801.4,305.5v7.7h-22.8v-7.7H801.4z"/>
<path class="st0" d="M328.4,197.5l12.1,6c-2.6,5-5,9.6-7.7,14.8l-12.3-6C323.2,207.2,325.6,202.6,328.4,197.5z"/>
<path class="st0" d="M1030.4,182.3v15.3l-6,0.3v-15.3L1030.4,182.3z"/>
<path class="st0" d="M921.4,303h10.3v12.1h-10.3V303z"/>
<path class="st0" d="M758,263.6h13.1v10.2h-12.3c-0.2-3.5-0.4-6.9-0.6-10.4L758,263.6z"/>
<path class="st0" d="M1024.2,277.7v-15l6.1-0.3v15.3L1024.2,277.7z"/>
<path class="st0" d="M825.7,310.1c-0.7,1.1-1.4,3.1-2.2,3.2c-5.5,0.4-11.1,0.1-16.5-0.9c6-3.3,12.6-1.5,18.9-2.1L825.7,310.1z"/>
<path d="M435.8,342c4.7,0.1,8.1,3.3,8.1,7.6s-3.5,7.5-8.1,7.5s-8.1-3.3-8.1-7.6S431.4,341.9,435.8,342z M442.2,347.6
	c-1.7-1.1-4-3.7-6.6-4c-3.5-0.4-6,2.1-6,6s2.5,6.1,6.1,6.1C439.6,355.7,441.9,353.2,442.2,347.6L442.2,347.6z"/>
<path d="M523.6,482.4c0,4.4-3.3,7.5-7.9,7.5s-8.6-3.6-8.4-7.9c0.2-4.1,4-7.3,8.4-7.2C520.6,474.9,523.6,477.8,523.6,482.4z
	 M508.3,481.4c0,0.8,0.1,1.6,0.1,2.4c2.4,1.6,5.1,4.8,7.2,4.4c2.4-0.4,5.3-3.5,6.2-6c1.1-2.9-3.4-7-6.5-6
	C512.7,477.2,510.6,479.6,508.3,481.4L508.3,481.4z"/>
<path d="M515.9,375.7c-4.2,0.1-8.2-3.4-8.5-7.5s3.2-7.8,7.7-8c4.3-0.4,8.2,2.8,8.6,7.1c0,0.2,0,0.3,0,0.5c0.1,4.3-3.3,7.8-7.6,7.9
	C516,375.7,515.9,375.7,515.9,375.7z M514.2,374.9h2.6c1.7-2.3,4.5-4.4,4.9-6.8c0.6-3.4-2.2-6.1-5.9-6.2s-7.1,2.1-6.4,6.1
	C510,370.4,512.6,372.5,514.2,374.9z"/>
<path d="M389.7,451.7c-0.1,4.5-3.3,7.4-8.1,7.4c-4.5,0-8.2-3.4-8.2-7.5c0-4.3,3.9-7.9,8.6-7.7S389.8,447.1,389.7,451.7z
	 M382.8,444.4h-2.6c-1.6,2.4-4,4.5-4.7,7.1c-0.8,3.3,3.4,7.3,6.4,6c2.5-1,5.6-4,5.8-6.3C387.9,449.1,384.6,446.7,382.8,444.4
	L382.8,444.4z"/>
<path d="M686.3,373.9h-10.9V363C686.9,360.9,688.5,362.4,686.3,373.9z M684.9,364.7h-8v7.8h8V364.7z"/>
<path d="M686.5,488.6h-11v-11.2h11V488.6z M676.9,478.9v7.7h8v-7.7H676.9z"/>
<path d="M1240.2,603.8h21.6v5.2c-6.6-0.4-13-0.7-19.4-1.4C1241.6,607.5,1241.1,605.4,1240.2,603.8z M1260.2,606.4
	c-1.1-2-9.6-2.6-17.4,0H1260.2z"/>
<path d="M1224.1,282.4h-6.1v-5.9h6.2L1224.1,282.4z"/>
<path d="M1285.1,282.3v-5.8h6C1292.3,282.8,1292.2,282.9,1285.1,282.3z"/>
<path class="st0" d="M442.2,347.5c-0.3,5.6-2.7,8.2-6.6,8.1c-3.6,0-6-2.3-6.1-6.1s2.5-6.4,6-6C438.2,343.9,440.5,346.5,442.2,347.5z
	"/>
<path class="st0" d="M508.3,481.4c2.3-1.7,4.4-4.2,7-5c3.1-1,7.6,3.1,6.5,6c-1,2.5-3.8,5.6-6.2,6c-2.1,0.3-4.8-2.8-7.2-4.4
	C508.4,483,508.3,482.2,508.3,481.4z"/>
<path class="st0" d="M514.2,374.9c-1.6-2.3-4.3-4.4-4.7-6.9c-0.7-4,2.5-6.2,6.4-6.1c3.9,0.1,6.5,2.8,5.9,6.2
	c-0.4,2.5-3.2,4.6-4.9,6.8L514.2,374.9z"/>
<path class="st0" d="M382.8,444.4c1.8,2.3,5.1,4.7,5,6.8c-0.2,2.3-3.3,5.3-5.8,6.3c-3,1.2-7.2-2.7-6.4-6c0.6-2.6,3-4.7,4.7-7.1
	L382.8,444.4z"/>
<path class="st0" d="M684.9,364.7v7.8h-8v-7.8H684.9z"/>
<path class="st0" d="M676.9,478.9h8v7.7h-8V478.9z"/>
<path class="st0" d="M1260.2,606.4h-17.4C1250.6,603.7,1259.1,604.4,1260.2,606.4z"/>
</svg>
