<?xml version="1.0" encoding="utf-8"?>
<!-- Generator: Adobe Illustrator 24.1.1, SVG Export Plug-In . SVG Version: 6.00 Build 0)  -->
<svg version="1.1" id="图层_1" xmlns="http://www.w3.org/2000/svg" xmlns:xlink="http://www.w3.org/1999/xlink" x="0px" y="0px"
	 viewBox="0 0 1366 768" style="enable-background:new 0 0 1366 768;" xml:space="preserve">
<style type="text/css">
	.st0{fill:#FFFFFF;}
</style>
<path class="st0" d="M1366,768H0V0h1366V768z M1,447.1c1.7,0.9,2.9,1.7,4.2,2.4l118.1,60.4C250.6,575.1,378,640.3,505.4,705.5
	c13.2,6.8,26.1,14.3,40,19.5c19.6,7.3,39.8,12.9,59.8,19c10.1,3.1,20.1,6.5,30.5,8.1c16.1,2.5,32.5,3.8,48.8,5.4
	c13.9,1.4,27.8,3.6,41.6,3.7c176.3,0.3,352.5,0.3,528.8,0.2h6.8V534.1h99.6V281.4H1262c-0.6-6.1-0.6-11.8-1.7-17.2
	c-4-18.8-19.4-30.8-39.1-30.8c-157.2,0-314.5,0-471.7,0.1c-5.7,0-11.4-1.4-16.4-4.1c-47.6-24.5-95.2-48.9-142.9-73.2
	c-13.7-7-27.5-7.1-40.8,1.4c-2.8,1.8-5.3,4.1-7.9,6.2L226.5,2.6C151.1,151.3,75.9,299.5,1,447.1z"/>
<path d="M1,447.1c75.1-148,150.2-296.2,225.5-444.5l315,161.2c2.7-2.1,5.1-4.4,7.9-6.2c13.3-8.5,27-8.4,40.8-1.4
	c47.7,24.3,95.3,48.7,142.9,73.2c5,2.7,10.7,4.1,16.4,4.1c157.3-0.1,314.5-0.2,471.7-0.1c19.7,0,35.1,12,39.1,30.8
	c1.2,5.4,1.1,11.1,1.7,17.2h99.1v252.8h-99.6v227.1h-6.8c-176.2,0-352.5-0.1-528.8-0.2c-13.9,0-27.8-2.3-41.6-3.7
	c-16.3-1.6-32.6-2.8-48.8-5.4c-10.3-1.6-20.4-5-30.5-8.1c-20-6.1-40.2-11.7-59.8-19c-13.8-5.2-26.8-12.8-40-19.5
	c-127.3-65.2-254.7-130.3-382-195.6L5.2,449.5C3.9,448.8,2.6,448,1,447.1z M1259.7,283c0-3.9,0.1-7,0-10.2
	c-0.3-8.1-2.4-15.8-7.3-22.4c-8.6-11.7-20.7-15.7-34.6-15.7c-157.4,0-314.9,0-472.3,0c-2.7,0-5.7-0.2-8-1.4
	c-30.8-15.6-61.6-31.4-92.4-47.1c-20.2-10.3-40.2-21-60.8-30.5c-13.7-6.3-27-3.2-38.2,6.8c-3.1,2.8-5.4,3-8.8,1.1
	c-12.8-6.8-25.7-13.4-38.6-20c-72.3-37-144.6-74-216.9-111c-18-9.2-36.1-18.4-54.6-27.9L3.2,446.4c1.9,1,3.5,2,5.1,2.8
	c82.4,42.2,164.7,84.4,247.1,126.6c73.9,37.9,147.9,75.7,221.9,113.5c32.7,16.6,64.3,35.5,100.4,44.7c18.7,4.7,36.7,12.1,55.4,16.3
	c14.8,3.3,30.2,3.7,45.4,5.1c16.5,1.6,32.9,4.3,49.4,4.3c175.1,0.3,350.3,0.4,525.4,0.2h6.4v-7.4c0-71.1,0-142.2-0.1-213.4
	c0-5.4,1.4-7.1,6.9-7c28.9,0.2,57.8,0.1,86.6,0.1h6.7V283H1259.7z"/>
<path class="st0" d="M1259.7,283h100.1v249.2h-6.7c-28.9,0-57.8,0.1-86.6-0.1c-5.4,0-6.9,1.7-6.9,7c0.2,71.1,0.2,142.2,0.1,213.4
	v7.4h-6.4c-175.1,0-350.3-0.1-525.4-0.2c-16.5,0-33-2.7-49.4-4.3c-15.2-1.5-30.6-1.8-45.4-5.1c-18.7-4.2-36.7-11.6-55.4-16.3
	c-36.1-9.1-67.8-28-100.4-44.7c-74.1-37.6-148-75.4-221.9-113.4C173,533.6,90.7,491.4,8.3,449.2c-1.6-0.8-3.2-1.8-5.1-2.8l224-441.6
	c18.5,9.5,36.6,18.6,54.6,27.9c72.3,37,144.6,74,216.9,111c12.9,6.6,25.8,13.2,38.6,20c3.4,1.8,5.8,1.6,8.8-1.1
	c11.2-10.1,24.5-13.1,38.2-6.8c20.6,9.5,40.6,20.2,60.8,30.5c30.8,15.7,61.5,31.5,92.4,47.1c2.3,1.2,5.3,1.4,8,1.4
	c157.4,0.1,314.9,0.1,472.3,0c13.9,0,25.9,4,34.6,15.7c4.9,6.7,7,14.3,7.3,22.5C1259.8,275.9,1259.7,279.1,1259.7,283z
	 M1067.6,391.8l0.2,0.2l-21-1.9c0,6.3-0.2,11.4,0.2,16.4c0.4,1.6,1.6,2.8,3.2,3.2c5,0.3,10.1,0.3,15.1,0c1.2-0.1,3.3-1.4,3.3-2.1
	C1068.4,402.2,1068,397,1067.6,391.8L1067.6,391.8z M1075.4,297.6c-0.4,1.8-1.2,3.7-1.2,5.5c-0.1,42.7-0.1,85.3-0.1,128v6.6h39.1
	v18.1h29.4c0.4-2.4,0.7-4.3,1-6.4h11.8V461h-110.4v-16.1h1.4c0.3,4.6,0.7,9.3,1,14.2c5.7,0,10.7-0.2,15.7,0.1c4.3,0.2,6-1.1,5.8-5.7
	c-0.3-11.8-0.3-23.6,0-35.4c0.1-4.5-1.1-6.5-6-6.2c-6.1,0.4-12.2,0.1-18.3,0.1v-24.6h24.2c0-29.7,0-58.7,0-87.7
	c0-0.7-0.8-1.5-1.2-2.2c-4.2-4-3.7-11-1.6-13c4-3.7,2.6-7.3,2.7-10.9c0.3-8.6,0.1-17.2,0.1-25.8c0-7.6,0-7.6-7.7-7.6
	c-102.8,0-205.7,0-308.5-0.1c-7.7,0-14.4,0.1-16.6,9.3c-0.1,0.3-0.6,0.5-1.2,0.9l-3.7-2.4l4.6-9.5l-95.7-49l-22.1,43.8l30.4,15.5
	c19.5,10,39.1,20,58.6,29.9c3.1,1.6,6.6,2.7,8.7-1c2-3.5,3.8-2.6,5.6-1.2c-0.2,2.8-1.3,5.6-0.4,7.5c2,4.3,1.2,7.8-0.8,11.7
	c-8.5,16.6-16.8,33.2-25.3,49.9c-6,11.7-11.9,23.5-17.9,35.2l-6.3-2.4c-8.4,16.6-16.7,32.9-24.7,49.3c-0.6,1.3,0,3.5,0.6,5
	c1.7,4.7,0.4,9.4-3.5,11.7c-4.1,2.4-8.7,1.4-12.1-2.2c-2.1-2.3-4.5-4.2-7.1-5.8c-4.9-2.9-10.1-5.4-15.2-8.1l1-2.1l17.8,8.8
	c3-2.8,5.1-6.3,7.8-6.8c4.7-0.9,6.4-3.6,8.1-7.3c2.9-6.1,6.1-12,9.1-18c4.8-9.7,9.6-19.5,14.7-29.6l8.8,3.9l39.6-77.9
	c-5.3-1.3-11.7-2.3-10.9-8.6c1-7.5-3.5-9.1-8.4-11.4c-3.4-1.6-6.6-3.4-11.1-5.6c-15,29.5-30,58.9-45.1,88.6l-28.6-14.6l2.6-4.5
	l23.8,11.9l42.6-83.9l-61-31.2c-1.9,2.5-3.7,5.9-4.4,5.7c-4.5-1.5-4.5,2.5-5.5,4.5c-9,17.4-17.8,34.8-26.6,52.3
	c-3.2,6.4-6.4,12.9-9.7,19.4l5.6,3.5l-2.5,4l-5.7-2.3c-4.2,8.1-8.2,16-12.4,24.1l-4.4-2.2c0.5-1.1,0.8-2,1.2-2.8
	c16.5-32.6,33-65.1,49.5-97.7c0.9-1.8,2.3-3.8,2-5.5c-1.2-7-0.3-9.1,6.8-12.7c0.7-0.4,1.2-1.4,1.6-2.2c6.7-13.3,13.4-26.5,20.2-40
	c-1-1-2-1.8-3.2-2.5c-15.5-8-31-16.1-46.7-23.7c-12.4-6-24.2-4.2-34.9,4.4c-2.3,1.8-3.6,5.3-6.1,6.4c-7,3.3-6.6,11.1-10.5,16.1
	c-0.2,0.3,0.2,1,0.4,1.5c1.2,3-1.4,12-3.9,12c-4.6-0.1-5,3.4-6.3,5.9c-14.4,28.2-29.3,56.2-42.9,84.8c-8.2,17.3-21.4,32.6-22,53.4
	l75.8,38.8l3.7-6l4.1,2.6l-3.8,8.2l22.8,12l-1.2,2.1l-153.4-78.5l13.7-26.8l18,9l13.8-26.9l22.1,11c0.7-0.5,0.9-0.6,1-0.7
	c15.2-29.7,30.3-59.4,45.4-89.1c0.4-1.1,0.5-2.3,0.4-3.5c0-1.7-0.7-3.6-0.1-5.1c1.3-3.8,4.6-5.7,7.6-8.2c4.1-3.5,5.7-10.1,8.5-15.5
	L229.4,11.8c-3.1,6.1-5.9,11.8-8.8,17.6l6.3,4c-1.9,3.8-3.6,7.2-5.5,10.8l-7-2.9l-68.7,135.5l6.3,4.1c-1.9,3.8-3.7,7.2-5.5,10.8
	l-6.9-2.8c-9.8,19.3-19.5,38.5-29.3,57.7l6.2,4.2c-1.8,3.7-3.6,7.1-5.5,11c-6.1-5-8.1-1-10.5,3.9c-7,14.4-14.4,28.6-21.7,42.9
	L35.6,394l6.4,4.1l-5.7,10.6l-6.9-2.7c-6.4,12.8-12.7,25.2-19.1,38c2.4,1.4,4.3,2.6,6.3,3.6c33.7,17.3,67.5,34.6,101.2,51.8
	c130.9,67,261.8,133.9,392.6,200.9c16.1,8.2,31.8,17.6,49.5,22.5c18.9,5.3,37.5,11.6,56.3,17.3c6.9,2.1,13.8,4.3,20.9,5.3
	c16.4,2.2,32.9,3.7,49.3,5.3c13.3,1.3,26.6,3.5,40,3.6c173.8,0.2,347.6,0.3,521.5,0.2h6.1v-49l-6.4-0.7v-11.8l6.7-0.7V526.9h100.4
	c0.1-2.1,0.2-3.3,0.2-4.6c0-76,0-152,0.1-228c0-4.8-1.6-6-6.2-6c-27.4,0.2-54.8,0.3-82.2,0c-5.8-0.1-7.1,1.9-7.1,7.4
	c0.2,53,0.1,105.9,0.1,158.9v6.4h-12.2v-11.6l6.1-0.8V296.5l-6.1-0.6c-0.4-2.6-0.7-4.8-1-6.7c-0.6-0.3-0.7-0.5-0.9-0.5
	c-28.7-0.1-57.3-0.2-86-0.2c-1,0-2.7,0.3-3,1c-1.7,4-4.3,8.2-4.3,12.3c-0.4,32.6-0.2,65.1-0.2,97.7c0,1.6,0.2,3.3,0.3,5.7h6.3
	c16.6,0,33.2-0.1,49.7,0.1c1.7,0,3.5,1.5,5.2,2.3c-1.7,0.9-3.3,2.4-5,2.5c-16.6,0.2-33.2,0-49.7,0.2c-3.8,0-7.7,1-12,1.6V405
	c0-33.9,0-67.8,0-101.6c0-2.8-0.2-5.1-2.6-7.8c-2-2.3-2.2-9.7-0.3-11.3c3.7-3,2.8-6,2.9-9.2c0.2-9.7-0.1-19.5,0.1-29.2
	c0.1-4.3-1.2-5.9-5.7-5.9c-20.5,0.2-41,0.1-61.5,0.1c-1.5,0-3,0.8-4.4,1.2c-0.4,0.4-1.1,0.7-1.1,1.1c-0.1,12.7-0.2,25.3-0.2,38
	c0,0.9,0.3,1.7,0.9,2.4C1078.4,286.5,1078.6,293.7,1075.4,297.6L1075.4,297.6z M1253.7,282.8c4.6-26.1-11.8-43.4-35.4-42.8
	c-19.9,0.6-39.8,0.1-59.7,0.1h-6v42.7H1253.7z M459.9,321.4l-38.3-19.7c-3.4,6.8-6.7,13-9.6,19.4c-0.5,1,0.1,3.6,1,4.1
	c10.6,5.6,21.3,11,31.9,16.4c3.3-2.9,2.7-9.1,8.7-8.3c0.4,0,1.1-1.4,1.5-2.2C456.6,328.1,458,325.1,459.9,321.4z M453.4,283.9
	l-12.5,24.8l20.3,10.3c3.9-7.6,7.6-14.6,10.9-21.9c0.5-1.1-0.6-3.9-1.8-4.5C465.1,289.6,459.6,287,453.4,283.9z M1109.8,440
	c-10.9,0-21.1-0.1-31.3,0.1c-1.5,0-4,1.8-4.1,3c-0.5,4.1-0.2,8.4-0.2,12.5h35.7L1109.8,440z"/>
<path d="M1075.4,241.3c1.5-0.4,2.9-1.2,4.4-1.2c20.5-0.1,41,0.1,61.5-0.1c4.5-0.1,5.8,1.5,5.7,5.9c-0.2,9.7,0,19.5-0.1,29.2
	c0,3.2,0.8,6.2-2.9,9.2c-1.9,1.5-1.7,9,0.3,11.3c2.4,2.7,2.6,5,2.6,7.8c0.1,33.9,0.1,67.8,0,101.6v6.7c4.3-0.6,8.2-1.6,12-1.6
	c16.6-0.2,33.2,0,49.7-0.2c1.7,0,3.4-1.6,5-2.5c-1.7-0.8-3.4-2.3-5.2-2.3c-16.6-0.2-33.2-0.1-49.7-0.1h-6.3c-0.1-2.4-0.3-4-0.3-5.7
	c0-32.6-0.2-65.1,0.2-97.7c0-4.1,2.7-8.3,4.3-12.3c0.3-0.6,2-1,3-1c28.7,0,57.3,0.1,86,0.2c0.2,0,0.3,0.2,0.9,0.5
	c0.3,1.9,0.6,4.1,1,6.7l6.1,0.6v152.1l-6.1,0.8V461h12.2v-6.4c0-53,0.1-105.9-0.1-158.9c0-5.5,1.2-7.5,7.1-7.4
	c27.4,0.3,54.8,0.2,82.2,0c4.5,0,6.2,1.2,6.2,6c-0.1,76-0.2,152-0.1,228c0,1.3-0.1,2.5-0.2,4.6h-100.3v165.4l-6.7,0.7v11.8l6.4,0.7
	v49h-6.1c-173.8,0-347.6-0.1-521.5-0.2c-13.3,0-26.7-2.2-40-3.6c-16.5-1.7-32.9-3.2-49.3-5.3c-7.1-1-14-3.2-20.9-5.3
	c-18.8-5.7-37.4-12-56.3-17.3c-17.7-5-33.4-14.3-49.5-22.5c-130.9-66.9-261.8-133.8-392.6-200.9C84,482.2,50.3,464.9,16.5,447.6
	c-2-1-3.8-2.2-6.3-3.6c6.4-12.8,12.7-25.2,19.1-38l6.9,2.7l5.7-10.6l-6.4-4.1l43.3-85.4c7.3-14.3,14.6-28.5,21.7-42.9
	c2.4-4.9,4.4-8.9,10.5-3.9c2-3.9,3.7-7.3,5.5-11l-6.2-4.2c9.8-19.3,19.5-38.4,29.3-57.7l6.9,2.8c1.8-3.6,3.6-7,5.5-10.8l-6.3-4.1
	l68.7-135.5l7,2.9c1.8-3.6,3.6-7,5.5-10.9l-6.3-4c2.9-5.8,5.7-11.5,8.8-17.6l307.6,157.5c-2.8,5.5-4.3,12.1-8.5,15.5
	c-3,2.5-6.3,4.4-7.6,8.2c-0.5,1.5,0.1,3.4,0.1,5.1c0.1,1.2,0,2.4-0.4,3.5c-15.1,29.7-30.2,59.4-45.4,89.1c-0.1,0.1-0.3,0.2-1,0.7
	l-22.1-11l-13.8,26.9l-18-9l-13.7,26.8l153.3,78.5l1.2-2.1l-22.8-12l3.8-8.2l-4.1-2.6l-3.7,6l-75.9-38.8c0.6-20.7,13.8-36.1,22-53.4
	c13.6-28.6,28.4-56.6,42.9-84.8c1.3-2.6,1.7-6.1,6.3-5.9c2.5,0.1,5.1-9,3.9-12c-0.2-0.5-0.6-1.2-0.4-1.5c3.9-5,3.5-12.8,10.5-16.1
	c2.5-1.2,3.8-4.6,6.1-6.4c10.7-8.6,22.5-10.4,34.9-4.4c15.7,7.7,31.2,15.8,46.7,23.7c1.1,0.7,2.2,1.6,3.2,2.5
	c-6.8,13.4-13.5,26.7-20.2,40c-0.4,0.8-0.8,1.9-1.6,2.2c-7.1,3.6-8,5.7-6.8,12.7c0.3,1.7-1.1,3.7-2,5.5
	c-16.5,32.6-33,65.1-49.5,97.7c-0.4,0.8-0.7,1.7-1.2,2.8l4.4,2.2c4.2-8.1,8.2-15.9,12.4-24.1l5.8,2.3l2.5-4l-5.6-3.5
	c3.3-6.5,6.5-13,9.7-19.4c8.8-17.5,17.6-34.9,26.6-52.3c1-2,1-5.9,5.5-4.5c0.7,0.2,2.5-3.2,4.4-5.7l61,31.2l-42.6,83.9l-23.8-11.9
	l-2.6,4.5l28.6,14.6c15.1-29.7,30.1-59.1,45.1-88.6c4.4,2.3,7.7,4,11.1,5.6c4.8,2.3,9.4,3.9,8.4,11.4c-0.8,6.3,5.6,7.3,10.9,8.6
	L675.6,377l-8.8-3.9c-5,10.2-9.8,19.9-14.7,29.6c-3,6-6.2,11.9-9.1,18c-1.7,3.7-3.4,6.5-8.1,7.3c-2.7,0.5-4.8,4.1-7.8,6.8l-17.8-8.8
	l-1,2.1c5.1,2.7,10.3,5.2,15.2,8.1c2.6,1.6,5,3.5,7.1,5.8c3.4,3.6,8,4.6,12.1,2.2c3.9-2.3,5.2-7,3.5-11.7c-0.5-1.6-1.2-3.7-0.6-5
	c8-16.4,16.3-32.6,24.7-49.3l6.3,2.4c6-11.7,11.9-23.4,17.9-35.2c8.4-16.6,16.8-33.3,25.3-49.9c2-3.8,2.8-7.4,0.8-11.7
	c-0.9-1.9,0.2-4.8,0.4-7.5c-1.8-1.4-3.6-2.3-5.6,1.2c-2.1,3.7-5.6,2.5-8.7,1c-19.5-10-39.1-20-58.6-29.9l-30.4-15.5l22.1-43.8
	l95.7,49l-4.6,9.5l3.7,2.4c0.6-0.5,1.1-0.7,1.2-0.9c2.2-9.2,8.9-9.3,16.6-9.3c102.9,0.2,205.7,0.2,308.5,0.1c7.7,0,7.7,0,7.7,7.6
	c0,8.6,0.2,17.2-0.1,25.8c-0.1,3.6,1.2,7.2-2.7,10.9c-2.1,2-2.6,9,1.6,13l0.1-0.1c-1.5-0.6-4.2-1.2-4.2-1.8c0-4.5-1-10.1,1.3-13.3
	c1.5-2.2,2.4-3.9,2.5-6.3c0.1-7.9,0-15.7,0-23.6c0-3.4,0-6.9,0-10.8h-8.2c-101.7,0-203.5,0.1-305.2-0.3c-8.7,0-14.7,1.3-17.3,10.3
	c-0.1,0.3-0.6,0.4-1.1,0.7l-6.7-3.6c1.7-3.4,3.1-6.4,4.7-9.7l-92.8-47.5c-7,13.9-13.7,27.2-20.5,40.6c2,1.1,3.5,1.9,5,2.6
	c26.2,13.3,52.3,26.7,78.4,40.1c8.2,4.2,8.2,4.3,14.1-2.5l5.7,3.1c-0.3,3.4-1.2,6.1-0.5,8.3c1.5,4.5,0.9,8.3-1.1,12.3
	c-11.2,21.9-22.3,43.8-33.4,65.8c-3.5,7-7.1,13.9-10.7,20.9l-6.3-2.4c-7.5,14.9-15,29.4-22.2,44.2c-1,2.6-1.3,5.4-0.6,8.1
	c1.2,5.5-0.4,10.4-5,13s-10.4,1.4-14.1-2.8c-1.7-1.9-3.6-3.6-5.8-4.9c-4.3-2.5-8.8-4.8-13.4-6.9c-4.2-1.8-4.3-3.9-1-7.2l16.8,8.4
	c4.2-2.7,7.5-4.7,10.7-6.9c1.5-1,3.2-2.2,4-3.8c7.2-13.9,14.3-27.9,21.3-41.9c1.4-2.9,2.1-6.2,3.1-9.6l9.8,4.6l37.8-74.5
	c-9.2-2.9-11.7-6.9-10.2-16.2l-16.9-8.5l-45,88.6L609,348l4-7.4l23.9,11.9l41.1-80.9l-58.1-29.8c-1.6,2.3-3.3,5.8-4.1,5.6
	c-5.3-1.3-5.1,3.3-6.4,5.8c-5,9.4-9.7,18.9-14.5,28.4c-6.5,12.9-13.1,25.9-19.7,39c1.9,1.4,3.5,2.5,5.4,3.9l-3.7,7l-5.8-2.6
	c-4.2,8.1-8.3,16-12.5,24.3l-7.4-3.9c1.1-2.2,1.8-3.9,2.6-5.5c12.3-24.3,25.1-48.3,36.6-72.9c4.8-10.3,14-18.9,13-32.1
	c-0.3-3.4,1.5-10.9,8.8-11.1c0.5,0,1-1,1.4-1.7c6.4-12.6,12.7-25.2,19.5-38.5c-18-8.9-35.5-17.7-53.2-26.1
	c-6.5-3.1-14.2-2.8-20.4,0.8c-6.4,3.7-12.3,8.3-17.5,13.6c-3.1,3.1-7.1,9.4-5.9,12c3,6.5-2.5,9.3-3.6,13.8c-0.2,1-1.5,1.8-2.5,2.4
	c-1.2,0.9-3.2,1.2-3.7,2.3c-21.5,42.1-42.9,84.2-64.3,126.3c-0.5,1-1.3,2.1-1.2,3c0.2,2.8,0.8,5.6,1.4,10l71.4,36.5
	c4.5-6.5,4.6-6.5,10.8-1.3l-3.7,7.8l23,12l-3,5l-156.2-80l15.1-29.7l18,9.1c4.7-9.1,9.3-18,13.9-27l22.7,11.5
	c14.9-29.4,29.7-58.5,44.3-87.6c0.5-0.9,0.3-2.3,0.3-3.4c0-1.6-0.9-3.7-0.2-4.7c2.7-3.6,2.5-8.8,8.7-10.8c3.4-1.1,4.8-8.3,7.4-13.2
	L230.2,14.1l-7.3,14.6l6.2,4l-7,13.5l-6.9-2.7l-67.2,132.5l6.3,4.1c-2.4,4.7-4.7,9.2-7.1,13.8l-6.8-3.1l-28,55.2l6.4,4l-7,13.8
	l-6.8-3.2L37.8,393.4l6.4,4l-7,13.8l-6.9-2.7c-6,11.9-11.8,23.4-17.6,35.1c1.4,0.8,2.2,1.3,3,1.7l235.7,120.7
	c76.8,39.3,153.4,78.8,230.3,117.8c31.8,16.1,62.5,34.8,97.7,43.6c18.7,4.7,36.7,12.1,55.5,16.2c15.2,3.3,31,3.8,46.5,5.3
	c15.7,1.5,31.5,3.8,47.2,3.8c172.5,0.3,345,0.3,517.6,0.2h6.6v-43.5c-3.2-2.2-6.7-3.3-7.1-5.1c-0.9-4-0.3-8.4-0.3-12.8l7.8-0.9
	V525.2h99.6V290.9h-91.1v7.7c0,51.3,0,102.6,0,153.9c0,11.3-2.7,13.5-13.7,11c-0.9-0.2-2.4-1.1-2.4-1.7c-0.2-4.5-0.5-9,0.3-13.4
	c0.2-1.1,4.4-1.5,6.5-2.1c3.3-16.2-1.3-32.3,0.3-48.6c1.7-16.5,0.4-33.3,0.4-49.9v-49.7l-7.5-0.8c-0.2-2.3-0.4-4.2-0.6-6.1h-87.1
	c-0.5,2.3-0.5,5.7-1.4,6c-3.8,1.2-2.7,3.9-2.7,6.3c-0.1,31.5-0.1,62.9,0,94.3v5.8h61.2v9h-70v-6.2c0-34.2,0-68.5-0.1-102.8
	c0-2.2-1.2-4.3-2.2-6.4c-1.9-4.2-2.2-10.7-0.1-14.7c1.3-2.1,2-4.5,2.3-6.9c0.2-4.7,0.1-9.4,0.1-14v-19.8c-4.6,0-8.3,0-12,0
	L1075.4,241.3L1075.4,241.3z"/>
<path d="M1067.5,297.5c0.4,0.7,1.2,1.5,1.2,2.2c0.1,29,0,58,0,87.7h-24.2V412c6.2,0,12.3,0.3,18.3-0.1c4.8-0.3,6.1,1.6,6,6.2
	c-0.3,11.8-0.3,23.6,0,35.4c0.1,4.6-1.6,5.9-5.8,5.7c-5-0.3-10-0.1-15.7-0.1c-0.3-4.9-0.7-9.6-1-14.2h-1.4V461h110.4v-11.7h-11.8
	c-0.3,2.1-0.6,4-1,6.4h-29.4v-18.1h-39.1V431c0-42.7,0-85.3,0.1-128c0-1.8,0.8-3.7,1.2-5.5l-0.1-0.1v138.5h39.5v18.5h26.1
	c0.3-2.4,0.5-4.6,0.7-7.1h15.6c-0.2,3.2-0.1,6.5,0.1,9.7c0.6,5-1.1,6.7-6.4,6.7c-27-0.3-54-0.1-81-0.1h-27.3
	c0-6.4-0.1-11.9,0.1-17.5c0.1-1.2,1.7-2.2,2.5-3.4c1.1,1.1,2.9,2.2,3.1,3.4c0.3,3.5,0.3,7,0.1,10.5h18.3v-42.4
	c-6.8,0-13.3,0.2-19.7-0.1c-1.5-0.1-4.3-1.7-4.3-2.7c-0.3-8.3-0.2-16.6-0.2-25.5h24.6v-6.6c0-21.7,0-43.4,0-65.1
	C1067.1,308.6,1067.4,303,1067.5,297.5L1067.5,297.5z"/>
<path d="M1253.7,282.7h-101.1v-42.7h6c19.9,0,39.8,0.4,59.7-0.1C1241.8,239.3,1258.2,256.6,1253.7,282.7z M1253.8,281.4
	c-1-6.6-1-12.6-2.8-18.2c-4.6-14.6-15.4-21.4-32.5-21.5c-19.7-0.1-39.5,0-59.2,0c-1.8,0-3.5,0.2-5.2,0.3v39.4L1253.8,281.4z"/>
<path d="M459.9,321.4c-1.9,3.7-3.3,6.7-4.8,9.7c-0.4,0.8-1.1,2.3-1.5,2.2c-6-0.8-5.4,5.5-8.7,8.3c-10.6-5.4-21.3-10.8-31.9-16.4
	c-0.8-0.5-1.4-3-1-4.1c3-6.4,6.2-12.6,9.6-19.4L459.9,321.4z M458,322.4l-35.6-18.3l-9.6,19.2l31.5,16.1c1.8-3,3.4-7.7,4.9-7.7
	C456.2,332,454.5,325.6,458,322.4L458,322.4z"/>
<path d="M453.4,283.9c6.1,3.1,11.6,5.7,16.9,8.7c1.1,0.7,2.3,3.5,1.8,4.5c-3.3,7.2-7,14.3-10.9,21.9l-20.3-10.4L453.4,283.9z
	 M454.2,286.2c-3.7,7.2-7.2,14.3-11,21.7l17.3,8.7l10.8-21.6L454.2,286.2z"/>
<path d="M1109.8,440v15.6h-35.7c0-4-0.3-8.3,0.2-12.5c0.2-1.2,2.7-3,4.1-3C1088.7,439.9,1099,440,1109.8,440z M1108.6,442.5h-32.7
	v11.7h32.7V442.5z"/>
<path d="M1067.6,391.7c0.3,5.3,0.8,10.5,0.8,15.8c0,0.7-2.1,2.1-3.3,2.1c-5,0.3-10.1,0.3-15.1,0c-1.5-0.5-2.7-1.7-3.2-3.2
	c-0.4-5-0.2-10-0.2-16.4l21,1.9H1049v15.2h17.8C1067.1,401.6,1067.3,396.7,1067.6,391.7z"/>
<path d="M1075.4,297.5c3.3-3.8,3-11-0.3-14.8c-0.5-0.7-0.9-1.5-0.9-2.4c0-12.7,0.1-25.3,0.2-38c0-0.4,0.7-0.7,1.1-1.1l-0.1-0.1
	c0,10.4-0.1,20.9,0.2,31.4c0.1,3.5-2.3,8.3,3.5,10c0.4,0.1,0.5,1.7,0.6,2.6c0.1,2.8-0.1,5.6,0.1,8.4c0.2,3.3-1.3,4.4-4.3,3.8
	L1075.4,297.5z"/>
<path class="st0" d="M1075.3,297.4c3.1,0.6,4.6-0.4,4.3-3.8c-0.2-2.8,0-5.6-0.1-8.4c0-0.9-0.1-2.5-0.6-2.6c-5.8-1.7-3.4-6.5-3.5-10
	c-0.3-10.4-0.2-20.9-0.2-31.4l57.5,0.3c3.7,0,7.4,0,12,0v19.8c0,4.7,0.2,9.4-0.1,14c-0.2,2.4-1,4.8-2.3,6.9
	c-2.1,4-1.8,10.5,0.1,14.7c0.9,2,2.2,4.1,2.2,6.4c0.1,34.3,0.1,68.5,0.1,102.8v6.2h70v-9h-61.2v-5.8c0-31.4,0-62.9,0-94.3
	c0-2.3-1.1-5.1,2.7-6.3c0.9-0.3,0.9-3.6,1.4-6h87.1c0.2,2,0.3,3.8,0.6,6.1l7.5,0.8v49.7c0,16.7,1.3,33.5-0.4,49.9
	c-1.7,16.3,3,32.4-0.3,48.6c-2.1,0.6-6.3,1-6.5,2.1c-0.8,4.3-0.5,8.9-0.3,13.4c0,0.6,1.5,1.5,2.4,1.7c11,2.5,13.7,0.3,13.7-11
	c0-51.3,0-102.6,0-153.9v-7.7h91.1v234.4H1253v165.2l-7.8,0.9c0,4.4-0.6,8.8,0.3,12.8c0.4,1.8,3.9,3,7.1,5.1v43.5h-6.6
	c-172.5,0-345-0.1-517.6-0.2c-15.8,0-31.5-2.3-47.2-3.8c-15.5-1.5-31.3-1.9-46.5-5.3c-18.7-4.2-36.7-11.5-55.4-16.2
	c-35.2-8.8-65.9-27.5-97.7-43.6c-76.9-39-153.6-78.5-230.3-117.8L15.6,445.2c-0.8-0.4-1.6-0.9-3-1.7c5.8-11.6,11.6-23.2,17.6-35.1
	l6.9,2.7l7-13.8l-6.4-4L105,260.5l6.8,3.2l7-13.8l-6.4-4l28-55.2l6.8,3.1c2.4-4.6,4.7-9.1,7.1-13.8l-6.3-4.1l67.3-132.4l6.9,2.7
	l7-13.5l-6.2-4l7.3-14.6L534.8,170c-2.6,4.9-4,12.1-7.4,13.2c-6.2,2-6.1,7.1-8.7,10.8c-0.7,1,0.2,3.1,0.2,4.7c0,1.1,0.2,2.4-0.3,3.4
	c-14.6,29.1-29.4,58.2-44.3,87.5L451.6,278c-4.7,9-9.3,17.9-13.9,27l-18-9.1l-15.1,29.8l156.2,80l3-5l-23-12l3.7-7.8
	c-6.1-5.2-6.3-5.2-10.8,1.3l-71.4-36.5c-0.7-4.4-1.2-7.2-1.4-10c-0.1-1,0.7-2.1,1.2-3c21.4-42.1,42.8-84.2,64.2-126.3
	c0.6-1.1,2.5-1.4,3.7-2.3c1-0.7,2.3-1.5,2.5-2.4c1-4.5,6.5-7.3,3.6-13.8c-1.2-2.7,2.8-8.9,5.9-12c5.2-5.3,11-9.9,17.4-13.6
	c6.3-3.6,13.9-3.9,20.4-0.8c17.7,8.4,35.2,17.2,53.2,26.1c-6.7,13.3-13.1,25.9-19.5,38.5c-0.3,0.6-0.9,1.6-1.4,1.7
	c-7.3,0.2-9.1,7.8-8.8,11.1c1,13.3-8.1,21.8-13,32.1c-11.5,24.6-24.3,48.6-36.6,72.9c-0.8,1.6-1.6,3.3-2.6,5.5l7.4,3.9
	c4.3-8.3,8.3-16.2,12.5-24.3l5.8,2.6l3.7-7c-1.9-1.4-3.5-2.5-5.4-3.9c6.6-13.1,13.2-26,19.7-39c4.8-9.5,9.5-19,14.5-28.4
	c1.3-2.4,1.1-7,6.4-5.8c0.8,0.2,2.5-3.3,4.1-5.6l58.2,29.8l-41.1,80.9L613,340.6l-4,7.4l31.5,16.2l45-88.6l16.9,8.5
	c-1.5,9.3,1,13.3,10.2,16.2l-37.8,74.6l-9.8-4.6c-1.1,3.3-1.7,6.6-3.1,9.6c-7,14-14,28-21.3,41.9c-0.8,1.5-2.5,2.7-4,3.8
	c-3.2,2.2-6.5,4.2-10.7,6.9l-16.7-8.3c-3.3,3.3-3.2,5.4,1,7.2c4.6,2,9,4.3,13.4,6.9c2.2,1.3,4.1,3,5.8,4.9c3.7,4.2,9.3,5.4,14.1,2.8
	s6.2-7.5,5-13c-0.6-2.7-0.4-5.5,0.6-8.1c7.1-14.8,14.7-29.3,22.2-44.2l6.3,2.4c3.6-7,7.1-13.9,10.7-20.9
	c11.1-21.9,22.2-43.9,33.4-65.8c2-4,2.7-7.8,1.1-12.3c-0.7-2.1,0.2-4.8,0.5-8.3l-5.7-3.1c-5.8,6.8-5.8,6.8-14.1,2.5
	c-26.1-13.4-52.3-26.8-78.4-40.1c-1.5-0.8-2.9-1.5-5-2.6c6.8-13.4,13.5-26.7,20.5-40.6l92.8,47.5c-1.6,3.4-3.1,6.3-4.7,9.7l6.7,3.6
	c0.5-0.3,1.1-0.4,1.1-0.7c2.5-8.9,8.6-10.3,17.3-10.3c101.7,0.4,203.5,0.2,305.2,0.3h8.2c0,3.8,0,7.3,0,10.8c0,7.9,0.1,15.7,0,23.6
	c0,2.4-1,4.1-2.5,6.3c-2.2,3.2-1.3,8.8-1.3,13.3c0,0.6,2.7,1.2,4.2,1.8c-0.2,5.6-0.4,11.2-0.4,16.8c-0.1,21.7,0,43.4,0,65.1v6.6
	h-24.6c0,8.9-0.2,17.2,0.2,25.5c0,1,2.8,2.6,4.3,2.7c6.4,0.3,12.9,0.1,19.7,0.1v42.4h-18.3c0.2-3.5,0.1-7-0.1-10.5
	c-0.2-1.3-2-2.3-3.1-3.4c-0.9,1.1-2.5,2.2-2.5,3.4c-0.3,5.5-0.1,11.1-0.1,17.5h27.3c27,0,54-0.1,81,0.1c5.3,0,6.9-1.6,6.4-6.7
	c-0.2-3.2-0.2-6.5-0.1-9.7h-15.6c-0.3,2.5-0.5,4.7-0.7,7.1h-26.1v-18.5h-39.5L1075.3,297.4z M146.4,467.3c4.4,2.3,7.9,4.3,11.6,5.9
	c1,0.4,3.4-0.2,3.9-1c2.2-3.7,4-7.8,6.1-11.9l-14.3-7.2L146.4,467.3z M1156.8,690.7c-3.9-0.2-7.8-0.1-11.7,0.1
	c-1.3,0.2-3.5,1.7-3.6,2.8c-0.4,4.3-0.2,8.8-0.2,13.3h15.4L1156.8,690.7z M528,642.5c-5.9-0.1-10.7,5-10.7,11.3
	c-0.1,5.8,4.5,10.7,10.3,10.9c6.1,0.1,11-4.8,11.1-10.8C538.8,647.8,533.8,642.6,528,642.5z M353.3,555.1l-14.3-7.3l-7.3,14.3
	l14.3,7.3L353.3,555.1z M352.9,95.5l-14.3-7.2l-7.2,14.4l14.3,7.3C348.1,105,350.4,100.6,352.9,95.5L352.9,95.5z M263.5,236.5
	l-6.8,13.6l13.8,7c9.1-13.2,8.5-15.3-5.9-20.9C264.5,236.3,264.3,236.4,263.5,236.5L263.5,236.5z M235.4,327.1l7.4-14.3l-14.2-7.2
	l-7.3,14.2L235.4,327.1z"/>
<path class="st0" d="M1253.8,281.4H1154V242c1.7-0.1,3.4-0.3,5.2-0.3c19.7,0,39.5-0.1,59.2,0c17.1,0.1,27.9,6.9,32.5,21.5
	C1252.7,268.8,1252.8,274.8,1253.8,281.4z"/>
<path class="st0" d="M458,322.4c-3.5,3.2-1.8,9.6-8.8,9.3c-1.4,0-3,4.6-4.9,7.7l-31.5-16.1l9.6-19.2L458,322.4z"/>
<path class="st0" d="M454.2,286.2l17.1,8.8l-10.8,21.6l-17.3-8.7C447,300.5,450.5,293.5,454.2,286.2z"/>
<path class="st0" d="M1108.6,442.6v11.7h-32.7v-11.7H1108.6z"/>
<path class="st0" d="M1067.6,391.7c-0.3,5-0.5,9.9-0.8,15.4H1049v-15.2h18.8L1067.6,391.7z"/>
<path d="M146.4,467.3l7.3-14.3l14.3,7.2c-2.1,4.2-3.8,8.2-6.1,11.9c-0.5,0.9-2.9,1.5-3.9,1C154.3,471.6,150.8,469.6,146.4,467.3z
	 M160,472.3l5.7-11.3l-11.3-5.7c-2.1,4.1-3.8,7.6-5.7,11.3L160,472.3z"/>
<path d="M1156.8,690.7V707h-15.4c0-4.6-0.3-9,0.2-13.3c0.1-1.1,2.2-2.7,3.6-2.8C1148.9,690.6,1152.8,690.5,1156.8,690.7z
	 M1155.6,693.2h-12v11.6h12V693.2z"/>
<path d="M528,642.5c5.8,0.1,10.8,5.3,10.8,11.3c-0.1,6.1-5,10.9-11.1,10.8c-5.8-0.3-10.4-5.1-10.3-10.9
	C517.3,647.5,522.1,642.4,528,642.5z M528.1,644.5c-5-0.1-9.2,3.8-9.3,8.8c0,0,0,0.1,0,0.1c-0.2,4.9,3.7,9,8.6,9.1
	c0.2,0,0.3,0,0.5,0c5,0.2,9.2-3.6,9.4-8.6c0-0.1,0-0.2,0-0.3C537.2,648.7,533.1,644.6,528.1,644.5L528.1,644.5z"/>
<path d="M353.3,555.1l-7.3,14.3l-14.3-7.3l7.3-14.3L353.3,555.1z M351.1,555.8l-11.4-5.7c-2,4-3.7,7.4-5.6,11.3l11.3,5.7
	L351.1,555.8z"/>
<path d="M352.9,95.5c-2.5,5-4.8,9.4-7.3,14.4l-14.3-7.3l7.2-14.4L352.9,95.5z M333.7,101.8l11.3,5.9c2-4,3.7-7.6,5.6-11.4l-11.2-5.7
	L333.7,101.8z"/>
<path d="M263.5,236.6c0.7-0.2,0.9-0.3,1-0.2c14.4,5.6,15,7.6,5.9,20.8l-13.8-7L263.5,236.6z M275.9,243.8l-11.4-5.8l-5.6,11.3
	l11.2,5.7C272.1,251.1,274,247.6,275.9,243.8z"/>
<path d="M235.4,327.2l-14.1-7.3l7.3-14.2l14.2,7.2L235.4,327.2z M234.6,325l5.8-11.3l-11.2-5.8l-5.8,11.3L234.6,325z"/>
<path class="st0" d="M160,472.3l-11.3-5.6c1.9-3.7,3.6-7.2,5.7-11.3l11.3,5.7L160,472.3z"/>
<path class="st0" d="M1155.6,693.2v11.6h-12v-11.6H1155.6z"/>
<path class="st0" d="M528,644.5c5,0.1,9.1,4.2,9.1,9.2c-0.1,5-4.2,8.9-9.2,8.8c-0.1,0-0.2,0-0.3,0c-4.9,0.1-8.9-3.7-9.1-8.6
	c0-0.2,0-0.3,0-0.5C518.8,648.5,522.9,644.5,528,644.5C528,644.5,528,644.5,528,644.5z"/>
<path class="st0" d="M351.1,555.8l-5.7,11.4l-11.3-5.7c1.9-3.9,3.6-7.3,5.6-11.3L351.1,555.8z"/>
<path class="st0" d="M333.6,101.8l5.7-11.2l11.2,5.7c-1.9,3.9-3.7,7.5-5.6,11.4L333.6,101.8z"/>
<path class="st0" d="M275.9,243.8c-2,3.8-3.8,7.3-5.8,11.3l-11.2-5.7l5.6-11.4L275.9,243.8z"/>
<path class="st0" d="M234.6,325l-11.2-5.8l5.8-11.3l11.2,5.8L234.6,325z"/>
</svg>
